<svg xmlns="http://www.w3.org/2000/svg" viewBox="0 0 195.24 30.76"><defs><style>.cls-1{fill:#231815;}.cls-2{fill:#595757;}.cls-3{fill:#fff;}.cls-4{fill:#f8b62d;}</style></defs><g id="レイヤー_2" data-name="レイヤー 2"><g id="レイヤー_1-2" data-name="レイヤー 1"><path class="cls-1" d="M6.2,25.5A2,2,0,0,1,4,23.23V16.09l-.61.36c-.27.14-.53.28-.8.4a1.78,1.78,0,0,1-.66.17.76.76,0,0,1-.69-.3A1.31,1.31,0,0,1,1,16a.85.85,0,0,1,.4-.72,5.14,5.14,0,0,1,.72-.45A26,26,0,0,0,5,13.18a22.17,22.17,0,0,0,2.61-2H2.37A1.5,1.5,0,0,1,1.51,11a.86.86,0,0,1-.35-.79.86.86,0,0,1,.35-.79,1.5,1.5,0,0,1,.86-.22H6.61v-3H3.35a1.47,1.47,0,0,1-.85-.22.89.89,0,0,1-.32-.79.89.89,0,0,1,.32-.79,1.47,1.47,0,0,1,.85-.22H6.61c0-.24,0-.53-.05-.88a6,6,0,0,1,0-1,1.67,1.67,0,0,1,.3-.86A.9.9,0,0,1,7.67,1a.93.93,0,0,1,.82.34,1.67,1.67,0,0,1,.3.86,6,6,0,0,1,0,1c0,.35,0,.64,0,.88h2.16a1.34,1.34,0,0,1,.83.23.89.89,0,0,1,.31.78.92.92,0,0,1-.31.78,1.41,1.41,0,0,1-.83.23H8.77v3h.87a23.27,23.27,0,0,0,2-2.52c.62-.87,1.2-1.78,1.75-2.73a3.07,3.07,0,0,1,.47-.62A.93.93,0,0,1,14.62,3a.92.92,0,0,1,1.06,1,2.4,2.4,0,0,1-.45,1.1,16.64,16.64,0,0,1-1.09,1.55c-.43.54-.84,1-1.22,1.49l-.82,1H15c.73,0,1.09.34,1.09,1s-.36,1-1.09,1H10.19c-.9.86-1.83,1.69-2.82,2.49h5a2,2,0,0,1,2.27,2.27v7.3a2,2,0,0,1-2.27,2.27Zm-.2-7h6.48V16.45a.76.76,0,0,0-.87-.85H6.66a.58.58,0,0,0-.66.66Zm.85,5h4.76a.77.77,0,0,0,.87-.88V20.36H6v2.32A.77.77,0,0,0,6.85,23.56ZM18,26.76a1,1,0,0,1-.9-.4,1.81,1.81,0,0,1-.25-1V4.55A2,2,0,0,1,19.1,2.31H24a5.3,5.3,0,0,1,1.19.14,2,2,0,0,1,1,.52,1.53,1.53,0,0,1,.38,1.12,3.9,3.9,0,0,1-.33,1.33c-.22.55-.48,1.16-.8,1.83s-.64,1.31-1,1.94-.59,1.18-.81,1.65a2.91,2.91,0,0,0-.32,1c0,.14.17.41.53.8s.76.89,1.22,1.49a11.49,11.49,0,0,1,1.21,2.07,6,6,0,0,1,.54,2.56,4.72,4.72,0,0,1-1.33,3.69,5.56,5.56,0,0,1-3.79,1.17,1.2,1.2,0,0,1-1.37-1.34.94.94,0,0,1,.41-.9,2.72,2.72,0,0,1,1-.27,7.22,7.22,0,0,0,1.2-.22,1.93,1.93,0,0,0,1-.68,2.75,2.75,0,0,0,.41-1.67,5.23,5.23,0,0,0-.5-2.38,7.45,7.45,0,0,0-1.19-1.7c-.46-.47-.86-.89-1.19-1.25A1.61,1.61,0,0,1,21,12.13a3.06,3.06,0,0,1,.29-1c.19-.46.43-1,.71-1.53s.56-1.14.83-1.72.51-1.13.7-1.64a3.87,3.87,0,0,0,.29-1.26c0-.19-.07-.3-.19-.34a1.14,1.14,0,0,0-.41-.07H20.25a1,1,0,0,0-1.09,1.09V25.36a1.9,1.9,0,0,1-.25,1A1,1,0,0,1,18,26.76Z"/><path class="cls-1" d="M58.26,26.07A1.12,1.12,0,0,1,57,24.79a1.66,1.66,0,0,1,.15-.67c.1-.23.2-.43.29-.62a13.25,13.25,0,0,0,1-2.95A30.72,30.72,0,0,0,59,17.06c.12-1.21.2-2.39.23-3.54s.06-2.19.06-3.14c0-.69,0-1.4,0-2.11s0-1.41,0-2.1a2.39,2.39,0,0,1,.71-1.93,2.91,2.91,0,0,1,2-.62h7.54c0-.4,0-.8,0-1.2a1.7,1.7,0,0,1,.22-1c.16-.27.52-.41,1.09-.41s.93.14,1.09.41a1.7,1.7,0,0,1,.22,1q0,.6,0,1.2h9.16a1.75,1.75,0,0,1,1,.24.91.91,0,0,1,.38.86.92.92,0,0,1-.38.86,1.75,1.75,0,0,1-1,.23H62.77A1,1,0,0,0,61.65,7V9c0,.9,0,1.94,0,3.12s-.08,2.4-.15,3.69-.19,2.53-.33,3.74a27.28,27.28,0,0,1-.59,3.3,8.2,8.2,0,0,1-.93,2.35A1.6,1.6,0,0,1,58.26,26.07Zm8,.61a.92.92,0,0,1-.86-.39,1.83,1.83,0,0,1-.23-.95V15.57c-.07.17-.2.41-.38.74s-.39.67-.62,1a5.65,5.65,0,0,1-.71.9,1,1,0,0,1-.7.37.83.83,0,0,1-.74-.33,1.43,1.43,0,0,1-.21-.79,1.25,1.25,0,0,1,.17-.64,4.18,4.18,0,0,1,.37-.56,20.81,20.81,0,0,0,2.24-3.91,39.4,39.4,0,0,0,1.56-4.24l.28-.76a2.36,2.36,0,0,1,.45-.73.9.9,0,0,1,.69-.32,1.39,1.39,0,0,1,.88.25,1,1,0,0,1,.33.82,2.58,2.58,0,0,1-.17.76c-.11.33-.24.69-.41,1.07s-.32.74-.47,1.08-.27.59-.35.75V25.34a1.74,1.74,0,0,1-.24.95A1,1,0,0,1,66.24,26.68Zm8.26-.17a1.45,1.45,0,0,1-1-.29,1.11,1.11,0,0,1-.35-.91c0-.82.43-1.23,1.31-1.23H76a1.38,1.38,0,0,0,.78-.22.84.84,0,0,0,.31-.74V13.2h-7.3a1.55,1.55,0,0,1-.9-.25,1,1,0,0,1-.36-.85,1,1,0,0,1,.36-.86,1.54,1.54,0,0,1,.9-.23h7.3V7.92a1.89,1.89,0,0,1,.25-1,1,1,0,0,1,.93-.39,1,1,0,0,1,.9.41,2,2,0,0,1,.24,1V11h2c.78,0,1.17.36,1.17,1.09s-.39,1.1-1.17,1.1h-2V23.34a3.67,3.67,0,0,1-.67,2.3,2.6,2.6,0,0,1-2.2.87Zm-1.56-5.93a1.45,1.45,0,0,1-.56-.12.9.9,0,0,1-.42-.37l-1.59-2.66c-.09-.16-.21-.35-.35-.57a1.08,1.08,0,0,1-.22-.6.93.93,0,0,1,.34-.82,1.39,1.39,0,0,1,.86-.25c.22,0,.5.18.85.53a11.41,11.41,0,0,1,1,1.29c.34.5.64,1,.89,1.44a2.51,2.51,0,0,1,.36,1C74.14,20.2,73.74,20.58,72.94,20.58Z"/><path class="cls-1" d="M86.18,26.1a1.08,1.08,0,0,1-.89-.34,1.43,1.43,0,0,1-.29-.94,1.1,1.1,0,0,1,.46-.91,3.76,3.76,0,0,1,1-.5l1-.4A13.3,13.3,0,0,0,89,22.27c.5-.27,1-.56,1.49-.87.13-.09.32-.22.58-.37a5.86,5.86,0,0,1,.78-.42,1.56,1.56,0,0,1,.61-.2c.82,0,1.23.4,1.23,1.18,0,.25-.21.57-.64,1a12.3,12.3,0,0,1-1.64,1.19c-.67.41-1.35.79-2.06,1.14s-1.36.65-1.95.88A4,4,0,0,1,86.18,26.1Zm12,.66a1.08,1.08,0,0,1-1-.4,1.66,1.66,0,0,1-.28-1v-6H88.55a2,2,0,0,1-2.24-2.19v-12a1.94,1.94,0,0,1,.25-1,1,1,0,0,1,.93-.42,1,1,0,0,1,.9.42,2,2,0,0,1,.25,1v11.1a1,1,0,0,0,.3.79,1.18,1.18,0,0,0,.82.27H109.5a1.46,1.46,0,0,1,.86.24.88.88,0,0,1,.34.8.87.87,0,0,1-.34.8,1.61,1.61,0,0,1-.86.22H99.44v6a1.66,1.66,0,0,1-.28,1A1.06,1.06,0,0,1,98.23,26.76ZM94,15.36a3.39,3.39,0,0,1-2-.5A2.11,2.11,0,0,1,91.32,13V4.25a2.07,2.07,0,0,1,2.32-2.37h12.2a3.67,3.67,0,0,1,2,.46,2.06,2.06,0,0,1,.72,1.86v8.48a3.46,3.46,0,0,1-.48,2,2.09,2.09,0,0,1-1.87.72Zm-.47-9.6h12.69V4.47a.68.68,0,0,0-.77-.76H94.3a.68.68,0,0,0-.77.76Zm0,3.83h12.69v-2H93.53Zm.77,3.93h11.15a.68.68,0,0,0,.77-.76V11.39H93.53v1.37A.68.68,0,0,0,94.3,13.52Zm15.2,12.42a3.74,3.74,0,0,1-1.18-.33c-.54-.22-1.14-.5-1.8-.83a21.73,21.73,0,0,1-1.89-1.1,11.27,11.27,0,0,1-1.49-1.13c-.39-.37-.58-.67-.58-.91a1,1,0,0,1,.35-.88,1.51,1.51,0,0,1,.93-.26,1.24,1.24,0,0,1,.53.12,2.32,2.32,0,0,1,.45.26c.79.45,1.56.88,2.33,1.27s1.57.75,2.41,1.08a3.63,3.63,0,0,1,.83.49,1,1,0,0,1,.37.85,1.44,1.44,0,0,1-.38.92A1.14,1.14,0,0,1,109.5,25.94Z"/><path class="cls-1" d="M117.35,25.72a1.15,1.15,0,0,1-1.29-1.31.92.92,0,0,1,.5-.89,3.42,3.42,0,0,1,1-.37c.73-.18,1.44-.37,2.14-.56a15.87,15.87,0,0,0,2.1-.73A19.87,19.87,0,0,0,127,18.8a19.55,19.55,0,0,0,4-4.43,17.72,17.72,0,0,0,2.39-5.47.87.87,0,0,0,.07-.28c0-.16,0-.25,0-.26a.6.6,0,0,0-.3-.61,1.65,1.65,0,0,0-.68-.13h-8.31q-.36.57-1,1.5c-.42.62-.89,1.28-1.42,2A22.53,22.53,0,0,1,120.08,13a10.94,10.94,0,0,1-1.72,1.51,2.85,2.85,0,0,1-1.56.59,1.09,1.09,0,0,1-1.23-1.23,1,1,0,0,1,.34-.77c.23-.22.44-.4.62-.55a22.55,22.55,0,0,0,3-2.8,18.66,18.66,0,0,0,2.15-3,33.33,33.33,0,0,0,1.8-3.68,5.16,5.16,0,0,1,.55-1,1.13,1.13,0,0,1,1-.45,1.34,1.34,0,0,1,.88.27,1.05,1.05,0,0,1,.32.85,2.35,2.35,0,0,1-.16.74c-.11.31-.23.62-.35.93s-.23.55-.31.71h8.67a2.14,2.14,0,0,1,1.57.63,2.1,2.1,0,0,1,.65,1.56A8,8,0,0,1,136,9.61a17.88,17.88,0,0,1-.84,2.25c-.33.72-.66,1.4-1,2a25.48,25.48,0,0,1-4.87,6.32,20.28,20.28,0,0,1-6.81,4.12l-1.55.56c-.64.23-1.28.43-1.92.59A6.4,6.4,0,0,1,117.35,25.72Z"/><path class="cls-1" d="M155.52,26.21a1.09,1.09,0,0,1-1-.48,2.31,2.31,0,0,1-.27-1.16V12.29c-.39.26-.94.61-1.66,1.06s-1.51.91-2.39,1.4-1.75,1-2.64,1.41-1.69.81-2.42,1.1a5.18,5.18,0,0,1-1.72.42,1.1,1.1,0,0,1-.94-.37,1.49,1.49,0,0,1-.29-1,1.07,1.07,0,0,1,.33-.79,2.73,2.73,0,0,1,.63-.34c.36-.18.78-.37,1.25-.57l1.3-.53c.39-.15.65-.26.75-.31a40.56,40.56,0,0,0,7.44-4.27,37.5,37.5,0,0,0,6.35-5.77,11.12,11.12,0,0,1,.79-.83,1.5,1.5,0,0,1,2-.19,1.09,1.09,0,0,1,.36.91,2.21,2.21,0,0,1-.55,1.23,13.32,13.32,0,0,1-1.39,1.58c-.57.55-1.15,1.09-1.76,1.62s-1.17,1-1.67,1.41-.87.71-1.11.89V24.57a2.22,2.22,0,0,1-.29,1.16A1.12,1.12,0,0,1,155.52,26.21Z"/><path class="cls-1" d="M171.52,25a1.2,1.2,0,0,1-1.37-1.34,1.13,1.13,0,0,1,.5-.92,7,7,0,0,1,.95-.58,36.27,36.27,0,0,0,6.72-4.39,26.48,26.48,0,0,0,5.25-6.06l.54-.82c.24-.38.5-.81.78-1.27s.5-.89.69-1.29a2.12,2.12,0,0,0,.29-.86.6.6,0,0,0-.26-.54,1.12,1.12,0,0,0-.61-.17H173.24a2.06,2.06,0,0,1-1.08-.27,1.06,1.06,0,0,1-.45-1,1,1,0,0,1,.45-1,2.16,2.16,0,0,1,1.08-.26h13.32a2.17,2.17,0,0,1,1.57.66,2.14,2.14,0,0,1,.67,1.56,4.6,4.6,0,0,1-.34,1.5,15.66,15.66,0,0,1-.91,1.94c-.37.7-.77,1.38-1.19,2.07s-.82,1.31-1.2,1.87-.7,1-1,1.34l1.18.9,1.79,1.4c.67.53,1.34,1.08,2,1.67s1.33,1.15,1.91,1.71a15.52,15.52,0,0,1,1.42,1.51,2,2,0,0,1,.55,1.1c0,.93-.49,1.39-1.48,1.39a1.45,1.45,0,0,1-1-.42c-.31-.28-.57-.54-.79-.78-1.1-1.24-2.23-2.41-3.41-3.52a33.86,33.86,0,0,0-3.81-3.07,25.93,25.93,0,0,1-3,2.92,34.31,34.31,0,0,1-3.39,2.49l-.93.6c-.42.28-.88.56-1.37.85a14.76,14.76,0,0,1-1.39.74A2.74,2.74,0,0,1,171.52,25ZM190.16,5.84c-.63,0-.95-.34-.95-1V2.37c0-.68.32-1,.95-1s1,.33,1,1V4.83C191.12,5.5,190.8,5.84,190.16,5.84Zm3.12,0c-.64,0-1-.34-1-1V2.37c0-.68.32-1,1-1s1,.33,1,1V4.83C194.24,5.5,193.92,5.84,193.28,5.84Z"/><path class="cls-2" d="M18,30.76a1.93,1.93,0,0,1-1.75-.87,2.82,2.82,0,0,1-.4-1.53V15a2.45,2.45,0,0,1-.83.13H10.59l-.53.49h2.26a3,3,0,0,1,3.27,3.27v7.3a3,3,0,0,1-3.27,3.27H6.2A3,3,0,0,1,3,26.23V20.76A2.6,2.6,0,0,1,1.88,21a1.72,1.72,0,0,1-1.53-.76A2.34,2.34,0,0,1,0,19a1.87,1.87,0,0,1,.81-1.53,8.33,8.33,0,0,1,.86-.54,23.21,23.21,0,0,0,2.79-1.56l.26-.18H2.37A2.63,2.63,0,0,1,1,14.8a1.84,1.84,0,0,1-.81-1.64A1.84,1.84,0,0,1,1,11.52a2.63,2.63,0,0,1,1.4-.37H5.61v-1H3.35A2.47,2.47,0,0,1,2,9.75a1.81,1.81,0,0,1-.77-1.62A1.84,1.84,0,0,1,2,6.5a2.55,2.55,0,0,1,1.4-.38h2.2a8.69,8.69,0,0,1,0-1,2.77,2.77,0,0,1,.49-1.34A1.86,1.86,0,0,1,7.67,3a1.88,1.88,0,0,1,1.63.76A2.77,2.77,0,0,1,9.79,5.1a8.69,8.69,0,0,1,0,1h1.11a2.28,2.28,0,0,1,1.42.43l.1.07a2.53,2.53,0,0,1,.13-.22,4.25,4.25,0,0,1,.6-.81A1.93,1.93,0,0,1,14.62,5a2,2,0,0,1,1.66.73A3,3,0,0,1,19.1,4.31H24a6.7,6.7,0,0,1,1.41.16,3,3,0,0,1,1.46.79,2.53,2.53,0,0,1,.67,1.83,4.71,4.71,0,0,1-.4,1.69c-.22.58-.5,1.22-.83,1.9s-.65,1.33-1,2-.57,1.16-.79,1.62c-.09.2-.15.35-.18.44a3.08,3.08,0,0,0,.22.26c.37.42.79.93,1.27,1.56a12,12,0,0,1,1.33,2.25,7,7,0,0,1,.63,3,5.65,5.65,0,0,1-1.67,4.44,6.53,6.53,0,0,1-4.45,1.42,2.48,2.48,0,0,1-1.51-.44v1.19a2.9,2.9,0,0,1-.4,1.53A2,2,0,0,1,18,30.76Zm-6.53-5.2v-1.2H7v1.19Zm8.68-2,.09-.05a3.65,3.65,0,0,1,1.39-.39,5.47,5.47,0,0,0,1-.19.94.94,0,0,0,.49-.33,1.9,1.9,0,0,0,.19-1A4.21,4.21,0,0,0,23,19.61a6.51,6.51,0,0,0-1-1.46c-.47-.48-.87-.91-1.21-1.28a3,3,0,0,1-.57-.85Zm-8.68-3v-.92H7v.93ZM20.16,8.62v5.52a4.31,4.31,0,0,1,.17-.44c.19-.47.44-1,.73-1.59s.56-1.12.83-1.7.48-1.08.66-1.57a2.85,2.85,0,0,0,.11-.3h-2.5ZM15,11.15a2.45,2.45,0,0,1,.83.13V9c-.27.41-.58.84-.93,1.28l-.68.85ZM9.77,10.5l.29-.36H9.77Z"/><path class="cls-2" d="M66.24,30.68a1.86,1.86,0,0,1-1.71-.87,2.8,2.8,0,0,1-.38-1.47V22h0a2,2,0,0,1-1.41.66,2.13,2.13,0,0,1-.6-.08s0,.09,0,.14a27,27,0,0,1-.61,3.42,8.75,8.75,0,0,1-1.06,2.65,2.54,2.54,0,0,1-2.19,1.33A2.11,2.11,0,0,1,56,27.79a2.64,2.64,0,0,1,.24-1.08c.1-.24.21-.46.3-.65a12.47,12.47,0,0,0,.92-2.73A28.77,28.77,0,0,0,58,20c.11-1.19.19-2.36.23-3.48s.05-2.17.05-3.11c0-.68,0-1.37,0-2.07s0-1.44,0-2.14a3.38,3.38,0,0,1,1.05-2.69,3.89,3.89,0,0,1,2.63-.86h6.52V5.47a2.69,2.69,0,0,1,.36-1.57,2.56,2.56,0,0,1,3.9,0A2.69,2.69,0,0,1,73,5.47a.76.76,0,0,1,0,.15h8.14A2.81,2.81,0,0,1,82.62,6a1.9,1.9,0,0,1,.86,1.72,1.88,1.88,0,0,1-.86,1.71,2.72,2.72,0,0,1-1.48.38h-.93a3.23,3.23,0,0,1,.18,1.11V13h1a2,2,0,0,1,2.17,2.09,2,2,0,0,1-2.17,2.1h-1v9.14a4.65,4.65,0,0,1-.87,2.9,3.53,3.53,0,0,1-3,1.27h-2A2.46,2.46,0,0,1,72.91,30a2.05,2.05,0,0,1-.72-1.69,2.1,2.1,0,0,1,2.31-2.23h1.57V17.2h-5a2.37,2.37,0,0,1,1.45.83,10.13,10.13,0,0,1,1.15,1.41c.37.53.68,1,1,1.53a3.17,3.17,0,0,1,.48,1.46,2,2,0,0,1-2.2,2.15,2.3,2.3,0,0,1-1-.21,1.79,1.79,0,0,1-.91-.8L69.51,21c-.09-.17-.2-.34-.33-.54a2.1,2.1,0,0,1-.38-1.15,1.89,1.89,0,0,1,.75-1.63,2.37,2.37,0,0,1,1.29-.43H69.77a2.61,2.61,0,0,1-1.41-.38V28.34a2.7,2.7,0,0,1-.4,1.49A1.93,1.93,0,0,1,66.24,30.68ZM62.66,9.82a.53.53,0,0,0,0,.14v2c0,.91,0,1.95,0,3.14,0,.65,0,1.33-.07,2A18.56,18.56,0,0,0,63.66,15a43.81,43.81,0,0,0,1.52-4.14c.08-.25.18-.52.29-.82l.09-.21h-2.9Zm7,0a2.65,2.65,0,0,1,.07.59,3.38,3.38,0,0,1-.22,1.08,11.37,11.37,0,0,1-.44,1.14c-.07.18-.15.35-.22.52a2.82,2.82,0,0,1,.89-.13h6.3V10.92a3.23,3.23,0,0,1,.18-1.11Z"/><path class="cls-2" d="M98.23,30.76a2,2,0,0,1-1.78-.83A2.79,2.79,0,0,1,96,28.36v-5H94.42a2.31,2.31,0,0,1,.3,1.21,2.43,2.43,0,0,1-1,1.7A12.44,12.44,0,0,1,92,27.59c-.68.42-1.4.82-2.14,1.19s-1.41.67-2,.91a4.6,4.6,0,0,1-1.62.41,2.1,2.1,0,0,1-1.66-.69A2.45,2.45,0,0,1,84,27.82a2.09,2.09,0,0,1,.86-1.7,4.8,4.8,0,0,1,1.23-.65l1-.38a14.25,14.25,0,0,0,1.47-.69c.49-.27,1-.55,1.44-.85l.27-.17H88.55a2.93,2.93,0,0,1-3.24-3.19v-12a3,3,0,0,1,.38-1.53,2.19,2.19,0,0,1,3.57,0,3,3,0,0,1,.38,1.53V19.33h3.71a4,4,0,0,1-1.89-.63A3.08,3.08,0,0,1,90.32,16V7.25a3,3,0,0,1,3.32-3.37h12.2a4.59,4.59,0,0,1,2.52.62,3,3,0,0,1,1.18,2.7v8.48a4.46,4.46,0,0,1-.64,2.52,2.75,2.75,0,0,1-2.11,1.12h2.71a2.45,2.45,0,0,1,1.42.41,1.85,1.85,0,0,1,.78,1.63,1.83,1.83,0,0,1-.8,1.64,2.55,2.55,0,0,1-1.4.38H106c.54.29,1.1.6,1.65.88a24.38,24.38,0,0,0,2.32,1A4.26,4.26,0,0,1,111,26a2,2,0,0,1,.74,1.62,2.38,2.38,0,0,1-.62,1.56,2.1,2.1,0,0,1-1.64.81,4.54,4.54,0,0,1-1.55-.4q-.86-.34-1.89-.87a22.53,22.53,0,0,1-2-1.15,11.89,11.89,0,0,1-1.63-1.24,2.36,2.36,0,0,1-.9-1.64,2.15,2.15,0,0,1,.35-1.26h-1.47v5a2.71,2.71,0,0,1-.45,1.57A2,2,0,0,1,98.23,30.76Zm7-15.24v-.13H94.53v.13Zm0-3.93v0H94.53v0Zm0-3.83v0H94.53v0Z"/><path class="cls-2" d="M117.35,29.72a2.14,2.14,0,0,1-2.29-2.31,1.92,1.92,0,0,1,1-1.78,5.11,5.11,0,0,1,1.27-.46c.69-.17,1.39-.36,2.09-.55a16.4,16.4,0,0,0,2-.68A19.41,19.41,0,0,0,126.33,21a19,19,0,0,0,3.79-4.21,16.77,16.77,0,0,0,2.25-5.16l0,0h-7.68L124,12.68c-.43.64-.92,1.32-1.45,2s-1.14,1.41-1.74,2a13.48,13.48,0,0,1-1.88,1.63,3.76,3.76,0,0,1-2.13.77,2.07,2.07,0,0,1-2.23-2.23,2,2,0,0,1,.65-1.49c.25-.24.48-.45.68-.61a22.05,22.05,0,0,0,2.9-2.68,18.17,18.17,0,0,0,2-2.82,32.2,32.2,0,0,0,1.75-3.57,5.65,5.65,0,0,1,.66-1.17A2.11,2.11,0,0,1,125,3.71a2.27,2.27,0,0,1,1.52.51,2,2,0,0,1,.68,1.61A3.23,3.23,0,0,1,127,6.9a2.83,2.83,0,0,1-.11.31h7.18a3.2,3.2,0,0,1,2.27.91,3.13,3.13,0,0,1,1,2.28,8.66,8.66,0,0,1-.39,2.5,18.22,18.22,0,0,1-.88,2.37q-.5,1.11-1.05,2.1a26.72,26.72,0,0,1-5.06,6.56,21.53,21.53,0,0,1-7.13,4.33l-1.58.57c-.67.23-1.34.44-2,.61A7.49,7.49,0,0,1,117.35,29.72Z"/><path class="cls-2" d="M155.52,30.21a2.07,2.07,0,0,1-1.91-1,3.29,3.29,0,0,1-.4-1.66V17.12l-.13.08c-.73.45-1.54.93-2.43,1.42s-1.79,1-2.68,1.43a25.85,25.85,0,0,1-2.51,1.14,6,6,0,0,1-2.08.49,2,2,0,0,1-1.73-.76,2.49,2.49,0,0,1-.5-1.58,2.06,2.06,0,0,1,.62-1.5,2.93,2.93,0,0,1,.91-.54c.37-.18.81-.37,1.3-.58l1.31-.54.68-.28a40.06,40.06,0,0,0,7.3-4.18,36.26,36.26,0,0,0,6.17-5.62c.21-.24.5-.54.85-.89A2.45,2.45,0,0,1,162,4.45a2.48,2.48,0,0,1,1.61.51,2,2,0,0,1,.73,1.69,3.14,3.14,0,0,1-.74,1.83,15.48,15.48,0,0,1-1.5,1.69c-.58.57-1.19,1.13-1.81,1.67s-1.18,1-1.69,1.42l-.74.6V27.57a3.18,3.18,0,0,1-.43,1.68A2.09,2.09,0,0,1,155.52,30.21Z"/><path class="cls-2" d="M171.52,29a2.19,2.19,0,0,1-2.37-2.34,2.06,2.06,0,0,1,.92-1.72,7.56,7.56,0,0,1,1.08-.68A34.55,34.55,0,0,0,177.68,20a25.36,25.36,0,0,0,5-5.83c.12-.17.29-.44.54-.82s.49-.79.75-1.24.48-.84.67-1.21a1.12,1.12,0,0,0,.05-.13h-11.5a3,3,0,0,1-1.6-.42,2,2,0,0,1-.93-1.84,2,2,0,0,1,.95-1.83,3.14,3.14,0,0,1,1.58-.4h13.32a3.16,3.16,0,0,1,1.65.46V5.37a2,2,0,0,1,3.51-1.31,2,2,0,0,1,3.52,1.31V7.83a1.86,1.86,0,0,1-2,2,1.9,1.9,0,0,1-1.56-.7,1.9,1.9,0,0,1-1.56.7,2.34,2.34,0,0,1-.38,0,5.86,5.86,0,0,1-.39,1.52,17.56,17.56,0,0,1-1,2.06c-.38.71-.78,1.41-1.21,2.11s-.84,1.34-1.23,1.91l-.4.59.39.3c.54.4,1.14.87,1.81,1.41s1.36,1.09,2.06,1.68,1.36,1.18,2,1.75a16.35,16.35,0,0,1,1.51,1.62,2.78,2.78,0,0,1,.77,1.72,2.26,2.26,0,0,1-2.48,2.39,2.47,2.47,0,0,1-1.65-.68c-.34-.31-.62-.59-.86-.84-1.08-1.23-2.21-2.39-3.35-3.47a31.39,31.39,0,0,0-3-2.47,27.93,27.93,0,0,1-2.51,2.36,34,34,0,0,1-3.49,2.56l-.92.6c-.44.28-.9.57-1.41.87a14.59,14.59,0,0,1-1.49.79A3.42,3.42,0,0,1,171.52,29Z"/><path class="cls-2" d="M18,29.76a1.93,1.93,0,0,1-1.75-.87,2.82,2.82,0,0,1-.4-1.53V14a2.45,2.45,0,0,1-.83.13H10.59l-.53.49h2.26a3,3,0,0,1,3.27,3.27v7.3a3,3,0,0,1-3.27,3.27H6.2A3,3,0,0,1,3,25.23V19.76A2.6,2.6,0,0,1,1.88,20a1.72,1.72,0,0,1-1.53-.76A2.34,2.34,0,0,1,0,18a1.87,1.87,0,0,1,.81-1.53,8.33,8.33,0,0,1,.86-.54,23.21,23.21,0,0,0,2.79-1.56l.26-.18H2.37A2.63,2.63,0,0,1,1,13.8a1.84,1.84,0,0,1-.81-1.64A1.84,1.84,0,0,1,1,10.52a2.63,2.63,0,0,1,1.4-.37H5.61v-1H3.35A2.47,2.47,0,0,1,2,8.75a1.81,1.81,0,0,1-.77-1.62A1.84,1.84,0,0,1,2,5.5a2.55,2.55,0,0,1,1.4-.38h2.2a8.69,8.69,0,0,1,0-1,2.77,2.77,0,0,1,.49-1.34A1.86,1.86,0,0,1,7.67,2a1.88,1.88,0,0,1,1.63.76A2.77,2.77,0,0,1,9.79,4.1a8.69,8.69,0,0,1,0,1h1.11a2.28,2.28,0,0,1,1.42.43l.1.07a2.53,2.53,0,0,1,.13-.22,4.25,4.25,0,0,1,.6-.81A1.93,1.93,0,0,1,14.62,4a2,2,0,0,1,1.66.73A3,3,0,0,1,19.1,3.31H24a6.7,6.7,0,0,1,1.41.16,3,3,0,0,1,1.46.79,2.53,2.53,0,0,1,.67,1.83,4.71,4.71,0,0,1-.4,1.69c-.22.58-.5,1.22-.83,1.9s-.65,1.33-1,2-.57,1.16-.79,1.62c-.09.2-.15.35-.18.44a3.08,3.08,0,0,0,.22.26c.37.42.79.93,1.27,1.56a12,12,0,0,1,1.33,2.25,7,7,0,0,1,.63,3,5.65,5.65,0,0,1-1.67,4.44,6.53,6.53,0,0,1-4.45,1.42,2.48,2.48,0,0,1-1.51-.44v1.19a2.9,2.9,0,0,1-.4,1.53A2,2,0,0,1,18,29.76Zm-6.53-5.2v-1.2H7v1.19Zm8.68-2,.09-.05a3.65,3.65,0,0,1,1.39-.39,5.47,5.47,0,0,0,1-.19.94.94,0,0,0,.49-.33,1.9,1.9,0,0,0,.19-1A4.21,4.21,0,0,0,23,18.61a6.51,6.51,0,0,0-1-1.46c-.47-.48-.87-.91-1.21-1.28a3,3,0,0,1-.57-.85Zm-8.68-3v-.92H7v.93ZM20.16,7.62v5.52a4.31,4.31,0,0,1,.17-.44c.19-.47.44-1,.73-1.59s.56-1.12.83-1.7.48-1.08.66-1.57a2.85,2.85,0,0,0,.11-.3h-2.5ZM15,10.15a2.45,2.45,0,0,1,.83.13V8c-.27.41-.58.84-.93,1.28l-.68.85ZM9.77,9.5l.29-.36H9.77Z"/><path class="cls-2" d="M66.24,29.68a1.86,1.86,0,0,1-1.71-.87,2.8,2.8,0,0,1-.38-1.47V21h0a2,2,0,0,1-1.41.66,2.13,2.13,0,0,1-.6-.08s0,.09,0,.14a27,27,0,0,1-.61,3.42,8.75,8.75,0,0,1-1.06,2.65,2.54,2.54,0,0,1-2.19,1.33A2.11,2.11,0,0,1,56,26.79a2.64,2.64,0,0,1,.24-1.08c.1-.24.21-.46.3-.65a12.47,12.47,0,0,0,.92-2.73A28.77,28.77,0,0,0,58,19c.11-1.19.19-2.36.23-3.48s.05-2.17.05-3.11c0-.68,0-1.37,0-2.07s0-1.44,0-2.14a3.38,3.38,0,0,1,1.05-2.69,3.89,3.89,0,0,1,2.63-.86h6.52V4.47a2.69,2.69,0,0,1,.36-1.57,2.56,2.56,0,0,1,3.9,0A2.69,2.69,0,0,1,73,4.47a.76.76,0,0,1,0,.15h8.14A2.81,2.81,0,0,1,82.62,5a1.9,1.9,0,0,1,.86,1.72,1.88,1.88,0,0,1-.86,1.71,2.72,2.72,0,0,1-1.48.38h-.93a3.23,3.23,0,0,1,.18,1.11V12h1a2,2,0,0,1,2.17,2.09,2,2,0,0,1-2.17,2.1h-1v9.14a4.65,4.65,0,0,1-.87,2.9,3.53,3.53,0,0,1-3,1.27h-2A2.46,2.46,0,0,1,72.91,29a2.05,2.05,0,0,1-.72-1.69,2.1,2.1,0,0,1,2.31-2.23h1.57V16.2h-5a2.37,2.37,0,0,1,1.45.83,10.13,10.13,0,0,1,1.15,1.41c.37.53.68,1,1,1.53a3.17,3.17,0,0,1,.48,1.46,2,2,0,0,1-2.2,2.15,2.3,2.3,0,0,1-1-.21,1.79,1.79,0,0,1-.91-.8L69.51,20c-.09-.17-.2-.34-.33-.54a2.1,2.1,0,0,1-.38-1.15,1.89,1.89,0,0,1,.75-1.63,2.37,2.37,0,0,1,1.29-.43H69.77a2.61,2.61,0,0,1-1.41-.38V27.34a2.7,2.7,0,0,1-.4,1.49A1.93,1.93,0,0,1,66.24,29.68ZM62.66,8.82a.53.53,0,0,0,0,.14v2c0,.91,0,1.95,0,3.14,0,.65,0,1.33-.07,2A18.56,18.56,0,0,0,63.66,14a43.81,43.81,0,0,0,1.52-4.14c.08-.25.18-.52.29-.82l.09-.21h-2.9Zm7,0a2.65,2.65,0,0,1,.07.59,3.38,3.38,0,0,1-.22,1.08,11.37,11.37,0,0,1-.44,1.14c-.07.18-.15.35-.22.52a2.82,2.82,0,0,1,.89-.13h6.3V9.92a3.23,3.23,0,0,1,.18-1.11Z"/><path class="cls-2" d="M98.23,29.76a2,2,0,0,1-1.78-.83A2.79,2.79,0,0,1,96,27.36v-5H94.42a2.31,2.31,0,0,1,.3,1.21,2.43,2.43,0,0,1-1,1.7A12.44,12.44,0,0,1,92,26.59c-.68.42-1.4.82-2.14,1.19s-1.41.67-2,.91a4.6,4.6,0,0,1-1.62.41,2.1,2.1,0,0,1-1.66-.69A2.45,2.45,0,0,1,84,26.82a2.09,2.09,0,0,1,.86-1.7,4.8,4.8,0,0,1,1.23-.65l1-.38a14.25,14.25,0,0,0,1.47-.69c.49-.27,1-.55,1.44-.85l.27-.17H88.55a2.93,2.93,0,0,1-3.24-3.19v-12a3,3,0,0,1,.38-1.53,2.19,2.19,0,0,1,3.57,0,3,3,0,0,1,.38,1.53V18.33h3.71a4,4,0,0,1-1.89-.63A3.08,3.08,0,0,1,90.32,15V6.25a3,3,0,0,1,3.32-3.37h12.2a4.59,4.59,0,0,1,2.52.62,3,3,0,0,1,1.18,2.7v8.48a4.46,4.46,0,0,1-.64,2.52,2.75,2.75,0,0,1-2.11,1.12h2.71a2.45,2.45,0,0,1,1.42.41,1.85,1.85,0,0,1,.78,1.63,1.83,1.83,0,0,1-.8,1.64,2.55,2.55,0,0,1-1.4.38H106c.54.29,1.1.6,1.65.88a24.38,24.38,0,0,0,2.32,1A4.26,4.26,0,0,1,111,25a2,2,0,0,1,.74,1.62,2.38,2.38,0,0,1-.62,1.56,2.1,2.1,0,0,1-1.64.81,4.54,4.54,0,0,1-1.55-.4q-.86-.34-1.89-.87a22.53,22.53,0,0,1-2-1.15,11.89,11.89,0,0,1-1.63-1.24,2.36,2.36,0,0,1-.9-1.64,2.15,2.15,0,0,1,.35-1.26h-1.47v5a2.71,2.71,0,0,1-.45,1.57A2,2,0,0,1,98.23,29.76Zm7-15.24v-.13H94.53v.13Zm0-3.93v0H94.53v0Zm0-3.83v0H94.53v0Z"/><path class="cls-2" d="M117.35,28.72a2.14,2.14,0,0,1-2.29-2.31,1.92,1.92,0,0,1,1-1.78,5.11,5.11,0,0,1,1.27-.46c.69-.17,1.39-.36,2.09-.55a16.4,16.4,0,0,0,2-.68A19.41,19.41,0,0,0,126.33,20a19,19,0,0,0,3.79-4.21,16.77,16.77,0,0,0,2.25-5.16l0,0h-7.68L124,11.68c-.43.64-.92,1.32-1.45,2s-1.14,1.41-1.74,2a13.48,13.48,0,0,1-1.88,1.63,3.76,3.76,0,0,1-2.13.77,2.07,2.07,0,0,1-2.23-2.23,2,2,0,0,1,.65-1.49c.25-.24.48-.45.68-.61a22.05,22.05,0,0,0,2.9-2.68,18.17,18.17,0,0,0,2-2.82,32.2,32.2,0,0,0,1.75-3.57,5.65,5.65,0,0,1,.66-1.17A2.11,2.11,0,0,1,125,2.71a2.27,2.27,0,0,1,1.52.51,2,2,0,0,1,.68,1.61A3.23,3.23,0,0,1,127,5.9a2.83,2.83,0,0,1-.11.31h7.18a3.2,3.2,0,0,1,2.27.91,3.13,3.13,0,0,1,1,2.28,8.66,8.66,0,0,1-.39,2.5,18.22,18.22,0,0,1-.88,2.37q-.5,1.11-1.05,2.1a26.72,26.72,0,0,1-5.06,6.56,21.53,21.53,0,0,1-7.13,4.33l-1.58.57c-.67.23-1.34.44-2,.61A7.49,7.49,0,0,1,117.35,28.72Z"/><path class="cls-2" d="M155.52,29.21a2.07,2.07,0,0,1-1.91-1,3.29,3.29,0,0,1-.4-1.66V16.12l-.13.08c-.73.45-1.54.93-2.43,1.42s-1.79,1-2.68,1.43a25.85,25.85,0,0,1-2.51,1.14,6,6,0,0,1-2.08.49,2,2,0,0,1-1.73-.76,2.49,2.49,0,0,1-.5-1.58,2.06,2.06,0,0,1,.62-1.5,2.93,2.93,0,0,1,.91-.54c.37-.18.81-.37,1.3-.58l1.31-.54.68-.28a40.06,40.06,0,0,0,7.3-4.18,36.26,36.26,0,0,0,6.17-5.62c.21-.24.5-.54.85-.89A2.45,2.45,0,0,1,162,3.45a2.48,2.48,0,0,1,1.61.51,2,2,0,0,1,.73,1.69,3.14,3.14,0,0,1-.74,1.83,15.48,15.48,0,0,1-1.5,1.69c-.58.57-1.19,1.13-1.81,1.67s-1.18,1-1.69,1.42l-.74.6V26.57a3.18,3.18,0,0,1-.43,1.68A2.09,2.09,0,0,1,155.52,29.21Z"/><path class="cls-2" d="M171.52,28a2.19,2.19,0,0,1-2.37-2.34,2.06,2.06,0,0,1,.92-1.72,7.56,7.56,0,0,1,1.08-.68A34.55,34.55,0,0,0,177.68,19a25.36,25.36,0,0,0,5-5.83c.12-.17.29-.44.54-.82s.49-.79.75-1.24.48-.84.67-1.21a1.12,1.12,0,0,0,.05-.13h-11.5a3,3,0,0,1-1.6-.42,2,2,0,0,1-.93-1.84,2,2,0,0,1,.95-1.83,3.14,3.14,0,0,1,1.58-.4h13.32a3.16,3.16,0,0,1,1.65.46V4.37a2,2,0,0,1,3.51-1.31,2,2,0,0,1,3.52,1.31V6.83a1.86,1.86,0,0,1-2,2,1.9,1.9,0,0,1-1.56-.7,1.9,1.9,0,0,1-1.56.7,2.34,2.34,0,0,1-.38,0,5.86,5.86,0,0,1-.39,1.52,17.56,17.56,0,0,1-1,2.06c-.38.71-.78,1.41-1.21,2.11s-.84,1.34-1.23,1.91l-.4.59.39.3c.54.4,1.14.87,1.81,1.41s1.36,1.09,2.06,1.68,1.36,1.18,2,1.75a16.35,16.35,0,0,1,1.51,1.62,2.78,2.78,0,0,1,.77,1.72,2.26,2.26,0,0,1-2.48,2.39,2.47,2.47,0,0,1-1.65-.68c-.34-.31-.62-.59-.86-.84-1.08-1.23-2.21-2.39-3.35-3.47a31.39,31.39,0,0,0-3-2.47,27.93,27.93,0,0,1-2.51,2.36,34,34,0,0,1-3.49,2.56l-.92.6c-.44.28-.9.57-1.41.87a14.59,14.59,0,0,1-1.49.79A3.42,3.42,0,0,1,171.52,28Z"/><path class="cls-2" d="M18,28.76a1.93,1.93,0,0,1-1.75-.87,2.82,2.82,0,0,1-.4-1.53V13a2.45,2.45,0,0,1-.83.13H10.59l-.53.49h2.26a3,3,0,0,1,3.27,3.27v7.3a3,3,0,0,1-3.27,3.27H6.2A3,3,0,0,1,3,24.23V18.76A2.6,2.6,0,0,1,1.88,19a1.72,1.72,0,0,1-1.53-.76A2.34,2.34,0,0,1,0,17a1.87,1.87,0,0,1,.81-1.53,8.33,8.33,0,0,1,.86-.54,23.21,23.21,0,0,0,2.79-1.56l.26-.18H2.37A2.63,2.63,0,0,1,1,12.8a1.84,1.84,0,0,1-.81-1.64A1.84,1.84,0,0,1,1,9.52a2.63,2.63,0,0,1,1.4-.37H5.61v-1H3.35A2.47,2.47,0,0,1,2,7.75a1.81,1.81,0,0,1-.77-1.62A1.84,1.84,0,0,1,2,4.5a2.55,2.55,0,0,1,1.4-.38h2.2a8.69,8.69,0,0,1,0-1,2.77,2.77,0,0,1,.49-1.34A1.86,1.86,0,0,1,7.67,1a1.88,1.88,0,0,1,1.63.76A2.77,2.77,0,0,1,9.79,3.1a8.69,8.69,0,0,1,0,1h1.11a2.28,2.28,0,0,1,1.42.43l.1.07a2.53,2.53,0,0,1,.13-.22,4.25,4.25,0,0,1,.6-.81A1.93,1.93,0,0,1,14.62,3a2,2,0,0,1,1.66.73A3,3,0,0,1,19.1,2.31H24a6.7,6.7,0,0,1,1.41.16,3,3,0,0,1,1.46.79,2.53,2.53,0,0,1,.67,1.83,4.71,4.71,0,0,1-.4,1.69c-.22.58-.5,1.22-.83,1.9s-.65,1.33-1,2-.57,1.16-.79,1.62c-.09.2-.15.35-.18.44a3.08,3.08,0,0,0,.22.26c.37.42.79.93,1.27,1.56a12,12,0,0,1,1.33,2.25,7,7,0,0,1,.63,3,5.65,5.65,0,0,1-1.67,4.44,6.53,6.53,0,0,1-4.45,1.42,2.48,2.48,0,0,1-1.51-.44v1.19a2.9,2.9,0,0,1-.4,1.53A2,2,0,0,1,18,28.76Zm-6.53-5.2v-1.2H7v1.19Zm8.68-2,.09-.05a3.65,3.65,0,0,1,1.39-.39,5.47,5.47,0,0,0,1-.19.94.94,0,0,0,.49-.33,1.9,1.9,0,0,0,.19-1A4.21,4.21,0,0,0,23,17.61a6.51,6.51,0,0,0-1-1.46c-.47-.48-.87-.91-1.21-1.28a3,3,0,0,1-.57-.85Zm-8.68-3v-.92H7v.93ZM20.16,6.62v5.52a4.31,4.31,0,0,1,.17-.44c.19-.47.44-1,.73-1.59s.56-1.12.83-1.7.48-1.08.66-1.57a2.85,2.85,0,0,0,.11-.3h-2.5ZM15,9.15a2.45,2.45,0,0,1,.83.13V7c-.27.41-.58.84-.93,1.28l-.68.85ZM9.77,8.5l.29-.36H9.77Z"/><path class="cls-2" d="M66.24,28.68a1.86,1.86,0,0,1-1.71-.87,2.8,2.8,0,0,1-.38-1.47V20h0a2,2,0,0,1-1.41.66,2.13,2.13,0,0,1-.6-.08s0,.09,0,.14a27,27,0,0,1-.61,3.42,8.75,8.75,0,0,1-1.06,2.65,2.54,2.54,0,0,1-2.19,1.33A2.11,2.11,0,0,1,56,25.79a2.64,2.64,0,0,1,.24-1.08c.1-.24.21-.46.3-.65a12.47,12.47,0,0,0,.92-2.73A28.77,28.77,0,0,0,58,18c.11-1.19.19-2.36.23-3.48s.05-2.17.05-3.11c0-.68,0-1.37,0-2.07s0-1.44,0-2.14a3.38,3.38,0,0,1,1.05-2.69,3.89,3.89,0,0,1,2.63-.86h6.52V3.47a2.69,2.69,0,0,1,.36-1.57,2.56,2.56,0,0,1,3.9,0A2.69,2.69,0,0,1,73,3.47a.76.76,0,0,1,0,.15h8.14A2.81,2.81,0,0,1,82.62,4a1.9,1.9,0,0,1,.86,1.72,1.88,1.88,0,0,1-.86,1.71,2.72,2.72,0,0,1-1.48.38h-.93a3.23,3.23,0,0,1,.18,1.11V11h1a2,2,0,0,1,2.17,2.09,2,2,0,0,1-2.17,2.1h-1v9.14a4.65,4.65,0,0,1-.87,2.9,3.53,3.53,0,0,1-3,1.27h-2A2.46,2.46,0,0,1,72.91,28a2.05,2.05,0,0,1-.72-1.69,2.1,2.1,0,0,1,2.31-2.23h1.57V15.2h-5a2.37,2.37,0,0,1,1.45.83,10.13,10.13,0,0,1,1.15,1.41c.37.53.68,1,1,1.53a3.17,3.17,0,0,1,.48,1.46,2,2,0,0,1-2.2,2.15,2.3,2.3,0,0,1-1-.21,1.79,1.79,0,0,1-.91-.8L69.51,19c-.09-.17-.2-.34-.33-.54a2.1,2.1,0,0,1-.38-1.15,1.89,1.89,0,0,1,.75-1.63,2.37,2.37,0,0,1,1.29-.43H69.77a2.61,2.61,0,0,1-1.41-.38V26.34a2.7,2.7,0,0,1-.4,1.49A1.93,1.93,0,0,1,66.24,28.68ZM62.66,7.82a.53.53,0,0,0,0,.14v2c0,.91,0,1.95,0,3.14,0,.65,0,1.33-.07,2A18.56,18.56,0,0,0,63.66,13a43.81,43.81,0,0,0,1.52-4.14c.08-.25.18-.52.29-.82l.09-.21h-2.9Zm7,0a2.65,2.65,0,0,1,.07.59,3.38,3.38,0,0,1-.22,1.08,11.37,11.37,0,0,1-.44,1.14c-.07.18-.15.35-.22.52a2.82,2.82,0,0,1,.89-.13h6.3V8.92a3.23,3.23,0,0,1,.18-1.11Z"/><path class="cls-2" d="M98.23,28.76a2,2,0,0,1-1.78-.83A2.79,2.79,0,0,1,96,26.36v-5H94.42a2.31,2.31,0,0,1,.3,1.21,2.43,2.43,0,0,1-1,1.7A12.44,12.44,0,0,1,92,25.59c-.68.42-1.4.82-2.14,1.19s-1.41.67-2,.91a4.6,4.6,0,0,1-1.62.41,2.1,2.1,0,0,1-1.66-.69A2.45,2.45,0,0,1,84,25.82a2.09,2.09,0,0,1,.86-1.7,4.8,4.8,0,0,1,1.23-.65l1-.38a14.25,14.25,0,0,0,1.47-.69c.49-.27,1-.55,1.44-.85l.27-.17H88.55a2.93,2.93,0,0,1-3.24-3.19v-12a3,3,0,0,1,.38-1.53,2.19,2.19,0,0,1,3.57,0,3,3,0,0,1,.38,1.53V17.33h3.71a4,4,0,0,1-1.89-.63A3.08,3.08,0,0,1,90.32,14V5.25a3,3,0,0,1,3.32-3.37h12.2a4.59,4.59,0,0,1,2.52.62,3,3,0,0,1,1.18,2.7v8.48a4.46,4.46,0,0,1-.64,2.52,2.75,2.75,0,0,1-2.11,1.12h2.71a2.45,2.45,0,0,1,1.42.41,1.85,1.85,0,0,1,.78,1.63,1.83,1.83,0,0,1-.8,1.64,2.55,2.55,0,0,1-1.4.38H106c.54.29,1.1.6,1.65.88a24.38,24.38,0,0,0,2.32,1A4.26,4.26,0,0,1,111,24a2,2,0,0,1,.74,1.62,2.38,2.38,0,0,1-.62,1.56,2.1,2.1,0,0,1-1.64.81,4.54,4.54,0,0,1-1.55-.4q-.86-.34-1.89-.87a22.53,22.53,0,0,1-2-1.15,11.89,11.89,0,0,1-1.63-1.24,2.36,2.36,0,0,1-.9-1.64,2.15,2.15,0,0,1,.35-1.26h-1.47v5a2.71,2.71,0,0,1-.45,1.57A2,2,0,0,1,98.23,28.76Zm7-15.24v-.13H94.53v.13Zm0-3.93v0H94.53v0Zm0-3.83v0H94.53v0Z"/><path class="cls-2" d="M117.35,27.72a2.14,2.14,0,0,1-2.29-2.31,1.92,1.92,0,0,1,1-1.78,5.11,5.11,0,0,1,1.27-.46c.69-.17,1.39-.36,2.09-.55a16.4,16.4,0,0,0,2-.68A19.41,19.41,0,0,0,126.33,19a19,19,0,0,0,3.79-4.21,16.77,16.77,0,0,0,2.25-5.16l0,0h-7.68L124,10.68c-.43.64-.92,1.32-1.45,2s-1.14,1.41-1.74,2a13.48,13.48,0,0,1-1.88,1.63,3.76,3.76,0,0,1-2.13.77,2.07,2.07,0,0,1-2.23-2.23,2,2,0,0,1,.65-1.49c.25-.24.48-.45.68-.61a22.05,22.05,0,0,0,2.9-2.68,18.17,18.17,0,0,0,2-2.82,32.2,32.2,0,0,0,1.75-3.57,5.65,5.65,0,0,1,.66-1.17A2.11,2.11,0,0,1,125,1.71a2.27,2.27,0,0,1,1.52.51,2,2,0,0,1,.68,1.61A3.23,3.23,0,0,1,127,4.9a2.83,2.83,0,0,1-.11.31h7.18a3.2,3.2,0,0,1,2.27.91,3.13,3.13,0,0,1,1,2.28,8.66,8.66,0,0,1-.39,2.5,18.22,18.22,0,0,1-.88,2.37q-.5,1.11-1.05,2.1a26.72,26.72,0,0,1-5.06,6.56,21.53,21.53,0,0,1-7.13,4.33l-1.58.57c-.67.23-1.34.44-2,.61A7.49,7.49,0,0,1,117.35,27.72Z"/><path class="cls-2" d="M155.52,28.21a2.07,2.07,0,0,1-1.91-1,3.29,3.29,0,0,1-.4-1.66V15.12l-.13.08c-.73.45-1.54.93-2.43,1.42s-1.79,1-2.68,1.43a25.85,25.85,0,0,1-2.51,1.14,6,6,0,0,1-2.08.49,2,2,0,0,1-1.73-.76,2.49,2.49,0,0,1-.5-1.58,2.06,2.06,0,0,1,.62-1.5,2.93,2.93,0,0,1,.91-.54c.37-.18.81-.37,1.3-.58l1.31-.54.68-.28a40.06,40.06,0,0,0,7.3-4.18,36.26,36.26,0,0,0,6.17-5.62c.21-.24.5-.54.85-.89A2.45,2.45,0,0,1,162,2.45a2.48,2.48,0,0,1,1.61.51,2,2,0,0,1,.73,1.69,3.14,3.14,0,0,1-.74,1.83,15.48,15.48,0,0,1-1.5,1.69c-.58.57-1.19,1.13-1.81,1.67s-1.18,1-1.69,1.42l-.74.6V25.57a3.18,3.18,0,0,1-.43,1.68A2.09,2.09,0,0,1,155.52,28.21Z"/><path class="cls-2" d="M171.52,27a2.19,2.19,0,0,1-2.37-2.34,2.06,2.06,0,0,1,.92-1.72,7.56,7.56,0,0,1,1.08-.68A34.55,34.55,0,0,0,177.68,18a25.36,25.36,0,0,0,5-5.83c.12-.17.29-.44.54-.82s.49-.79.75-1.24.48-.84.67-1.21a1.12,1.12,0,0,0,.05-.13h-11.5a3,3,0,0,1-1.6-.42,2,2,0,0,1-.93-1.84,2,2,0,0,1,.95-1.83,3.14,3.14,0,0,1,1.58-.4h13.32a3.16,3.16,0,0,1,1.65.46V3.37a2,2,0,0,1,3.51-1.31,2,2,0,0,1,3.52,1.31V5.83a1.86,1.86,0,0,1-2,2,1.9,1.9,0,0,1-1.56-.7,1.9,1.9,0,0,1-1.56.7,2.34,2.34,0,0,1-.38,0,5.86,5.86,0,0,1-.39,1.52,17.56,17.56,0,0,1-1,2.06c-.38.71-.78,1.41-1.21,2.11s-.84,1.34-1.23,1.91l-.4.59.39.3c.54.4,1.14.87,1.81,1.41s1.36,1.09,2.06,1.68,1.36,1.18,2,1.75a16.35,16.35,0,0,1,1.51,1.62,2.78,2.78,0,0,1,.77,1.72,2.26,2.26,0,0,1-2.48,2.39,2.47,2.47,0,0,1-1.65-.68c-.34-.31-.62-.59-.86-.84-1.08-1.23-2.21-2.39-3.35-3.47a31.39,31.39,0,0,0-3-2.47,27.93,27.93,0,0,1-2.51,2.36,34,34,0,0,1-3.49,2.56l-.92.6c-.44.28-.9.57-1.41.87a14.59,14.59,0,0,1-1.49.79A3.42,3.42,0,0,1,171.52,27Z"/><path class="cls-2" d="M18,27.76a1.93,1.93,0,0,1-1.75-.87,2.82,2.82,0,0,1-.4-1.53V12a2.45,2.45,0,0,1-.83.13H10.59l-.53.49h2.26a3,3,0,0,1,3.27,3.27v7.3a3,3,0,0,1-3.27,3.27H6.2A3,3,0,0,1,3,23.23V17.76A2.6,2.6,0,0,1,1.88,18a1.72,1.72,0,0,1-1.53-.76A2.34,2.34,0,0,1,0,16a1.87,1.87,0,0,1,.81-1.53,8.33,8.33,0,0,1,.86-.54,23.21,23.21,0,0,0,2.79-1.56l.26-.18H2.37A2.63,2.63,0,0,1,1,11.8a1.84,1.84,0,0,1-.81-1.64A1.84,1.84,0,0,1,1,8.52a2.63,2.63,0,0,1,1.4-.37H5.61v-1H3.35A2.47,2.47,0,0,1,2,6.75a1.81,1.81,0,0,1-.77-1.62A1.84,1.84,0,0,1,2,3.5a2.55,2.55,0,0,1,1.4-.38h2.2a8.69,8.69,0,0,1,0-1A2.77,2.77,0,0,1,6.07.76,1.86,1.86,0,0,1,7.67,0,1.88,1.88,0,0,1,9.3.76,2.77,2.77,0,0,1,9.79,2.1a8.69,8.69,0,0,1,0,1h1.11a2.28,2.28,0,0,1,1.42.43l.1.07a2.53,2.53,0,0,1,.13-.22,4.25,4.25,0,0,1,.6-.81A1.93,1.93,0,0,1,14.62,2a2,2,0,0,1,1.66.73A3,3,0,0,1,19.1,1.31H24a6.7,6.7,0,0,1,1.41.16,3,3,0,0,1,1.46.79,2.53,2.53,0,0,1,.67,1.83,4.71,4.71,0,0,1-.4,1.69c-.22.58-.5,1.22-.83,1.9s-.65,1.33-1,2-.57,1.16-.79,1.62c-.09.2-.15.35-.18.44a3.08,3.08,0,0,0,.22.26c.37.42.79.93,1.27,1.56a12,12,0,0,1,1.33,2.25,7,7,0,0,1,.63,3,5.65,5.65,0,0,1-1.67,4.44,6.53,6.53,0,0,1-4.45,1.42,2.48,2.48,0,0,1-1.51-.44v1.19a2.9,2.9,0,0,1-.4,1.53A2,2,0,0,1,18,27.76Zm-6.53-5.2v-1.2H7v1.19Zm8.68-2,.09-.05a3.65,3.65,0,0,1,1.39-.39,5.47,5.47,0,0,0,1-.19.94.94,0,0,0,.49-.33,1.9,1.9,0,0,0,.19-1A4.21,4.21,0,0,0,23,16.61a6.51,6.51,0,0,0-1-1.46c-.47-.48-.87-.91-1.21-1.28a3,3,0,0,1-.57-.85Zm-8.68-3v-.92H7v.93ZM20.16,5.62v5.52a4.31,4.31,0,0,1,.17-.44c.19-.47.44-1,.73-1.59s.56-1.12.83-1.7.48-1.08.66-1.57a2.85,2.85,0,0,0,.11-.3h-2.5ZM15,8.15a2.45,2.45,0,0,1,.83.13V6c-.27.41-.58.84-.93,1.28l-.68.85ZM9.77,7.5l.29-.36H9.77Z"/><path class="cls-2" d="M66.24,27.68a1.86,1.86,0,0,1-1.71-.87,2.8,2.8,0,0,1-.38-1.47V19h0a2,2,0,0,1-1.41.66,2.13,2.13,0,0,1-.6-.08s0,.09,0,.14a27,27,0,0,1-.61,3.42,8.75,8.75,0,0,1-1.06,2.65,2.54,2.54,0,0,1-2.19,1.33A2.11,2.11,0,0,1,56,24.79a2.64,2.64,0,0,1,.24-1.08c.1-.24.21-.46.3-.65a12.47,12.47,0,0,0,.92-2.73A28.77,28.77,0,0,0,58,17c.11-1.19.19-2.36.23-3.48s.05-2.17.05-3.11c0-.68,0-1.37,0-2.07s0-1.44,0-2.14a3.38,3.38,0,0,1,1.05-2.69,3.89,3.89,0,0,1,2.63-.86h6.52V2.47A2.69,2.69,0,0,1,68.75.9a2.56,2.56,0,0,1,3.9,0A2.69,2.69,0,0,1,73,2.47a.76.76,0,0,1,0,.15h8.14A2.81,2.81,0,0,1,82.62,3a1.9,1.9,0,0,1,.86,1.72,1.88,1.88,0,0,1-.86,1.71,2.72,2.72,0,0,1-1.48.38h-.93a3.23,3.23,0,0,1,.18,1.11V10h1a2,2,0,0,1,2.17,2.09,2,2,0,0,1-2.17,2.1h-1v9.14a4.65,4.65,0,0,1-.87,2.9,3.53,3.53,0,0,1-3,1.27h-2A2.46,2.46,0,0,1,72.91,27a2.05,2.05,0,0,1-.72-1.69,2.1,2.1,0,0,1,2.31-2.23h1.57V14.2h-5a2.37,2.37,0,0,1,1.45.83,10.13,10.13,0,0,1,1.15,1.41c.37.53.68,1,1,1.53a3.17,3.17,0,0,1,.48,1.46,2,2,0,0,1-2.2,2.15,2.3,2.3,0,0,1-1-.21,1.79,1.79,0,0,1-.91-.8L69.51,18c-.09-.17-.2-.34-.33-.54a2.1,2.1,0,0,1-.38-1.15,1.89,1.89,0,0,1,.75-1.63,2.37,2.37,0,0,1,1.29-.43H69.77a2.61,2.61,0,0,1-1.41-.38V25.34a2.7,2.7,0,0,1-.4,1.49A1.93,1.93,0,0,1,66.24,27.68ZM62.66,6.82a.53.53,0,0,0,0,.14V9c0,.91,0,1.95,0,3.14,0,.65,0,1.33-.07,2A18.56,18.56,0,0,0,63.66,12a43.81,43.81,0,0,0,1.52-4.14c.08-.25.18-.52.29-.82l.09-.21h-2.9Zm7,0a2.65,2.65,0,0,1,.07.59,3.38,3.38,0,0,1-.22,1.08,11.37,11.37,0,0,1-.44,1.14c-.07.18-.15.35-.22.52a2.82,2.82,0,0,1,.89-.13h6.3V7.92a3.23,3.23,0,0,1,.18-1.11Z"/><path class="cls-2" d="M98.23,27.76a2,2,0,0,1-1.78-.83A2.79,2.79,0,0,1,96,25.36v-5H94.42a2.31,2.31,0,0,1,.3,1.21,2.43,2.43,0,0,1-1,1.7A12.44,12.44,0,0,1,92,24.59c-.68.42-1.4.82-2.14,1.19s-1.41.67-2,.91a4.6,4.6,0,0,1-1.62.41,2.1,2.1,0,0,1-1.66-.69A2.45,2.45,0,0,1,84,24.82a2.09,2.09,0,0,1,.86-1.7,4.8,4.8,0,0,1,1.23-.65l1-.38a14.25,14.25,0,0,0,1.47-.69c.49-.27,1-.55,1.44-.85l.27-.17H88.55a2.93,2.93,0,0,1-3.24-3.19v-12a3,3,0,0,1,.38-1.53,2.19,2.19,0,0,1,3.57,0,3,3,0,0,1,.38,1.53V16.33h3.71a4,4,0,0,1-1.89-.63A3.08,3.08,0,0,1,90.32,13V4.25A3,3,0,0,1,93.64.88h12.2a4.59,4.59,0,0,1,2.52.62,3,3,0,0,1,1.18,2.7v8.48a4.46,4.46,0,0,1-.64,2.52,2.75,2.75,0,0,1-2.11,1.12h2.71a2.45,2.45,0,0,1,1.42.41,1.85,1.85,0,0,1,.78,1.63,1.83,1.83,0,0,1-.8,1.64,2.55,2.55,0,0,1-1.4.38H106c.54.29,1.1.6,1.65.88a24.38,24.38,0,0,0,2.32,1A4.26,4.26,0,0,1,111,23a2,2,0,0,1,.74,1.62,2.38,2.38,0,0,1-.62,1.56,2.1,2.1,0,0,1-1.64.81,4.54,4.54,0,0,1-1.55-.4q-.86-.34-1.89-.87a22.53,22.53,0,0,1-2-1.15,11.89,11.89,0,0,1-1.63-1.24,2.36,2.36,0,0,1-.9-1.64,2.15,2.15,0,0,1,.35-1.26h-1.47v5a2.71,2.71,0,0,1-.45,1.57A2,2,0,0,1,98.23,27.76Zm7-15.24v-.13H94.53v.13Zm0-3.93v0H94.53v0Zm0-3.83v0H94.53v0Z"/><path class="cls-2" d="M117.35,26.72a2.14,2.14,0,0,1-2.29-2.31,1.92,1.92,0,0,1,1-1.78,5.11,5.11,0,0,1,1.27-.46c.69-.17,1.39-.36,2.09-.55a16.4,16.4,0,0,0,2-.68A19.41,19.41,0,0,0,126.33,18a19,19,0,0,0,3.79-4.21,16.77,16.77,0,0,0,2.25-5.16l0,0h-7.68L124,9.68c-.43.64-.92,1.32-1.45,2s-1.14,1.41-1.74,2a13.48,13.48,0,0,1-1.88,1.63,3.76,3.76,0,0,1-2.13.77,2.07,2.07,0,0,1-2.23-2.23,2,2,0,0,1,.65-1.49c.25-.24.48-.45.68-.61a22.05,22.05,0,0,0,2.9-2.68,18.17,18.17,0,0,0,2-2.82,32.2,32.2,0,0,0,1.75-3.57,5.65,5.65,0,0,1,.66-1.17A2.11,2.11,0,0,1,125,.71a2.27,2.27,0,0,1,1.52.51,2,2,0,0,1,.68,1.61A3.23,3.23,0,0,1,127,3.9a2.83,2.83,0,0,1-.11.31h7.18a3.2,3.2,0,0,1,2.27.91,3.13,3.13,0,0,1,1,2.28,8.66,8.66,0,0,1-.39,2.5,18.22,18.22,0,0,1-.88,2.37q-.5,1.11-1.05,2.1a26.72,26.72,0,0,1-5.06,6.56,21.53,21.53,0,0,1-7.13,4.33l-1.58.57c-.67.23-1.34.44-2,.61A7.49,7.49,0,0,1,117.35,26.72Z"/><path class="cls-2" d="M155.52,27.21a2.07,2.07,0,0,1-1.91-1,3.29,3.29,0,0,1-.4-1.66V14.12l-.13.08c-.73.45-1.54.93-2.43,1.42s-1.79,1-2.68,1.43a25.85,25.85,0,0,1-2.51,1.14,6,6,0,0,1-2.08.49,2,2,0,0,1-1.73-.76,2.49,2.49,0,0,1-.5-1.58,2.06,2.06,0,0,1,.62-1.5,2.93,2.93,0,0,1,.91-.54c.37-.18.81-.37,1.3-.58l1.31-.54.68-.28a40.06,40.06,0,0,0,7.3-4.18,36.26,36.26,0,0,0,6.17-5.62c.21-.24.5-.54.85-.89A2.45,2.45,0,0,1,162,1.45a2.48,2.48,0,0,1,1.61.51,2,2,0,0,1,.73,1.69,3.14,3.14,0,0,1-.74,1.83,15.48,15.48,0,0,1-1.5,1.69c-.58.57-1.19,1.13-1.81,1.67s-1.18,1-1.69,1.42l-.74.6V24.57a3.18,3.18,0,0,1-.43,1.68A2.09,2.09,0,0,1,155.52,27.21Z"/><path class="cls-2" d="M171.52,26a2.19,2.19,0,0,1-2.37-2.34,2.06,2.06,0,0,1,.92-1.72,7.56,7.56,0,0,1,1.08-.68A34.55,34.55,0,0,0,177.68,17a25.36,25.36,0,0,0,5-5.83c.12-.17.29-.44.54-.82s.49-.79.75-1.24.48-.84.67-1.21a1.12,1.12,0,0,0,.05-.13h-11.5a3,3,0,0,1-1.6-.42,2,2,0,0,1-.93-1.84,2,2,0,0,1,.95-1.83,3.14,3.14,0,0,1,1.58-.4h13.32a3.16,3.16,0,0,1,1.65.46V2.37a2,2,0,0,1,3.51-1.31,2,2,0,0,1,3.52,1.31V4.83a1.86,1.86,0,0,1-2,2,1.9,1.9,0,0,1-1.56-.7,1.9,1.9,0,0,1-1.56.7,2.34,2.34,0,0,1-.38,0,5.86,5.86,0,0,1-.39,1.52,17.56,17.56,0,0,1-1,2.06c-.38.71-.78,1.41-1.21,2.11s-.84,1.34-1.23,1.91l-.4.59.39.3c.54.4,1.14.87,1.81,1.41s1.36,1.09,2.06,1.68,1.36,1.18,2,1.75a16.35,16.35,0,0,1,1.51,1.62,2.78,2.78,0,0,1,.77,1.72,2.26,2.26,0,0,1-2.48,2.39,2.47,2.47,0,0,1-1.65-.68c-.34-.31-.62-.59-.86-.84-1.08-1.23-2.21-2.39-3.35-3.47a31.39,31.39,0,0,0-3-2.47,27.93,27.93,0,0,1-2.51,2.36,34,34,0,0,1-3.49,2.56l-.92.6c-.44.28-.9.57-1.41.87a14.59,14.59,0,0,1-1.49.79A3.42,3.42,0,0,1,171.52,26Z"/><path class="cls-3" d="M6.2,25.5A2,2,0,0,1,4,23.23V16.09l-.61.36c-.27.14-.53.28-.8.4a1.78,1.78,0,0,1-.66.17.76.76,0,0,1-.69-.3A1.31,1.31,0,0,1,1,16a.85.85,0,0,1,.4-.72,5.14,5.14,0,0,1,.72-.45A26,26,0,0,0,5,13.18a22.17,22.17,0,0,0,2.61-2H2.37A1.5,1.5,0,0,1,1.51,11a.86.86,0,0,1-.35-.79.86.86,0,0,1,.35-.79,1.5,1.5,0,0,1,.86-.22H6.61v-3H3.35a1.47,1.47,0,0,1-.85-.22.89.89,0,0,1-.32-.79.89.89,0,0,1,.32-.79,1.47,1.47,0,0,1,.85-.22H6.61c0-.24,0-.53-.05-.88a6,6,0,0,1,0-1,1.67,1.67,0,0,1,.3-.86A.9.9,0,0,1,7.67,1a.93.93,0,0,1,.82.34,1.67,1.67,0,0,1,.3.86,6,6,0,0,1,0,1c0,.35,0,.64,0,.88h2.16a1.34,1.34,0,0,1,.83.23.89.89,0,0,1,.31.78.92.92,0,0,1-.31.78,1.41,1.41,0,0,1-.83.23H8.77v3h.87a23.27,23.27,0,0,0,2-2.52c.62-.87,1.2-1.78,1.75-2.73a3.07,3.07,0,0,1,.47-.62A.93.93,0,0,1,14.62,3a.92.92,0,0,1,1.06,1,2.4,2.4,0,0,1-.45,1.1,16.64,16.64,0,0,1-1.09,1.55c-.43.54-.84,1-1.22,1.49l-.82,1H15c.73,0,1.09.34,1.09,1s-.36,1-1.09,1H10.19c-.9.86-1.83,1.69-2.82,2.49h5a2,2,0,0,1,2.27,2.27v7.3a2,2,0,0,1-2.27,2.27Zm-.2-7h6.48V16.45a.76.76,0,0,0-.87-.85H6.66a.58.58,0,0,0-.66.66Zm.85,5h4.76a.77.77,0,0,0,.87-.88V20.36H6v2.32A.77.77,0,0,0,6.85,23.56ZM18,26.76a1,1,0,0,1-.9-.4,1.81,1.81,0,0,1-.25-1V4.55A2,2,0,0,1,19.1,2.31H24a5.3,5.3,0,0,1,1.19.14,2,2,0,0,1,1,.52,1.53,1.53,0,0,1,.38,1.12,3.9,3.9,0,0,1-.33,1.33c-.22.55-.48,1.16-.8,1.83s-.64,1.31-1,1.94-.59,1.18-.81,1.65a2.91,2.91,0,0,0-.32,1c0,.14.17.41.53.8s.76.89,1.22,1.49a11.49,11.49,0,0,1,1.21,2.07,6,6,0,0,1,.54,2.56,4.72,4.72,0,0,1-1.33,3.69,5.56,5.56,0,0,1-3.79,1.17,1.2,1.2,0,0,1-1.37-1.34.94.94,0,0,1,.41-.9,2.72,2.72,0,0,1,1-.27,7.22,7.22,0,0,0,1.2-.22,1.93,1.93,0,0,0,1-.68,2.75,2.75,0,0,0,.41-1.67,5.23,5.23,0,0,0-.5-2.38,7.45,7.45,0,0,0-1.19-1.7c-.46-.47-.86-.89-1.19-1.25A1.61,1.61,0,0,1,21,12.13a3.06,3.06,0,0,1,.29-1c.19-.46.43-1,.71-1.53s.56-1.14.83-1.72.51-1.13.7-1.64a3.87,3.87,0,0,0,.29-1.26c0-.19-.07-.3-.19-.34a1.14,1.14,0,0,0-.41-.07H20.25a1,1,0,0,0-1.09,1.09V25.36a1.9,1.9,0,0,1-.25,1A1,1,0,0,1,18,26.76Z"/><path class="cls-3" d="M58.26,26.07A1.12,1.12,0,0,1,57,24.79a1.66,1.66,0,0,1,.15-.67c.1-.23.2-.43.29-.62a13.25,13.25,0,0,0,1-2.95A30.72,30.72,0,0,0,59,17.06c.12-1.21.2-2.39.23-3.54s.06-2.19.06-3.14c0-.69,0-1.4,0-2.11s0-1.41,0-2.1a2.39,2.39,0,0,1,.71-1.93,2.91,2.91,0,0,1,2-.62h7.54c0-.4,0-.8,0-1.2a1.7,1.7,0,0,1,.22-1c.16-.27.52-.41,1.09-.41s.93.14,1.09.41a1.7,1.7,0,0,1,.22,1q0,.6,0,1.2h9.16a1.75,1.75,0,0,1,1,.24.91.91,0,0,1,.38.86.92.92,0,0,1-.38.86,1.75,1.75,0,0,1-1,.23H62.77A1,1,0,0,0,61.65,7V9c0,.9,0,1.94,0,3.12s-.08,2.4-.15,3.69-.19,2.53-.33,3.74a27.28,27.28,0,0,1-.59,3.3,8.2,8.2,0,0,1-.93,2.35A1.6,1.6,0,0,1,58.26,26.07Zm8,.61a.92.92,0,0,1-.86-.39,1.83,1.83,0,0,1-.23-.95V15.57c-.07.17-.2.41-.38.74s-.39.67-.62,1a5.65,5.65,0,0,1-.71.9,1,1,0,0,1-.7.37.83.83,0,0,1-.74-.33,1.43,1.43,0,0,1-.21-.79,1.25,1.25,0,0,1,.17-.64,4.18,4.18,0,0,1,.37-.56,20.81,20.81,0,0,0,2.24-3.91,39.4,39.4,0,0,0,1.56-4.24l.28-.76a2.36,2.36,0,0,1,.45-.73.9.9,0,0,1,.69-.32,1.39,1.39,0,0,1,.88.25,1,1,0,0,1,.33.82,2.58,2.58,0,0,1-.17.76c-.11.33-.24.69-.41,1.07s-.32.74-.47,1.08-.27.59-.35.75V25.34a1.74,1.74,0,0,1-.24.95A1,1,0,0,1,66.24,26.68Zm8.26-.17a1.45,1.45,0,0,1-1-.29,1.11,1.11,0,0,1-.35-.91c0-.82.43-1.23,1.31-1.23H76a1.38,1.38,0,0,0,.78-.22.84.84,0,0,0,.31-.74V13.2h-7.3a1.55,1.55,0,0,1-.9-.25,1,1,0,0,1-.36-.85,1,1,0,0,1,.36-.86,1.54,1.54,0,0,1,.9-.23h7.3V7.92a1.89,1.89,0,0,1,.25-1,1,1,0,0,1,.93-.39,1,1,0,0,1,.9.41,2,2,0,0,1,.24,1V11h2c.78,0,1.17.36,1.17,1.09s-.39,1.1-1.17,1.1h-2V23.34a3.67,3.67,0,0,1-.67,2.3,2.6,2.6,0,0,1-2.2.87Zm-1.56-5.93a1.45,1.45,0,0,1-.56-.12.9.9,0,0,1-.42-.37l-1.59-2.66c-.09-.16-.21-.35-.35-.57a1.08,1.08,0,0,1-.22-.6.93.93,0,0,1,.34-.82,1.39,1.39,0,0,1,.86-.25c.22,0,.5.18.85.53a11.41,11.41,0,0,1,1,1.29c.34.5.64,1,.89,1.44a2.51,2.51,0,0,1,.36,1C74.14,20.2,73.74,20.58,72.94,20.58Z"/><path class="cls-3" d="M86.18,26.1a1.08,1.08,0,0,1-.89-.34,1.43,1.43,0,0,1-.29-.94,1.1,1.1,0,0,1,.46-.91,3.76,3.76,0,0,1,1-.5l1-.4A13.3,13.3,0,0,0,89,22.27c.5-.27,1-.56,1.49-.87.13-.09.32-.22.58-.37a5.86,5.86,0,0,1,.78-.42,1.56,1.56,0,0,1,.61-.2c.82,0,1.23.4,1.23,1.18,0,.25-.21.57-.64,1a12.3,12.3,0,0,1-1.64,1.19c-.67.41-1.35.79-2.06,1.14s-1.36.65-1.95.88A4,4,0,0,1,86.18,26.1Zm12,.66a1.08,1.08,0,0,1-1-.4,1.66,1.66,0,0,1-.28-1v-6H88.55a2,2,0,0,1-2.24-2.19v-12a1.94,1.94,0,0,1,.25-1,1,1,0,0,1,.93-.42,1,1,0,0,1,.9.42,2,2,0,0,1,.25,1v11.1a1,1,0,0,0,.3.79,1.18,1.18,0,0,0,.82.27H109.5a1.46,1.46,0,0,1,.86.24.88.88,0,0,1,.34.8.87.87,0,0,1-.34.8,1.61,1.61,0,0,1-.86.22H99.44v6a1.66,1.66,0,0,1-.28,1A1.06,1.06,0,0,1,98.23,26.76ZM94,15.36a3.39,3.39,0,0,1-2-.5A2.11,2.11,0,0,1,91.32,13V4.25a2.07,2.07,0,0,1,2.32-2.37h12.2a3.67,3.67,0,0,1,2,.46,2.06,2.06,0,0,1,.72,1.86v8.48a3.46,3.46,0,0,1-.48,2,2.09,2.09,0,0,1-1.87.72Zm-.47-9.6h12.69V4.47a.68.68,0,0,0-.77-.76H94.3a.68.68,0,0,0-.77.76Zm0,3.83h12.69v-2H93.53Zm.77,3.93h11.15a.68.68,0,0,0,.77-.76V11.39H93.53v1.37A.68.68,0,0,0,94.3,13.52Zm15.2,12.42a3.74,3.74,0,0,1-1.18-.33c-.54-.22-1.14-.5-1.8-.83a21.73,21.73,0,0,1-1.89-1.1,11.27,11.27,0,0,1-1.49-1.13c-.39-.37-.58-.67-.58-.91a1,1,0,0,1,.35-.88,1.51,1.51,0,0,1,.93-.26,1.24,1.24,0,0,1,.53.12,2.32,2.32,0,0,1,.45.26c.79.45,1.56.88,2.33,1.27s1.57.75,2.41,1.08a3.63,3.63,0,0,1,.83.49,1,1,0,0,1,.37.85,1.44,1.44,0,0,1-.38.92A1.14,1.14,0,0,1,109.5,25.94Z"/><path class="cls-3" d="M117.35,25.72a1.15,1.15,0,0,1-1.29-1.31.92.92,0,0,1,.5-.89,3.42,3.42,0,0,1,1-.37c.73-.18,1.44-.37,2.14-.56a15.87,15.87,0,0,0,2.1-.73A19.87,19.87,0,0,0,127,18.8a19.55,19.55,0,0,0,4-4.43,17.72,17.72,0,0,0,2.39-5.47.87.87,0,0,0,.07-.28c0-.16,0-.25,0-.26a.6.6,0,0,0-.3-.61,1.65,1.65,0,0,0-.68-.13h-8.31q-.36.57-1,1.5c-.42.62-.89,1.28-1.42,2A22.53,22.53,0,0,1,120.08,13a10.94,10.94,0,0,1-1.72,1.51,2.85,2.85,0,0,1-1.56.59,1.09,1.09,0,0,1-1.23-1.23,1,1,0,0,1,.34-.77c.23-.22.44-.4.62-.55a22.55,22.55,0,0,0,3-2.8,18.66,18.66,0,0,0,2.15-3,33.33,33.33,0,0,0,1.8-3.68,5.16,5.16,0,0,1,.55-1,1.13,1.13,0,0,1,1-.45,1.34,1.34,0,0,1,.88.27,1.05,1.05,0,0,1,.32.85,2.35,2.35,0,0,1-.16.74c-.11.31-.23.62-.35.93s-.23.55-.31.71h8.67a2.14,2.14,0,0,1,1.57.63,2.1,2.1,0,0,1,.65,1.56A8,8,0,0,1,136,9.61a17.88,17.88,0,0,1-.84,2.25c-.33.72-.66,1.4-1,2a25.48,25.48,0,0,1-4.87,6.32,20.28,20.28,0,0,1-6.81,4.12l-1.55.56c-.64.23-1.28.43-1.92.59A6.4,6.4,0,0,1,117.35,25.72Z"/><path class="cls-3" d="M155.52,26.21a1.09,1.09,0,0,1-1-.48,2.31,2.31,0,0,1-.27-1.16V12.29c-.39.26-.94.61-1.66,1.06s-1.51.91-2.39,1.4-1.75,1-2.64,1.41-1.69.81-2.42,1.1a5.18,5.18,0,0,1-1.72.42,1.1,1.1,0,0,1-.94-.37,1.49,1.49,0,0,1-.29-1,1.07,1.07,0,0,1,.33-.79,2.73,2.73,0,0,1,.63-.34c.36-.18.78-.37,1.25-.57l1.3-.53c.39-.15.65-.26.75-.31a40.56,40.56,0,0,0,7.44-4.27,37.5,37.5,0,0,0,6.35-5.77,11.12,11.12,0,0,1,.79-.83,1.5,1.5,0,0,1,2-.19,1.09,1.09,0,0,1,.36.91,2.21,2.21,0,0,1-.55,1.23,13.32,13.32,0,0,1-1.39,1.58c-.57.55-1.15,1.09-1.76,1.62s-1.17,1-1.67,1.41-.87.71-1.11.89V24.57a2.22,2.22,0,0,1-.29,1.16A1.12,1.12,0,0,1,155.52,26.21Z"/><path class="cls-3" d="M171.52,25a1.2,1.2,0,0,1-1.37-1.34,1.13,1.13,0,0,1,.5-.92,7,7,0,0,1,.95-.58,36.27,36.27,0,0,0,6.72-4.39,26.48,26.48,0,0,0,5.25-6.06l.54-.82c.24-.38.5-.81.78-1.27s.5-.89.69-1.29a2.12,2.12,0,0,0,.29-.86.6.6,0,0,0-.26-.54,1.12,1.12,0,0,0-.61-.17H173.24a2.06,2.06,0,0,1-1.08-.27,1.06,1.06,0,0,1-.45-1,1,1,0,0,1,.45-1,2.16,2.16,0,0,1,1.08-.26h13.32a2.17,2.17,0,0,1,1.57.66,2.14,2.14,0,0,1,.67,1.56,4.6,4.6,0,0,1-.34,1.5,15.66,15.66,0,0,1-.91,1.94c-.37.7-.77,1.38-1.19,2.07s-.82,1.31-1.2,1.87-.7,1-1,1.34l1.18.9,1.79,1.4c.67.53,1.34,1.08,2,1.67s1.33,1.15,1.91,1.71a15.52,15.52,0,0,1,1.42,1.51,2,2,0,0,1,.55,1.1c0,.93-.49,1.39-1.48,1.39a1.45,1.45,0,0,1-1-.42c-.31-.28-.57-.54-.79-.78-1.1-1.24-2.23-2.41-3.41-3.52a33.86,33.86,0,0,0-3.81-3.07,25.93,25.93,0,0,1-3,2.92,34.31,34.31,0,0,1-3.39,2.49l-.93.6c-.42.28-.88.56-1.37.85a14.76,14.76,0,0,1-1.39.74A2.74,2.74,0,0,1,171.52,25ZM190.16,5.84c-.63,0-.95-.34-.95-1V2.37c0-.68.32-1,.95-1s1,.33,1,1V4.83C191.12,5.5,190.8,5.84,190.16,5.84Zm3.12,0c-.64,0-1-.34-1-1V2.37c0-.68.32-1,1-1s1,.33,1,1V4.83C194.24,5.5,193.92,5.84,193.28,5.84Z"/><path class="cls-1" d="M52.1,26H48.67l-3.43,0c-1.17,0-2.37,0-3.6-.05a21.1,21.1,0,0,1-3.59-.41,7,7,0,0,1-3.91-2.21,9.71,9.71,0,0,0-1.26.9,17,17,0,0,1-1.51,1.1A2.6,2.6,0,0,1,30,25.8a1,1,0,0,1-.87-.35,1.45,1.45,0,0,1-.28-.93,1.1,1.1,0,0,1,.4-.88,4.42,4.42,0,0,1,.83-.55l2.63-1.28V14.56a.77.77,0,0,0-.37-.78,1.94,1.94,0,0,0-.9-.15l-1.08,0a2.71,2.71,0,0,1-1.06-.2c-.3-.14-.45-.46-.45-1a1,1,0,0,1,.36-.88,1.51,1.51,0,0,1,.93-.26h2.57A2,2,0,0,1,35,13.66v7.55a4.38,4.38,0,0,0,1.1,1.13,6.78,6.78,0,0,0,1.41.75,7.64,7.64,0,0,0,1.52.35c.61.08,1.26.14,1.94.17s1.34.06,2,.07l1.58,0c1.5,0,3,0,4.47-.07s3-.07,4.47-.07a1,1,0,0,1,1.15,1.17.91.91,0,0,1-.44.85,2.33,2.33,0,0,1-1,.34A7.8,7.8,0,0,1,52.1,26ZM34.52,5.87a2.14,2.14,0,0,1-.67-.22c-.32-.15-.67-.32-1.05-.52l-1.06-.56-.67-.37a4.31,4.31,0,0,1-.61-.41.8.8,0,0,1-.26-.66,1.51,1.51,0,0,1,.27-.95,1.05,1.05,0,0,1,.9-.36,3.2,3.2,0,0,1,1.06.29,11.27,11.27,0,0,1,1.43.72,7.6,7.6,0,0,1,1.26.92,1.28,1.28,0,0,1,.52.89,1.47,1.47,0,0,1-.26.89A1,1,0,0,1,34.52,5.87ZM39.69,22a1.92,1.92,0,0,1-2.16-2.19V10.62a1.92,1.92,0,0,1,2.18-2.16h3l.41-2H37.31a1.62,1.62,0,0,1-.88-.23.92.92,0,0,1-.35-.81.86.86,0,0,1,.35-.79,1.62,1.62,0,0,1,.88-.22h3.25L40.34,4,40,3.17c-.13-.28-.25-.53-.34-.76A1.61,1.61,0,0,1,39.5,2a.63.63,0,0,1,.32-.63,1.64,1.64,0,0,1,.74-.17,1.2,1.2,0,0,1,.84.37,4.64,4.64,0,0,1,.67.93,10.65,10.65,0,0,1,.51,1.1c.15.35.28.64.39.86h3.8l.79-2.22A2.34,2.34,0,0,1,48,1.46a1,1,0,0,1,.77-.32,3.11,3.11,0,0,1,.87.13.64.64,0,0,1,.47.69,2,2,0,0,1-.24.79c-.15.33-.31.65-.49,1s-.29.54-.37.71h4.13a1.62,1.62,0,0,1,.9.22.88.88,0,0,1,.36.82.83.83,0,0,1-.36.8,1.71,1.71,0,0,1-.9.21H45.62l-.68,2h5a3,3,0,0,1,1.76.46,2,2,0,0,1,.62,1.7v9.17A1.91,1.91,0,0,1,50.19,22Zm0-9.6H50.16V11.17a.77.77,0,0,0-.88-.87H40.56a.77.77,0,0,0-.87.87Zm0,3.8H50.16v-2H39.69Zm.87,4h8.72a.77.77,0,0,0,.88-.87V17.93H39.69v1.31A.77.77,0,0,0,40.56,20.11Z"/><path class="cls-2" d="M52.1,30H48.66l-3.42,0c-1.18,0-2.39,0-3.63-.05a22.08,22.08,0,0,1-3.76-.43A8,8,0,0,1,34,27.57l-.5.39c-.52.42-1,.81-1.58,1.17a3.59,3.59,0,0,1-2,.67,2,2,0,0,1-1.66-.74,2.49,2.49,0,0,1-.49-1.54,2.09,2.09,0,0,1,.76-1.65,5.5,5.5,0,0,1,1-.67l2.07-1V17.64h-.13l-1.22,0a3.6,3.6,0,0,1-1.47-.29,1.89,1.89,0,0,1-1-1.89,2,2,0,0,1,.77-1.69,2.51,2.51,0,0,1,1.52-.45h2.57A3,3,0,0,1,36,16.66v7.22a3.17,3.17,0,0,0,.68.64,5,5,0,0,0,.49.31,3.41,3.41,0,0,1-.6-2.07V13.62a2.88,2.88,0,0,1,3-3.15H37.31a2.52,2.52,0,0,1-1.43-.4,1.61,1.61,0,0,1-.41-.39,2.32,2.32,0,0,1-.95.19,2.81,2.81,0,0,1-1.09-.31c-.33-.15-.7-.34-1.1-.55l-1.06-.56-.69-.38a4.72,4.72,0,0,1-.77-.52,1.76,1.76,0,0,1-.61-1.42,2.48,2.48,0,0,1,.48-1.56,2,2,0,0,1,1.69-.75,4,4,0,0,1,1.44.36A12.72,12.72,0,0,1,34.37,5,9.27,9.27,0,0,1,35.8,6a3.69,3.69,0,0,1,.5.58,2.93,2.93,0,0,1,1-.17H39c-.11-.23-.2-.45-.28-.64A2.12,2.12,0,0,1,38.5,5a1.63,1.63,0,0,1,.88-1.53,2.56,2.56,0,0,1,1.18-.27,2.12,2.12,0,0,1,1.54.67A4.77,4.77,0,0,1,43,5c.21.41.4.8.56,1.19l.1.24h2.45l.56-1.55a3.3,3.3,0,0,1,.58-1.05,1.93,1.93,0,0,1,1.54-.68,4.39,4.39,0,0,1,1.15.17A1.64,1.64,0,0,1,51.08,5a2.94,2.94,0,0,1-.33,1.22l-.12.24h2.48a2.74,2.74,0,0,1,1.43.36,1.87,1.87,0,0,1,.83,1.68,1.8,1.8,0,0,1-.86,1.67,2.82,2.82,0,0,1-1.4.34H50.19a3.71,3.71,0,0,1,2.13.64,2.92,2.92,0,0,1,1,2.51v9.17a2.93,2.93,0,0,1-1.47,2.78h1.53a2,2,0,0,1,2.15,2.17,1.93,1.93,0,0,1-.91,1.7,3.48,3.48,0,0,1-1.42.49A9.74,9.74,0,0,1,52.1,30Zm-3-7.88v-.18H40.69v.18Zm0-4v0H40.69v0Zm0-3.8v0H40.69v0Z"/><path class="cls-2" d="M52.1,29H48.66l-3.42,0c-1.18,0-2.39,0-3.63-.05a22.08,22.08,0,0,1-3.76-.43A8,8,0,0,1,34,26.57l-.5.39c-.52.42-1,.81-1.58,1.17a3.59,3.59,0,0,1-2,.67,2,2,0,0,1-1.66-.74,2.49,2.49,0,0,1-.49-1.54,2.09,2.09,0,0,1,.76-1.65,5.5,5.5,0,0,1,1-.67l2.07-1V16.64h-.13l-1.22,0a3.6,3.6,0,0,1-1.47-.29,1.89,1.89,0,0,1-1-1.89,2,2,0,0,1,.77-1.69,2.51,2.51,0,0,1,1.52-.45h2.57A3,3,0,0,1,36,15.66v7.22a3.17,3.17,0,0,0,.68.64,5,5,0,0,0,.49.31,3.41,3.41,0,0,1-.6-2.07V12.62a2.88,2.88,0,0,1,3-3.15H37.31a2.52,2.52,0,0,1-1.43-.4,1.61,1.61,0,0,1-.41-.39,2.32,2.32,0,0,1-.95.19,2.81,2.81,0,0,1-1.09-.31c-.33-.15-.7-.34-1.1-.55l-1.06-.56-.69-.38a4.72,4.72,0,0,1-.77-.52,1.76,1.76,0,0,1-.61-1.42,2.48,2.48,0,0,1,.48-1.56,2,2,0,0,1,1.69-.75,4,4,0,0,1,1.44.36A12.72,12.72,0,0,1,34.37,4,9.27,9.27,0,0,1,35.8,5a3.69,3.69,0,0,1,.5.58,2.93,2.93,0,0,1,1-.17H39c-.11-.23-.2-.45-.28-.64A2.12,2.12,0,0,1,38.5,4a1.63,1.63,0,0,1,.88-1.53,2.56,2.56,0,0,1,1.18-.27,2.12,2.12,0,0,1,1.54.67A4.77,4.77,0,0,1,43,4c.21.41.4.8.56,1.19l.1.24h2.45l.56-1.55a3.3,3.3,0,0,1,.58-1.05,1.93,1.93,0,0,1,1.54-.68,4.39,4.39,0,0,1,1.15.17A1.64,1.64,0,0,1,51.08,4a2.94,2.94,0,0,1-.33,1.22l-.12.24h2.48a2.74,2.74,0,0,1,1.43.36,1.87,1.87,0,0,1,.83,1.68,1.8,1.8,0,0,1-.86,1.67,2.82,2.82,0,0,1-1.4.34H50.19a3.71,3.71,0,0,1,2.13.64,2.92,2.92,0,0,1,1,2.51v9.17a2.93,2.93,0,0,1-1.47,2.78h1.53a2,2,0,0,1,2.15,2.17,1.93,1.93,0,0,1-.91,1.7,3.48,3.48,0,0,1-1.42.49A9.74,9.74,0,0,1,52.1,29Zm-3-7.88v-.18H40.69v.18Zm0-4v0H40.69v0Zm0-3.8v0H40.69v0Z"/><path class="cls-2" d="M52.1,28H48.66l-3.42,0c-1.18,0-2.39,0-3.63-.05a22.08,22.08,0,0,1-3.76-.43A8,8,0,0,1,34,25.57l-.5.39c-.52.42-1,.81-1.58,1.17a3.59,3.59,0,0,1-2,.67,2,2,0,0,1-1.66-.74,2.49,2.49,0,0,1-.49-1.54,2.09,2.09,0,0,1,.76-1.65,5.5,5.5,0,0,1,1-.67l2.07-1V15.64h-.13l-1.22,0a3.6,3.6,0,0,1-1.47-.29,1.89,1.89,0,0,1-1-1.89,2,2,0,0,1,.77-1.69,2.51,2.51,0,0,1,1.52-.45h2.57A3,3,0,0,1,36,14.66v7.22a3.17,3.17,0,0,0,.68.64,5,5,0,0,0,.49.31,3.41,3.41,0,0,1-.6-2.07V11.62a2.88,2.88,0,0,1,3-3.15H37.31a2.52,2.52,0,0,1-1.43-.4,1.61,1.61,0,0,1-.41-.39,2.32,2.32,0,0,1-.95.19,2.81,2.81,0,0,1-1.09-.31c-.33-.15-.7-.34-1.1-.55l-1.06-.56-.69-.38a4.72,4.72,0,0,1-.77-.52,1.76,1.76,0,0,1-.61-1.42,2.48,2.48,0,0,1,.48-1.56,2,2,0,0,1,1.69-.75,4,4,0,0,1,1.44.36A12.72,12.72,0,0,1,34.37,3,9.27,9.27,0,0,1,35.8,4a3.69,3.69,0,0,1,.5.58,2.93,2.93,0,0,1,1-.17H39c-.11-.23-.2-.45-.28-.64A2.12,2.12,0,0,1,38.5,3a1.63,1.63,0,0,1,.88-1.53,2.56,2.56,0,0,1,1.18-.27,2.12,2.12,0,0,1,1.54.67A4.77,4.77,0,0,1,43,3c.21.41.4.8.56,1.19l.1.24h2.45l.56-1.55a3.3,3.3,0,0,1,.58-1,1.93,1.93,0,0,1,1.54-.68,4.39,4.39,0,0,1,1.15.17A1.64,1.64,0,0,1,51.08,3a2.94,2.94,0,0,1-.33,1.22l-.12.24h2.48a2.74,2.74,0,0,1,1.43.36,1.87,1.87,0,0,1,.83,1.68,1.8,1.8,0,0,1-.86,1.67,2.82,2.82,0,0,1-1.4.34H50.19a3.71,3.71,0,0,1,2.13.64,2.92,2.92,0,0,1,1,2.51v9.17a2.93,2.93,0,0,1-1.47,2.78h1.53a2,2,0,0,1,2.15,2.17,1.93,1.93,0,0,1-.91,1.7,3.48,3.48,0,0,1-1.42.49A9.74,9.74,0,0,1,52.1,28Zm-3-7.88v-.18H40.69v.18Zm0-4v0H40.69v0Zm0-3.8v0H40.69v0Z"/><path class="cls-2" d="M52.1,27H48.66l-3.42,0c-1.18,0-2.39,0-3.63-.05a22.08,22.08,0,0,1-3.76-.43A8,8,0,0,1,34,24.57l-.5.39c-.52.42-1,.81-1.58,1.17a3.59,3.59,0,0,1-2,.67,2,2,0,0,1-1.66-.74,2.49,2.49,0,0,1-.49-1.54,2.09,2.09,0,0,1,.76-1.65,5.5,5.5,0,0,1,1-.67l2.07-1V14.64h-.13l-1.22,0a3.6,3.6,0,0,1-1.47-.29,1.89,1.89,0,0,1-1-1.89,2,2,0,0,1,.77-1.69,2.51,2.51,0,0,1,1.52-.45h2.57A3,3,0,0,1,36,13.66v7.22a3.17,3.17,0,0,0,.68.64,5,5,0,0,0,.49.31,3.41,3.41,0,0,1-.6-2.07V10.62a2.88,2.88,0,0,1,3-3.15H37.31a2.52,2.52,0,0,1-1.43-.4,1.61,1.61,0,0,1-.41-.39,2.32,2.32,0,0,1-.95.19,2.81,2.81,0,0,1-1.09-.31c-.33-.15-.7-.34-1.1-.55l-1.06-.56-.69-.38a4.72,4.72,0,0,1-.77-.52,1.76,1.76,0,0,1-.61-1.42,2.48,2.48,0,0,1,.48-1.56A2,2,0,0,1,31.37.82a4,4,0,0,1,1.44.36A12.72,12.72,0,0,1,34.37,2,9.27,9.27,0,0,1,35.8,3a3.69,3.69,0,0,1,.5.58,2.93,2.93,0,0,1,1-.17H39c-.11-.23-.2-.45-.28-.64A2.12,2.12,0,0,1,38.5,2,1.63,1.63,0,0,1,39.38.43,2.56,2.56,0,0,1,40.56.16,2.12,2.12,0,0,1,42.1.83,4.77,4.77,0,0,1,43,2c.21.41.4.8.56,1.19l.1.24h2.45l.56-1.55A3.3,3.3,0,0,1,47.2.82,1.93,1.93,0,0,1,48.74.14a4.39,4.39,0,0,1,1.15.17A1.64,1.64,0,0,1,51.08,2a2.94,2.94,0,0,1-.33,1.22l-.12.24h2.48a2.74,2.74,0,0,1,1.43.36,1.87,1.87,0,0,1,.83,1.68,1.8,1.8,0,0,1-.86,1.67,2.82,2.82,0,0,1-1.4.34H50.19a3.71,3.71,0,0,1,2.13.64,2.92,2.92,0,0,1,1,2.51v9.17a2.93,2.93,0,0,1-1.47,2.78h1.53a2,2,0,0,1,2.15,2.17,1.93,1.93,0,0,1-.91,1.7,3.48,3.48,0,0,1-1.42.49A9.74,9.74,0,0,1,52.1,27Zm-3-7.88v-.18H40.69v.18Zm0-4v0H40.69v0Zm0-3.8v0H40.69v0Z"/><path class="cls-4" d="M52.1,26H48.67l-3.43,0c-1.17,0-2.37,0-3.6-.05a21.1,21.1,0,0,1-3.59-.41,7,7,0,0,1-3.91-2.21,9.71,9.71,0,0,0-1.26.9,17,17,0,0,1-1.51,1.1A2.6,2.6,0,0,1,30,25.8a1,1,0,0,1-.87-.35,1.45,1.45,0,0,1-.28-.93,1.1,1.1,0,0,1,.4-.88,4.42,4.42,0,0,1,.83-.55l2.63-1.28V14.56a.77.77,0,0,0-.37-.78,1.94,1.94,0,0,0-.9-.15l-1.08,0a2.71,2.71,0,0,1-1.06-.2c-.3-.14-.45-.46-.45-1a1,1,0,0,1,.36-.88,1.51,1.51,0,0,1,.93-.26h2.57A2,2,0,0,1,35,13.66v7.55a4.38,4.38,0,0,0,1.1,1.13,6.78,6.78,0,0,0,1.41.75,7.64,7.64,0,0,0,1.52.35c.61.08,1.26.14,1.94.17s1.34.06,2,.07l1.58,0c1.5,0,3,0,4.47-.07s3-.07,4.47-.07a1,1,0,0,1,1.15,1.17.91.91,0,0,1-.44.85,2.33,2.33,0,0,1-1,.34A7.8,7.8,0,0,1,52.1,26ZM34.52,5.87a2.14,2.14,0,0,1-.67-.22c-.32-.15-.67-.32-1.05-.52l-1.06-.56-.67-.37a4.31,4.31,0,0,1-.61-.41.8.8,0,0,1-.26-.66,1.51,1.51,0,0,1,.27-.95,1.05,1.05,0,0,1,.9-.36,3.2,3.2,0,0,1,1.06.29,11.27,11.27,0,0,1,1.43.72,7.6,7.6,0,0,1,1.26.92,1.28,1.28,0,0,1,.52.89,1.47,1.47,0,0,1-.26.89A1,1,0,0,1,34.52,5.87ZM39.69,22a1.92,1.92,0,0,1-2.16-2.19V10.62a1.92,1.92,0,0,1,2.18-2.16h3l.41-2H37.31a1.62,1.62,0,0,1-.88-.23.92.92,0,0,1-.35-.81.86.86,0,0,1,.35-.79,1.62,1.62,0,0,1,.88-.22h3.25L40.34,4,40,3.17c-.13-.28-.25-.53-.34-.76A1.61,1.61,0,0,1,39.5,2a.63.63,0,0,1,.32-.63,1.64,1.64,0,0,1,.74-.17,1.2,1.2,0,0,1,.84.37,4.64,4.64,0,0,1,.67.93,10.65,10.65,0,0,1,.51,1.1c.15.35.28.64.39.86h3.8l.79-2.22A2.34,2.34,0,0,1,48,1.46a1,1,0,0,1,.77-.32,3.11,3.11,0,0,1,.87.13.64.64,0,0,1,.47.69,2,2,0,0,1-.24.79c-.15.33-.31.65-.49,1s-.29.54-.37.71h4.13a1.62,1.62,0,0,1,.9.22.88.88,0,0,1,.36.82.83.83,0,0,1-.36.8,1.71,1.71,0,0,1-.9.21H45.62l-.68,2h5a3,3,0,0,1,1.76.46,2,2,0,0,1,.62,1.7v9.17A1.91,1.91,0,0,1,50.19,22Zm0-9.6H50.16V11.17a.77.77,0,0,0-.88-.87H40.56a.77.77,0,0,0-.87.87Zm0,3.8H50.16v-2H39.69Zm.87,4h8.72a.77.77,0,0,0,.88-.87V17.93H39.69v1.31A.77.77,0,0,0,40.56,20.11Z"/></g></g></svg>