<svg xmlns="http://www.w3.org/2000/svg" viewBox="0 0 196.8 30.88"><defs><style>.cls-1,.cls-3,.cls-4{font-size:28px;font-family:KosugiMaru-Regular, Kosugi Maru;}.cls-1{fill:#231815;}.cls-2{fill:#595757;}.cls-3{fill:#fff;}.cls-4{fill:#f8b62d;}</style></defs><g id="レイヤー_2" data-name="レイヤー 2"><g id="レイヤー_1-2" data-name="レイヤー 1"><text class="cls-1" transform="translate(0 24.64)">都<tspan x="28" y="0">　</tspan><tspan x="56" y="0">府県クイズ</tspan></text><path class="cls-2" d="M18.13,30.88A1.92,1.92,0,0,1,16.38,30a2.82,2.82,0,0,1-.4-1.53V15.16a2.45,2.45,0,0,1-.83.13H10.71l-.53.49h2.26a3,3,0,0,1,3.27,3.27v7.3a3,3,0,0,1-3.27,3.27H6.32a3,3,0,0,1-3.25-3.27V20.88A2.6,2.6,0,0,1,2,21.14a1.7,1.7,0,0,1-1.53-.76,2.33,2.33,0,0,1-.35-1.27,1.87,1.87,0,0,1,.81-1.54A6.16,6.16,0,0,1,1.8,17a25.45,25.45,0,0,0,2.78-1.57l.26-.18H2.49a2.54,2.54,0,0,1-1.4-.37,1.83,1.83,0,0,1-.8-1.64,1.81,1.81,0,0,1,.8-1.63,2.55,2.55,0,0,1,1.4-.38H5.73v-1H3.47a2.55,2.55,0,0,1-1.4-.38A1.84,1.84,0,0,1,1.3,8.25a1.84,1.84,0,0,1,.77-1.63,2.55,2.55,0,0,1,1.4-.38H5.68a7,7,0,0,1,0-1,2.77,2.77,0,0,1,.49-1.34,1.86,1.86,0,0,1,1.6-.76,1.86,1.86,0,0,1,1.63.76,2.77,2.77,0,0,1,.49,1.34,8.69,8.69,0,0,1,0,1h1.11a2.33,2.33,0,0,1,1.43.43l.09.07a2.53,2.53,0,0,1,.13-.22,4.25,4.25,0,0,1,.6-.81,1.93,1.93,0,0,1,1.44-.59,2,2,0,0,1,1.66.73,3,3,0,0,1,2.82-1.42h4.87a6.26,6.26,0,0,1,1.42.17A2.93,2.93,0,0,1,27,5.38a2.49,2.49,0,0,1,.67,1.83,4.89,4.89,0,0,1-.39,1.69c-.23.58-.51,1.22-.84,1.9s-.64,1.33-1,2-.57,1.16-.79,1.62c-.09.2-.15.35-.18.44a3.08,3.08,0,0,0,.22.26c.38.42.79.93,1.27,1.56a12,12,0,0,1,1.33,2.25,7,7,0,0,1,.63,3,5.65,5.65,0,0,1-1.67,4.44,6.51,6.51,0,0,1-4.45,1.42,2.48,2.48,0,0,1-1.51-.44v1.19a2.9,2.9,0,0,1-.4,1.53A1.92,1.92,0,0,1,18.13,30.88Zm-6.53-5.2v-1.2H7.13v1.2Zm8.68-2,.09-.05a3.65,3.65,0,0,1,1.39-.39,6.36,6.36,0,0,0,1-.18,1,1,0,0,0,.49-.34,1.9,1.9,0,0,0,.19-1.05,4.21,4.21,0,0,0-.39-1.92,6.2,6.2,0,0,0-1-1.46L20.85,17a3.33,3.33,0,0,1-.57-.85Zm-8.67-3v-.92H7.13v.93ZM20.28,8.74v5.53a3.67,3.67,0,0,1,.17-.45c.2-.47.44-1,.74-1.59s.55-1.12.82-1.7.48-1.08.66-1.56c0-.12.08-.22.11-.31h-2.5Zm-5.13,2.53a2.45,2.45,0,0,1,.83.13V9.14c-.27.41-.58.84-.93,1.28s-.46.58-.68.85Zm-5.26-.65.29-.36H9.89Z"/><path class="cls-2" d="M66.36,30.8a1.86,1.86,0,0,1-1.71-.87,2.8,2.8,0,0,1-.38-1.47V22.07h0a2,2,0,0,1-1.41.66,2.13,2.13,0,0,1-.6-.08c0,.05,0,.1,0,.14a27,27,0,0,1-.61,3.42,8.65,8.65,0,0,1-1.06,2.65,2.55,2.55,0,0,1-2.19,1.34,2.11,2.11,0,0,1-2.26-2.29,2.56,2.56,0,0,1,.24-1.07c.1-.25.21-.47.3-.66a12.56,12.56,0,0,0,.92-2.72,29,29,0,0,0,.53-3.37c.11-1.19.19-2.36.23-3.48s0-2.17,0-3.11c0-.68,0-1.37,0-2.07s0-1.44,0-2.14a3.32,3.32,0,0,1,1.06-2.68A3.86,3.86,0,0,1,62,5.75h6.53a.92.92,0,0,1,0-.16A2.69,2.69,0,0,1,68.87,4a2.56,2.56,0,0,1,3.9,0,2.69,2.69,0,0,1,.36,1.57v.16h8.14a2.79,2.79,0,0,1,1.47.37,1.88,1.88,0,0,1,.87,1.72,1.85,1.85,0,0,1-.87,1.71,2.71,2.71,0,0,1-1.47.38h-.94A3.31,3.31,0,0,1,80.52,11v2.09h1a2,2,0,0,1,2.17,2.09,2,2,0,0,1-2.17,2.1h-1v9.14a4.71,4.71,0,0,1-.88,2.91,3.56,3.56,0,0,1-3,1.26h-2A2.42,2.42,0,0,1,73,30.12a2,2,0,0,1-.73-1.69,2.1,2.1,0,0,1,2.31-2.23h1.57V17.32h-5a2.37,2.37,0,0,1,1.45.83,10.76,10.76,0,0,1,1.15,1.41c.37.53.68,1.05,1,1.53a3.21,3.21,0,0,1,.49,1.46,2,2,0,0,1-2.21,2.15,2.45,2.45,0,0,1-1-.2,1.85,1.85,0,0,1-.91-.81l-1.57-2.62c-.09-.17-.2-.34-.33-.54a2.1,2.1,0,0,1-.38-1.15,1.88,1.88,0,0,1,.76-1.63A2.31,2.31,0,0,1,71,17.32H69.89a2.61,2.61,0,0,1-1.41-.38V28.46a2.68,2.68,0,0,1-.4,1.49A1.92,1.92,0,0,1,66.36,30.8ZM62.78,9.94a.53.53,0,0,0,0,.14v2c0,.91,0,2,0,3.14,0,.66,0,1.33-.07,2a19.52,19.52,0,0,0,1.12-2.18A41.2,41.2,0,0,0,65.3,11c.08-.25.18-.52.29-.82l.09-.21h-2.9Zm7,0a2.17,2.17,0,0,1,.07.59,3.38,3.38,0,0,1-.22,1.08,11.48,11.48,0,0,1-.44,1.15l-.22.51a2.82,2.82,0,0,1,.89-.13h6.3V11a3.23,3.23,0,0,1,.18-1.11Z"/><path class="cls-2" d="M98.36,30.88a2,2,0,0,1-1.78-.83,2.69,2.69,0,0,1-.45-1.57v-5H94.54a2.31,2.31,0,0,1,.3,1.21,2.41,2.41,0,0,1-1,1.7,12.88,12.88,0,0,1-1.78,1.3c-.69.42-1.41.82-2.15,1.19s-1.4.67-2,.91a4.6,4.6,0,0,1-1.62.41,2.1,2.1,0,0,1-1.66-.69,2.45,2.45,0,0,1-.52-1.59,2.09,2.09,0,0,1,.86-1.7,4.8,4.8,0,0,1,1.23-.65l1-.38a15.5,15.5,0,0,0,1.48-.69c.48-.27,1-.55,1.43-.85l.27-.17h-1.7a2.94,2.94,0,0,1-3.25-3.19v-12a2.93,2.93,0,0,1,.39-1.53,2.18,2.18,0,0,1,3.56,0,3,3,0,0,1,.38,1.53V19.45h3.71a4,4,0,0,1-1.89-.64,3.08,3.08,0,0,1-1.14-2.71V7.38A3,3,0,0,1,93.76,4H106a4.68,4.68,0,0,1,2.52.62,3,3,0,0,1,1.18,2.7V15.8a4.46,4.46,0,0,1-.64,2.52,2.79,2.79,0,0,1-2.11,1.13h2.71a2.5,2.5,0,0,1,1.43.4,1.88,1.88,0,0,1,.77,1.63,1.83,1.83,0,0,1-.8,1.64,2.55,2.55,0,0,1-1.4.38h-3.55c.54.29,1.1.6,1.66.88a23.13,23.13,0,0,0,2.31,1,4.26,4.26,0,0,1,1.1.65,2,2,0,0,1,.74,1.62,2.38,2.38,0,0,1-.62,1.56,2.1,2.1,0,0,1-1.64.81,4.37,4.37,0,0,1-1.55-.4q-.85-.35-1.89-.87c-.67-.35-1.34-.74-2-1.15a11.89,11.89,0,0,1-1.63-1.24,2.35,2.35,0,0,1-.9-1.63A2.18,2.18,0,0,1,102,23.5h-1.47v5a2.71,2.71,0,0,1-.45,1.57A2,2,0,0,1,98.36,30.88Zm7-15.24v-.13H94.65v.13Zm0-3.93v0H94.65v0Zm0-3.83v0H94.65v0Z"/><path class="cls-2" d="M117.47,29.84a2.14,2.14,0,0,1-2.29-2.31,1.92,1.92,0,0,1,1-1.78,5.11,5.11,0,0,1,1.27-.46c.69-.17,1.4-.36,2.09-.55a14.82,14.82,0,0,0,2-.68,19.41,19.41,0,0,0,4.91-2.91,19,19,0,0,0,3.79-4.21,17,17,0,0,0,2.26-5.16.06.06,0,0,1,0,0h-7.68c-.2.3-.43.66-.71,1.06-.43.64-.92,1.32-1.45,2s-1.14,1.41-1.74,2a12.93,12.93,0,0,1-1.88,1.63,3.76,3.76,0,0,1-2.13.77A2.07,2.07,0,0,1,114.69,17a2,2,0,0,1,.65-1.49,8.42,8.42,0,0,1,.69-.61,22.57,22.57,0,0,0,2.89-2.68,17.53,17.53,0,0,0,2-2.82,30.34,30.34,0,0,0,1.75-3.56,5.6,5.6,0,0,1,.66-1.17,2.1,2.1,0,0,1,1.79-.87,2.27,2.27,0,0,1,1.52.51A2,2,0,0,1,127.36,6,3.51,3.51,0,0,1,127.14,7l-.12.31h7.18a3.2,3.2,0,0,1,2.28.92,3.13,3.13,0,0,1,.94,2.27A9,9,0,0,1,137,13a19.86,19.86,0,0,1-.89,2.37c-.33.74-.68,1.45-1.05,2.1a26.74,26.74,0,0,1-5,6.56,21.51,21.51,0,0,1-7.14,4.33l-1.58.57c-.67.24-1.34.44-2,.61A7.43,7.43,0,0,1,117.47,29.84Z"/><path class="cls-2" d="M155.64,30.33a2,2,0,0,1-1.91-1,3.4,3.4,0,0,1-.4-1.66V17.24l-.13.08c-.73.45-1.54.93-2.43,1.43s-1.78,1-2.68,1.43-1.76.84-2.51,1.13a6,6,0,0,1-2.08.49,2.08,2.08,0,0,1-1.73-.75,2.54,2.54,0,0,1-.5-1.59,2.12,2.12,0,0,1,.62-1.5,3.08,3.08,0,0,1,.91-.54c.37-.18.81-.37,1.3-.58l1.32-.54.67-.28a39.73,39.73,0,0,0,7.3-4.18,36.62,36.62,0,0,0,6.17-5.61c.21-.25.5-.55.85-.9a2.51,2.51,0,0,1,3.32-.25,2,2,0,0,1,.73,1.69,3.14,3.14,0,0,1-.74,1.83,15.48,15.48,0,0,1-1.5,1.69c-.58.57-1.19,1.13-1.81,1.67s-1.18,1-1.69,1.42L158,14v13.7a3.18,3.18,0,0,1-.43,1.68A2.09,2.09,0,0,1,155.64,30.33Z"/><path class="cls-2" d="M171.64,29.1a2.18,2.18,0,0,1-2.37-2.34,2.06,2.06,0,0,1,.92-1.72,7.56,7.56,0,0,1,1.08-.68,34.55,34.55,0,0,0,6.53-4.26,25.64,25.64,0,0,0,5.06-5.83l.53-.82c.24-.37.49-.78.76-1.24s.48-.84.66-1.21l.06-.13H173.36a3,3,0,0,1-1.6-.42,2,2,0,0,1-.93-1.83,2,2,0,0,1,.95-1.84,3.16,3.16,0,0,1,1.58-.39h13.32a3.15,3.15,0,0,1,1.65.45V5.49a2,2,0,0,1,3.51-1.31,1.88,1.88,0,0,1,1.56-.7,1.86,1.86,0,0,1,2,2V8a1.86,1.86,0,0,1-2,2,1.91,1.91,0,0,1-1.56-.7,1.89,1.89,0,0,1-1.55.7,2.38,2.38,0,0,1-.39,0,5.67,5.67,0,0,1-.39,1.52,16.07,16.07,0,0,1-1,2.06c-.38.71-.78,1.41-1.21,2.11s-.84,1.34-1.23,1.91l-.4.59.4.3q.79.6,1.8,1.41c.68.53,1.36,1.09,2.06,1.68s1.36,1.18,2,1.75a16.35,16.35,0,0,1,1.51,1.62,2.78,2.78,0,0,1,.77,1.72A2.26,2.26,0,0,1,191.74,29a2.43,2.43,0,0,1-1.66-.68c-.34-.31-.62-.59-.86-.84-1.08-1.23-2.21-2.39-3.35-3.46a30,30,0,0,0-3-2.48,27.93,27.93,0,0,1-2.51,2.36,34,34,0,0,1-3.49,2.56l-.92.6q-.65.42-1.41.87a15.63,15.63,0,0,1-1.48.79A3.5,3.5,0,0,1,171.64,29.1Z"/><path class="cls-2" d="M18.13,29.88A1.92,1.92,0,0,1,16.38,29a2.82,2.82,0,0,1-.4-1.53V14.16a2.45,2.45,0,0,1-.83.13H10.71l-.53.49h2.26a3,3,0,0,1,3.27,3.27v7.3a3,3,0,0,1-3.27,3.27H6.32a3,3,0,0,1-3.25-3.27V19.88A2.6,2.6,0,0,1,2,20.14a1.7,1.7,0,0,1-1.53-.76,2.33,2.33,0,0,1-.35-1.27,1.87,1.87,0,0,1,.81-1.54A6.16,6.16,0,0,1,1.8,16a25.45,25.45,0,0,0,2.78-1.57l.26-.18H2.49a2.54,2.54,0,0,1-1.4-.37,1.83,1.83,0,0,1-.8-1.64,1.81,1.81,0,0,1,.8-1.63,2.55,2.55,0,0,1,1.4-.38H5.73v-1H3.47a2.55,2.55,0,0,1-1.4-.38A1.84,1.84,0,0,1,1.3,7.25a1.84,1.84,0,0,1,.77-1.63,2.55,2.55,0,0,1,1.4-.38H5.68a7,7,0,0,1,0-1,2.77,2.77,0,0,1,.49-1.34,1.86,1.86,0,0,1,1.6-.76,1.86,1.86,0,0,1,1.63.76,2.77,2.77,0,0,1,.49,1.34,8.69,8.69,0,0,1,0,1h1.11a2.33,2.33,0,0,1,1.43.43l.09.07a2.53,2.53,0,0,1,.13-.22,4.25,4.25,0,0,1,.6-.81,1.93,1.93,0,0,1,1.44-.59,2,2,0,0,1,1.66.73,3,3,0,0,1,2.82-1.42h4.87a6.26,6.26,0,0,1,1.42.17A2.93,2.93,0,0,1,27,4.38a2.49,2.49,0,0,1,.67,1.83,4.89,4.89,0,0,1-.39,1.69c-.23.58-.51,1.22-.84,1.9s-.64,1.33-1,2-.57,1.16-.79,1.62c-.09.2-.15.35-.18.44a3.08,3.08,0,0,0,.22.26c.38.42.79.93,1.27,1.56a12,12,0,0,1,1.33,2.25,7,7,0,0,1,.63,3,5.65,5.65,0,0,1-1.67,4.44,6.51,6.51,0,0,1-4.45,1.42,2.48,2.48,0,0,1-1.51-.44v1.19a2.9,2.9,0,0,1-.4,1.53A1.92,1.92,0,0,1,18.13,29.88Zm-6.53-5.2v-1.2H7.13v1.2Zm8.68-2,.09-.05a3.65,3.65,0,0,1,1.39-.39,6.36,6.36,0,0,0,1-.18,1,1,0,0,0,.49-.34,1.9,1.9,0,0,0,.19-1.05,4.21,4.21,0,0,0-.39-1.92,6.2,6.2,0,0,0-1-1.46L20.85,16a3.33,3.33,0,0,1-.57-.85Zm-8.67-3v-.92H7.13v.93ZM20.28,7.74v5.53a3.67,3.67,0,0,1,.17-.45c.2-.47.44-1,.74-1.59s.55-1.12.82-1.7.48-1.08.66-1.56c0-.12.08-.22.11-.31h-2.5Zm-5.13,2.53a2.45,2.45,0,0,1,.83.13V8.14c-.27.41-.58.84-.93,1.28s-.46.58-.68.85ZM9.89,9.62l.29-.36H9.89Z"/><path class="cls-2" d="M66.36,29.8a1.86,1.86,0,0,1-1.71-.87,2.8,2.8,0,0,1-.38-1.47V21.07h0a2,2,0,0,1-1.41.66,2.13,2.13,0,0,1-.6-.08c0,.05,0,.1,0,.14a27,27,0,0,1-.61,3.42,8.65,8.65,0,0,1-1.06,2.65,2.55,2.55,0,0,1-2.19,1.34,2.11,2.11,0,0,1-2.26-2.29,2.56,2.56,0,0,1,.24-1.07c.1-.25.21-.47.3-.66a12.56,12.56,0,0,0,.92-2.72,29,29,0,0,0,.53-3.37c.11-1.19.19-2.36.23-3.48s0-2.17,0-3.11c0-.68,0-1.37,0-2.07s0-1.44,0-2.14a3.32,3.32,0,0,1,1.06-2.68A3.86,3.86,0,0,1,62,4.75h6.53a.92.92,0,0,1,0-.16A2.69,2.69,0,0,1,68.87,3a2.56,2.56,0,0,1,3.9,0,2.69,2.69,0,0,1,.36,1.57v.16h8.14a2.79,2.79,0,0,1,1.47.37,1.88,1.88,0,0,1,.87,1.72,1.85,1.85,0,0,1-.87,1.71,2.71,2.71,0,0,1-1.47.38h-.94A3.31,3.31,0,0,1,80.52,10v2.09h1a2,2,0,0,1,2.17,2.09,2,2,0,0,1-2.17,2.1h-1v9.14a4.71,4.71,0,0,1-.88,2.91,3.56,3.56,0,0,1-3,1.26h-2A2.42,2.42,0,0,1,73,29.12a2,2,0,0,1-.73-1.69,2.1,2.1,0,0,1,2.31-2.23h1.57V16.32h-5a2.37,2.37,0,0,1,1.45.83,10.76,10.76,0,0,1,1.15,1.41c.37.53.68,1.05,1,1.53a3.21,3.21,0,0,1,.49,1.46,2,2,0,0,1-2.21,2.15,2.45,2.45,0,0,1-1-.2,1.85,1.85,0,0,1-.91-.81l-1.57-2.62c-.09-.17-.2-.34-.33-.54a2.1,2.1,0,0,1-.38-1.15,1.88,1.88,0,0,1,.76-1.63A2.31,2.31,0,0,1,71,16.32H69.89a2.61,2.61,0,0,1-1.41-.38V27.46a2.68,2.68,0,0,1-.4,1.49A1.92,1.92,0,0,1,66.36,29.8ZM62.78,8.94a.53.53,0,0,0,0,.14v2c0,.91,0,2,0,3.14,0,.66,0,1.33-.07,2a19.52,19.52,0,0,0,1.12-2.18A41.2,41.2,0,0,0,65.3,10c.08-.25.18-.52.29-.82l.09-.21h-2.9Zm7,0a2.17,2.17,0,0,1,.07.59,3.38,3.38,0,0,1-.22,1.08,11.48,11.48,0,0,1-.44,1.15l-.22.51a2.82,2.82,0,0,1,.89-.13h6.3V10a3.23,3.23,0,0,1,.18-1.11Z"/><path class="cls-2" d="M98.36,29.88a2,2,0,0,1-1.78-.83,2.69,2.69,0,0,1-.45-1.57v-5H94.54a2.31,2.31,0,0,1,.3,1.21,2.41,2.41,0,0,1-1,1.7,12.88,12.88,0,0,1-1.78,1.3c-.69.42-1.41.82-2.15,1.19s-1.4.67-2,.91a4.6,4.6,0,0,1-1.62.41,2.1,2.1,0,0,1-1.66-.69,2.45,2.45,0,0,1-.52-1.59,2.09,2.09,0,0,1,.86-1.7,4.8,4.8,0,0,1,1.23-.65l1-.38a15.5,15.5,0,0,0,1.48-.69c.48-.27,1-.55,1.43-.85l.27-.17h-1.7a2.94,2.94,0,0,1-3.25-3.19v-12a2.93,2.93,0,0,1,.39-1.53,2.18,2.18,0,0,1,3.56,0,3,3,0,0,1,.38,1.53V18.45h3.71a4,4,0,0,1-1.89-.64,3.08,3.08,0,0,1-1.14-2.71V6.38A3,3,0,0,1,93.76,3H106a4.68,4.68,0,0,1,2.52.62,3,3,0,0,1,1.18,2.7V14.8a4.46,4.46,0,0,1-.64,2.52,2.79,2.79,0,0,1-2.11,1.13h2.71a2.5,2.5,0,0,1,1.43.4,1.88,1.88,0,0,1,.77,1.63,1.83,1.83,0,0,1-.8,1.64,2.55,2.55,0,0,1-1.4.38h-3.55c.54.29,1.1.6,1.66.88a23.13,23.13,0,0,0,2.31,1,4.26,4.26,0,0,1,1.1.65,2,2,0,0,1,.74,1.62,2.38,2.38,0,0,1-.62,1.56,2.1,2.1,0,0,1-1.64.81,4.37,4.37,0,0,1-1.55-.4q-.85-.35-1.89-.87c-.67-.35-1.34-.74-2-1.15a11.89,11.89,0,0,1-1.63-1.24,2.35,2.35,0,0,1-.9-1.63A2.18,2.18,0,0,1,102,22.5h-1.47v5a2.71,2.71,0,0,1-.45,1.57A2,2,0,0,1,98.36,29.88Zm7-15.24v-.13H94.65v.13Zm0-3.93v0H94.65v0Zm0-3.83v0H94.65v0Z"/><path class="cls-2" d="M117.47,28.84a2.14,2.14,0,0,1-2.29-2.31,1.92,1.92,0,0,1,1-1.78,5.11,5.11,0,0,1,1.27-.46c.69-.17,1.4-.36,2.09-.55a14.82,14.82,0,0,0,2-.68,19.41,19.41,0,0,0,4.91-2.91,19,19,0,0,0,3.79-4.21,17,17,0,0,0,2.26-5.16.06.06,0,0,1,0,0h-7.68c-.2.3-.43.66-.71,1.06-.43.64-.92,1.32-1.45,2s-1.14,1.41-1.74,2a12.93,12.93,0,0,1-1.88,1.63,3.76,3.76,0,0,1-2.13.77A2.07,2.07,0,0,1,114.69,16a2,2,0,0,1,.65-1.49,8.42,8.42,0,0,1,.69-.61,22.57,22.57,0,0,0,2.89-2.68,17.53,17.53,0,0,0,2-2.82,30.34,30.34,0,0,0,1.75-3.56,5.6,5.6,0,0,1,.66-1.17,2.1,2.1,0,0,1,1.79-.87,2.27,2.27,0,0,1,1.52.51A2,2,0,0,1,127.36,5,3.51,3.51,0,0,1,127.14,6l-.12.31h7.18a3.2,3.2,0,0,1,2.28.92,3.13,3.13,0,0,1,.94,2.27A9,9,0,0,1,137,12a19.86,19.86,0,0,1-.89,2.37c-.33.74-.68,1.45-1.05,2.1a26.74,26.74,0,0,1-5,6.56,21.51,21.51,0,0,1-7.14,4.33l-1.58.57c-.67.24-1.34.44-2,.61A7.43,7.43,0,0,1,117.47,28.84Z"/><path class="cls-2" d="M155.64,29.33a2,2,0,0,1-1.91-1,3.4,3.4,0,0,1-.4-1.66V16.24l-.13.08c-.73.45-1.54.93-2.43,1.43s-1.78,1-2.68,1.43-1.76.84-2.51,1.13a6,6,0,0,1-2.08.49,2.08,2.08,0,0,1-1.73-.75,2.54,2.54,0,0,1-.5-1.59,2.12,2.12,0,0,1,.62-1.5,3.08,3.08,0,0,1,.91-.54c.37-.18.81-.37,1.3-.58l1.32-.54.67-.28a39.73,39.73,0,0,0,7.3-4.18,36.62,36.62,0,0,0,6.17-5.61c.21-.25.5-.55.85-.9a2.51,2.51,0,0,1,3.32-.25,2,2,0,0,1,.73,1.69,3.14,3.14,0,0,1-.74,1.83,15.48,15.48,0,0,1-1.5,1.69c-.58.57-1.19,1.13-1.81,1.67s-1.18,1-1.69,1.42L158,13v13.7a3.18,3.18,0,0,1-.43,1.68A2.09,2.09,0,0,1,155.64,29.33Z"/><path class="cls-2" d="M171.64,28.1a2.18,2.18,0,0,1-2.37-2.34,2.06,2.06,0,0,1,.92-1.72,7.56,7.56,0,0,1,1.08-.68,34.55,34.55,0,0,0,6.53-4.26,25.64,25.64,0,0,0,5.06-5.83l.53-.82c.24-.37.49-.78.76-1.24s.48-.84.66-1.21l.06-.13H173.36a3,3,0,0,1-1.6-.42,2,2,0,0,1-.93-1.83,2,2,0,0,1,.95-1.84,3.16,3.16,0,0,1,1.58-.39h13.32a3.15,3.15,0,0,1,1.65.45V4.49a2,2,0,0,1,3.51-1.31,1.88,1.88,0,0,1,1.56-.7,1.86,1.86,0,0,1,2,2V7a1.86,1.86,0,0,1-2,2,1.91,1.91,0,0,1-1.56-.7,1.89,1.89,0,0,1-1.55.7,2.38,2.38,0,0,1-.39,0,5.67,5.67,0,0,1-.39,1.52,16.07,16.07,0,0,1-1,2.06c-.38.71-.78,1.41-1.21,2.11s-.84,1.34-1.23,1.91l-.4.59.4.3q.79.6,1.8,1.41c.68.53,1.36,1.09,2.06,1.68s1.36,1.18,2,1.75a16.35,16.35,0,0,1,1.51,1.62,2.78,2.78,0,0,1,.77,1.72A2.26,2.26,0,0,1,191.74,28a2.43,2.43,0,0,1-1.66-.68c-.34-.31-.62-.59-.86-.84-1.08-1.23-2.21-2.39-3.35-3.46a30,30,0,0,0-3-2.48,27.93,27.93,0,0,1-2.51,2.36,34,34,0,0,1-3.49,2.56l-.92.6q-.65.42-1.41.87a15.63,15.63,0,0,1-1.48.79A3.5,3.5,0,0,1,171.64,28.1Z"/><path class="cls-2" d="M18.13,28.88A1.92,1.92,0,0,1,16.38,28a2.82,2.82,0,0,1-.4-1.53V13.16a2.45,2.45,0,0,1-.83.13H10.71l-.53.49h2.26a3,3,0,0,1,3.27,3.27v7.3a3,3,0,0,1-3.27,3.27H6.32a3,3,0,0,1-3.25-3.27V18.88A2.6,2.6,0,0,1,2,19.14a1.7,1.7,0,0,1-1.53-.76,2.33,2.33,0,0,1-.35-1.27,1.87,1.87,0,0,1,.81-1.54A6.16,6.16,0,0,1,1.8,15a25.45,25.45,0,0,0,2.78-1.57l.26-.18H2.49a2.54,2.54,0,0,1-1.4-.37,1.83,1.83,0,0,1-.8-1.64,1.81,1.81,0,0,1,.8-1.63,2.55,2.55,0,0,1,1.4-.38H5.73v-1H3.47a2.55,2.55,0,0,1-1.4-.38A1.84,1.84,0,0,1,1.3,6.25a1.84,1.84,0,0,1,.77-1.63,2.55,2.55,0,0,1,1.4-.38H5.68a7,7,0,0,1,0-1,2.77,2.77,0,0,1,.49-1.34,1.86,1.86,0,0,1,1.6-.76,1.86,1.86,0,0,1,1.63.76,2.77,2.77,0,0,1,.49,1.34,8.69,8.69,0,0,1,0,1h1.11a2.33,2.33,0,0,1,1.43.43l.09.07a2.53,2.53,0,0,1,.13-.22,4.25,4.25,0,0,1,.6-.81,1.93,1.93,0,0,1,1.44-.59,2,2,0,0,1,1.66.73,3,3,0,0,1,2.82-1.42h4.87a6.26,6.26,0,0,1,1.42.17A2.93,2.93,0,0,1,27,3.38a2.49,2.49,0,0,1,.67,1.83,4.89,4.89,0,0,1-.39,1.69c-.23.58-.51,1.22-.84,1.9s-.64,1.33-1,2-.57,1.16-.79,1.62c-.09.2-.15.35-.18.44a3.08,3.08,0,0,0,.22.26c.38.42.79.93,1.27,1.56a12,12,0,0,1,1.33,2.25,7,7,0,0,1,.63,3,5.65,5.65,0,0,1-1.67,4.44,6.51,6.51,0,0,1-4.45,1.42,2.48,2.48,0,0,1-1.51-.44v1.19a2.9,2.9,0,0,1-.4,1.53A1.92,1.92,0,0,1,18.13,28.88Zm-6.53-5.2v-1.2H7.13v1.2Zm8.68-2,.09-.05a3.65,3.65,0,0,1,1.39-.39,6.36,6.36,0,0,0,1-.18,1,1,0,0,0,.49-.34,1.9,1.9,0,0,0,.19-1.05,4.21,4.21,0,0,0-.39-1.92,6.2,6.2,0,0,0-1-1.46L20.85,15a3.33,3.33,0,0,1-.57-.85Zm-8.67-3v-.92H7.13v.93ZM20.28,6.74v5.53a3.67,3.67,0,0,1,.17-.45c.2-.47.44-1,.74-1.59s.55-1.12.82-1.7.48-1.08.66-1.56c0-.12.08-.22.11-.31h-2.5ZM15.15,9.27A2.45,2.45,0,0,1,16,9.4V7.14c-.27.41-.58.84-.93,1.28s-.46.58-.68.85ZM9.89,8.62l.29-.36H9.89Z"/><path class="cls-2" d="M66.36,28.8a1.86,1.86,0,0,1-1.71-.87,2.8,2.8,0,0,1-.38-1.47V20.07h0a2,2,0,0,1-1.41.66,2.13,2.13,0,0,1-.6-.08c0,.05,0,.1,0,.14a27,27,0,0,1-.61,3.42,8.65,8.65,0,0,1-1.06,2.65,2.55,2.55,0,0,1-2.19,1.34,2.11,2.11,0,0,1-2.26-2.29,2.56,2.56,0,0,1,.24-1.07c.1-.25.21-.47.3-.66a12.56,12.56,0,0,0,.92-2.72,29,29,0,0,0,.53-3.37c.11-1.19.19-2.36.23-3.48s0-2.17,0-3.11c0-.68,0-1.37,0-2.07s0-1.44,0-2.14a3.32,3.32,0,0,1,1.06-2.68A3.86,3.86,0,0,1,62,3.75h6.53a.92.92,0,0,1,0-.16A2.69,2.69,0,0,1,68.87,2a2.56,2.56,0,0,1,3.9,0,2.69,2.69,0,0,1,.36,1.57v.16h8.14a2.79,2.79,0,0,1,1.47.37,1.88,1.88,0,0,1,.87,1.72,1.85,1.85,0,0,1-.87,1.71,2.71,2.71,0,0,1-1.47.38h-.94A3.31,3.31,0,0,1,80.52,9v2.09h1a2,2,0,0,1,2.17,2.09,2,2,0,0,1-2.17,2.1h-1v9.14a4.71,4.71,0,0,1-.88,2.91,3.56,3.56,0,0,1-3,1.26h-2A2.42,2.42,0,0,1,73,28.12a2,2,0,0,1-.73-1.69,2.1,2.1,0,0,1,2.31-2.23h1.57V15.32h-5a2.37,2.37,0,0,1,1.45.83,10.76,10.76,0,0,1,1.15,1.41c.37.53.68,1.05,1,1.53a3.21,3.21,0,0,1,.49,1.46,2,2,0,0,1-2.21,2.15,2.45,2.45,0,0,1-1-.2,1.85,1.85,0,0,1-.91-.81l-1.57-2.62c-.09-.17-.2-.34-.33-.54a2.1,2.1,0,0,1-.38-1.15,1.88,1.88,0,0,1,.76-1.63A2.31,2.31,0,0,1,71,15.32H69.89a2.61,2.61,0,0,1-1.41-.38V26.46a2.68,2.68,0,0,1-.4,1.49A1.92,1.92,0,0,1,66.36,28.8ZM62.78,7.94a.53.53,0,0,0,0,.14v2c0,.91,0,2,0,3.14,0,.66,0,1.33-.07,2a19.52,19.52,0,0,0,1.12-2.18A41.2,41.2,0,0,0,65.3,9c.08-.25.18-.52.29-.82l.09-.21h-2.9Zm7,0a2.17,2.17,0,0,1,.07.59,3.38,3.38,0,0,1-.22,1.08,11.48,11.48,0,0,1-.44,1.15l-.22.51a2.82,2.82,0,0,1,.89-.13h6.3V9a3.23,3.23,0,0,1,.18-1.11Z"/><path class="cls-2" d="M98.36,28.88a2,2,0,0,1-1.78-.83,2.69,2.69,0,0,1-.45-1.57v-5H94.54a2.31,2.31,0,0,1,.3,1.21,2.41,2.41,0,0,1-1,1.7,12.88,12.88,0,0,1-1.78,1.3c-.69.42-1.41.82-2.15,1.19s-1.4.67-2,.91a4.6,4.6,0,0,1-1.62.41,2.1,2.1,0,0,1-1.66-.69,2.45,2.45,0,0,1-.52-1.59,2.09,2.09,0,0,1,.86-1.7,4.8,4.8,0,0,1,1.23-.65l1-.38a15.5,15.5,0,0,0,1.48-.69c.48-.27,1-.55,1.43-.85l.27-.17h-1.7a2.94,2.94,0,0,1-3.25-3.19v-12a2.93,2.93,0,0,1,.39-1.53,2.18,2.18,0,0,1,3.56,0,3,3,0,0,1,.38,1.53V17.45h3.71a4,4,0,0,1-1.89-.64,3.08,3.08,0,0,1-1.14-2.71V5.38A3,3,0,0,1,93.76,2H106a4.68,4.68,0,0,1,2.52.62,3,3,0,0,1,1.18,2.7V13.8a4.46,4.46,0,0,1-.64,2.52,2.79,2.79,0,0,1-2.11,1.13h2.71a2.5,2.5,0,0,1,1.43.4,1.88,1.88,0,0,1,.77,1.63,1.83,1.83,0,0,1-.8,1.64,2.55,2.55,0,0,1-1.4.38h-3.55c.54.29,1.1.6,1.66.88a23.13,23.13,0,0,0,2.31,1,4.26,4.26,0,0,1,1.1.65,2,2,0,0,1,.74,1.62,2.38,2.38,0,0,1-.62,1.56,2.1,2.1,0,0,1-1.64.81,4.37,4.37,0,0,1-1.55-.4q-.85-.35-1.89-.87c-.67-.35-1.34-.74-2-1.15a11.89,11.89,0,0,1-1.63-1.24,2.35,2.35,0,0,1-.9-1.63A2.18,2.18,0,0,1,102,21.5h-1.47v5a2.71,2.71,0,0,1-.45,1.57A2,2,0,0,1,98.36,28.88Zm7-15.24v-.13H94.65v.13Zm0-3.93v0H94.65v0Zm0-3.83v0H94.65v0Z"/><path class="cls-2" d="M117.47,27.84a2.14,2.14,0,0,1-2.29-2.31,1.92,1.92,0,0,1,1-1.78,5.11,5.11,0,0,1,1.27-.46c.69-.17,1.4-.36,2.09-.55a14.82,14.82,0,0,0,2-.68,19.41,19.41,0,0,0,4.91-2.91,19,19,0,0,0,3.79-4.21,17,17,0,0,0,2.26-5.16.06.06,0,0,1,0,0h-7.68c-.2.3-.43.66-.71,1.06-.43.64-.92,1.32-1.45,2s-1.14,1.41-1.74,2a12.93,12.93,0,0,1-1.88,1.63,3.76,3.76,0,0,1-2.13.77A2.07,2.07,0,0,1,114.69,15a2,2,0,0,1,.65-1.49,8.42,8.42,0,0,1,.69-.61,22.57,22.57,0,0,0,2.89-2.68,17.53,17.53,0,0,0,2-2.82,30.34,30.34,0,0,0,1.75-3.56,5.6,5.6,0,0,1,.66-1.17,2.1,2.1,0,0,1,1.79-.87,2.27,2.27,0,0,1,1.52.51A2,2,0,0,1,127.36,4,3.51,3.51,0,0,1,127.14,5l-.12.31h7.18a3.2,3.2,0,0,1,2.28.92,3.13,3.13,0,0,1,.94,2.27A9,9,0,0,1,137,11a19.86,19.86,0,0,1-.89,2.37c-.33.74-.68,1.45-1.05,2.1a26.74,26.74,0,0,1-5,6.56,21.51,21.51,0,0,1-7.14,4.33l-1.58.57c-.67.24-1.34.44-2,.61A7.43,7.43,0,0,1,117.47,27.84Z"/><path class="cls-2" d="M155.64,28.33a2,2,0,0,1-1.91-1,3.4,3.4,0,0,1-.4-1.66V15.24l-.13.08c-.73.45-1.54.93-2.43,1.43s-1.78,1-2.68,1.43-1.76.84-2.51,1.13a6,6,0,0,1-2.08.49,2.08,2.08,0,0,1-1.73-.75,2.54,2.54,0,0,1-.5-1.59,2.12,2.12,0,0,1,.62-1.5,3.08,3.08,0,0,1,.91-.54c.37-.18.81-.37,1.3-.58l1.32-.54.67-.28a39.73,39.73,0,0,0,7.3-4.18,36.62,36.62,0,0,0,6.17-5.61c.21-.25.5-.55.85-.9a2.51,2.51,0,0,1,3.32-.25,2,2,0,0,1,.73,1.69,3.14,3.14,0,0,1-.74,1.83,15.48,15.48,0,0,1-1.5,1.69c-.58.57-1.19,1.13-1.81,1.67s-1.18,1-1.69,1.42L158,12v13.7a3.18,3.18,0,0,1-.43,1.68A2.09,2.09,0,0,1,155.64,28.33Z"/><path class="cls-2" d="M171.64,27.1a2.18,2.18,0,0,1-2.37-2.34,2.06,2.06,0,0,1,.92-1.72,7.56,7.56,0,0,1,1.08-.68,34.55,34.55,0,0,0,6.53-4.26,25.64,25.64,0,0,0,5.06-5.83l.53-.82c.24-.37.49-.78.76-1.24s.48-.84.66-1.21l.06-.13H173.36a3,3,0,0,1-1.6-.42,2,2,0,0,1-.93-1.83,2,2,0,0,1,.95-1.84,3.16,3.16,0,0,1,1.58-.39h13.32a3.15,3.15,0,0,1,1.65.45V3.49a2,2,0,0,1,3.51-1.31,1.88,1.88,0,0,1,1.56-.7,1.86,1.86,0,0,1,2,2V6a1.86,1.86,0,0,1-2,2,1.91,1.91,0,0,1-1.56-.7,1.89,1.89,0,0,1-1.55.7,2.38,2.38,0,0,1-.39,0,5.67,5.67,0,0,1-.39,1.52,16.07,16.07,0,0,1-1,2.06c-.38.71-.78,1.41-1.21,2.11s-.84,1.34-1.23,1.91l-.4.59.4.3q.79.6,1.8,1.41c.68.53,1.36,1.09,2.06,1.68s1.36,1.18,2,1.75a16.35,16.35,0,0,1,1.51,1.62,2.78,2.78,0,0,1,.77,1.72A2.26,2.26,0,0,1,191.74,27a2.43,2.43,0,0,1-1.66-.68c-.34-.31-.62-.59-.86-.84-1.08-1.23-2.21-2.39-3.35-3.46a30,30,0,0,0-3-2.48,27.93,27.93,0,0,1-2.51,2.36,34,34,0,0,1-3.49,2.56l-.92.6q-.65.42-1.41.87a15.63,15.63,0,0,1-1.48.79A3.5,3.5,0,0,1,171.64,27.1Z"/><path class="cls-2" d="M18.13,27.88A1.92,1.92,0,0,1,16.38,27a2.82,2.82,0,0,1-.4-1.53V12.16a2.45,2.45,0,0,1-.83.13H10.71l-.53.49h2.26a3,3,0,0,1,3.27,3.27v7.3a3,3,0,0,1-3.27,3.27H6.32a3,3,0,0,1-3.25-3.27V17.88A2.6,2.6,0,0,1,2,18.14a1.7,1.7,0,0,1-1.53-.76,2.33,2.33,0,0,1-.35-1.27,1.87,1.87,0,0,1,.81-1.54A6.16,6.16,0,0,1,1.8,14a25.45,25.45,0,0,0,2.78-1.57l.26-.18H2.49a2.54,2.54,0,0,1-1.4-.37,1.83,1.83,0,0,1-.8-1.64,1.81,1.81,0,0,1,.8-1.63,2.55,2.55,0,0,1,1.4-.38H5.73v-1H3.47a2.55,2.55,0,0,1-1.4-.38A1.84,1.84,0,0,1,1.3,5.25a1.84,1.84,0,0,1,.77-1.63,2.55,2.55,0,0,1,1.4-.38H5.68a7,7,0,0,1,0-1A2.77,2.77,0,0,1,6.19.88,1.86,1.86,0,0,1,7.79.12,1.86,1.86,0,0,1,9.42.88a2.77,2.77,0,0,1,.49,1.34,8.69,8.69,0,0,1,0,1h1.11a2.33,2.33,0,0,1,1.43.43l.09.07a2.53,2.53,0,0,1,.13-.22,4.25,4.25,0,0,1,.6-.81,1.93,1.93,0,0,1,1.44-.59,2,2,0,0,1,1.66.73,3,3,0,0,1,2.82-1.42h4.87a6.26,6.26,0,0,1,1.42.17A2.93,2.93,0,0,1,27,2.38a2.49,2.49,0,0,1,.67,1.83,4.89,4.89,0,0,1-.39,1.69c-.23.58-.51,1.22-.84,1.9s-.64,1.33-1,2-.57,1.16-.79,1.62c-.09.2-.15.35-.18.44a3.08,3.08,0,0,0,.22.26c.38.42.79.93,1.27,1.56a12,12,0,0,1,1.33,2.25,7,7,0,0,1,.63,3,5.65,5.65,0,0,1-1.67,4.44,6.51,6.51,0,0,1-4.45,1.42,2.48,2.48,0,0,1-1.51-.44v1.19a2.9,2.9,0,0,1-.4,1.53A1.92,1.92,0,0,1,18.13,27.88Zm-6.53-5.2v-1.2H7.13v1.2Zm8.68-2,.09-.05a3.65,3.65,0,0,1,1.39-.39,6.36,6.36,0,0,0,1-.18,1,1,0,0,0,.49-.34,1.9,1.9,0,0,0,.19-1.05,4.21,4.21,0,0,0-.39-1.92,6.2,6.2,0,0,0-1-1.46L20.85,14a3.33,3.33,0,0,1-.57-.85Zm-8.67-3v-.92H7.13v.93ZM20.28,5.74v5.53a3.67,3.67,0,0,1,.17-.45c.2-.47.44-1,.74-1.59s.55-1.12.82-1.7.48-1.08.66-1.56c0-.12.08-.22.11-.31h-2.5ZM15.15,8.27A2.45,2.45,0,0,1,16,8.4V6.14c-.27.41-.58.84-.93,1.28s-.46.58-.68.85ZM9.89,7.62l.29-.36H9.89Z"/><path class="cls-2" d="M66.36,27.8a1.86,1.86,0,0,1-1.71-.87,2.8,2.8,0,0,1-.38-1.47V19.07h0a2,2,0,0,1-1.41.66,2.13,2.13,0,0,1-.6-.08c0,.05,0,.1,0,.14a27,27,0,0,1-.61,3.42,8.65,8.65,0,0,1-1.06,2.65,2.55,2.55,0,0,1-2.19,1.34,2.11,2.11,0,0,1-2.26-2.29,2.56,2.56,0,0,1,.24-1.07c.1-.25.21-.47.3-.66a12.56,12.56,0,0,0,.92-2.72,29,29,0,0,0,.53-3.37c.11-1.19.19-2.36.23-3.48s0-2.17,0-3.11c0-.68,0-1.37,0-2.07s0-1.44,0-2.14a3.32,3.32,0,0,1,1.06-2.68A3.86,3.86,0,0,1,62,2.75h6.53a.92.92,0,0,1,0-.16A2.69,2.69,0,0,1,68.87,1a2.56,2.56,0,0,1,3.9,0,2.69,2.69,0,0,1,.36,1.57v.16h8.14a2.79,2.79,0,0,1,1.47.37,1.88,1.88,0,0,1,.87,1.72,1.85,1.85,0,0,1-.87,1.71,2.71,2.71,0,0,1-1.47.38h-.94A3.31,3.31,0,0,1,80.52,8v2.09h1a2,2,0,0,1,2.17,2.09,2,2,0,0,1-2.17,2.1h-1v9.14a4.71,4.71,0,0,1-.88,2.91,3.56,3.56,0,0,1-3,1.26h-2A2.42,2.42,0,0,1,73,27.12a2,2,0,0,1-.73-1.69,2.1,2.1,0,0,1,2.31-2.23h1.57V14.32h-5a2.37,2.37,0,0,1,1.45.83,10.76,10.76,0,0,1,1.15,1.41c.37.53.68,1.05,1,1.53a3.21,3.21,0,0,1,.49,1.46,2,2,0,0,1-2.21,2.15,2.45,2.45,0,0,1-1-.2,1.85,1.85,0,0,1-.91-.81l-1.57-2.62c-.09-.17-.2-.34-.33-.54a2.1,2.1,0,0,1-.38-1.15,1.88,1.88,0,0,1,.76-1.63A2.31,2.31,0,0,1,71,14.32H69.89a2.61,2.61,0,0,1-1.41-.38V25.46a2.68,2.68,0,0,1-.4,1.49A1.92,1.92,0,0,1,66.36,27.8ZM62.78,6.94a.53.53,0,0,0,0,.14v2c0,.91,0,2,0,3.14,0,.66,0,1.33-.07,2a19.52,19.52,0,0,0,1.12-2.18A41.2,41.2,0,0,0,65.3,8c.08-.25.18-.52.29-.82l.09-.21h-2.9Zm7,0a2.17,2.17,0,0,1,.07.59,3.38,3.38,0,0,1-.22,1.08,11.48,11.48,0,0,1-.44,1.15l-.22.51a2.82,2.82,0,0,1,.89-.13h6.3V8a3.23,3.23,0,0,1,.18-1.11Z"/><path class="cls-2" d="M98.36,27.88a2,2,0,0,1-1.78-.83,2.69,2.69,0,0,1-.45-1.57v-5H94.54a2.31,2.31,0,0,1,.3,1.21,2.41,2.41,0,0,1-1,1.7,12.88,12.88,0,0,1-1.78,1.3c-.69.42-1.41.82-2.15,1.19s-1.4.67-2,.91a4.6,4.6,0,0,1-1.62.41,2.1,2.1,0,0,1-1.66-.69,2.45,2.45,0,0,1-.52-1.59,2.09,2.09,0,0,1,.86-1.7,4.8,4.8,0,0,1,1.23-.65l1-.38a15.5,15.5,0,0,0,1.48-.69c.48-.27,1-.55,1.43-.85l.27-.17h-1.7a2.94,2.94,0,0,1-3.25-3.19v-12a2.93,2.93,0,0,1,.39-1.53,2.18,2.18,0,0,1,3.56,0,3,3,0,0,1,.38,1.53V16.45h3.71a4,4,0,0,1-1.89-.64,3.08,3.08,0,0,1-1.14-2.71V4.38A3,3,0,0,1,93.76,1H106a4.68,4.68,0,0,1,2.52.62,3,3,0,0,1,1.18,2.7V12.8a4.46,4.46,0,0,1-.64,2.52,2.79,2.79,0,0,1-2.11,1.13h2.71a2.5,2.5,0,0,1,1.43.4,1.88,1.88,0,0,1,.77,1.63,1.83,1.83,0,0,1-.8,1.64,2.55,2.55,0,0,1-1.4.38h-3.55c.54.29,1.1.6,1.66.88a23.13,23.13,0,0,0,2.31,1,4.26,4.26,0,0,1,1.1.65,2,2,0,0,1,.74,1.62,2.38,2.38,0,0,1-.62,1.56,2.1,2.1,0,0,1-1.64.81,4.37,4.37,0,0,1-1.55-.4q-.85-.35-1.89-.87c-.67-.35-1.34-.74-2-1.15a11.89,11.89,0,0,1-1.63-1.24,2.35,2.35,0,0,1-.9-1.63A2.18,2.18,0,0,1,102,20.5h-1.47v5a2.71,2.71,0,0,1-.45,1.57A2,2,0,0,1,98.36,27.88Zm7-15.24v-.13H94.65v.13Zm0-3.93v0H94.65v0Zm0-3.83v0H94.65v0Z"/><path class="cls-2" d="M117.47,26.84a2.14,2.14,0,0,1-2.29-2.31,1.92,1.92,0,0,1,1-1.78,5.11,5.11,0,0,1,1.27-.46c.69-.17,1.4-.36,2.09-.55a14.82,14.82,0,0,0,2-.68,19.41,19.41,0,0,0,4.91-2.91,19,19,0,0,0,3.79-4.21,17,17,0,0,0,2.26-5.16.06.06,0,0,1,0,0h-7.68c-.2.3-.43.66-.71,1.06-.43.64-.92,1.32-1.45,2s-1.14,1.41-1.74,2a12.93,12.93,0,0,1-1.88,1.63,3.76,3.76,0,0,1-2.13.77A2.07,2.07,0,0,1,114.69,14a2,2,0,0,1,.65-1.49,8.42,8.42,0,0,1,.69-.61,22.57,22.57,0,0,0,2.89-2.68,17.53,17.53,0,0,0,2-2.82,30.34,30.34,0,0,0,1.75-3.56,5.6,5.6,0,0,1,.66-1.17,2.1,2.1,0,0,1,1.79-.87,2.27,2.27,0,0,1,1.52.51A2,2,0,0,1,127.36,3,3.51,3.51,0,0,1,127.14,4l-.12.31h7.18a3.2,3.2,0,0,1,2.28.92,3.13,3.13,0,0,1,.94,2.27A9,9,0,0,1,137,10a19.86,19.86,0,0,1-.89,2.37c-.33.74-.68,1.45-1.05,2.1a26.74,26.74,0,0,1-5,6.56,21.51,21.51,0,0,1-7.14,4.33l-1.58.57c-.67.24-1.34.44-2,.61A7.43,7.43,0,0,1,117.47,26.84Z"/><path class="cls-2" d="M155.64,27.33a2,2,0,0,1-1.91-1,3.4,3.4,0,0,1-.4-1.66V14.24l-.13.08c-.73.45-1.54.93-2.43,1.43s-1.78,1-2.68,1.43-1.76.84-2.51,1.13a6,6,0,0,1-2.08.49,2.08,2.08,0,0,1-1.73-.75,2.54,2.54,0,0,1-.5-1.59,2.12,2.12,0,0,1,.62-1.5,3.08,3.08,0,0,1,.91-.54c.37-.18.81-.37,1.3-.58l1.32-.54.67-.28a39.73,39.73,0,0,0,7.3-4.18,36.62,36.62,0,0,0,6.17-5.61c.21-.25.5-.55.85-.9a2.51,2.51,0,0,1,3.32-.25,2,2,0,0,1,.73,1.69,3.14,3.14,0,0,1-.74,1.83,15.48,15.48,0,0,1-1.5,1.69c-.58.57-1.19,1.13-1.81,1.67s-1.18,1-1.69,1.42L158,11v13.7a3.18,3.18,0,0,1-.43,1.68A2.09,2.09,0,0,1,155.64,27.33Z"/><path class="cls-2" d="M171.64,26.1a2.18,2.18,0,0,1-2.37-2.34,2.06,2.06,0,0,1,.92-1.72,7.56,7.56,0,0,1,1.08-.68,34.55,34.55,0,0,0,6.53-4.26,25.64,25.64,0,0,0,5.06-5.83l.53-.82c.24-.37.49-.78.76-1.24s.48-.84.66-1.21l.06-.13H173.36a3,3,0,0,1-1.6-.42,2,2,0,0,1-.93-1.83,2,2,0,0,1,.95-1.84,3.16,3.16,0,0,1,1.58-.39h13.32a3.15,3.15,0,0,1,1.65.45V2.49a2,2,0,0,1,3.51-1.31,1.88,1.88,0,0,1,1.56-.7,1.86,1.86,0,0,1,2,2V5a1.86,1.86,0,0,1-2,2,1.91,1.91,0,0,1-1.56-.7,1.89,1.89,0,0,1-1.55.7,2.38,2.38,0,0,1-.39,0,5.67,5.67,0,0,1-.39,1.52,16.07,16.07,0,0,1-1,2.06c-.38.71-.78,1.41-1.21,2.11s-.84,1.34-1.23,1.91l-.4.59.4.3q.79.6,1.8,1.41c.68.53,1.36,1.09,2.06,1.68s1.36,1.18,2,1.75a16.35,16.35,0,0,1,1.51,1.62,2.78,2.78,0,0,1,.77,1.72A2.26,2.26,0,0,1,191.74,26a2.43,2.43,0,0,1-1.66-.68c-.34-.31-.62-.59-.86-.84-1.08-1.23-2.21-2.39-3.35-3.46a30,30,0,0,0-3-2.48,27.93,27.93,0,0,1-2.51,2.36,34,34,0,0,1-3.49,2.56l-.92.6q-.65.42-1.41.87a15.63,15.63,0,0,1-1.48.79A3.5,3.5,0,0,1,171.64,26.1Z"/><text class="cls-3" transform="translate(0 24.64)">都　府県クイズ</text><text class="cls-1" transform="translate(27.8 24.64)">道</text><path class="cls-2" d="M52.22,30.11H45.36q-1.77,0-3.63-.06A22.08,22.08,0,0,1,38,29.6a7.9,7.9,0,0,1-3.83-1.91l-.51.39c-.51.42-1.05.81-1.58,1.17a3.59,3.59,0,0,1-2,.67,2,2,0,0,1-1.66-.74,2.49,2.49,0,0,1-.49-1.54A2.09,2.09,0,0,1,28.68,26a5.5,5.5,0,0,1,1-.67l2.07-1V17.76h-.13l-1.22,0A3.64,3.64,0,0,1,29,17.49a1.88,1.88,0,0,1-1-1.88,2,2,0,0,1,.77-1.7,2.51,2.51,0,0,1,1.52-.45h2.57a3,3,0,0,1,3.3,3.32V24a3.17,3.17,0,0,0,.68.64,3.21,3.21,0,0,0,.5.31,3.35,3.35,0,0,1-.61-2.07V13.75a2.89,2.89,0,0,1,3-3.16H37.43a2.49,2.49,0,0,1-1.42-.4,1.58,1.58,0,0,1-.42-.38,2.33,2.33,0,0,1-1,.18,2.64,2.64,0,0,1-1.09-.31c-.33-.15-.7-.33-1.1-.54l-1.06-.57-.69-.38a4.24,4.24,0,0,1-.76-.52,1.73,1.73,0,0,1-.62-1.42,2.48,2.48,0,0,1,.48-1.56,2,2,0,0,1,1.7-.75,4.05,4.05,0,0,1,1.43.36,12.72,12.72,0,0,1,1.56.79,9.27,9.27,0,0,1,1.43,1,3.69,3.69,0,0,1,.5.58,3,3,0,0,1,1-.17H39.1c-.11-.23-.2-.45-.28-.64a2.12,2.12,0,0,1-.2-.82,1.64,1.64,0,0,1,.88-1.53,2.72,2.72,0,0,1,1.18-.26A2.11,2.11,0,0,1,42.22,4a4.77,4.77,0,0,1,.85,1.16c.21.41.4.81.56,1.19a2.44,2.44,0,0,1,.1.24h2.46L46.74,5a3,3,0,0,1,.59-1,1.88,1.88,0,0,1,1.53-.69A4.39,4.39,0,0,1,50,3.43,1.63,1.63,0,0,1,51.2,5.08a2.94,2.94,0,0,1-.33,1.22l-.12.24h2.48a2.65,2.65,0,0,1,1.43.37,1.83,1.83,0,0,1,.83,1.67,1.79,1.79,0,0,1-.85,1.67,2.75,2.75,0,0,1-1.41.34H50.31a3.76,3.76,0,0,1,2.13.64,2.94,2.94,0,0,1,1,2.52v9.16A2.94,2.94,0,0,1,52,25.69h1.52a2,2,0,0,1,2.15,2.18,1.93,1.93,0,0,1-.9,1.69,3.57,3.57,0,0,1-1.43.49A9.74,9.74,0,0,1,52.22,30.11Zm-2.94-7.88v-.18H40.81v.18Zm0-4v0H40.81v0Zm0-3.8v-.05H40.81v.05Z"/><path class="cls-2" d="M52.22,29.11H45.36q-1.77,0-3.63-.06A22.08,22.08,0,0,1,38,28.6a7.9,7.9,0,0,1-3.83-1.91l-.51.39c-.51.42-1.05.81-1.58,1.17a3.59,3.59,0,0,1-2,.67,2,2,0,0,1-1.66-.74,2.49,2.49,0,0,1-.49-1.54A2.09,2.09,0,0,1,28.68,25a5.5,5.5,0,0,1,1-.67l2.07-1V16.76h-.13l-1.22,0A3.64,3.64,0,0,1,29,16.49a1.88,1.88,0,0,1-1-1.88,2,2,0,0,1,.77-1.7,2.51,2.51,0,0,1,1.52-.45h2.57a3,3,0,0,1,3.3,3.32V23a3.17,3.17,0,0,0,.68.64,3.21,3.21,0,0,0,.5.31,3.35,3.35,0,0,1-.61-2.07V12.75a2.89,2.89,0,0,1,3-3.16H37.43A2.49,2.49,0,0,1,36,9.19a1.58,1.58,0,0,1-.42-.38,2.33,2.33,0,0,1-1,.18,2.64,2.64,0,0,1-1.09-.31c-.33-.15-.7-.33-1.1-.54l-1.06-.57-.69-.38a4.24,4.24,0,0,1-.76-.52,1.73,1.73,0,0,1-.62-1.42,2.48,2.48,0,0,1,.48-1.56,2,2,0,0,1,1.7-.75,4.05,4.05,0,0,1,1.43.36,12.72,12.72,0,0,1,1.56.79,9.27,9.27,0,0,1,1.43,1,3.69,3.69,0,0,1,.5.58,3,3,0,0,1,1-.17H39.1c-.11-.23-.2-.45-.28-.64a2.12,2.12,0,0,1-.2-.82,1.64,1.64,0,0,1,.88-1.53,2.72,2.72,0,0,1,1.18-.26A2.11,2.11,0,0,1,42.22,3a4.77,4.77,0,0,1,.85,1.16c.21.41.4.81.56,1.19a2.44,2.44,0,0,1,.1.24h2.46L46.74,4a3,3,0,0,1,.59-1,1.88,1.88,0,0,1,1.53-.69A4.39,4.39,0,0,1,50,2.43,1.63,1.63,0,0,1,51.2,4.08a2.94,2.94,0,0,1-.33,1.22l-.12.24h2.48a2.65,2.65,0,0,1,1.43.37,1.83,1.83,0,0,1,.83,1.67,1.79,1.79,0,0,1-.85,1.67,2.75,2.75,0,0,1-1.41.34H50.31a3.76,3.76,0,0,1,2.13.64,2.94,2.94,0,0,1,1,2.52v9.16A2.94,2.94,0,0,1,52,24.69h1.52a2,2,0,0,1,2.15,2.18,1.93,1.93,0,0,1-.9,1.69,3.57,3.57,0,0,1-1.43.49A9.74,9.74,0,0,1,52.22,29.11Zm-2.94-7.88v-.18H40.81v.18Zm0-4v0H40.81v0Zm0-3.8v-.05H40.81v.05Z"/><path class="cls-2" d="M52.22,28.11H45.36q-1.77,0-3.63-.06A22.08,22.08,0,0,1,38,27.6a7.9,7.9,0,0,1-3.83-1.91l-.51.39c-.51.42-1.05.81-1.58,1.17a3.59,3.59,0,0,1-2,.67,2,2,0,0,1-1.66-.74,2.49,2.49,0,0,1-.49-1.54A2.09,2.09,0,0,1,28.68,24a5.5,5.5,0,0,1,1-.67l2.07-1V15.76h-.13l-1.22,0A3.64,3.64,0,0,1,29,15.49a1.88,1.88,0,0,1-1-1.88,2,2,0,0,1,.77-1.7,2.51,2.51,0,0,1,1.52-.45h2.57a3,3,0,0,1,3.3,3.32V22a3.17,3.17,0,0,0,.68.64,3.21,3.21,0,0,0,.5.31,3.35,3.35,0,0,1-.61-2.07V11.75a2.89,2.89,0,0,1,3-3.16H37.43A2.49,2.49,0,0,1,36,8.19a1.58,1.58,0,0,1-.42-.38,2.33,2.33,0,0,1-1,.18,2.64,2.64,0,0,1-1.09-.31c-.33-.15-.7-.33-1.1-.54l-1.06-.57-.69-.38a4.24,4.24,0,0,1-.76-.52,1.73,1.73,0,0,1-.62-1.42,2.48,2.48,0,0,1,.48-1.56,2,2,0,0,1,1.7-.75,4.05,4.05,0,0,1,1.43.36,12.72,12.72,0,0,1,1.56.79,9.27,9.27,0,0,1,1.43,1,3.69,3.69,0,0,1,.5.58,3,3,0,0,1,1-.17H39.1c-.11-.23-.2-.45-.28-.64a2.12,2.12,0,0,1-.2-.82,1.64,1.64,0,0,1,.88-1.53,2.72,2.72,0,0,1,1.18-.26A2.11,2.11,0,0,1,42.22,2a4.77,4.77,0,0,1,.85,1.16c.21.41.4.81.56,1.19a2.44,2.44,0,0,1,.1.24h2.46L46.74,3a3,3,0,0,1,.59-1,1.88,1.88,0,0,1,1.53-.69A4.39,4.39,0,0,1,50,1.43,1.63,1.63,0,0,1,51.2,3.08a2.94,2.94,0,0,1-.33,1.22l-.12.24h2.48a2.65,2.65,0,0,1,1.43.37,1.83,1.83,0,0,1,.83,1.67,1.79,1.79,0,0,1-.85,1.67,2.75,2.75,0,0,1-1.41.34H50.31a3.76,3.76,0,0,1,2.13.64,2.94,2.94,0,0,1,1,2.52v9.16A2.94,2.94,0,0,1,52,23.69h1.52a2,2,0,0,1,2.15,2.18,1.93,1.93,0,0,1-.9,1.69,3.57,3.57,0,0,1-1.43.49A9.74,9.74,0,0,1,52.22,28.11Zm-2.94-7.88v-.18H40.81v.18Zm0-4v0H40.81v0Zm0-3.8v-.05H40.81v.05Z"/><path class="cls-2" d="M52.22,27.11H45.36q-1.77,0-3.63-.06A22.08,22.08,0,0,1,38,26.6a7.9,7.9,0,0,1-3.83-1.91l-.51.39c-.51.42-1.05.81-1.58,1.17a3.59,3.59,0,0,1-2,.67,2,2,0,0,1-1.66-.74,2.49,2.49,0,0,1-.49-1.54A2.09,2.09,0,0,1,28.68,23a5.5,5.5,0,0,1,1-.67l2.07-1V14.76h-.13l-1.22,0A3.64,3.64,0,0,1,29,14.49a1.88,1.88,0,0,1-1-1.88,2,2,0,0,1,.77-1.7,2.51,2.51,0,0,1,1.52-.45h2.57a3,3,0,0,1,3.3,3.32V21a3.17,3.17,0,0,0,.68.64,3.21,3.21,0,0,0,.5.31,3.35,3.35,0,0,1-.61-2.07V10.75a2.89,2.89,0,0,1,3-3.16H37.43A2.49,2.49,0,0,1,36,7.19a1.58,1.58,0,0,1-.42-.38,2.33,2.33,0,0,1-1,.18,2.64,2.64,0,0,1-1.09-.31c-.33-.15-.7-.33-1.1-.54l-1.06-.57-.69-.38a4.24,4.24,0,0,1-.76-.52,1.73,1.73,0,0,1-.62-1.42,2.48,2.48,0,0,1,.48-1.56A2,2,0,0,1,31.5.94a4.05,4.05,0,0,1,1.43.36,12.72,12.72,0,0,1,1.56.79,9.27,9.27,0,0,1,1.43,1,3.69,3.69,0,0,1,.5.58,3,3,0,0,1,1-.17H39.1c-.11-.23-.2-.45-.28-.64a2.12,2.12,0,0,1-.2-.82A1.64,1.64,0,0,1,39.5.55,2.72,2.72,0,0,1,40.68.29,2.11,2.11,0,0,1,42.22,1a4.77,4.77,0,0,1,.85,1.16c.21.41.4.81.56,1.19a2.44,2.44,0,0,1,.1.24h2.46L46.74,2a3,3,0,0,1,.59-1A1.88,1.88,0,0,1,48.86.26,4.39,4.39,0,0,1,50,.43,1.63,1.63,0,0,1,51.2,2.08a2.94,2.94,0,0,1-.33,1.22l-.12.24h2.48a2.65,2.65,0,0,1,1.43.37,1.83,1.83,0,0,1,.83,1.67,1.79,1.79,0,0,1-.85,1.67,2.75,2.75,0,0,1-1.41.34H50.31a3.76,3.76,0,0,1,2.13.64,2.94,2.94,0,0,1,1,2.52v9.16A2.94,2.94,0,0,1,52,22.69h1.52a2,2,0,0,1,2.15,2.18,1.93,1.93,0,0,1-.9,1.69,3.57,3.57,0,0,1-1.43.49A9.74,9.74,0,0,1,52.22,27.11Zm-2.94-7.88v-.18H40.81v.18Zm0-4v0H40.81v0Zm0-3.8v-.05H40.81v.05Z"/><text class="cls-4" transform="translate(27.8 24.64)">道</text></g></g></svg>