<svg xmlns="http://www.w3.org/2000/svg" viewBox="0 0 319.56 66.72"><defs><style>.cls-1{fill:#231815;}.cls-2{fill:none;stroke:#f7f8f8;stroke-width:9px;}.cls-3{fill:#f9c57d;}</style></defs><g id="レイヤー_2" data-name="レイヤー 2"><g id="レイヤー_1-2" data-name="レイヤー 1"><text/><path class="cls-1" d="M6.48,45.52a1.77,1.77,0,0,1-2-2,1.73,1.73,0,0,1,.57-1.43,3.27,3.27,0,0,1,1.41-.64l3.78-.92V24.6H6.61a2.29,2.29,0,0,1-1.43-.42,1.62,1.62,0,0,1-.55-1.38,1.54,1.54,0,0,1,.55-1.36A2.35,2.35,0,0,1,6.61,21h3.65v-8.7a2.35,2.35,0,0,1,.41-1.43,1.63,1.63,0,0,1,1.39-.55,1.62,1.62,0,0,1,1.38.55,2.29,2.29,0,0,1,.42,1.43V21H17a2.35,2.35,0,0,1,1.43.4A1.57,1.57,0,0,1,19,22.8a1.65,1.65,0,0,1-.55,1.38A2.29,2.29,0,0,1,17,24.6H13.86v15l1-.3q.72-.22,1.47-.42a5.33,5.33,0,0,1,1-.2A1.54,1.54,0,0,1,19,40.42a1.59,1.59,0,0,1-.53,1.21,4.66,4.66,0,0,1-1.23.83A9.89,9.89,0,0,1,16,43l-2,.64c-.86.27-1.79.56-2.79.85s-1.92.54-2.79.75A9,9,0,0,1,6.48,45.52Zm26.36,4.7-4,0a28.78,28.78,0,0,1-4-.33,4.77,4.77,0,0,1-2.71-1.3,3.93,3.93,0,0,1-.94-2.83v-16c-.18.06-.54.2-1.1.44s-1.11.44-1.65.63a4.39,4.39,0,0,1-1.07.29,1.27,1.27,0,0,1-1.17-.53,2.33,2.33,0,0,1-.33-1.27,1.7,1.7,0,0,1,.44-1.21,3.07,3.07,0,0,1,1.1-.73l3.78-1.49v-10a2.55,2.55,0,0,1,.39-1.45A1.56,1.56,0,0,1,23,13.83a1.65,1.65,0,0,1,1.38.55,2.37,2.37,0,0,1,.42,1.47v8.57l5.54-2.19V12.12a2.51,2.51,0,0,1,.39-1.45,1.55,1.55,0,0,1,1.36-.57,1.63,1.63,0,0,1,1.39.55,2.34,2.34,0,0,1,.42,1.47v8.7c.52-.2,1.24-.51,2.15-.9s1.83-.76,2.77-1.1a7,7,0,0,1,2.28-.5,2.4,2.4,0,0,1,2.35,1.12,5.52,5.52,0,0,1,.6,2.65V32.47a7.17,7.17,0,0,1-1.65,5.09,6.56,6.56,0,0,1-5,1.76,1.64,1.64,0,0,1-1.43-.59,2.57,2.57,0,0,1-.42-1.52A1.44,1.44,0,0,1,36,36a3.22,3.22,0,0,1,1.19-.5c.47-.11,1-.22,1.43-.36a2.35,2.35,0,0,0,1.21-.76,2.89,2.89,0,0,0,.48-1.85V24.07a1.8,1.8,0,0,0-.24-1,.92.92,0,0,0-.86-.4,4.05,4.05,0,0,0-1,.24c-.48.16-1,.37-1.6.62L35,24.25l-1.09.44V41.12a2.58,2.58,0,0,1-.38,1.45,1.53,1.53,0,0,1-1.38.57,1.63,1.63,0,0,1-1.39-.55,2.33,2.33,0,0,1-.41-1.47v-15l-5.54,2.2V44.55a1.59,1.59,0,0,0,.28,1,2.28,2.28,0,0,0,.86.64,5.92,5.92,0,0,0,1.54.26c.76.06,1.6.1,2.53.13s1.78,0,2.57,0h3.05c.6,0,1.25,0,1.93-.07a17.53,17.53,0,0,0,1.92-.22,3.33,3.33,0,0,0,1.27-.42,2.23,2.23,0,0,0,1-1.43,16,16,0,0,0,.29-1.8,3.68,3.68,0,0,1,.43-1.51,1.55,1.55,0,0,1,1.46-.62c1.34,0,2,.72,2,2.16a19.45,19.45,0,0,1-.16,2.41,7.51,7.51,0,0,1-.7,2.46,3.41,3.41,0,0,1-1.74,1.67,8.07,8.07,0,0,1-2.17.55c-.92.13-1.91.23-3,.29s-2.06.09-3,.11Z"/><path class="cls-1" d="M56.05,49.78a4.68,4.68,0,0,1-3.28-1,4.23,4.23,0,0,1-1.12-3.23V16.07q0-4.26,4.31-4.26H85q4.3,0,4.3,4.26V45.52a4.65,4.65,0,0,1-1,3.12,3.84,3.84,0,0,1-3.06,1.14Zm1.67-3.56H83.25a2.06,2.06,0,0,0,2.33-2.33V17.7a2.06,2.06,0,0,0-2.33-2.33H57.72a2.06,2.06,0,0,0-2.33,2.33V43.89A2.06,2.06,0,0,0,57.72,46.22Zm1.18-1.84q-1.8,0-1.8-1.89a1.75,1.75,0,0,1,.53-1.28,2.82,2.82,0,0,1,.88-.46l1.6-.68a9.08,9.08,0,0,1,1-.4,22.31,22.31,0,0,0,3.67-1.89c1.16-.73,2.28-1.51,3.36-2.33-1.4-.82-2.82-1.58-4.26-2.3s-2.9-1.4-4.39-2a11.52,11.52,0,0,1-1.34-.72,1.4,1.4,0,0,1-.77-1.25,1.53,1.53,0,0,1,1.75-1.72,5.88,5.88,0,0,1,1.78.46c.81.31,1.71.71,2.71,1.19s2,1,3,1.49L69.23,32c.79.42,1.36.74,1.72.95A55.55,55.55,0,0,0,75.78,27a39.61,39.61,0,0,0,3.73-6.63,11.5,11.5,0,0,1,.86-1.5,1.62,1.62,0,0,1,1.43-.74,2.88,2.88,0,0,1,1.49.35,1.38,1.38,0,0,1,.62,1.32,6.17,6.17,0,0,1-.77,2.52,32.81,32.81,0,0,1-2,3.41c-.79,1.23-1.64,2.44-2.54,3.65s-1.76,2.28-2.55,3.25-1.42,1.7-1.89,2.19L79.51,38c.36.21.85.52,1.5,1a12.77,12.77,0,0,1,1.76,1.38,2.15,2.15,0,0,1,.79,1.5,1.85,1.85,0,0,1-2.11,2.06,2.21,2.21,0,0,1-1.21-.42c-.43-.27-.8-.53-1.12-.76q-1.84-1.45-3.76-2.77t-3.89-2.55a27.23,27.23,0,0,1-2.52,2q-1.65,1.17-3.54,2.31a33.4,33.4,0,0,1-3.65,1.93A7.38,7.38,0,0,1,58.9,44.38Zm5.19-17A1.38,1.38,0,0,1,63,26.88c-.3-.35-.58-.67-.81-1l-.86-1.19c-.39-.56-.82-1.15-1.27-1.78s-.84-1.2-1.17-1.71a2.72,2.72,0,0,1-.48-1A1.41,1.41,0,0,1,58.88,19a1.86,1.86,0,0,1,1.21-.37,2,2,0,0,1,1.1.59,17.33,17.33,0,0,1,1.52,1.49q.81.9,1.56,1.89a16.06,16.06,0,0,1,1.2,1.81,2.87,2.87,0,0,1,.47,1.2C65.94,26.83,65.32,27.41,64.09,27.41ZM72.7,26a1.27,1.27,0,0,1-1-.5,10.29,10.29,0,0,1-.68-.95c-.41-.76-.83-1.51-1.27-2.24s-.91-1.45-1.41-2.15c-.11-.21-.26-.45-.44-.73a1.5,1.5,0,0,1-.26-.77,1.4,1.4,0,0,1,.46-1.16,1.86,1.86,0,0,1,1.21-.38,1.71,1.71,0,0,1,1.3.6,10,10,0,0,1,.9,1.12c.17.26.43.63.77,1.1l1,1.51A15,15,0,0,1,74.26,23a3,3,0,0,1,.38,1.23,1.59,1.59,0,0,1-.53,1.34A2.19,2.19,0,0,1,72.7,26Z"/><path class="cls-1" d="M101.71,50a1.91,1.91,0,0,1-2.16-2.16,1.49,1.49,0,0,1,.73-1.36,4.88,4.88,0,0,1,1.47-.61,55.8,55.8,0,0,0,9.41-3.5,31,31,0,0,0,8.13-5.82,40.8,40.8,0,0,0-3.94-3.06q-2-1.38-4.24-2.7a8.44,8.44,0,0,1-1.16-.86,1.5,1.5,0,0,1-.6-1.2,1.62,1.62,0,0,1,1.85-1.81,4.5,4.5,0,0,1,1.76.58,24.6,24.6,0,0,1,2.5,1.47c.91.6,1.81,1.21,2.7,1.84s1.69,1.21,2.38,1.72,1.18.87,1.47,1.07a21.27,21.27,0,0,0,1.65-2.37c.66-1.05,1.32-2.2,2-3.43a36.74,36.74,0,0,0,1.64-3.49,7.56,7.56,0,0,0,.66-2.57,1,1,0,0,0-.48-1,2.29,2.29,0,0,0-1.14-.27H112.17c-.38.62-.93,1.46-1.65,2.53s-1.54,2.22-2.46,3.45-1.88,2.39-2.86,3.47a20,20,0,0,1-2.88,2.68,4.34,4.34,0,0,1-2.5,1.06c-1.29,0-1.94-.62-1.94-1.85a2,2,0,0,1,.79-1.45c.53-.47,1-.83,1.32-1.1a23.57,23.57,0,0,0,4.73-4.52,38.31,38.31,0,0,0,3.62-5.52,54.36,54.36,0,0,0,2.77-5.91,8.21,8.21,0,0,1,.79-1.45,1.64,1.64,0,0,1,1.45-.7q1.89,0,1.89,1.8a5.78,5.78,0,0,1-.39,1.89c-.27.73-.52,1.35-.75,1.85h14.72a3.46,3.46,0,0,1,2.46,1,3.21,3.21,0,0,1,1.06,2.44,11.29,11.29,0,0,1-.6,3.45,31.57,31.57,0,0,1-1.4,3.65c-.55,1.19-1.06,2.23-1.56,3.14A35.75,35.75,0,0,1,119,42a47.48,47.48,0,0,1-13.51,7.1c-.5.17-1.12.36-1.85.57A7.52,7.52,0,0,1,101.71,50Z"/><path class="cls-1" d="M162.83,50.62a1.74,1.74,0,0,1-1.66-.77,3.67,3.67,0,0,1-.44-1.87V28.25c-.62.41-1.51,1-2.66,1.69s-2.44,1.47-3.85,2.26-2.82,1.55-4.24,2.26a42.39,42.39,0,0,1-3.89,1.76,8.09,8.09,0,0,1-2.77.68,1.77,1.77,0,0,1-1.51-.59,2.43,2.43,0,0,1-.46-1.56,1.72,1.72,0,0,1,.52-1.27,5.79,5.79,0,0,1,1-.55c.59-.28,1.26-.58,2-.9s1.45-.61,2.08-.86,1-.42,1.21-.51a65.22,65.22,0,0,0,12-6.85,60.85,60.85,0,0,0,10.2-9.27c.32-.38.75-.83,1.27-1.34a2.32,2.32,0,0,1,1.63-.77,2.44,2.44,0,0,1,1.58.46,1.79,1.79,0,0,1,.57,1.47,3.6,3.6,0,0,1-.88,2,21,21,0,0,1-2.24,2.52c-.9.9-1.85,1.77-2.83,2.62s-1.88,1.6-2.68,2.26-1.4,1.14-1.78,1.43V48a3.67,3.67,0,0,1-.46,1.87A1.83,1.83,0,0,1,162.83,50.62Z"/><path class="cls-1" d="M200.76,48.2a10,10,0,0,1-6.15-1.72q-2.3-1.71-2.29-5.84V15.06a3.43,3.43,0,0,1,.44-1.78,1.7,1.7,0,0,1,1.58-.72,1.76,1.76,0,0,1,1.61.72,3.25,3.25,0,0,1,.46,1.78V25q4-.45,8.09-1a61.23,61.23,0,0,0,7.91-1.61c.17-.06.53-.16,1.07-.31l1.78-.48c.65-.17,1.22-.32,1.74-.44a5.29,5.29,0,0,1,1-.17,2,2,0,0,1,2.24,2.24,1.54,1.54,0,0,1-.66,1.23,6.25,6.25,0,0,1-1.6.9,12.59,12.59,0,0,1-1.87.59c-.61.15-1.08.25-1.41.31q-4.51,1-9.14,1.49c-3.07.36-6.13.72-9.18,1.1V39.37c0,1.93.42,3.22,1.25,3.86a6.51,6.51,0,0,0,4,1h18a3.33,3.33,0,0,1,1.74.44,1.7,1.7,0,0,1,.72,1.58,1.66,1.66,0,0,1-.72,1.54,3.33,3.33,0,0,1-1.74.44ZM221.5,19.33a4.58,4.58,0,0,1-4.57-4.57,4.3,4.3,0,0,1,1.36-3.23,4.55,4.55,0,0,1,3.26-1.3,4.2,4.2,0,0,1,3.18,1.36A4.49,4.49,0,0,1,226,14.8a4.51,4.51,0,0,1-4.53,4.53Zm0-2.2a2.09,2.09,0,0,0,2.37-2.37,2.35,2.35,0,0,0-4.7,0A2.06,2.06,0,0,0,221.46,17.13Z"/><path class="cls-1" d="M236.66,48.2a2,2,0,0,1-2.28-2.29,2.06,2.06,0,0,1,.83-1.67,3.22,3.22,0,0,1,.86-.3c.45-.12,1-.24,1.52-.36s1.07-.22,1.53-.3l1-.18a34.79,34.79,0,0,0,8.77-3,36,36,0,0,0,7.86-5.3,30.67,30.67,0,0,0,6-7,14.6,14.6,0,0,0,1.25-2.33c.34-.79.67-1.59,1-2.41a11.51,11.51,0,0,1,.86-1.67,1.68,1.68,0,0,1,1.56-.84,1.85,1.85,0,0,1,2.11,2.07,6.4,6.4,0,0,1-.6,2.42c-.39.93-.74,1.69-1,2.28a34.27,34.27,0,0,1-10.13,12.41,46,46,0,0,1-14.44,7.15l-2.08.59c-.81.22-1.61.4-2.4.55A12.31,12.31,0,0,1,236.66,48.2Zm8.75-25a2.1,2.1,0,0,1-1.08-.3c-.34-.21-.65-.41-.94-.62-1.09-.79-2.17-1.54-3.26-2.26s-2.22-1.4-3.42-2.05a8.59,8.59,0,0,1-1.23-.81,1.52,1.52,0,0,1-.66-1.25,1.84,1.84,0,0,1,.66-1.61,2.89,2.89,0,0,1,1.67-.46,5.28,5.28,0,0,1,1.8.55,27.14,27.14,0,0,1,2.72,1.43c1,.59,2,1.21,2.88,1.87a19.58,19.58,0,0,1,2.29,1.87,2.37,2.37,0,0,1,.9,1.45,2.08,2.08,0,0,1-.62,1.64A2.46,2.46,0,0,1,245.41,23.19Z"/><path class="cls-1" d="M281,50.44a1.85,1.85,0,0,1-2.07-2.11,1.49,1.49,0,0,1,.8-1.43,6.07,6.07,0,0,1,1.62-.59q2.07-.48,4-1.08a31.75,31.75,0,0,0,11.58-6.33A31.21,31.21,0,0,0,303,32a27.91,27.91,0,0,0,3.67-8.39,2.94,2.94,0,0,0,.14-.55c.05-.31.08-.48.08-.51a.94.94,0,0,0-.5-1,2.73,2.73,0,0,0-1.12-.22H291.86c-.38.61-.91,1.42-1.58,2.41s-1.44,2.06-2.29,3.17a37.19,37.19,0,0,1-2.68,3.14,18.49,18.49,0,0,1-2.77,2.42,4.49,4.49,0,0,1-2.5.94,1.75,1.75,0,0,1-2-2,1.6,1.6,0,0,1,.48-1.13,9.86,9.86,0,0,1,.93-.85,42,42,0,0,0,4.9-4.57,30.94,30.94,0,0,0,3.47-4.77,50.14,50.14,0,0,0,3-6,7.94,7.94,0,0,1,.88-1.56,1.83,1.83,0,0,1,1.58-.72,2.14,2.14,0,0,1,1.41.43,1.7,1.7,0,0,1,.53,1.37,4.23,4.23,0,0,1-.24,1.23c-.16.5-.35,1-.55,1.45s-.38.85-.53,1.14h14.33a2.88,2.88,0,0,1,2.3,1.06,3.59,3.59,0,0,1,.9,2.41,12.52,12.52,0,0,1-.55,3.61,27.34,27.34,0,0,1-1.36,3.62c-.54,1.19-1.09,2.28-1.65,3.28a41.33,41.33,0,0,1-7.8,10.17,31.56,31.56,0,0,1-11,6.61l-2.46.84c-1,.35-2.06.66-3.1.94A10.33,10.33,0,0,1,281,50.44ZM308.51,17c-1,0-1.53-.54-1.53-1.63V12.29q0-1.62,1.53-1.62c1,0,1.54.54,1.54,1.62v3.08C310.05,16.46,309.54,17,308.51,17Zm5,0c-1,0-1.53-.54-1.53-1.63V12.29q0-1.62,1.53-1.62c1,0,1.54.54,1.54,1.62v3.08C315.06,16.46,314.55,17,313.52,17Z"/><path class="cls-2" d="M6.48,45.52a1.77,1.77,0,0,1-2-2,1.73,1.73,0,0,1,.57-1.43,3.27,3.27,0,0,1,1.41-.64l3.78-.92V24.6H6.61a2.29,2.29,0,0,1-1.43-.42,1.62,1.62,0,0,1-.55-1.38,1.54,1.54,0,0,1,.55-1.36A2.35,2.35,0,0,1,6.61,21h3.65v-8.7a2.35,2.35,0,0,1,.41-1.43,1.63,1.63,0,0,1,1.39-.55,1.62,1.62,0,0,1,1.38.55,2.29,2.29,0,0,1,.42,1.43V21H17a2.35,2.35,0,0,1,1.43.4A1.57,1.57,0,0,1,19,22.8a1.65,1.65,0,0,1-.55,1.38A2.29,2.29,0,0,1,17,24.6H13.86v15l1-.3q.72-.22,1.47-.42a5.33,5.33,0,0,1,1-.2A1.54,1.54,0,0,1,19,40.42a1.59,1.59,0,0,1-.53,1.21,4.66,4.66,0,0,1-1.23.83A9.89,9.89,0,0,1,16,43l-2,.64c-.86.27-1.79.56-2.79.85s-1.92.54-2.79.75A9,9,0,0,1,6.48,45.52Zm26.36,4.7-4,0a28.78,28.78,0,0,1-4-.33,4.77,4.77,0,0,1-2.71-1.3,3.93,3.93,0,0,1-.94-2.83v-16c-.18.06-.54.2-1.1.44s-1.11.44-1.65.63a4.39,4.39,0,0,1-1.07.29,1.27,1.27,0,0,1-1.17-.53,2.33,2.33,0,0,1-.33-1.27,1.7,1.7,0,0,1,.44-1.21,3.07,3.07,0,0,1,1.1-.73l3.78-1.49v-10a2.55,2.55,0,0,1,.39-1.45A1.56,1.56,0,0,1,23,13.83a1.65,1.65,0,0,1,1.38.55,2.37,2.37,0,0,1,.42,1.47v8.57l5.54-2.19V12.12a2.51,2.51,0,0,1,.39-1.45,1.55,1.55,0,0,1,1.36-.57,1.63,1.63,0,0,1,1.39.55,2.34,2.34,0,0,1,.42,1.47v8.7c.52-.2,1.24-.51,2.15-.9s1.83-.76,2.77-1.1a7,7,0,0,1,2.28-.5,2.4,2.4,0,0,1,2.35,1.12,5.52,5.52,0,0,1,.6,2.65V32.47a7.17,7.17,0,0,1-1.65,5.09,6.56,6.56,0,0,1-5,1.76,1.64,1.64,0,0,1-1.43-.59,2.57,2.57,0,0,1-.42-1.52A1.44,1.44,0,0,1,36,36a3.22,3.22,0,0,1,1.19-.5c.47-.11,1-.22,1.43-.36a2.35,2.35,0,0,0,1.21-.76,2.89,2.89,0,0,0,.48-1.85V24.07a1.8,1.8,0,0,0-.24-1,.92.92,0,0,0-.86-.4,4.05,4.05,0,0,0-1,.24c-.48.16-1,.37-1.6.62L35,24.25l-1.09.44V41.12a2.58,2.58,0,0,1-.38,1.45,1.53,1.53,0,0,1-1.38.57,1.63,1.63,0,0,1-1.39-.55,2.33,2.33,0,0,1-.41-1.47v-15l-5.54,2.2V44.55a1.59,1.59,0,0,0,.28,1,2.28,2.28,0,0,0,.86.64,5.92,5.92,0,0,0,1.54.26c.76.06,1.6.1,2.53.13s1.78,0,2.57,0h3.05c.6,0,1.25,0,1.93-.07a17.53,17.53,0,0,0,1.92-.22,3.33,3.33,0,0,0,1.27-.42,2.23,2.23,0,0,0,1-1.43,16,16,0,0,0,.29-1.8,3.68,3.68,0,0,1,.43-1.51,1.55,1.55,0,0,1,1.46-.62c1.34,0,2,.72,2,2.16a19.45,19.45,0,0,1-.16,2.41,7.51,7.51,0,0,1-.7,2.46,3.41,3.41,0,0,1-1.74,1.67,8.07,8.07,0,0,1-2.17.55c-.92.13-1.91.23-3,.29s-2.06.09-3,.11Z"/><path class="cls-2" d="M56.05,49.78a4.68,4.68,0,0,1-3.28-1,4.23,4.23,0,0,1-1.12-3.23V16.07q0-4.26,4.31-4.26H85q4.3,0,4.3,4.26V45.52a4.65,4.65,0,0,1-1,3.12,3.84,3.84,0,0,1-3.06,1.14Zm1.67-3.56H83.25a2.06,2.06,0,0,0,2.33-2.33V17.7a2.06,2.06,0,0,0-2.33-2.33H57.72a2.06,2.06,0,0,0-2.33,2.33V43.89A2.06,2.06,0,0,0,57.72,46.22Zm1.18-1.84q-1.8,0-1.8-1.89a1.75,1.75,0,0,1,.53-1.28,2.82,2.82,0,0,1,.88-.46l1.6-.68a9.08,9.08,0,0,1,1-.4,22.31,22.31,0,0,0,3.67-1.89c1.16-.73,2.28-1.51,3.36-2.33-1.4-.82-2.82-1.58-4.26-2.3s-2.9-1.4-4.39-2a11.52,11.52,0,0,1-1.34-.72,1.4,1.4,0,0,1-.77-1.25,1.53,1.53,0,0,1,1.75-1.72,5.88,5.88,0,0,1,1.78.46c.81.31,1.71.71,2.71,1.19s2,1,3,1.49L69.23,32c.79.42,1.36.74,1.72.95A55.55,55.55,0,0,0,75.78,27a39.61,39.61,0,0,0,3.73-6.63,11.5,11.5,0,0,1,.86-1.5,1.62,1.62,0,0,1,1.43-.74,2.88,2.88,0,0,1,1.49.35,1.38,1.38,0,0,1,.62,1.32,6.17,6.17,0,0,1-.77,2.52,32.81,32.81,0,0,1-2,3.41c-.79,1.23-1.64,2.44-2.54,3.65s-1.76,2.28-2.55,3.25-1.42,1.7-1.89,2.19L79.51,38c.36.21.85.52,1.5,1a12.77,12.77,0,0,1,1.76,1.38,2.15,2.15,0,0,1,.79,1.5,1.85,1.85,0,0,1-2.11,2.06,2.21,2.21,0,0,1-1.21-.42c-.43-.27-.8-.53-1.12-.76q-1.84-1.45-3.76-2.77t-3.89-2.55a27.23,27.23,0,0,1-2.52,2q-1.65,1.17-3.54,2.31a33.4,33.4,0,0,1-3.65,1.93A7.38,7.38,0,0,1,58.9,44.38Zm5.19-17A1.38,1.38,0,0,1,63,26.88c-.3-.35-.58-.67-.81-1l-.86-1.19c-.39-.56-.82-1.15-1.27-1.78s-.84-1.2-1.17-1.71a2.72,2.72,0,0,1-.48-1A1.41,1.41,0,0,1,58.88,19a1.86,1.86,0,0,1,1.21-.37,2,2,0,0,1,1.1.59,17.33,17.33,0,0,1,1.52,1.49q.81.9,1.56,1.89a16.06,16.06,0,0,1,1.2,1.81,2.87,2.87,0,0,1,.47,1.2C65.94,26.83,65.32,27.41,64.09,27.41ZM72.7,26a1.27,1.27,0,0,1-1-.5,10.29,10.29,0,0,1-.68-.95c-.41-.76-.83-1.51-1.27-2.24s-.91-1.45-1.41-2.15c-.11-.21-.26-.45-.44-.73a1.5,1.5,0,0,1-.26-.77,1.4,1.4,0,0,1,.46-1.16,1.86,1.86,0,0,1,1.21-.38,1.71,1.71,0,0,1,1.3.6,10,10,0,0,1,.9,1.12c.17.26.43.63.77,1.1l1,1.51A15,15,0,0,1,74.26,23a3,3,0,0,1,.38,1.23,1.59,1.59,0,0,1-.53,1.34A2.19,2.19,0,0,1,72.7,26Z"/><path class="cls-2" d="M101.71,50a1.91,1.91,0,0,1-2.16-2.16,1.49,1.49,0,0,1,.73-1.36,4.88,4.88,0,0,1,1.47-.61,55.8,55.8,0,0,0,9.41-3.5,31,31,0,0,0,8.13-5.82,40.8,40.8,0,0,0-3.94-3.06q-2-1.38-4.24-2.7a8.44,8.44,0,0,1-1.16-.86,1.5,1.5,0,0,1-.6-1.2,1.62,1.62,0,0,1,1.85-1.81,4.5,4.5,0,0,1,1.76.58,24.6,24.6,0,0,1,2.5,1.47c.91.6,1.81,1.21,2.7,1.84s1.69,1.21,2.38,1.72,1.18.87,1.47,1.07a21.27,21.27,0,0,0,1.65-2.37c.66-1.05,1.32-2.2,2-3.43a36.74,36.74,0,0,0,1.64-3.49,7.56,7.56,0,0,0,.66-2.57,1,1,0,0,0-.48-1,2.29,2.29,0,0,0-1.14-.27H112.17c-.38.62-.93,1.46-1.65,2.53s-1.54,2.22-2.46,3.45-1.88,2.39-2.86,3.47a20,20,0,0,1-2.88,2.68,4.34,4.34,0,0,1-2.5,1.06c-1.29,0-1.94-.62-1.94-1.85a2,2,0,0,1,.79-1.45c.53-.47,1-.83,1.32-1.1a23.57,23.57,0,0,0,4.73-4.52,38.31,38.31,0,0,0,3.62-5.52,54.36,54.36,0,0,0,2.77-5.91,8.21,8.21,0,0,1,.79-1.45,1.64,1.64,0,0,1,1.45-.7q1.89,0,1.89,1.8a5.78,5.78,0,0,1-.39,1.89c-.27.73-.52,1.35-.75,1.85h14.72a3.46,3.46,0,0,1,2.46,1,3.21,3.21,0,0,1,1.06,2.44,11.29,11.29,0,0,1-.6,3.45,31.57,31.57,0,0,1-1.4,3.65c-.55,1.19-1.06,2.23-1.56,3.14A35.75,35.75,0,0,1,119,42a47.48,47.48,0,0,1-13.51,7.1c-.5.17-1.12.36-1.85.57A7.52,7.52,0,0,1,101.71,50Z"/><path class="cls-2" d="M162.83,50.62a1.74,1.74,0,0,1-1.66-.77,3.67,3.67,0,0,1-.44-1.87V28.25c-.62.41-1.51,1-2.66,1.69s-2.44,1.47-3.85,2.26-2.82,1.55-4.24,2.26a42.39,42.39,0,0,1-3.89,1.76,8.09,8.09,0,0,1-2.77.68,1.77,1.77,0,0,1-1.51-.59,2.43,2.43,0,0,1-.46-1.56,1.72,1.72,0,0,1,.52-1.27,5.79,5.79,0,0,1,1-.55c.59-.28,1.26-.58,2-.9s1.45-.61,2.08-.86,1-.42,1.21-.51a65.22,65.22,0,0,0,12-6.85,60.85,60.85,0,0,0,10.2-9.27c.32-.38.75-.83,1.27-1.34a2.32,2.32,0,0,1,1.63-.77,2.44,2.44,0,0,1,1.58.46,1.79,1.79,0,0,1,.57,1.47,3.6,3.6,0,0,1-.88,2,21,21,0,0,1-2.24,2.52c-.9.9-1.85,1.77-2.83,2.62s-1.88,1.6-2.68,2.26-1.4,1.14-1.78,1.43V48a3.67,3.67,0,0,1-.46,1.87A1.83,1.83,0,0,1,162.83,50.62Z"/><path class="cls-2" d="M200.76,48.2a10,10,0,0,1-6.15-1.72q-2.3-1.71-2.29-5.84V15.06a3.43,3.43,0,0,1,.44-1.78,1.7,1.7,0,0,1,1.58-.72,1.76,1.76,0,0,1,1.61.72,3.25,3.25,0,0,1,.46,1.78V25q4-.45,8.09-1a61.23,61.23,0,0,0,7.91-1.61c.17-.06.53-.16,1.07-.31l1.78-.48c.65-.17,1.22-.32,1.74-.44a5.29,5.29,0,0,1,1-.17,2,2,0,0,1,2.24,2.24,1.54,1.54,0,0,1-.66,1.23,6.25,6.25,0,0,1-1.6.9,12.59,12.59,0,0,1-1.87.59c-.61.15-1.08.25-1.41.31q-4.51,1-9.14,1.49c-3.07.36-6.13.72-9.18,1.1V39.37c0,1.93.42,3.22,1.25,3.86a6.51,6.51,0,0,0,4,1h18a3.33,3.33,0,0,1,1.74.44,1.7,1.7,0,0,1,.72,1.58,1.66,1.66,0,0,1-.72,1.54,3.33,3.33,0,0,1-1.74.44ZM221.5,19.33a4.58,4.58,0,0,1-4.57-4.57,4.3,4.3,0,0,1,1.36-3.23,4.55,4.55,0,0,1,3.26-1.3,4.2,4.2,0,0,1,3.18,1.36A4.49,4.49,0,0,1,226,14.8a4.51,4.51,0,0,1-4.53,4.53Zm0-2.2a2.09,2.09,0,0,0,2.37-2.37,2.35,2.35,0,0,0-4.7,0A2.06,2.06,0,0,0,221.46,17.13Z"/><path class="cls-2" d="M236.66,48.2a2,2,0,0,1-2.28-2.29,2.06,2.06,0,0,1,.83-1.67,3.22,3.22,0,0,1,.86-.3c.45-.12,1-.24,1.52-.36s1.07-.22,1.53-.3l1-.18a34.79,34.79,0,0,0,8.77-3,36,36,0,0,0,7.86-5.3,30.67,30.67,0,0,0,6-7,14.6,14.6,0,0,0,1.25-2.33c.34-.79.67-1.59,1-2.41a11.51,11.51,0,0,1,.86-1.67,1.68,1.68,0,0,1,1.56-.84,1.85,1.85,0,0,1,2.11,2.07,6.4,6.4,0,0,1-.6,2.42c-.39.93-.74,1.69-1,2.28a34.27,34.27,0,0,1-10.13,12.41,46,46,0,0,1-14.44,7.15l-2.08.59c-.81.22-1.61.4-2.4.55A12.31,12.31,0,0,1,236.66,48.2Zm8.75-25a2.1,2.1,0,0,1-1.08-.3c-.34-.21-.65-.41-.94-.62-1.09-.79-2.17-1.54-3.26-2.26s-2.22-1.4-3.42-2.05a8.59,8.59,0,0,1-1.23-.81,1.52,1.52,0,0,1-.66-1.25,1.84,1.84,0,0,1,.66-1.61,2.89,2.89,0,0,1,1.67-.46,5.28,5.28,0,0,1,1.8.55,27.14,27.14,0,0,1,2.72,1.43c1,.59,2,1.21,2.88,1.87a19.58,19.58,0,0,1,2.29,1.87,2.37,2.37,0,0,1,.9,1.45,2.08,2.08,0,0,1-.62,1.64A2.46,2.46,0,0,1,245.41,23.19Z"/><path class="cls-2" d="M281,50.44a1.85,1.85,0,0,1-2.07-2.11,1.49,1.49,0,0,1,.8-1.43,6.07,6.07,0,0,1,1.62-.59q2.07-.48,4-1.08a31.75,31.75,0,0,0,11.58-6.33A31.21,31.21,0,0,0,303,32a27.91,27.91,0,0,0,3.67-8.39,2.94,2.94,0,0,0,.14-.55c.05-.31.08-.48.08-.51a.94.94,0,0,0-.5-1,2.73,2.73,0,0,0-1.12-.22H291.86c-.38.61-.91,1.42-1.58,2.41s-1.44,2.06-2.29,3.17a37.19,37.19,0,0,1-2.68,3.14,18.49,18.49,0,0,1-2.77,2.42,4.49,4.49,0,0,1-2.5.94,1.75,1.75,0,0,1-2-2,1.6,1.6,0,0,1,.48-1.13,9.86,9.86,0,0,1,.93-.85,42,42,0,0,0,4.9-4.57,30.94,30.94,0,0,0,3.47-4.77,50.14,50.14,0,0,0,3-6,7.94,7.94,0,0,1,.88-1.56,1.83,1.83,0,0,1,1.58-.72,2.14,2.14,0,0,1,1.41.43,1.7,1.7,0,0,1,.53,1.37,4.23,4.23,0,0,1-.24,1.23c-.16.5-.35,1-.55,1.45s-.38.85-.53,1.14h14.33a2.88,2.88,0,0,1,2.3,1.06,3.59,3.59,0,0,1,.9,2.41,12.52,12.52,0,0,1-.55,3.61,27.34,27.34,0,0,1-1.36,3.62c-.54,1.19-1.09,2.28-1.65,3.28a41.33,41.33,0,0,1-7.8,10.17,31.56,31.56,0,0,1-11,6.61l-2.46.84c-1,.35-2.06.66-3.1.94A10.33,10.33,0,0,1,281,50.44ZM308.51,17c-1,0-1.53-.54-1.53-1.63V12.29q0-1.62,1.53-1.62c1,0,1.54.54,1.54,1.62v3.08C310.05,16.46,309.54,17,308.51,17Zm5,0c-1,0-1.53-.54-1.53-1.63V12.29q0-1.62,1.53-1.62c1,0,1.54.54,1.54,1.62v3.08C315.06,16.46,314.55,17,313.52,17Z"/><path class="cls-3" d="M6.48,45.52a1.77,1.77,0,0,1-2-2,1.73,1.73,0,0,1,.57-1.43,3.27,3.27,0,0,1,1.41-.64l3.78-.92V24.6H6.61a2.29,2.29,0,0,1-1.43-.42,1.62,1.62,0,0,1-.55-1.38,1.54,1.54,0,0,1,.55-1.36A2.35,2.35,0,0,1,6.61,21h3.65v-8.7a2.35,2.35,0,0,1,.41-1.43,1.63,1.63,0,0,1,1.39-.55,1.62,1.62,0,0,1,1.38.55,2.29,2.29,0,0,1,.42,1.43V21H17a2.35,2.35,0,0,1,1.43.4A1.57,1.57,0,0,1,19,22.8a1.65,1.65,0,0,1-.55,1.38A2.29,2.29,0,0,1,17,24.6H13.86v15l1-.3q.72-.22,1.47-.42a5.33,5.33,0,0,1,1-.2A1.54,1.54,0,0,1,19,40.42a1.59,1.59,0,0,1-.53,1.21,4.66,4.66,0,0,1-1.23.83A9.89,9.89,0,0,1,16,43l-2,.64c-.86.27-1.79.56-2.79.85s-1.92.54-2.79.75A9,9,0,0,1,6.48,45.52Zm26.36,4.7-4,0a28.78,28.78,0,0,1-4-.33,4.77,4.77,0,0,1-2.71-1.3,3.93,3.93,0,0,1-.94-2.83v-16c-.18.06-.54.2-1.1.44s-1.11.44-1.65.63a4.39,4.39,0,0,1-1.07.29,1.27,1.27,0,0,1-1.17-.53,2.33,2.33,0,0,1-.33-1.27,1.7,1.7,0,0,1,.44-1.21,3.07,3.07,0,0,1,1.1-.73l3.78-1.49v-10a2.55,2.55,0,0,1,.39-1.45A1.56,1.56,0,0,1,23,13.83a1.65,1.65,0,0,1,1.38.55,2.37,2.37,0,0,1,.42,1.47v8.57l5.54-2.19V12.12a2.51,2.51,0,0,1,.39-1.45,1.55,1.55,0,0,1,1.36-.57,1.63,1.63,0,0,1,1.39.55,2.34,2.34,0,0,1,.42,1.47v8.7c.52-.2,1.24-.51,2.15-.9s1.83-.76,2.77-1.1a7,7,0,0,1,2.28-.5,2.4,2.4,0,0,1,2.35,1.12,5.52,5.52,0,0,1,.6,2.65V32.47a7.17,7.17,0,0,1-1.65,5.09,6.56,6.56,0,0,1-5,1.76,1.64,1.64,0,0,1-1.43-.59,2.57,2.57,0,0,1-.42-1.52A1.44,1.44,0,0,1,36,36a3.22,3.22,0,0,1,1.19-.5c.47-.11,1-.22,1.43-.36a2.35,2.35,0,0,0,1.21-.76,2.89,2.89,0,0,0,.48-1.85V24.07a1.8,1.8,0,0,0-.24-1,.92.92,0,0,0-.86-.4,4.05,4.05,0,0,0-1,.24c-.48.16-1,.37-1.6.62L35,24.25l-1.09.44V41.12a2.58,2.58,0,0,1-.38,1.45,1.53,1.53,0,0,1-1.38.57,1.63,1.63,0,0,1-1.39-.55,2.33,2.33,0,0,1-.41-1.47v-15l-5.54,2.2V44.55a1.59,1.59,0,0,0,.28,1,2.28,2.28,0,0,0,.86.64,5.92,5.92,0,0,0,1.54.26c.76.06,1.6.1,2.53.13s1.78,0,2.57,0h3.05c.6,0,1.25,0,1.93-.07a17.53,17.53,0,0,0,1.92-.22,3.33,3.33,0,0,0,1.27-.42,2.23,2.23,0,0,0,1-1.43,16,16,0,0,0,.29-1.8,3.68,3.68,0,0,1,.43-1.51,1.55,1.55,0,0,1,1.46-.62c1.34,0,2,.72,2,2.16a19.45,19.45,0,0,1-.16,2.41,7.51,7.51,0,0,1-.7,2.46,3.41,3.41,0,0,1-1.74,1.67,8.07,8.07,0,0,1-2.17.55c-.92.13-1.91.23-3,.29s-2.06.09-3,.11Z"/><path class="cls-3" d="M56.05,49.78a4.68,4.68,0,0,1-3.28-1,4.23,4.23,0,0,1-1.12-3.23V16.07q0-4.26,4.31-4.26H85q4.3,0,4.3,4.26V45.52a4.65,4.65,0,0,1-1,3.12,3.84,3.84,0,0,1-3.06,1.14Zm1.67-3.56H83.25a2.06,2.06,0,0,0,2.33-2.33V17.7a2.06,2.06,0,0,0-2.33-2.33H57.72a2.06,2.06,0,0,0-2.33,2.33V43.89A2.06,2.06,0,0,0,57.72,46.22Zm1.18-1.84q-1.8,0-1.8-1.89a1.75,1.75,0,0,1,.53-1.28,2.82,2.82,0,0,1,.88-.46l1.6-.68a9.08,9.08,0,0,1,1-.4,22.31,22.31,0,0,0,3.67-1.89c1.16-.73,2.28-1.51,3.36-2.33-1.4-.82-2.82-1.58-4.26-2.3s-2.9-1.4-4.39-2a11.52,11.52,0,0,1-1.34-.72,1.4,1.4,0,0,1-.77-1.25,1.53,1.53,0,0,1,1.75-1.72,5.88,5.88,0,0,1,1.78.46c.81.31,1.71.71,2.71,1.19s2,1,3,1.49L69.23,32c.79.42,1.36.74,1.72.95A55.55,55.55,0,0,0,75.78,27a39.61,39.61,0,0,0,3.73-6.63,11.5,11.5,0,0,1,.86-1.5,1.62,1.62,0,0,1,1.43-.74,2.88,2.88,0,0,1,1.49.35,1.38,1.38,0,0,1,.62,1.32,6.17,6.17,0,0,1-.77,2.52,32.81,32.81,0,0,1-2,3.41c-.79,1.23-1.64,2.44-2.54,3.65s-1.76,2.28-2.55,3.25-1.42,1.7-1.89,2.19L79.51,38c.36.21.85.52,1.5,1a12.77,12.77,0,0,1,1.76,1.38,2.15,2.15,0,0,1,.79,1.5,1.85,1.85,0,0,1-2.11,2.06,2.21,2.21,0,0,1-1.21-.42c-.43-.27-.8-.53-1.12-.76q-1.84-1.45-3.76-2.77t-3.89-2.55a27.23,27.23,0,0,1-2.52,2q-1.65,1.17-3.54,2.31a33.4,33.4,0,0,1-3.65,1.93A7.38,7.38,0,0,1,58.9,44.38Zm5.19-17A1.38,1.38,0,0,1,63,26.88c-.3-.35-.58-.67-.81-1l-.86-1.19c-.39-.56-.82-1.15-1.27-1.78s-.84-1.2-1.17-1.71a2.72,2.72,0,0,1-.48-1A1.41,1.41,0,0,1,58.88,19a1.86,1.86,0,0,1,1.21-.37,2,2,0,0,1,1.1.59,17.33,17.33,0,0,1,1.52,1.49q.81.9,1.56,1.89a16.06,16.06,0,0,1,1.2,1.81,2.87,2.87,0,0,1,.47,1.2C65.94,26.83,65.32,27.41,64.09,27.41ZM72.7,26a1.27,1.27,0,0,1-1-.5,10.29,10.29,0,0,1-.68-.95c-.41-.76-.83-1.51-1.27-2.24s-.91-1.45-1.41-2.15c-.11-.21-.26-.45-.44-.73a1.5,1.5,0,0,1-.26-.77,1.4,1.4,0,0,1,.46-1.16,1.86,1.86,0,0,1,1.21-.38,1.71,1.71,0,0,1,1.3.6,10,10,0,0,1,.9,1.12c.17.26.43.63.77,1.1l1,1.51A15,15,0,0,1,74.26,23a3,3,0,0,1,.38,1.23,1.59,1.59,0,0,1-.53,1.34A2.19,2.19,0,0,1,72.7,26Z"/><path class="cls-3" d="M101.71,50a1.91,1.91,0,0,1-2.16-2.16,1.49,1.49,0,0,1,.73-1.36,4.88,4.88,0,0,1,1.47-.61,55.8,55.8,0,0,0,9.41-3.5,31,31,0,0,0,8.13-5.82,40.8,40.8,0,0,0-3.94-3.06q-2-1.38-4.24-2.7a8.44,8.44,0,0,1-1.16-.86,1.5,1.5,0,0,1-.6-1.2,1.62,1.62,0,0,1,1.85-1.81,4.5,4.5,0,0,1,1.76.58,24.6,24.6,0,0,1,2.5,1.47c.91.6,1.81,1.21,2.7,1.84s1.69,1.21,2.38,1.72,1.18.87,1.47,1.07a21.27,21.27,0,0,0,1.65-2.37c.66-1.05,1.32-2.2,2-3.43a36.74,36.74,0,0,0,1.64-3.49,7.56,7.56,0,0,0,.66-2.57,1,1,0,0,0-.48-1,2.29,2.29,0,0,0-1.14-.27H112.17c-.38.62-.93,1.46-1.65,2.53s-1.54,2.22-2.46,3.45-1.88,2.39-2.86,3.47a20,20,0,0,1-2.88,2.68,4.34,4.34,0,0,1-2.5,1.06c-1.29,0-1.94-.62-1.94-1.85a2,2,0,0,1,.79-1.45c.53-.47,1-.83,1.32-1.1a23.57,23.57,0,0,0,4.73-4.52,38.31,38.31,0,0,0,3.62-5.52,54.36,54.36,0,0,0,2.77-5.91,8.21,8.21,0,0,1,.79-1.45,1.64,1.64,0,0,1,1.45-.7q1.89,0,1.89,1.8a5.78,5.78,0,0,1-.39,1.89c-.27.73-.52,1.35-.75,1.85h14.72a3.46,3.46,0,0,1,2.46,1,3.21,3.21,0,0,1,1.06,2.44,11.29,11.29,0,0,1-.6,3.45,31.57,31.57,0,0,1-1.4,3.65c-.55,1.19-1.06,2.23-1.56,3.14A35.75,35.75,0,0,1,119,42a47.48,47.48,0,0,1-13.51,7.1c-.5.17-1.12.36-1.85.57A7.52,7.52,0,0,1,101.71,50Z"/><path class="cls-3" d="M162.83,50.62a1.74,1.74,0,0,1-1.66-.77,3.67,3.67,0,0,1-.44-1.87V28.25c-.62.41-1.51,1-2.66,1.69s-2.44,1.47-3.85,2.26-2.82,1.55-4.24,2.26a42.39,42.39,0,0,1-3.89,1.76,8.09,8.09,0,0,1-2.77.68,1.77,1.77,0,0,1-1.51-.59,2.43,2.43,0,0,1-.46-1.56,1.72,1.72,0,0,1,.52-1.27,5.79,5.79,0,0,1,1-.55c.59-.28,1.26-.58,2-.9s1.45-.61,2.08-.86,1-.42,1.21-.51a65.22,65.22,0,0,0,12-6.85,60.85,60.85,0,0,0,10.2-9.27c.32-.38.75-.83,1.27-1.34a2.32,2.32,0,0,1,1.63-.77,2.44,2.44,0,0,1,1.58.46,1.79,1.79,0,0,1,.57,1.47,3.6,3.6,0,0,1-.88,2,21,21,0,0,1-2.24,2.52c-.9.9-1.85,1.77-2.83,2.62s-1.88,1.6-2.68,2.26-1.4,1.14-1.78,1.43V48a3.67,3.67,0,0,1-.46,1.87A1.83,1.83,0,0,1,162.83,50.62Z"/><path class="cls-3" d="M200.76,48.2a10,10,0,0,1-6.15-1.72q-2.3-1.71-2.29-5.84V15.06a3.43,3.43,0,0,1,.44-1.78,1.7,1.7,0,0,1,1.58-.72,1.76,1.76,0,0,1,1.61.72,3.25,3.25,0,0,1,.46,1.78V25q4-.45,8.09-1a61.23,61.23,0,0,0,7.91-1.61c.17-.06.53-.16,1.07-.31l1.78-.48c.65-.17,1.22-.32,1.74-.44a5.29,5.29,0,0,1,1-.17,2,2,0,0,1,2.24,2.24,1.54,1.54,0,0,1-.66,1.23,6.25,6.25,0,0,1-1.6.9,12.59,12.59,0,0,1-1.87.59c-.61.15-1.08.25-1.41.31q-4.51,1-9.14,1.49c-3.07.36-6.13.72-9.18,1.1V39.37c0,1.93.42,3.22,1.25,3.86a6.51,6.51,0,0,0,4,1h18a3.33,3.33,0,0,1,1.74.44,1.7,1.7,0,0,1,.72,1.58,1.66,1.66,0,0,1-.72,1.54,3.33,3.33,0,0,1-1.74.44ZM221.5,19.33a4.58,4.58,0,0,1-4.57-4.57,4.3,4.3,0,0,1,1.36-3.23,4.55,4.55,0,0,1,3.26-1.3,4.2,4.2,0,0,1,3.18,1.36A4.49,4.49,0,0,1,226,14.8a4.51,4.51,0,0,1-4.53,4.53Zm0-2.2a2.09,2.09,0,0,0,2.37-2.37,2.35,2.35,0,0,0-4.7,0A2.06,2.06,0,0,0,221.46,17.13Z"/><path class="cls-3" d="M236.66,48.2a2,2,0,0,1-2.28-2.29,2.06,2.06,0,0,1,.83-1.67,3.22,3.22,0,0,1,.86-.3c.45-.12,1-.24,1.52-.36s1.07-.22,1.53-.3l1-.18a34.79,34.79,0,0,0,8.77-3,36,36,0,0,0,7.86-5.3,30.67,30.67,0,0,0,6-7,14.6,14.6,0,0,0,1.25-2.33c.34-.79.67-1.59,1-2.41a11.51,11.51,0,0,1,.86-1.67,1.68,1.68,0,0,1,1.56-.84,1.85,1.85,0,0,1,2.11,2.07,6.4,6.4,0,0,1-.6,2.42c-.39.93-.74,1.69-1,2.28a34.27,34.27,0,0,1-10.13,12.41,46,46,0,0,1-14.44,7.15l-2.08.59c-.81.22-1.61.4-2.4.55A12.31,12.31,0,0,1,236.66,48.2Zm8.75-25a2.1,2.1,0,0,1-1.08-.3c-.34-.21-.65-.41-.94-.62-1.09-.79-2.17-1.54-3.26-2.26s-2.22-1.4-3.42-2.05a8.59,8.59,0,0,1-1.23-.81,1.52,1.52,0,0,1-.66-1.25,1.84,1.84,0,0,1,.66-1.61,2.89,2.89,0,0,1,1.67-.46,5.28,5.28,0,0,1,1.8.55,27.14,27.14,0,0,1,2.72,1.43c1,.59,2,1.21,2.88,1.87a19.58,19.58,0,0,1,2.29,1.87,2.37,2.37,0,0,1,.9,1.45,2.08,2.08,0,0,1-.62,1.64A2.46,2.46,0,0,1,245.41,23.19Z"/><path class="cls-3" d="M281,50.44a1.85,1.85,0,0,1-2.07-2.11,1.49,1.49,0,0,1,.8-1.43,6.07,6.07,0,0,1,1.62-.59q2.07-.48,4-1.08a31.75,31.75,0,0,0,11.58-6.33A31.21,31.21,0,0,0,303,32a27.91,27.91,0,0,0,3.67-8.39,2.94,2.94,0,0,0,.14-.55c.05-.31.08-.48.08-.51a.94.94,0,0,0-.5-1,2.73,2.73,0,0,0-1.12-.22H291.86c-.38.61-.91,1.42-1.58,2.41s-1.44,2.06-2.29,3.17a37.19,37.19,0,0,1-2.68,3.14,18.49,18.49,0,0,1-2.77,2.42,4.49,4.49,0,0,1-2.5.94,1.75,1.75,0,0,1-2-2,1.6,1.6,0,0,1,.48-1.13,9.86,9.86,0,0,1,.93-.85,42,42,0,0,0,4.9-4.57,30.94,30.94,0,0,0,3.47-4.77,50.14,50.14,0,0,0,3-6,7.94,7.94,0,0,1,.88-1.56,1.83,1.83,0,0,1,1.58-.72,2.14,2.14,0,0,1,1.41.43,1.7,1.7,0,0,1,.53,1.37,4.23,4.23,0,0,1-.24,1.23c-.16.5-.35,1-.55,1.45s-.38.85-.53,1.14h14.33a2.88,2.88,0,0,1,2.3,1.06,3.59,3.59,0,0,1,.9,2.41,12.52,12.52,0,0,1-.55,3.61,27.34,27.34,0,0,1-1.36,3.62c-.54,1.19-1.09,2.28-1.65,3.28a41.33,41.33,0,0,1-7.8,10.17,31.56,31.56,0,0,1-11,6.61l-2.46.84c-1,.35-2.06.66-3.1.94A10.33,10.33,0,0,1,281,50.44ZM308.51,17c-1,0-1.53-.54-1.53-1.63V12.29q0-1.62,1.53-1.62c1,0,1.54.54,1.54,1.62v3.08C310.05,16.46,309.54,17,308.51,17Zm5,0c-1,0-1.53-.54-1.53-1.63V12.29q0-1.62,1.53-1.62c1,0,1.54.54,1.54,1.62v3.08C315.06,16.46,314.55,17,313.52,17Z"/></g></g></svg>