<svg xmlns="http://www.w3.org/2000/svg" viewBox="0 0 319.56 49.52"><defs><style>.cls-1{fill:#231815;}.cls-2{fill:none;stroke:#f7f8f8;stroke-width:9px;}.cls-3{fill:#f9c57d;}</style></defs><g id="レイヤー_2" data-name="レイヤー 2"><g id="レイヤー_1-2" data-name="レイヤー 1"><path class="cls-1" d="M6.48,39.92a1.77,1.77,0,0,1-2-2,1.73,1.73,0,0,1,.57-1.43,3.27,3.27,0,0,1,1.41-.64l3.78-.92V19H6.61a2.29,2.29,0,0,1-1.43-.42,1.61,1.61,0,0,1-.55-1.38,1.55,1.55,0,0,1,.55-1.36,2.35,2.35,0,0,1,1.43-.4h3.65V6.74a2.37,2.37,0,0,1,.41-1.43,1.65,1.65,0,0,1,1.39-.55,1.65,1.65,0,0,1,1.38.55,2.31,2.31,0,0,1,.42,1.43v8.7H17a2.35,2.35,0,0,1,1.43.4A1.58,1.58,0,0,1,19,17.2a1.63,1.63,0,0,1-.55,1.38A2.29,2.29,0,0,1,17,19H13.86V34l1-.31q.72-.23,1.47-.42a5.33,5.33,0,0,1,1-.2A1.54,1.54,0,0,1,19,34.82,1.59,1.59,0,0,1,18.47,36a4.46,4.46,0,0,1-1.23.84,11.38,11.38,0,0,1-1.27.5L14,38c-.86.28-1.79.56-2.79.86s-1.92.54-2.79.74A9,9,0,0,1,6.48,39.92Zm26.36,4.7-4,0a28.78,28.78,0,0,1-4-.33A4.71,4.71,0,0,1,22.14,43a3.93,3.93,0,0,1-.94-2.83v-16c-.18.06-.54.2-1.1.44s-1.11.45-1.65.64a4.2,4.2,0,0,1-1.07.28,1.25,1.25,0,0,1-1.17-.53,2.33,2.33,0,0,1-.33-1.27,1.7,1.7,0,0,1,.44-1.21,2.93,2.93,0,0,1,1.1-.72l3.78-1.5v-10a2.51,2.51,0,0,1,.39-1.45A1.56,1.56,0,0,1,23,8.24a1.64,1.64,0,0,1,1.38.54,2.39,2.39,0,0,1,.42,1.48v8.57l5.54-2.2V6.52a2.53,2.53,0,0,1,.39-1.45,1.55,1.55,0,0,1,1.36-.57,1.63,1.63,0,0,1,1.39.55,2.37,2.37,0,0,1,.42,1.47v8.7c.52-.2,1.24-.5,2.15-.9s1.83-.76,2.77-1.1a7.26,7.26,0,0,1,2.28-.5,2.4,2.4,0,0,1,2.35,1.12A5.53,5.53,0,0,1,44,16.5V26.87A7.21,7.21,0,0,1,42.36,32a6.6,6.6,0,0,1-5,1.75,1.61,1.61,0,0,1-1.43-.59,2.57,2.57,0,0,1-.42-1.52A1.44,1.44,0,0,1,36,30.38a3.22,3.22,0,0,1,1.19-.5c.47-.1,1-.22,1.43-.35a2.43,2.43,0,0,0,1.21-.77,2.87,2.87,0,0,0,.48-1.85V18.47a1.8,1.8,0,0,0-.24-1,.92.92,0,0,0-.86-.4,4.05,4.05,0,0,0-1,.24c-.48.16-1,.37-1.6.62L35,18.65c-.49.21-.86.35-1.09.44V35.53A2.63,2.63,0,0,1,33.48,37a1.53,1.53,0,0,1-1.38.57A1.65,1.65,0,0,1,30.71,37a2.37,2.37,0,0,1-.41-1.47v-15l-5.54,2.19V39a1.59,1.59,0,0,0,.28,1,2.28,2.28,0,0,0,.86.64,5.51,5.51,0,0,0,1.54.26C28.2,40.9,29,41,30,41s1.78.05,2.57.05h3.05c.6,0,1.25,0,1.93-.07a15.38,15.38,0,0,0,1.92-.22,3.54,3.54,0,0,0,1.27-.41,2.25,2.25,0,0,0,1-1.43A15.86,15.86,0,0,0,42,37.08a3.72,3.72,0,0,1,.43-1.51A1.55,1.55,0,0,1,43.88,35c1.34,0,2,.72,2,2.16a19.33,19.33,0,0,1-.16,2.41A7.64,7.64,0,0,1,45,42a3.45,3.45,0,0,1-1.74,1.67,8.52,8.52,0,0,1-2.17.54c-.92.14-1.91.23-3,.29s-2.06.09-3,.11Z"/><path class="cls-1" d="M56.05,44.18a4.68,4.68,0,0,1-3.28-1,4.23,4.23,0,0,1-1.12-3.23V10.48q0-4.28,4.31-4.27H85q4.3,0,4.3,4.27V39.92a4.65,4.65,0,0,1-1,3.12,3.84,3.84,0,0,1-3.06,1.14Zm1.67-3.56H83.25a2.06,2.06,0,0,0,2.33-2.33V12.1a2.06,2.06,0,0,0-2.33-2.33H57.72a2.06,2.06,0,0,0-2.33,2.33V38.29A2.05,2.05,0,0,0,57.72,40.62Zm1.18-1.84q-1.8,0-1.8-1.89a1.75,1.75,0,0,1,.53-1.28,3.07,3.07,0,0,1,.88-.46c.53-.22,1.06-.44,1.6-.68a8.13,8.13,0,0,1,1-.39,24,24,0,0,0,3.67-1.89c1.16-.74,2.28-1.51,3.36-2.33q-2.1-1.23-4.26-2.31t-4.39-2a13.59,13.59,0,0,1-1.34-.73,1.39,1.39,0,0,1-.77-1.25,1.54,1.54,0,0,1,1.75-1.72,5.68,5.68,0,0,1,1.78.47c.81.3,1.71.7,2.71,1.18s2,1,3,1.5l2.66,1.4c.79.43,1.36.74,1.72.95a55.45,55.45,0,0,0,4.83-5.93,40.11,40.11,0,0,0,3.73-6.64,10.78,10.78,0,0,1,.86-1.49,1.62,1.62,0,0,1,1.43-.75,3,3,0,0,1,1.49.35,1.38,1.38,0,0,1,.62,1.32,6.13,6.13,0,0,1-.77,2.52,32.81,32.81,0,0,1-2,3.41Q80,21.94,78.64,23.75C77.73,25,76.88,26,76.09,27s-1.42,1.7-1.89,2.2l5.31,3.21c.36.2.85.52,1.5.94a13.58,13.58,0,0,1,1.76,1.38,2.15,2.15,0,0,1,.79,1.5,1.84,1.84,0,0,1-2.11,2.06,2.19,2.19,0,0,1-1.21-.41c-.43-.28-.8-.54-1.12-.77q-1.84-1.45-3.76-2.77t-3.89-2.55a28.87,28.87,0,0,1-2.52,2c-1.1.77-2.28,1.54-3.54,2.3A35.4,35.4,0,0,1,61.76,38,7.52,7.52,0,0,1,58.9,38.78Zm5.19-17A1.4,1.4,0,0,1,63,21.29c-.3-.35-.58-.68-.81-1s-.46-.63-.86-1.19l-1.27-1.78c-.46-.63-.84-1.2-1.17-1.71a2.72,2.72,0,0,1-.48-1,1.41,1.41,0,0,1,.46-1.17,1.86,1.86,0,0,1,1.21-.37,2.07,2.07,0,0,1,1.1.59,17.57,17.57,0,0,1,1.52,1.5q.81.9,1.56,1.89a17,17,0,0,1,1.2,1.8,2.85,2.85,0,0,1,.47,1.21C65.94,21.23,65.32,21.81,64.09,21.81Zm8.61-1.45a1.24,1.24,0,0,1-1-.5,9.1,9.1,0,0,1-.68-.95c-.41-.76-.83-1.5-1.27-2.24s-.91-1.45-1.41-2.15c-.11-.21-.26-.45-.44-.73a1.47,1.47,0,0,1-.26-.76,1.41,1.41,0,0,1,.46-1.17,1.86,1.86,0,0,1,1.21-.37,1.7,1.7,0,0,1,1.3.59,11,11,0,0,1,.9,1.12c.17.26.43.63.77,1.1s.68,1,1,1.52a13.16,13.16,0,0,1,.92,1.56,2.87,2.87,0,0,1,.38,1.23A1.62,1.62,0,0,1,74.11,20,2.19,2.19,0,0,1,72.7,20.36Z"/><path class="cls-1" d="M101.71,44.36a1.91,1.91,0,0,1-2.16-2.15,1.51,1.51,0,0,1,.73-1.37,4.88,4.88,0,0,1,1.47-.61,55.8,55.8,0,0,0,9.41-3.5,31,31,0,0,0,8.13-5.82,39.17,39.17,0,0,0-3.94-3.05q-2-1.39-4.24-2.71A9.22,9.22,0,0,1,110,24.3a1.54,1.54,0,0,1-.6-1.21,1.61,1.61,0,0,1,1.85-1.8,4.44,4.44,0,0,1,1.76.57,24.6,24.6,0,0,1,2.5,1.47c.91.6,1.81,1.22,2.7,1.85s1.69,1.2,2.38,1.71L122,28a22.61,22.61,0,0,0,1.65-2.38q1-1.57,2-3.42a36.85,36.85,0,0,0,1.64-3.5,7.51,7.51,0,0,0,.66-2.57,1,1,0,0,0-.48-1,2.4,2.4,0,0,0-1.14-.26H112.17q-.57.91-1.65,2.52t-2.46,3.45q-1.4,1.85-2.86,3.48A21.16,21.16,0,0,1,102.32,27,4.38,4.38,0,0,1,99.82,28c-1.29,0-1.94-.61-1.94-1.84a2,2,0,0,1,.79-1.46c.53-.46,1-.83,1.32-1.09a23.62,23.62,0,0,0,4.73-4.53,38.31,38.31,0,0,0,3.62-5.52,52.65,52.65,0,0,0,2.77-5.91,8.58,8.58,0,0,1,.79-1.45,1.66,1.66,0,0,1,1.45-.7q1.89,0,1.89,1.8a5.78,5.78,0,0,1-.39,1.89c-.27.73-.52,1.35-.75,1.85h14.72a3.47,3.47,0,0,1,2.46,1,3.19,3.19,0,0,1,1.06,2.44,11.28,11.28,0,0,1-.6,3.44,30.88,30.88,0,0,1-1.4,3.65c-.55,1.19-1.06,2.24-1.56,3.14A35.75,35.75,0,0,1,119,36.38a47.23,47.23,0,0,1-13.51,7.1c-.5.18-1.12.37-1.85.57A7.52,7.52,0,0,1,101.71,44.36Z"/><path class="cls-1" d="M162.83,45a1.74,1.74,0,0,1-1.66-.77,3.65,3.65,0,0,1-.44-1.87V22.65c-.62.41-1.51,1-2.66,1.69s-2.44,1.47-3.85,2.26-2.82,1.55-4.24,2.27a42.09,42.09,0,0,1-3.89,1.75,8.15,8.15,0,0,1-2.77.69,1.78,1.78,0,0,1-1.51-.6,2.43,2.43,0,0,1-.46-1.56,1.74,1.74,0,0,1,.52-1.27,5.79,5.79,0,0,1,1-.55c.59-.28,1.26-.58,2-.9s1.45-.61,2.08-.86,1-.42,1.21-.5a65.27,65.27,0,0,0,12-6.86,60,60,0,0,0,10.2-9.27c.32-.38.75-.83,1.27-1.34a2.36,2.36,0,0,1,1.63-.77,2.44,2.44,0,0,1,1.58.46,1.79,1.79,0,0,1,.57,1.47,3.6,3.6,0,0,1-.88,2,21.79,21.79,0,0,1-2.24,2.53c-.9.89-1.85,1.76-2.83,2.61s-1.88,1.61-2.68,2.26-1.4,1.14-1.78,1.43V42.38a3.65,3.65,0,0,1-.46,1.87A1.83,1.83,0,0,1,162.83,45Z"/><path class="cls-1" d="M200.76,42.6a10,10,0,0,1-6.15-1.71c-1.53-1.15-2.29-3.09-2.29-5.85V9.47a3.38,3.38,0,0,1,.44-1.78A1.68,1.68,0,0,1,194.34,7a1.74,1.74,0,0,1,1.61.73,3.21,3.21,0,0,1,.46,1.78V19.4c2.69-.3,5.39-.62,8.09-1a61.23,61.23,0,0,0,7.91-1.61c.17-.05.53-.16,1.07-.3l1.78-.49c.65-.17,1.22-.32,1.74-.44a6.24,6.24,0,0,1,1-.17,2,2,0,0,1,2.24,2.24,1.54,1.54,0,0,1-.66,1.23,6.25,6.25,0,0,1-1.6.9,12.59,12.59,0,0,1-1.87.59c-.61.15-1.08.25-1.41.31-3,.65-6.06,1.14-9.14,1.5s-6.13.71-9.18,1.09V33.77c0,1.93.42,3.22,1.25,3.86a6.51,6.51,0,0,0,4,1h18a3.33,3.33,0,0,1,1.74.44,1.7,1.7,0,0,1,.72,1.58,1.65,1.65,0,0,1-.72,1.54,3.33,3.33,0,0,1-1.74.44ZM221.5,13.73a4.58,4.58,0,0,1-4.57-4.57,4.3,4.3,0,0,1,1.36-3.23,4.55,4.55,0,0,1,3.26-1.3A4.23,4.23,0,0,1,224.73,6,4.49,4.49,0,0,1,226,9.2a4.51,4.51,0,0,1-4.53,4.53Zm0-2.2a2.09,2.09,0,0,0,2.37-2.37,2.35,2.35,0,0,0-4.7,0A2.06,2.06,0,0,0,221.46,11.53Z"/><path class="cls-1" d="M236.66,42.6a2.22,2.22,0,0,1-1.45-4,3.12,3.12,0,0,1,.86-.31c.45-.12,1-.24,1.52-.35l1.53-.31,1-.18a34.4,34.4,0,0,0,8.77-3,36,36,0,0,0,7.86-5.29,31.1,31.1,0,0,0,6-7,15.51,15.51,0,0,0,1.25-2.33c.34-.79.67-1.6,1-2.42a12,12,0,0,1,.86-1.67,1.67,1.67,0,0,1,1.56-.83A1.84,1.84,0,0,1,269.45,17a6.4,6.4,0,0,1-.6,2.42c-.39.93-.74,1.7-1,2.28A34.3,34.3,0,0,1,257.69,34.1a46,46,0,0,1-14.44,7.14l-2.08.59c-.81.22-1.61.4-2.4.55A11.38,11.38,0,0,1,236.66,42.6Zm8.75-25a2.11,2.11,0,0,1-1.08-.31c-.34-.21-.65-.41-.94-.62-1.09-.79-2.17-1.54-3.26-2.26s-2.22-1.4-3.42-2a9.7,9.7,0,0,1-1.23-.82,1.51,1.51,0,0,1-.66-1.25,1.81,1.81,0,0,1,.66-1.6,2.82,2.82,0,0,1,1.67-.46,5.2,5.2,0,0,1,1.8.54,29.39,29.39,0,0,1,2.72,1.43c1,.59,2,1.21,2.88,1.87A19.58,19.58,0,0,1,246.84,14a2.37,2.37,0,0,1,.9,1.45,2.11,2.11,0,0,1-.62,1.65A2.51,2.51,0,0,1,245.41,17.6Z"/><path class="cls-1" d="M281,44.84a1.85,1.85,0,0,1-2.07-2.11,1.49,1.49,0,0,1,.8-1.43,6.44,6.44,0,0,1,1.62-.59q2.07-.48,4-1.08a33.56,33.56,0,0,0,3.85-1.42,32,32,0,0,0,7.73-4.9,31.49,31.49,0,0,0,6-6.93A27.91,27.91,0,0,0,306.62,18a2.94,2.94,0,0,0,.14-.55c.05-.31.08-.47.08-.5a1,1,0,0,0-.5-1,2.73,2.73,0,0,0-1.12-.22H291.86c-.38.62-.91,1.42-1.58,2.42s-1.44,2-2.29,3.16a37.19,37.19,0,0,1-2.68,3.14,17.94,17.94,0,0,1-2.77,2.42,4.49,4.49,0,0,1-2.5.94,1.74,1.74,0,0,1-2-2,1.58,1.58,0,0,1,.48-1.12,8.84,8.84,0,0,1,.93-.86,42,42,0,0,0,4.9-4.57,30.94,30.94,0,0,0,3.47-4.77,49.4,49.4,0,0,0,3-6A8.56,8.56,0,0,1,291.68,7a1.83,1.83,0,0,1,1.58-.72,2.09,2.09,0,0,1,1.41.44,1.66,1.66,0,0,1,.53,1.36A4.23,4.23,0,0,1,295,9.29c-.16.5-.35,1-.55,1.45s-.38.85-.53,1.14h14.33a2.88,2.88,0,0,1,2.3,1.06,3.61,3.61,0,0,1,.9,2.41,12.47,12.47,0,0,1-.55,3.61,26.82,26.82,0,0,1-1.36,3.62c-.54,1.19-1.09,2.28-1.65,3.28A41.33,41.33,0,0,1,300.05,36a31.56,31.56,0,0,1-11,6.61l-2.46.84c-1,.35-2.06.67-3.1.94A10.33,10.33,0,0,1,281,44.84ZM308.51,11.4c-1,0-1.53-.54-1.53-1.63V6.7c0-1.09.51-1.63,1.53-1.63s1.54.54,1.54,1.63V9.77C310.05,10.86,309.54,11.4,308.51,11.4Zm5,0c-1,0-1.53-.54-1.53-1.63V6.7c0-1.09.51-1.63,1.53-1.63s1.54.54,1.54,1.63V9.77C315.06,10.86,314.55,11.4,313.52,11.4Z"/><path class="cls-2" d="M6.48,39.92a1.77,1.77,0,0,1-2-2,1.73,1.73,0,0,1,.57-1.43,3.27,3.27,0,0,1,1.41-.64l3.78-.92V19H6.61a2.29,2.29,0,0,1-1.43-.42,1.61,1.61,0,0,1-.55-1.38,1.55,1.55,0,0,1,.55-1.36,2.35,2.35,0,0,1,1.43-.4h3.65V6.74a2.37,2.37,0,0,1,.41-1.43,1.65,1.65,0,0,1,1.39-.55,1.65,1.65,0,0,1,1.38.55,2.31,2.31,0,0,1,.42,1.43v8.7H17a2.35,2.35,0,0,1,1.43.4A1.58,1.58,0,0,1,19,17.2a1.63,1.63,0,0,1-.55,1.38A2.29,2.29,0,0,1,17,19H13.86V34l1-.31q.72-.23,1.47-.42a5.33,5.33,0,0,1,1-.2A1.54,1.54,0,0,1,19,34.82,1.59,1.59,0,0,1,18.47,36a4.46,4.46,0,0,1-1.23.84,11.38,11.38,0,0,1-1.27.5L14,38c-.86.28-1.79.56-2.79.86s-1.92.54-2.79.74A9,9,0,0,1,6.48,39.92Zm26.36,4.7-4,0a28.78,28.78,0,0,1-4-.33A4.71,4.71,0,0,1,22.14,43a3.93,3.93,0,0,1-.94-2.83v-16c-.18.06-.54.2-1.1.44s-1.11.45-1.65.64a4.2,4.2,0,0,1-1.07.28,1.25,1.25,0,0,1-1.17-.53,2.33,2.33,0,0,1-.33-1.27,1.7,1.7,0,0,1,.44-1.21,2.93,2.93,0,0,1,1.1-.72l3.78-1.5v-10a2.51,2.51,0,0,1,.39-1.45A1.56,1.56,0,0,1,23,8.24a1.64,1.64,0,0,1,1.38.54,2.39,2.39,0,0,1,.42,1.48v8.57l5.54-2.2V6.52a2.53,2.53,0,0,1,.39-1.45,1.55,1.55,0,0,1,1.36-.57,1.63,1.63,0,0,1,1.39.55,2.37,2.37,0,0,1,.42,1.47v8.7c.52-.2,1.24-.5,2.15-.9s1.83-.76,2.77-1.1a7.26,7.26,0,0,1,2.28-.5,2.4,2.4,0,0,1,2.35,1.12A5.53,5.53,0,0,1,44,16.5V26.87A7.21,7.21,0,0,1,42.36,32a6.6,6.6,0,0,1-5,1.75,1.61,1.61,0,0,1-1.43-.59,2.57,2.57,0,0,1-.42-1.52A1.44,1.44,0,0,1,36,30.38a3.22,3.22,0,0,1,1.19-.5c.47-.1,1-.22,1.43-.35a2.43,2.43,0,0,0,1.21-.77,2.87,2.87,0,0,0,.48-1.85V18.47a1.8,1.8,0,0,0-.24-1,.92.92,0,0,0-.86-.4,4.05,4.05,0,0,0-1,.24c-.48.16-1,.37-1.6.62L35,18.65c-.49.21-.86.35-1.09.44V35.53A2.63,2.63,0,0,1,33.48,37a1.53,1.53,0,0,1-1.38.57A1.65,1.65,0,0,1,30.71,37a2.37,2.37,0,0,1-.41-1.47v-15l-5.54,2.19V39a1.59,1.59,0,0,0,.28,1,2.28,2.28,0,0,0,.86.64,5.51,5.51,0,0,0,1.54.26C28.2,40.9,29,41,30,41s1.78.05,2.57.05h3.05c.6,0,1.25,0,1.93-.07a15.38,15.38,0,0,0,1.92-.22,3.54,3.54,0,0,0,1.27-.41,2.25,2.25,0,0,0,1-1.43A15.86,15.86,0,0,0,42,37.08a3.72,3.72,0,0,1,.43-1.51A1.55,1.55,0,0,1,43.88,35c1.34,0,2,.72,2,2.16a19.33,19.33,0,0,1-.16,2.41A7.64,7.64,0,0,1,45,42a3.45,3.45,0,0,1-1.74,1.67,8.52,8.52,0,0,1-2.17.54c-.92.14-1.91.23-3,.29s-2.06.09-3,.11Z"/><path class="cls-2" d="M56.05,44.18a4.68,4.68,0,0,1-3.28-1,4.23,4.23,0,0,1-1.12-3.23V10.48q0-4.28,4.31-4.27H85q4.3,0,4.3,4.27V39.92a4.65,4.65,0,0,1-1,3.12,3.84,3.84,0,0,1-3.06,1.14Zm1.67-3.56H83.25a2.06,2.06,0,0,0,2.33-2.33V12.1a2.06,2.06,0,0,0-2.33-2.33H57.72a2.06,2.06,0,0,0-2.33,2.33V38.29A2.05,2.05,0,0,0,57.72,40.62Zm1.18-1.84q-1.8,0-1.8-1.89a1.75,1.75,0,0,1,.53-1.28,3.07,3.07,0,0,1,.88-.46c.53-.22,1.06-.44,1.6-.68a8.13,8.13,0,0,1,1-.39,24,24,0,0,0,3.67-1.89c1.16-.74,2.28-1.51,3.36-2.33q-2.1-1.23-4.26-2.31t-4.39-2a13.59,13.59,0,0,1-1.34-.73,1.39,1.39,0,0,1-.77-1.25,1.54,1.54,0,0,1,1.75-1.72,5.68,5.68,0,0,1,1.78.47c.81.3,1.71.7,2.71,1.18s2,1,3,1.5l2.66,1.4c.79.43,1.36.74,1.72.95a55.45,55.45,0,0,0,4.83-5.93,40.11,40.11,0,0,0,3.73-6.64,10.78,10.78,0,0,1,.86-1.49,1.62,1.62,0,0,1,1.43-.75,3,3,0,0,1,1.49.35,1.38,1.38,0,0,1,.62,1.32,6.13,6.13,0,0,1-.77,2.52,32.81,32.81,0,0,1-2,3.41Q80,21.94,78.64,23.75C77.73,25,76.88,26,76.09,27s-1.42,1.7-1.89,2.2l5.31,3.21c.36.2.85.52,1.5.94a13.58,13.58,0,0,1,1.76,1.38,2.15,2.15,0,0,1,.79,1.5,1.84,1.84,0,0,1-2.11,2.06,2.19,2.19,0,0,1-1.21-.41c-.43-.28-.8-.54-1.12-.77q-1.84-1.45-3.76-2.77t-3.89-2.55a28.87,28.87,0,0,1-2.52,2c-1.1.77-2.28,1.54-3.54,2.3A35.4,35.4,0,0,1,61.76,38,7.52,7.52,0,0,1,58.9,38.78Zm5.19-17A1.4,1.4,0,0,1,63,21.29c-.3-.35-.58-.68-.81-1s-.46-.63-.86-1.19l-1.27-1.78c-.46-.63-.84-1.2-1.17-1.71a2.72,2.72,0,0,1-.48-1,1.41,1.41,0,0,1,.46-1.17,1.86,1.86,0,0,1,1.21-.37,2.07,2.07,0,0,1,1.1.59,17.57,17.57,0,0,1,1.52,1.5q.81.9,1.56,1.89a17,17,0,0,1,1.2,1.8,2.85,2.85,0,0,1,.47,1.21C65.94,21.23,65.32,21.81,64.09,21.81Zm8.61-1.45a1.24,1.24,0,0,1-1-.5,9.1,9.1,0,0,1-.68-.95c-.41-.76-.83-1.5-1.27-2.24s-.91-1.45-1.41-2.15c-.11-.21-.26-.45-.44-.73a1.47,1.47,0,0,1-.26-.76,1.41,1.41,0,0,1,.46-1.17,1.86,1.86,0,0,1,1.21-.37,1.7,1.7,0,0,1,1.3.59,11,11,0,0,1,.9,1.12c.17.26.43.63.77,1.1s.68,1,1,1.52a13.16,13.16,0,0,1,.92,1.56,2.87,2.87,0,0,1,.38,1.23A1.62,1.62,0,0,1,74.11,20,2.19,2.19,0,0,1,72.7,20.36Z"/><path class="cls-2" d="M101.71,44.36a1.91,1.91,0,0,1-2.16-2.15,1.51,1.51,0,0,1,.73-1.37,4.88,4.88,0,0,1,1.47-.61,55.8,55.8,0,0,0,9.41-3.5,31,31,0,0,0,8.13-5.82,39.17,39.17,0,0,0-3.94-3.05q-2-1.39-4.24-2.71A9.22,9.22,0,0,1,110,24.3a1.54,1.54,0,0,1-.6-1.21,1.61,1.61,0,0,1,1.85-1.8,4.44,4.44,0,0,1,1.76.57,24.6,24.6,0,0,1,2.5,1.47c.91.6,1.81,1.22,2.7,1.85s1.69,1.2,2.38,1.71L122,28a22.61,22.61,0,0,0,1.65-2.38q1-1.57,2-3.42a36.85,36.85,0,0,0,1.64-3.5,7.51,7.51,0,0,0,.66-2.57,1,1,0,0,0-.48-1,2.4,2.4,0,0,0-1.14-.26H112.17q-.57.91-1.65,2.52t-2.46,3.45q-1.4,1.85-2.86,3.48A21.16,21.16,0,0,1,102.32,27,4.38,4.38,0,0,1,99.82,28c-1.29,0-1.94-.61-1.94-1.84a2,2,0,0,1,.79-1.46c.53-.46,1-.83,1.32-1.09a23.62,23.62,0,0,0,4.73-4.53,38.31,38.31,0,0,0,3.62-5.52,52.65,52.65,0,0,0,2.77-5.91,8.58,8.58,0,0,1,.79-1.45,1.66,1.66,0,0,1,1.45-.7q1.89,0,1.89,1.8a5.78,5.78,0,0,1-.39,1.89c-.27.73-.52,1.35-.75,1.85h14.72a3.47,3.47,0,0,1,2.46,1,3.19,3.19,0,0,1,1.06,2.44,11.28,11.28,0,0,1-.6,3.44,30.88,30.88,0,0,1-1.4,3.65c-.55,1.19-1.06,2.24-1.56,3.14A35.75,35.75,0,0,1,119,36.38a47.23,47.23,0,0,1-13.51,7.1c-.5.18-1.12.37-1.85.57A7.52,7.52,0,0,1,101.71,44.36Z"/><path class="cls-2" d="M162.83,45a1.74,1.74,0,0,1-1.66-.77,3.65,3.65,0,0,1-.44-1.87V22.65c-.62.41-1.51,1-2.66,1.69s-2.44,1.47-3.85,2.26-2.82,1.55-4.24,2.27a42.09,42.09,0,0,1-3.89,1.75,8.15,8.15,0,0,1-2.77.69,1.78,1.78,0,0,1-1.51-.6,2.43,2.43,0,0,1-.46-1.56,1.74,1.74,0,0,1,.52-1.27,5.79,5.79,0,0,1,1-.55c.59-.28,1.26-.58,2-.9s1.45-.61,2.08-.86,1-.42,1.21-.5a65.27,65.27,0,0,0,12-6.86,60,60,0,0,0,10.2-9.27c.32-.38.75-.83,1.27-1.34a2.36,2.36,0,0,1,1.63-.77,2.44,2.44,0,0,1,1.58.46,1.79,1.79,0,0,1,.57,1.47,3.6,3.6,0,0,1-.88,2,21.79,21.79,0,0,1-2.24,2.53c-.9.89-1.85,1.76-2.83,2.61s-1.88,1.61-2.68,2.26-1.4,1.14-1.78,1.43V42.38a3.65,3.65,0,0,1-.46,1.87A1.83,1.83,0,0,1,162.83,45Z"/><path class="cls-2" d="M200.76,42.6a10,10,0,0,1-6.15-1.71c-1.53-1.15-2.29-3.09-2.29-5.85V9.47a3.38,3.38,0,0,1,.44-1.78A1.68,1.68,0,0,1,194.34,7a1.74,1.74,0,0,1,1.61.73,3.21,3.21,0,0,1,.46,1.78V19.4c2.69-.3,5.39-.62,8.09-1a61.23,61.23,0,0,0,7.91-1.61c.17-.05.53-.16,1.07-.3l1.78-.49c.65-.17,1.22-.32,1.74-.44a6.24,6.24,0,0,1,1-.17,2,2,0,0,1,2.24,2.24,1.54,1.54,0,0,1-.66,1.23,6.25,6.25,0,0,1-1.6.9,12.59,12.59,0,0,1-1.87.59c-.61.15-1.08.25-1.41.31-3,.65-6.06,1.14-9.14,1.5s-6.13.71-9.18,1.09V33.77c0,1.93.42,3.22,1.25,3.86a6.51,6.51,0,0,0,4,1h18a3.33,3.33,0,0,1,1.74.44,1.7,1.7,0,0,1,.72,1.58,1.65,1.65,0,0,1-.72,1.54,3.33,3.33,0,0,1-1.74.44ZM221.5,13.73a4.58,4.58,0,0,1-4.57-4.57,4.3,4.3,0,0,1,1.36-3.23,4.55,4.55,0,0,1,3.26-1.3A4.23,4.23,0,0,1,224.73,6,4.49,4.49,0,0,1,226,9.2a4.51,4.51,0,0,1-4.53,4.53Zm0-2.2a2.09,2.09,0,0,0,2.37-2.37,2.35,2.35,0,0,0-4.7,0A2.06,2.06,0,0,0,221.46,11.53Z"/><path class="cls-2" d="M236.66,42.6a2.22,2.22,0,0,1-1.45-4,3.12,3.12,0,0,1,.86-.31c.45-.12,1-.24,1.52-.35l1.53-.31,1-.18a34.4,34.4,0,0,0,8.77-3,36,36,0,0,0,7.86-5.29,31.1,31.1,0,0,0,6-7,15.51,15.51,0,0,0,1.25-2.33c.34-.79.67-1.6,1-2.42a12,12,0,0,1,.86-1.67,1.67,1.67,0,0,1,1.56-.83A1.84,1.84,0,0,1,269.45,17a6.4,6.4,0,0,1-.6,2.42c-.39.93-.74,1.7-1,2.28A34.3,34.3,0,0,1,257.69,34.1a46,46,0,0,1-14.44,7.14l-2.08.59c-.81.22-1.61.4-2.4.55A11.38,11.38,0,0,1,236.66,42.6Zm8.75-25a2.11,2.11,0,0,1-1.08-.31c-.34-.21-.65-.41-.94-.62-1.09-.79-2.17-1.54-3.26-2.26s-2.22-1.4-3.42-2a9.7,9.7,0,0,1-1.23-.82,1.51,1.51,0,0,1-.66-1.25,1.81,1.81,0,0,1,.66-1.6,2.82,2.82,0,0,1,1.67-.46,5.2,5.2,0,0,1,1.8.54,29.39,29.39,0,0,1,2.72,1.43c1,.59,2,1.21,2.88,1.87A19.58,19.58,0,0,1,246.84,14a2.37,2.37,0,0,1,.9,1.45,2.11,2.11,0,0,1-.62,1.65A2.51,2.51,0,0,1,245.41,17.6Z"/><path class="cls-2" d="M281,44.84a1.85,1.85,0,0,1-2.07-2.11,1.49,1.49,0,0,1,.8-1.43,6.44,6.44,0,0,1,1.62-.59q2.07-.48,4-1.08a33.56,33.56,0,0,0,3.85-1.42,32,32,0,0,0,7.73-4.9,31.49,31.49,0,0,0,6-6.93A27.91,27.91,0,0,0,306.62,18a2.94,2.94,0,0,0,.14-.55c.05-.31.08-.47.08-.5a1,1,0,0,0-.5-1,2.73,2.73,0,0,0-1.12-.22H291.86c-.38.62-.91,1.42-1.58,2.42s-1.44,2-2.29,3.16a37.19,37.19,0,0,1-2.68,3.14,17.94,17.94,0,0,1-2.77,2.42,4.49,4.49,0,0,1-2.5.94,1.74,1.74,0,0,1-2-2,1.58,1.58,0,0,1,.48-1.12,8.84,8.84,0,0,1,.93-.86,42,42,0,0,0,4.9-4.57,30.94,30.94,0,0,0,3.47-4.77,49.4,49.4,0,0,0,3-6A8.56,8.56,0,0,1,291.68,7a1.83,1.83,0,0,1,1.58-.72,2.09,2.09,0,0,1,1.41.44,1.66,1.66,0,0,1,.53,1.36A4.23,4.23,0,0,1,295,9.29c-.16.5-.35,1-.55,1.45s-.38.85-.53,1.14h14.33a2.88,2.88,0,0,1,2.3,1.06,3.61,3.61,0,0,1,.9,2.41,12.47,12.47,0,0,1-.55,3.61,26.82,26.82,0,0,1-1.36,3.62c-.54,1.19-1.09,2.28-1.65,3.28A41.33,41.33,0,0,1,300.05,36a31.56,31.56,0,0,1-11,6.61l-2.46.84c-1,.35-2.06.67-3.1.94A10.33,10.33,0,0,1,281,44.84ZM308.51,11.4c-1,0-1.53-.54-1.53-1.63V6.7c0-1.09.51-1.63,1.53-1.63s1.54.54,1.54,1.63V9.77C310.05,10.86,309.54,11.4,308.51,11.4Zm5,0c-1,0-1.53-.54-1.53-1.63V6.7c0-1.09.51-1.63,1.53-1.63s1.54.54,1.54,1.63V9.77C315.06,10.86,314.55,11.4,313.52,11.4Z"/><path class="cls-3" d="M6.48,39.92a1.77,1.77,0,0,1-2-2,1.73,1.73,0,0,1,.57-1.43,3.27,3.27,0,0,1,1.41-.64l3.78-.92V19H6.61a2.29,2.29,0,0,1-1.43-.42,1.61,1.61,0,0,1-.55-1.38,1.55,1.55,0,0,1,.55-1.36,2.35,2.35,0,0,1,1.43-.4h3.65V6.74a2.37,2.37,0,0,1,.41-1.43,1.65,1.65,0,0,1,1.39-.55,1.65,1.65,0,0,1,1.38.55,2.31,2.31,0,0,1,.42,1.43v8.7H17a2.35,2.35,0,0,1,1.43.4A1.58,1.58,0,0,1,19,17.2a1.63,1.63,0,0,1-.55,1.38A2.29,2.29,0,0,1,17,19H13.86V34l1-.31q.72-.23,1.47-.42a5.33,5.33,0,0,1,1-.2A1.54,1.54,0,0,1,19,34.82,1.59,1.59,0,0,1,18.47,36a4.46,4.46,0,0,1-1.23.84,11.38,11.38,0,0,1-1.27.5L14,38c-.86.28-1.79.56-2.79.86s-1.92.54-2.79.74A9,9,0,0,1,6.48,39.92Zm26.36,4.7-4,0a28.78,28.78,0,0,1-4-.33A4.71,4.71,0,0,1,22.14,43a3.93,3.93,0,0,1-.94-2.83v-16c-.18.06-.54.2-1.1.44s-1.11.45-1.65.64a4.2,4.2,0,0,1-1.07.28,1.25,1.25,0,0,1-1.17-.53,2.33,2.33,0,0,1-.33-1.27,1.7,1.7,0,0,1,.44-1.21,2.93,2.93,0,0,1,1.1-.72l3.78-1.5v-10a2.51,2.51,0,0,1,.39-1.45A1.56,1.56,0,0,1,23,8.24a1.64,1.64,0,0,1,1.38.54,2.39,2.39,0,0,1,.42,1.48v8.57l5.54-2.2V6.52a2.53,2.53,0,0,1,.39-1.45,1.55,1.55,0,0,1,1.36-.57,1.63,1.63,0,0,1,1.39.55,2.37,2.37,0,0,1,.42,1.47v8.7c.52-.2,1.24-.5,2.15-.9s1.83-.76,2.77-1.1a7.26,7.26,0,0,1,2.28-.5,2.4,2.4,0,0,1,2.35,1.12A5.53,5.53,0,0,1,44,16.5V26.87A7.21,7.21,0,0,1,42.36,32a6.6,6.6,0,0,1-5,1.75,1.61,1.61,0,0,1-1.43-.59,2.57,2.57,0,0,1-.42-1.52A1.44,1.44,0,0,1,36,30.38a3.22,3.22,0,0,1,1.19-.5c.47-.1,1-.22,1.43-.35a2.43,2.43,0,0,0,1.21-.77,2.87,2.87,0,0,0,.48-1.85V18.47a1.8,1.8,0,0,0-.24-1,.92.92,0,0,0-.86-.4,4.05,4.05,0,0,0-1,.24c-.48.16-1,.37-1.6.62L35,18.65c-.49.21-.86.35-1.09.44V35.53A2.63,2.63,0,0,1,33.48,37a1.53,1.53,0,0,1-1.38.57A1.65,1.65,0,0,1,30.71,37a2.37,2.37,0,0,1-.41-1.47v-15l-5.54,2.19V39a1.59,1.59,0,0,0,.28,1,2.28,2.28,0,0,0,.86.64,5.51,5.51,0,0,0,1.54.26C28.2,40.9,29,41,30,41s1.78.05,2.57.05h3.05c.6,0,1.25,0,1.93-.07a15.38,15.38,0,0,0,1.92-.22,3.54,3.54,0,0,0,1.27-.41,2.25,2.25,0,0,0,1-1.43A15.86,15.86,0,0,0,42,37.08a3.72,3.72,0,0,1,.43-1.51A1.55,1.55,0,0,1,43.88,35c1.34,0,2,.72,2,2.16a19.33,19.33,0,0,1-.16,2.41A7.64,7.64,0,0,1,45,42a3.45,3.45,0,0,1-1.74,1.67,8.52,8.52,0,0,1-2.17.54c-.92.14-1.91.23-3,.29s-2.06.09-3,.11Z"/><path class="cls-3" d="M56.05,44.18a4.68,4.68,0,0,1-3.28-1,4.23,4.23,0,0,1-1.12-3.23V10.48q0-4.28,4.31-4.27H85q4.3,0,4.3,4.27V39.92a4.65,4.65,0,0,1-1,3.12,3.84,3.84,0,0,1-3.06,1.14Zm1.67-3.56H83.25a2.06,2.06,0,0,0,2.33-2.33V12.1a2.06,2.06,0,0,0-2.33-2.33H57.72a2.06,2.06,0,0,0-2.33,2.33V38.29A2.05,2.05,0,0,0,57.72,40.62Zm1.18-1.84q-1.8,0-1.8-1.89a1.75,1.75,0,0,1,.53-1.28,3.07,3.07,0,0,1,.88-.46c.53-.22,1.06-.44,1.6-.68a8.13,8.13,0,0,1,1-.39,24,24,0,0,0,3.67-1.89c1.16-.74,2.28-1.51,3.36-2.33q-2.1-1.23-4.26-2.31t-4.39-2a13.59,13.59,0,0,1-1.34-.73,1.39,1.39,0,0,1-.77-1.25,1.54,1.54,0,0,1,1.75-1.72,5.68,5.68,0,0,1,1.78.47c.81.3,1.71.7,2.71,1.18s2,1,3,1.5l2.66,1.4c.79.43,1.36.74,1.72.95a55.45,55.45,0,0,0,4.83-5.93,40.11,40.11,0,0,0,3.73-6.64,10.78,10.78,0,0,1,.86-1.49,1.62,1.62,0,0,1,1.43-.75,3,3,0,0,1,1.49.35,1.38,1.38,0,0,1,.62,1.32,6.13,6.13,0,0,1-.77,2.52,32.81,32.81,0,0,1-2,3.41Q80,21.94,78.64,23.75C77.73,25,76.88,26,76.09,27s-1.42,1.7-1.89,2.2l5.31,3.21c.36.2.85.52,1.5.94a13.58,13.58,0,0,1,1.76,1.38,2.15,2.15,0,0,1,.79,1.5,1.84,1.84,0,0,1-2.11,2.06,2.19,2.19,0,0,1-1.21-.41c-.43-.28-.8-.54-1.12-.77q-1.84-1.45-3.76-2.77t-3.89-2.55a28.87,28.87,0,0,1-2.52,2c-1.1.77-2.28,1.54-3.54,2.3A35.4,35.4,0,0,1,61.76,38,7.52,7.52,0,0,1,58.9,38.78Zm5.19-17A1.4,1.4,0,0,1,63,21.29c-.3-.35-.58-.68-.81-1s-.46-.63-.86-1.19l-1.27-1.78c-.46-.63-.84-1.2-1.17-1.71a2.72,2.72,0,0,1-.48-1,1.41,1.41,0,0,1,.46-1.17,1.86,1.86,0,0,1,1.21-.37,2.07,2.07,0,0,1,1.1.59,17.57,17.57,0,0,1,1.52,1.5q.81.9,1.56,1.89a17,17,0,0,1,1.2,1.8,2.85,2.85,0,0,1,.47,1.21C65.94,21.23,65.32,21.81,64.09,21.81Zm8.61-1.45a1.24,1.24,0,0,1-1-.5,9.1,9.1,0,0,1-.68-.95c-.41-.76-.83-1.5-1.27-2.24s-.91-1.45-1.41-2.15c-.11-.21-.26-.45-.44-.73a1.47,1.47,0,0,1-.26-.76,1.41,1.41,0,0,1,.46-1.17,1.86,1.86,0,0,1,1.21-.37,1.7,1.7,0,0,1,1.3.59,11,11,0,0,1,.9,1.12c.17.26.43.63.77,1.1s.68,1,1,1.52a13.16,13.16,0,0,1,.92,1.56,2.87,2.87,0,0,1,.38,1.23A1.62,1.62,0,0,1,74.11,20,2.19,2.19,0,0,1,72.7,20.36Z"/><path class="cls-3" d="M101.71,44.36a1.91,1.91,0,0,1-2.16-2.15,1.51,1.51,0,0,1,.73-1.37,4.88,4.88,0,0,1,1.47-.61,55.8,55.8,0,0,0,9.41-3.5,31,31,0,0,0,8.13-5.82,39.17,39.17,0,0,0-3.94-3.05q-2-1.39-4.24-2.71A9.22,9.22,0,0,1,110,24.3a1.54,1.54,0,0,1-.6-1.21,1.61,1.61,0,0,1,1.85-1.8,4.44,4.44,0,0,1,1.76.57,24.6,24.6,0,0,1,2.5,1.47c.91.6,1.81,1.22,2.7,1.85s1.69,1.2,2.38,1.71L122,28a22.61,22.61,0,0,0,1.65-2.38q1-1.57,2-3.42a36.85,36.85,0,0,0,1.64-3.5,7.51,7.51,0,0,0,.66-2.57,1,1,0,0,0-.48-1,2.4,2.4,0,0,0-1.14-.26H112.17q-.57.91-1.65,2.52t-2.46,3.45q-1.4,1.85-2.86,3.48A21.16,21.16,0,0,1,102.32,27,4.38,4.38,0,0,1,99.82,28c-1.29,0-1.94-.61-1.94-1.84a2,2,0,0,1,.79-1.46c.53-.46,1-.83,1.32-1.09a23.62,23.62,0,0,0,4.73-4.53,38.31,38.31,0,0,0,3.62-5.52,52.65,52.65,0,0,0,2.77-5.91,8.58,8.58,0,0,1,.79-1.45,1.66,1.66,0,0,1,1.45-.7q1.89,0,1.89,1.8a5.78,5.78,0,0,1-.39,1.89c-.27.73-.52,1.35-.75,1.85h14.72a3.47,3.47,0,0,1,2.46,1,3.19,3.19,0,0,1,1.06,2.44,11.28,11.28,0,0,1-.6,3.44,30.88,30.88,0,0,1-1.4,3.65c-.55,1.19-1.06,2.24-1.56,3.14A35.75,35.75,0,0,1,119,36.38a47.23,47.23,0,0,1-13.51,7.1c-.5.18-1.12.37-1.85.57A7.52,7.52,0,0,1,101.71,44.36Z"/><path class="cls-3" d="M162.83,45a1.74,1.74,0,0,1-1.66-.77,3.65,3.65,0,0,1-.44-1.87V22.65c-.62.41-1.51,1-2.66,1.69s-2.44,1.47-3.85,2.26-2.82,1.55-4.24,2.27a42.09,42.09,0,0,1-3.89,1.75,8.15,8.15,0,0,1-2.77.69,1.78,1.78,0,0,1-1.51-.6,2.43,2.43,0,0,1-.46-1.56,1.74,1.74,0,0,1,.52-1.27,5.79,5.79,0,0,1,1-.55c.59-.28,1.26-.58,2-.9s1.45-.61,2.08-.86,1-.42,1.21-.5a65.27,65.27,0,0,0,12-6.86,60,60,0,0,0,10.2-9.27c.32-.38.75-.83,1.27-1.34a2.36,2.36,0,0,1,1.63-.77,2.44,2.44,0,0,1,1.58.46,1.79,1.79,0,0,1,.57,1.47,3.6,3.6,0,0,1-.88,2,21.79,21.79,0,0,1-2.24,2.53c-.9.89-1.85,1.76-2.83,2.61s-1.88,1.61-2.68,2.26-1.4,1.14-1.78,1.43V42.38a3.65,3.65,0,0,1-.46,1.87A1.83,1.83,0,0,1,162.83,45Z"/><path class="cls-3" d="M200.76,42.6a10,10,0,0,1-6.15-1.71c-1.53-1.15-2.29-3.09-2.29-5.85V9.47a3.38,3.38,0,0,1,.44-1.78A1.68,1.68,0,0,1,194.34,7a1.74,1.74,0,0,1,1.61.73,3.21,3.21,0,0,1,.46,1.78V19.4c2.69-.3,5.39-.62,8.09-1a61.23,61.23,0,0,0,7.91-1.61c.17-.05.53-.16,1.07-.3l1.78-.49c.65-.17,1.22-.32,1.74-.44a6.24,6.24,0,0,1,1-.17,2,2,0,0,1,2.24,2.24,1.54,1.54,0,0,1-.66,1.23,6.25,6.25,0,0,1-1.6.9,12.59,12.59,0,0,1-1.87.59c-.61.15-1.08.25-1.41.31-3,.65-6.06,1.14-9.14,1.5s-6.13.71-9.18,1.09V33.77c0,1.93.42,3.22,1.25,3.86a6.51,6.51,0,0,0,4,1h18a3.33,3.33,0,0,1,1.74.44,1.7,1.7,0,0,1,.72,1.58,1.65,1.65,0,0,1-.72,1.54,3.33,3.33,0,0,1-1.74.44ZM221.5,13.73a4.58,4.58,0,0,1-4.57-4.57,4.3,4.3,0,0,1,1.36-3.23,4.55,4.55,0,0,1,3.26-1.3A4.23,4.23,0,0,1,224.73,6,4.49,4.49,0,0,1,226,9.2a4.51,4.51,0,0,1-4.53,4.53Zm0-2.2a2.09,2.09,0,0,0,2.37-2.37,2.35,2.35,0,0,0-4.7,0A2.06,2.06,0,0,0,221.46,11.53Z"/><path class="cls-3" d="M236.66,42.6a2.22,2.22,0,0,1-1.45-4,3.12,3.12,0,0,1,.86-.31c.45-.12,1-.24,1.52-.35l1.53-.31,1-.18a34.4,34.4,0,0,0,8.77-3,36,36,0,0,0,7.86-5.29,31.1,31.1,0,0,0,6-7,15.51,15.51,0,0,0,1.25-2.33c.34-.79.67-1.6,1-2.42a12,12,0,0,1,.86-1.67,1.67,1.67,0,0,1,1.56-.83A1.84,1.84,0,0,1,269.45,17a6.4,6.4,0,0,1-.6,2.42c-.39.93-.74,1.7-1,2.28A34.3,34.3,0,0,1,257.69,34.1a46,46,0,0,1-14.44,7.14l-2.08.59c-.81.22-1.61.4-2.4.55A11.38,11.38,0,0,1,236.66,42.6Zm8.75-25a2.11,2.11,0,0,1-1.08-.31c-.34-.21-.65-.41-.94-.62-1.09-.79-2.17-1.54-3.26-2.26s-2.22-1.4-3.42-2a9.7,9.7,0,0,1-1.23-.82,1.51,1.51,0,0,1-.66-1.25,1.81,1.81,0,0,1,.66-1.6,2.82,2.82,0,0,1,1.67-.46,5.2,5.2,0,0,1,1.8.54,29.39,29.39,0,0,1,2.72,1.43c1,.59,2,1.21,2.88,1.87A19.58,19.58,0,0,1,246.84,14a2.37,2.37,0,0,1,.9,1.45,2.11,2.11,0,0,1-.62,1.65A2.51,2.51,0,0,1,245.41,17.6Z"/><path class="cls-3" d="M281,44.84a1.85,1.85,0,0,1-2.07-2.11,1.49,1.49,0,0,1,.8-1.43,6.44,6.44,0,0,1,1.62-.59q2.07-.48,4-1.08a33.56,33.56,0,0,0,3.85-1.42,32,32,0,0,0,7.73-4.9,31.49,31.49,0,0,0,6-6.93A27.91,27.91,0,0,0,306.62,18a2.94,2.94,0,0,0,.14-.55c.05-.31.08-.47.08-.5a1,1,0,0,0-.5-1,2.73,2.73,0,0,0-1.12-.22H291.86c-.38.62-.91,1.42-1.58,2.42s-1.44,2-2.29,3.16a37.19,37.19,0,0,1-2.68,3.14,17.94,17.94,0,0,1-2.77,2.42,4.49,4.49,0,0,1-2.5.94,1.74,1.74,0,0,1-2-2,1.58,1.58,0,0,1,.48-1.12,8.84,8.84,0,0,1,.93-.86,42,42,0,0,0,4.9-4.57,30.94,30.94,0,0,0,3.47-4.77,49.4,49.4,0,0,0,3-6A8.56,8.56,0,0,1,291.68,7a1.83,1.83,0,0,1,1.58-.72,2.09,2.09,0,0,1,1.41.44,1.66,1.66,0,0,1,.53,1.36A4.23,4.23,0,0,1,295,9.29c-.16.5-.35,1-.55,1.45s-.38.85-.53,1.14h14.33a2.88,2.88,0,0,1,2.3,1.06,3.61,3.61,0,0,1,.9,2.41,12.47,12.47,0,0,1-.55,3.61,26.82,26.82,0,0,1-1.36,3.62c-.54,1.19-1.09,2.28-1.65,3.28A41.33,41.33,0,0,1,300.05,36a31.56,31.56,0,0,1-11,6.61l-2.46.84c-1,.35-2.06.67-3.1.94A10.33,10.33,0,0,1,281,44.84ZM308.51,11.4c-1,0-1.53-.54-1.53-1.63V6.7c0-1.09.51-1.63,1.53-1.63s1.54.54,1.54,1.63V9.77C310.05,10.86,309.54,11.4,308.51,11.4Zm5,0c-1,0-1.53-.54-1.53-1.63V6.7c0-1.09.51-1.63,1.53-1.63s1.54.54,1.54,1.63V9.77C315.06,10.86,314.55,11.4,313.52,11.4Z"/></g></g></svg>