<svg xmlns="http://www.w3.org/2000/svg" viewBox="0 0 315.06 49.5"><defs><style>.cls-1{fill:#231815;}.cls-2{fill:none;stroke:#f7f8f8;stroke-width:9px;}.cls-3{fill:#97c6a8;}</style></defs><g id="レイヤー_2" data-name="レイヤー 2"><g id="レイヤー_1-2" data-name="レイヤー 1"><path class="cls-1" d="M6.48,40.3a1.77,1.77,0,0,1-2-2,1.73,1.73,0,0,1,.57-1.43,3.27,3.27,0,0,1,1.41-.64l3.78-.92V19.38H6.61A2.29,2.29,0,0,1,5.18,19a1.62,1.62,0,0,1-.55-1.38,1.54,1.54,0,0,1,.55-1.36,2.35,2.35,0,0,1,1.43-.4h3.65V7.12a2.35,2.35,0,0,1,.41-1.43,1.65,1.65,0,0,1,1.39-.55,1.65,1.65,0,0,1,1.38.55,2.29,2.29,0,0,1,.42,1.43v8.7H17a2.35,2.35,0,0,1,1.43.4A1.57,1.57,0,0,1,19,17.58,1.65,1.65,0,0,1,18.41,19a2.29,2.29,0,0,1-1.43.42H13.86v15l1-.31q.72-.23,1.47-.42a5.33,5.33,0,0,1,1-.2A1.54,1.54,0,0,1,19,35.2a1.59,1.59,0,0,1-.53,1.21,4.44,4.44,0,0,1-1.23.83,9.89,9.89,0,0,1-1.27.51l-2,.64c-.86.28-1.79.56-2.79.85s-1.92.55-2.79.75A9,9,0,0,1,6.48,40.3ZM32.84,45l-4,0a28.78,28.78,0,0,1-4-.33,4.77,4.77,0,0,1-2.71-1.3,3.93,3.93,0,0,1-.94-2.83v-16c-.18.06-.54.2-1.1.44s-1.11.44-1.65.63a4,4,0,0,1-1.07.29,1.27,1.27,0,0,1-1.17-.53A2.33,2.33,0,0,1,15.88,24a1.7,1.7,0,0,1,.44-1.21,3.07,3.07,0,0,1,1.1-.73l3.78-1.49v-10a2.51,2.51,0,0,1,.39-1.45A1.54,1.54,0,0,1,23,8.61a1.65,1.65,0,0,1,1.38.55,2.39,2.39,0,0,1,.42,1.48V19.2L30.3,17V6.9a2.51,2.51,0,0,1,.39-1.45,1.55,1.55,0,0,1,1.36-.57,1.63,1.63,0,0,1,1.39.55,2.34,2.34,0,0,1,.42,1.47v8.7c.52-.2,1.24-.5,2.15-.9s1.83-.76,2.77-1.1a7.26,7.26,0,0,1,2.28-.5,2.4,2.4,0,0,1,2.35,1.12,5.53,5.53,0,0,1,.6,2.66V27.25a7.17,7.17,0,0,1-1.65,5.09,6.56,6.56,0,0,1-5,1.76,1.64,1.64,0,0,1-1.43-.59A2.57,2.57,0,0,1,35.48,32,1.44,1.44,0,0,1,36,30.76a3.22,3.22,0,0,1,1.19-.5c.47-.11,1-.22,1.43-.35a2.43,2.43,0,0,0,1.21-.77,2.87,2.87,0,0,0,.48-1.85V18.85a1.8,1.8,0,0,0-.24-1,.92.92,0,0,0-.86-.4,4.05,4.05,0,0,0-1,.24c-.48.16-1,.37-1.6.62L35,19l-1.09.44V35.9a2.58,2.58,0,0,1-.38,1.45,1.53,1.53,0,0,1-1.38.58,1.65,1.65,0,0,1-1.39-.55,2.38,2.38,0,0,1-.41-1.48v-15l-5.54,2.2V39.33a1.59,1.59,0,0,0,.28,1,2.28,2.28,0,0,0,.86.64,5.92,5.92,0,0,0,1.54.26c.76.06,1.6.1,2.53.13s1.78,0,2.57,0h3.05c.6,0,1.25,0,1.93-.07a17.53,17.53,0,0,0,1.92-.22,3.33,3.33,0,0,0,1.27-.42,2.21,2.21,0,0,0,1-1.42A16.22,16.22,0,0,0,42,37.46,3.68,3.68,0,0,1,42.42,36a1.55,1.55,0,0,1,1.46-.62c1.34,0,2,.72,2,2.16a19.45,19.45,0,0,1-.16,2.41,7.51,7.51,0,0,1-.7,2.46A3.38,3.38,0,0,1,43.3,44a8.07,8.07,0,0,1-2.17.55c-.92.13-1.91.23-3,.29s-2.06.09-3,.11Z"/><path class="cls-1" d="M56.05,44.56a4.68,4.68,0,0,1-3.28-1,4.23,4.23,0,0,1-1.12-3.23V10.85q0-4.26,4.31-4.26H85q4.3,0,4.3,4.26V40.3a4.65,4.65,0,0,1-1,3.12,3.84,3.84,0,0,1-3.06,1.14ZM57.72,41H83.25a2.06,2.06,0,0,0,2.33-2.33V12.48a2.06,2.06,0,0,0-2.33-2.33H57.72a2.06,2.06,0,0,0-2.33,2.33V38.67A2.05,2.05,0,0,0,57.72,41Zm1.18-1.84q-1.8,0-1.8-1.89A1.75,1.75,0,0,1,57.63,36a2.82,2.82,0,0,1,.88-.46l1.6-.68a9.08,9.08,0,0,1,1-.4,22.31,22.31,0,0,0,3.67-1.89c1.16-.73,2.28-1.5,3.36-2.33Q66,29,63.87,27.93t-4.39-2.05a11.52,11.52,0,0,1-1.34-.72,1.4,1.4,0,0,1-.77-1.25,1.53,1.53,0,0,1,1.75-1.72,5.88,5.88,0,0,1,1.78.46c.81.31,1.71.71,2.71,1.19s2,1,3,1.49l2.66,1.41c.79.43,1.36.74,1.72,1a55.55,55.55,0,0,0,4.83-5.94,39.61,39.61,0,0,0,3.73-6.63,11.5,11.5,0,0,1,.86-1.5,1.64,1.64,0,0,1,1.43-.74,2.88,2.88,0,0,1,1.49.35,1.38,1.38,0,0,1,.62,1.32,6.17,6.17,0,0,1-.77,2.52,32.81,32.81,0,0,1-2,3.41Q80,22.33,78.64,24.13c-.91,1.2-1.76,2.28-2.55,3.25s-1.42,1.7-1.89,2.2l5.31,3.2c.36.21.85.52,1.5.95a12.77,12.77,0,0,1,1.76,1.38,2.15,2.15,0,0,1,.79,1.5,1.85,1.85,0,0,1-2.11,2.06,2.21,2.21,0,0,1-1.21-.42c-.43-.27-.8-.53-1.12-.76Q77.28,36,75.36,34.72t-3.89-2.55A27.23,27.23,0,0,1,69,34.12q-1.65,1.17-3.54,2.31a33.4,33.4,0,0,1-3.65,1.93A7.38,7.38,0,0,1,58.9,39.16Zm5.19-17A1.4,1.4,0,0,1,63,21.67c-.3-.36-.58-.68-.81-1l-.86-1.19-1.27-1.78c-.46-.63-.84-1.2-1.17-1.71a2.72,2.72,0,0,1-.48-1,1.41,1.41,0,0,1,.46-1.17,1.86,1.86,0,0,1,1.21-.37,2.07,2.07,0,0,1,1.1.59,17.57,17.57,0,0,1,1.52,1.5c.54.6,1.06,1.23,1.56,1.88a16.06,16.06,0,0,1,1.2,1.81,2.85,2.85,0,0,1,.47,1.21C65.94,21.61,65.32,22.19,64.09,22.19Zm8.61-1.45a1.27,1.27,0,0,1-1-.5,9.1,9.1,0,0,1-.68-.95c-.41-.76-.83-1.51-1.27-2.24s-.91-1.45-1.41-2.15c-.11-.21-.26-.45-.44-.73a1.5,1.5,0,0,1-.26-.77,1.4,1.4,0,0,1,.46-1.16,1.86,1.86,0,0,1,1.21-.37,1.7,1.7,0,0,1,1.3.59,10,10,0,0,1,.9,1.12c.17.26.43.63.77,1.1l1,1.51a15,15,0,0,1,.92,1.56A3,3,0,0,1,74.64,19a1.63,1.63,0,0,1-.53,1.35A2.25,2.25,0,0,1,72.7,20.74Z"/><path class="cls-1" d="M96.35,39.07a1.65,1.65,0,0,1-1.85-1.89,1.64,1.64,0,0,1,.59-1.41,3.57,3.57,0,0,1,1.43-.61l3.56-.88V19.38H96.74A2.46,2.46,0,0,1,95.27,19a1.56,1.56,0,0,1-.59-1.38,1.56,1.56,0,0,1,.59-1.41,2.6,2.6,0,0,1,1.47-.39h3.34V7.34a2.94,2.94,0,0,1,.4-1.58,1.83,1.83,0,0,1,2.81,0,3,3,0,0,1,.39,1.58v8.44c.41,0,.9,0,1.45-.07a8.84,8.84,0,0,1,1.63,0,2.66,2.66,0,0,1,1.34.51,1.56,1.56,0,0,1,.55,1.34,1.57,1.57,0,0,1-.55,1.34,2.56,2.56,0,0,1-1.34.5,8.83,8.83,0,0,1-1.63,0c-.55-.05-1-.07-1.45-.07V33.31c.38-.15.9-.33,1.54-.55a5.13,5.13,0,0,1,1.54-.33,1.46,1.46,0,0,1,1.25.49,2.08,2.08,0,0,1,.38,1.31,1.21,1.21,0,0,1-.62,1,7.1,7.1,0,0,1-1.36.75q-.75.3-1.14.48l-1.87.64-2.68.88c-1,.3-1.83.57-2.64.79A7.54,7.54,0,0,1,96.35,39.07Zm10.15,5.71a2.72,2.72,0,0,1-1.45-.37,1.45,1.45,0,0,1-.62-1.34,1.52,1.52,0,0,1,.59-1.39,2.73,2.73,0,0,1,1.48-.37h13.44V35.42h-8.87a2.58,2.58,0,0,1-1.45-.37,1.49,1.49,0,0,1-.57-1.34,1.38,1.38,0,0,1,.59-1.32,2.68,2.68,0,0,1,1.43-.35h8.87V27.2h-6.06a5.24,5.24,0,0,1-2.94-.7c-.71-.47-1.06-1.41-1.06-2.81V10.77a5.13,5.13,0,0,1,.73-2.95,3.17,3.17,0,0,1,2.79-1.05h16.21a5.3,5.3,0,0,1,3,.72,3.15,3.15,0,0,1,1.08,2.79V23.69q0,3.51-3.56,3.51h-6.82V32h9.06a2.51,2.51,0,0,1,1.43.37,1.47,1.47,0,0,1,.54,1.3,1.52,1.52,0,0,1-.54,1.34,2.51,2.51,0,0,1-1.43.37h-9.06v5.89h10.55a2.67,2.67,0,0,1,1.47.37,1.5,1.5,0,0,1,.6,1.39,1.46,1.46,0,0,1-.6,1.34,2.67,2.67,0,0,1-1.47.37Zm6.72-29.4h6.72V9.93h-5.18a1.45,1.45,0,0,0-1.54,1.54ZM114.76,24h5.18V18.37h-6.72V22.5A1.45,1.45,0,0,0,114.76,24Zm8.52-8.66h6.86V11.47a1.45,1.45,0,0,0-1.54-1.54h-5.32Zm0,8.66h5.32a1.45,1.45,0,0,0,1.54-1.54V18.37h-6.86Z"/><path class="cls-1" d="M161.87,44.52a1.89,1.89,0,0,1-2.16-2.11,1.4,1.4,0,0,1,.82-1.39,8,8,0,0,1,1.6-.55c.73-.14,1.44-.3,2.13-.46s1.39-.36,2.09-.59a14.44,14.44,0,0,0,6.44-4.15,10.66,10.66,0,0,0,2.35-7.19A10.69,10.69,0,0,0,173,21.2a12.25,12.25,0,0,0-6.09-3.89c-.41,1.24-.91,2.66-1.51,4.27s-1.31,3.3-2.11,5.07a51.82,51.82,0,0,1-2.71,5.17,28.68,28.68,0,0,1-3.29,4.52,15.64,15.64,0,0,1-3.91,3.23,9,9,0,0,1-4.57,1.21,6.57,6.57,0,0,1-3.48-.88A7.38,7.38,0,0,1,143,37.57a10.31,10.31,0,0,1-1.38-3.2,15,15,0,0,1,1.69-11.3,22,22,0,0,1,5.56-5.93c-.21-1.11-.46-2.35-.75-3.71a18.08,18.08,0,0,1-.44-3.72,2.8,2.8,0,0,1,.42-1.56,1.58,1.58,0,0,1,1.43-.63,1.44,1.44,0,0,1,1.31.59,3.43,3.43,0,0,1,.53,1.38c.09.53.16,1,.22,1.45l.66,4.35a30.35,30.35,0,0,1,4.66-1.56,20.46,20.46,0,0,1,4.83-.59l1.25,0,1.26.07,1.05-4.66a9,9,0,0,1,.64-1.8,1.59,1.59,0,0,1,1.6-.88c1.32,0,2,.69,2,2.06a6.31,6.31,0,0,1-.2,1.15c-.13.55-.28,1.15-.46,1.8s-.34,1.24-.5,1.8-.27,1-.33,1.19a18.2,18.2,0,0,1,8.3,5.29,13.81,13.81,0,0,1,3,9.3,13.85,13.85,0,0,1-1.95,7.42,16.34,16.34,0,0,1-5.6,5.37A30.2,30.2,0,0,1,167,43.55,14.49,14.49,0,0,1,161.87,44.52ZM149.17,37a4.4,4.4,0,0,0,2.06-.52,10.13,10.13,0,0,0,1.89-1.28,18.39,18.39,0,0,0,1.54-1.45q-1.49-3.12-2.75-6.33a61.8,61.8,0,0,1-2.13-6.55,16.67,16.67,0,0,0-3.53,4.46,11.39,11.39,0,0,0-1.34,5.52,13.31,13.31,0,0,0,.32,2.88,4.75,4.75,0,0,0,1.26,2.35A3.64,3.64,0,0,0,149.17,37ZM157,30.45a47.8,47.8,0,0,0,3.52-6.68c1-2.31,1.89-4.67,2.68-7.07h-.31l-.66,0a20,20,0,0,0-4.77.55,26.08,26.08,0,0,0-4.55,1.56,55.55,55.55,0,0,0,1.74,5.95Q155.68,27.65,157,30.45Z"/><path class="cls-2" d="M6.48,40.3a1.77,1.77,0,0,1-2-2,1.73,1.73,0,0,1,.57-1.43,3.27,3.27,0,0,1,1.41-.64l3.78-.92V19.38H6.61A2.29,2.29,0,0,1,5.18,19a1.62,1.62,0,0,1-.55-1.38,1.54,1.54,0,0,1,.55-1.36,2.35,2.35,0,0,1,1.43-.4h3.65V7.12a2.35,2.35,0,0,1,.41-1.43,1.65,1.65,0,0,1,1.39-.55,1.65,1.65,0,0,1,1.38.55,2.29,2.29,0,0,1,.42,1.43v8.7H17a2.35,2.35,0,0,1,1.43.4A1.57,1.57,0,0,1,19,17.58,1.65,1.65,0,0,1,18.41,19a2.29,2.29,0,0,1-1.43.42H13.86v15l1-.31q.72-.23,1.47-.42a5.33,5.33,0,0,1,1-.2A1.54,1.54,0,0,1,19,35.2a1.59,1.59,0,0,1-.53,1.21,4.44,4.44,0,0,1-1.23.83,9.89,9.89,0,0,1-1.27.51l-2,.64c-.86.28-1.79.56-2.79.85s-1.92.55-2.79.75A9,9,0,0,1,6.48,40.3ZM32.84,45l-4,0a28.78,28.78,0,0,1-4-.33,4.77,4.77,0,0,1-2.71-1.3,3.93,3.93,0,0,1-.94-2.83v-16c-.18.06-.54.2-1.1.44s-1.11.44-1.65.63a4,4,0,0,1-1.07.29,1.27,1.27,0,0,1-1.17-.53A2.33,2.33,0,0,1,15.88,24a1.7,1.7,0,0,1,.44-1.21,3.07,3.07,0,0,1,1.1-.73l3.78-1.49v-10a2.51,2.51,0,0,1,.39-1.45A1.54,1.54,0,0,1,23,8.61a1.65,1.65,0,0,1,1.38.55,2.39,2.39,0,0,1,.42,1.48V19.2L30.3,17V6.9a2.51,2.51,0,0,1,.39-1.45,1.55,1.55,0,0,1,1.36-.57,1.63,1.63,0,0,1,1.39.55,2.34,2.34,0,0,1,.42,1.47v8.7c.52-.2,1.24-.5,2.15-.9s1.83-.76,2.77-1.1a7.26,7.26,0,0,1,2.28-.5,2.4,2.4,0,0,1,2.35,1.12,5.53,5.53,0,0,1,.6,2.66V27.25a7.17,7.17,0,0,1-1.65,5.09,6.56,6.56,0,0,1-5,1.76,1.64,1.64,0,0,1-1.43-.59A2.57,2.57,0,0,1,35.48,32,1.44,1.44,0,0,1,36,30.76a3.22,3.22,0,0,1,1.19-.5c.47-.11,1-.22,1.43-.35a2.43,2.43,0,0,0,1.21-.77,2.87,2.87,0,0,0,.48-1.85V18.85a1.8,1.8,0,0,0-.24-1,.92.92,0,0,0-.86-.4,4.05,4.05,0,0,0-1,.24c-.48.16-1,.37-1.6.62L35,19l-1.09.44V35.9a2.58,2.58,0,0,1-.38,1.45,1.53,1.53,0,0,1-1.38.58,1.65,1.65,0,0,1-1.39-.55,2.38,2.38,0,0,1-.41-1.48v-15l-5.54,2.2V39.33a1.59,1.59,0,0,0,.28,1,2.28,2.28,0,0,0,.86.64,5.92,5.92,0,0,0,1.54.26c.76.06,1.6.1,2.53.13s1.78,0,2.57,0h3.05c.6,0,1.25,0,1.93-.07a17.53,17.53,0,0,0,1.92-.22,3.33,3.33,0,0,0,1.27-.42,2.21,2.21,0,0,0,1-1.42A16.22,16.22,0,0,0,42,37.46,3.68,3.68,0,0,1,42.42,36a1.55,1.55,0,0,1,1.46-.62c1.34,0,2,.72,2,2.16a19.45,19.45,0,0,1-.16,2.41,7.51,7.51,0,0,1-.7,2.46A3.38,3.38,0,0,1,43.3,44a8.07,8.07,0,0,1-2.17.55c-.92.13-1.91.23-3,.29s-2.06.09-3,.11Z"/><path class="cls-2" d="M56.05,44.56a4.68,4.68,0,0,1-3.28-1,4.23,4.23,0,0,1-1.12-3.23V10.85q0-4.26,4.31-4.26H85q4.3,0,4.3,4.26V40.3a4.65,4.65,0,0,1-1,3.12,3.84,3.84,0,0,1-3.06,1.14ZM57.72,41H83.25a2.06,2.06,0,0,0,2.33-2.33V12.48a2.06,2.06,0,0,0-2.33-2.33H57.72a2.06,2.06,0,0,0-2.33,2.33V38.67A2.05,2.05,0,0,0,57.72,41Zm1.18-1.84q-1.8,0-1.8-1.89A1.75,1.75,0,0,1,57.63,36a2.82,2.82,0,0,1,.88-.46l1.6-.68a9.08,9.08,0,0,1,1-.4,22.31,22.31,0,0,0,3.67-1.89c1.16-.73,2.28-1.5,3.36-2.33Q66,29,63.87,27.93t-4.39-2.05a11.52,11.52,0,0,1-1.34-.72,1.4,1.4,0,0,1-.77-1.25,1.53,1.53,0,0,1,1.75-1.72,5.88,5.88,0,0,1,1.78.46c.81.31,1.71.71,2.71,1.19s2,1,3,1.49l2.66,1.41c.79.43,1.36.74,1.72,1a55.55,55.55,0,0,0,4.83-5.94,39.61,39.61,0,0,0,3.73-6.63,11.5,11.5,0,0,1,.86-1.5,1.64,1.64,0,0,1,1.43-.74,2.88,2.88,0,0,1,1.49.35,1.38,1.38,0,0,1,.62,1.32,6.17,6.17,0,0,1-.77,2.52,32.81,32.81,0,0,1-2,3.41Q80,22.33,78.64,24.13c-.91,1.2-1.76,2.28-2.55,3.25s-1.42,1.7-1.89,2.2l5.31,3.2c.36.21.85.52,1.5.95a12.77,12.77,0,0,1,1.76,1.38,2.15,2.15,0,0,1,.79,1.5,1.85,1.85,0,0,1-2.11,2.06,2.21,2.21,0,0,1-1.21-.42c-.43-.27-.8-.53-1.12-.76Q77.28,36,75.36,34.72t-3.89-2.55A27.23,27.23,0,0,1,69,34.12q-1.65,1.17-3.54,2.31a33.4,33.4,0,0,1-3.65,1.93A7.38,7.38,0,0,1,58.9,39.16Zm5.19-17A1.4,1.4,0,0,1,63,21.67c-.3-.36-.58-.68-.81-1l-.86-1.19-1.27-1.78c-.46-.63-.84-1.2-1.17-1.71a2.72,2.72,0,0,1-.48-1,1.41,1.41,0,0,1,.46-1.17,1.86,1.86,0,0,1,1.21-.37,2.07,2.07,0,0,1,1.1.59,17.57,17.57,0,0,1,1.52,1.5c.54.6,1.06,1.23,1.56,1.88a16.06,16.06,0,0,1,1.2,1.81,2.85,2.85,0,0,1,.47,1.21C65.94,21.61,65.32,22.19,64.09,22.19Zm8.61-1.45a1.27,1.27,0,0,1-1-.5,9.1,9.1,0,0,1-.68-.95c-.41-.76-.83-1.51-1.27-2.24s-.91-1.45-1.41-2.15c-.11-.21-.26-.45-.44-.73a1.5,1.5,0,0,1-.26-.77,1.4,1.4,0,0,1,.46-1.16,1.86,1.86,0,0,1,1.21-.37,1.7,1.7,0,0,1,1.3.59,10,10,0,0,1,.9,1.12c.17.26.43.63.77,1.1l1,1.51a15,15,0,0,1,.92,1.56A3,3,0,0,1,74.64,19a1.63,1.63,0,0,1-.53,1.35A2.25,2.25,0,0,1,72.7,20.74Z"/><path class="cls-2" d="M96.35,39.07a1.65,1.65,0,0,1-1.85-1.89,1.64,1.64,0,0,1,.59-1.41,3.57,3.57,0,0,1,1.43-.61l3.56-.88V19.38H96.74A2.46,2.46,0,0,1,95.27,19a1.56,1.56,0,0,1-.59-1.38,1.56,1.56,0,0,1,.59-1.41,2.6,2.6,0,0,1,1.47-.39h3.34V7.34a2.94,2.94,0,0,1,.4-1.58,1.83,1.83,0,0,1,2.81,0,3,3,0,0,1,.39,1.58v8.44c.41,0,.9,0,1.45-.07a8.84,8.84,0,0,1,1.63,0,2.66,2.66,0,0,1,1.34.51,1.56,1.56,0,0,1,.55,1.34,1.57,1.57,0,0,1-.55,1.34,2.56,2.56,0,0,1-1.34.5,8.83,8.83,0,0,1-1.63,0c-.55-.05-1-.07-1.45-.07V33.31c.38-.15.9-.33,1.54-.55a5.13,5.13,0,0,1,1.54-.33,1.46,1.46,0,0,1,1.25.49,2.08,2.08,0,0,1,.38,1.31,1.21,1.21,0,0,1-.62,1,7.1,7.1,0,0,1-1.36.75q-.75.3-1.14.48l-1.87.64-2.68.88c-1,.3-1.83.57-2.64.79A7.54,7.54,0,0,1,96.35,39.07Zm10.15,5.71a2.72,2.72,0,0,1-1.45-.37,1.45,1.45,0,0,1-.62-1.34,1.52,1.52,0,0,1,.59-1.39,2.73,2.73,0,0,1,1.48-.37h13.44V35.42h-8.87a2.58,2.58,0,0,1-1.45-.37,1.49,1.49,0,0,1-.57-1.34,1.38,1.38,0,0,1,.59-1.32,2.68,2.68,0,0,1,1.43-.35h8.87V27.2h-6.06a5.24,5.24,0,0,1-2.94-.7c-.71-.47-1.06-1.41-1.06-2.81V10.77a5.13,5.13,0,0,1,.73-2.95,3.17,3.17,0,0,1,2.79-1.05h16.21a5.3,5.3,0,0,1,3,.72,3.15,3.15,0,0,1,1.08,2.79V23.69q0,3.51-3.56,3.51h-6.82V32h9.06a2.51,2.51,0,0,1,1.43.37,1.47,1.47,0,0,1,.54,1.3,1.52,1.52,0,0,1-.54,1.34,2.51,2.51,0,0,1-1.43.37h-9.06v5.89h10.55a2.67,2.67,0,0,1,1.47.37,1.5,1.5,0,0,1,.6,1.39,1.46,1.46,0,0,1-.6,1.34,2.67,2.67,0,0,1-1.47.37Zm6.72-29.4h6.72V9.93h-5.18a1.45,1.45,0,0,0-1.54,1.54ZM114.76,24h5.18V18.37h-6.72V22.5A1.45,1.45,0,0,0,114.76,24Zm8.52-8.66h6.86V11.47a1.45,1.45,0,0,0-1.54-1.54h-5.32Zm0,8.66h5.32a1.45,1.45,0,0,0,1.54-1.54V18.37h-6.86Z"/><path class="cls-2" d="M161.87,44.52a1.89,1.89,0,0,1-2.16-2.11,1.4,1.4,0,0,1,.82-1.39,8,8,0,0,1,1.6-.55c.73-.14,1.44-.3,2.13-.46s1.39-.36,2.09-.59a14.44,14.44,0,0,0,6.44-4.15,10.66,10.66,0,0,0,2.35-7.19A10.69,10.69,0,0,0,173,21.2a12.25,12.25,0,0,0-6.09-3.89c-.41,1.24-.91,2.66-1.51,4.27s-1.31,3.3-2.11,5.07a51.82,51.82,0,0,1-2.71,5.17,28.68,28.68,0,0,1-3.29,4.52,15.64,15.64,0,0,1-3.91,3.23,9,9,0,0,1-4.57,1.21,6.57,6.57,0,0,1-3.48-.88A7.38,7.38,0,0,1,143,37.57a10.31,10.31,0,0,1-1.38-3.2,15,15,0,0,1,1.69-11.3,22,22,0,0,1,5.56-5.93c-.21-1.11-.46-2.35-.75-3.71a18.08,18.08,0,0,1-.44-3.72,2.8,2.8,0,0,1,.42-1.56,1.58,1.58,0,0,1,1.43-.63,1.44,1.44,0,0,1,1.31.59,3.43,3.43,0,0,1,.53,1.38c.09.53.16,1,.22,1.45l.66,4.35a30.35,30.35,0,0,1,4.66-1.56,20.46,20.46,0,0,1,4.83-.59l1.25,0,1.26.07,1.05-4.66a9,9,0,0,1,.64-1.8,1.59,1.59,0,0,1,1.6-.88c1.32,0,2,.69,2,2.06a6.31,6.31,0,0,1-.2,1.15c-.13.55-.28,1.15-.46,1.8s-.34,1.24-.5,1.8-.27,1-.33,1.19a18.2,18.2,0,0,1,8.3,5.29,13.81,13.81,0,0,1,3,9.3,13.85,13.85,0,0,1-1.95,7.42,16.34,16.34,0,0,1-5.6,5.37A30.2,30.2,0,0,1,167,43.55,14.49,14.49,0,0,1,161.87,44.52ZM149.17,37a4.4,4.4,0,0,0,2.06-.52,10.13,10.13,0,0,0,1.89-1.28,18.39,18.39,0,0,0,1.54-1.45q-1.49-3.12-2.75-6.33a61.8,61.8,0,0,1-2.13-6.55,16.67,16.67,0,0,0-3.53,4.46,11.39,11.39,0,0,0-1.34,5.52,13.31,13.31,0,0,0,.32,2.88,4.75,4.75,0,0,0,1.26,2.35A3.64,3.64,0,0,0,149.17,37ZM157,30.45a47.8,47.8,0,0,0,3.52-6.68c1-2.31,1.89-4.67,2.68-7.07h-.31l-.66,0a20,20,0,0,0-4.77.55,26.08,26.08,0,0,0-4.55,1.56,55.55,55.55,0,0,0,1.74,5.95Q155.68,27.65,157,30.45Z"/><path class="cls-3" d="M6.48,40.3a1.77,1.77,0,0,1-2-2,1.73,1.73,0,0,1,.57-1.43,3.27,3.27,0,0,1,1.41-.64l3.78-.92V19.38H6.61A2.29,2.29,0,0,1,5.18,19a1.62,1.62,0,0,1-.55-1.38,1.54,1.54,0,0,1,.55-1.36,2.35,2.35,0,0,1,1.43-.4h3.65V7.12a2.35,2.35,0,0,1,.41-1.43,1.65,1.65,0,0,1,1.39-.55,1.65,1.65,0,0,1,1.38.55,2.29,2.29,0,0,1,.42,1.43v8.7H17a2.35,2.35,0,0,1,1.43.4A1.57,1.57,0,0,1,19,17.58,1.65,1.65,0,0,1,18.41,19a2.29,2.29,0,0,1-1.43.42H13.86v15l1-.31q.72-.23,1.47-.42a5.33,5.33,0,0,1,1-.2A1.54,1.54,0,0,1,19,35.2a1.59,1.59,0,0,1-.53,1.21,4.44,4.44,0,0,1-1.23.83,9.89,9.89,0,0,1-1.27.51l-2,.64c-.86.28-1.79.56-2.79.85s-1.92.55-2.79.75A9,9,0,0,1,6.48,40.3ZM32.84,45l-4,0a28.78,28.78,0,0,1-4-.33,4.77,4.77,0,0,1-2.71-1.3,3.93,3.93,0,0,1-.94-2.83v-16c-.18.06-.54.2-1.1.44s-1.11.44-1.65.63a4,4,0,0,1-1.07.29,1.27,1.27,0,0,1-1.17-.53A2.33,2.33,0,0,1,15.88,24a1.7,1.7,0,0,1,.44-1.21,3.07,3.07,0,0,1,1.1-.73l3.78-1.49v-10a2.51,2.51,0,0,1,.39-1.45A1.54,1.54,0,0,1,23,8.61a1.65,1.65,0,0,1,1.38.55,2.39,2.39,0,0,1,.42,1.48V19.2L30.3,17V6.9a2.51,2.51,0,0,1,.39-1.45,1.55,1.55,0,0,1,1.36-.57,1.63,1.63,0,0,1,1.39.55,2.34,2.34,0,0,1,.42,1.47v8.7c.52-.2,1.24-.5,2.15-.9s1.83-.76,2.77-1.1a7.26,7.26,0,0,1,2.28-.5,2.4,2.4,0,0,1,2.35,1.12,5.53,5.53,0,0,1,.6,2.66V27.25a7.17,7.17,0,0,1-1.65,5.09,6.56,6.56,0,0,1-5,1.76,1.64,1.64,0,0,1-1.43-.59A2.57,2.57,0,0,1,35.48,32,1.44,1.44,0,0,1,36,30.76a3.22,3.22,0,0,1,1.19-.5c.47-.11,1-.22,1.43-.35a2.43,2.43,0,0,0,1.21-.77,2.87,2.87,0,0,0,.48-1.85V18.85a1.8,1.8,0,0,0-.24-1,.92.92,0,0,0-.86-.4,4.05,4.05,0,0,0-1,.24c-.48.16-1,.37-1.6.62L35,19l-1.09.44V35.9a2.58,2.58,0,0,1-.38,1.45,1.53,1.53,0,0,1-1.38.58,1.65,1.65,0,0,1-1.39-.55,2.38,2.38,0,0,1-.41-1.48v-15l-5.54,2.2V39.33a1.59,1.59,0,0,0,.28,1,2.28,2.28,0,0,0,.86.64,5.92,5.92,0,0,0,1.54.26c.76.06,1.6.1,2.53.13s1.78,0,2.57,0h3.05c.6,0,1.25,0,1.93-.07a17.53,17.53,0,0,0,1.92-.22,3.33,3.33,0,0,0,1.27-.42,2.21,2.21,0,0,0,1-1.42A16.22,16.22,0,0,0,42,37.46,3.68,3.68,0,0,1,42.42,36a1.55,1.55,0,0,1,1.46-.62c1.34,0,2,.72,2,2.16a19.45,19.45,0,0,1-.16,2.41,7.51,7.51,0,0,1-.7,2.46A3.38,3.38,0,0,1,43.3,44a8.07,8.07,0,0,1-2.17.55c-.92.13-1.91.23-3,.29s-2.06.09-3,.11Z"/><path class="cls-3" d="M56.05,44.56a4.68,4.68,0,0,1-3.28-1,4.23,4.23,0,0,1-1.12-3.23V10.85q0-4.26,4.31-4.26H85q4.3,0,4.3,4.26V40.3a4.65,4.65,0,0,1-1,3.12,3.84,3.84,0,0,1-3.06,1.14ZM57.72,41H83.25a2.06,2.06,0,0,0,2.33-2.33V12.48a2.06,2.06,0,0,0-2.33-2.33H57.72a2.06,2.06,0,0,0-2.33,2.33V38.67A2.05,2.05,0,0,0,57.72,41Zm1.18-1.84q-1.8,0-1.8-1.89A1.75,1.75,0,0,1,57.63,36a2.82,2.82,0,0,1,.88-.46l1.6-.68a9.08,9.08,0,0,1,1-.4,22.31,22.31,0,0,0,3.67-1.89c1.16-.73,2.28-1.5,3.36-2.33Q66,29,63.87,27.93t-4.39-2.05a11.52,11.52,0,0,1-1.34-.72,1.4,1.4,0,0,1-.77-1.25,1.53,1.53,0,0,1,1.75-1.72,5.88,5.88,0,0,1,1.78.46c.81.31,1.71.71,2.71,1.19s2,1,3,1.49l2.66,1.41c.79.43,1.36.74,1.72,1a55.55,55.55,0,0,0,4.83-5.94,39.61,39.61,0,0,0,3.73-6.63,11.5,11.5,0,0,1,.86-1.5,1.64,1.64,0,0,1,1.43-.74,2.88,2.88,0,0,1,1.49.35,1.38,1.38,0,0,1,.62,1.32,6.17,6.17,0,0,1-.77,2.52,32.81,32.81,0,0,1-2,3.41Q80,22.33,78.64,24.13c-.91,1.2-1.76,2.28-2.55,3.25s-1.42,1.7-1.89,2.2l5.31,3.2c.36.21.85.52,1.5.95a12.77,12.77,0,0,1,1.76,1.38,2.15,2.15,0,0,1,.79,1.5,1.85,1.85,0,0,1-2.11,2.06,2.21,2.21,0,0,1-1.21-.42c-.43-.27-.8-.53-1.12-.76Q77.28,36,75.36,34.72t-3.89-2.55A27.23,27.23,0,0,1,69,34.12q-1.65,1.17-3.54,2.31a33.4,33.4,0,0,1-3.65,1.93A7.38,7.38,0,0,1,58.9,39.16Zm5.19-17A1.4,1.4,0,0,1,63,21.67c-.3-.36-.58-.68-.81-1l-.86-1.19-1.27-1.78c-.46-.63-.84-1.2-1.17-1.71a2.72,2.72,0,0,1-.48-1,1.41,1.41,0,0,1,.46-1.17,1.86,1.86,0,0,1,1.21-.37,2.07,2.07,0,0,1,1.1.59,17.57,17.57,0,0,1,1.52,1.5c.54.6,1.06,1.23,1.56,1.88a16.06,16.06,0,0,1,1.2,1.81,2.85,2.85,0,0,1,.47,1.21C65.94,21.61,65.32,22.19,64.09,22.19Zm8.61-1.45a1.27,1.27,0,0,1-1-.5,9.1,9.1,0,0,1-.68-.95c-.41-.76-.83-1.51-1.27-2.24s-.91-1.45-1.41-2.15c-.11-.21-.26-.45-.44-.73a1.5,1.5,0,0,1-.26-.77,1.4,1.4,0,0,1,.46-1.16,1.86,1.86,0,0,1,1.21-.37,1.7,1.7,0,0,1,1.3.59,10,10,0,0,1,.9,1.12c.17.26.43.63.77,1.1l1,1.51a15,15,0,0,1,.92,1.56A3,3,0,0,1,74.64,19a1.63,1.63,0,0,1-.53,1.35A2.25,2.25,0,0,1,72.7,20.74Z"/><path class="cls-3" d="M96.35,39.07a1.65,1.65,0,0,1-1.85-1.89,1.64,1.64,0,0,1,.59-1.41,3.57,3.57,0,0,1,1.43-.61l3.56-.88V19.38H96.74A2.46,2.46,0,0,1,95.27,19a1.56,1.56,0,0,1-.59-1.38,1.56,1.56,0,0,1,.59-1.41,2.6,2.6,0,0,1,1.47-.39h3.34V7.34a2.94,2.94,0,0,1,.4-1.58,1.83,1.83,0,0,1,2.81,0,3,3,0,0,1,.39,1.58v8.44c.41,0,.9,0,1.45-.07a8.84,8.84,0,0,1,1.63,0,2.66,2.66,0,0,1,1.34.51,1.56,1.56,0,0,1,.55,1.34,1.57,1.57,0,0,1-.55,1.34,2.56,2.56,0,0,1-1.34.5,8.83,8.83,0,0,1-1.63,0c-.55-.05-1-.07-1.45-.07V33.31c.38-.15.9-.33,1.54-.55a5.13,5.13,0,0,1,1.54-.33,1.46,1.46,0,0,1,1.25.49,2.08,2.08,0,0,1,.38,1.31,1.21,1.21,0,0,1-.62,1,7.1,7.1,0,0,1-1.36.75q-.75.3-1.14.48l-1.87.64-2.68.88c-1,.3-1.83.57-2.64.79A7.54,7.54,0,0,1,96.35,39.07Zm10.15,5.71a2.72,2.72,0,0,1-1.45-.37,1.45,1.45,0,0,1-.62-1.34,1.52,1.52,0,0,1,.59-1.39,2.73,2.73,0,0,1,1.48-.37h13.44V35.42h-8.87a2.58,2.58,0,0,1-1.45-.37,1.49,1.49,0,0,1-.57-1.34,1.38,1.38,0,0,1,.59-1.32,2.68,2.68,0,0,1,1.43-.35h8.87V27.2h-6.06a5.24,5.24,0,0,1-2.94-.7c-.71-.47-1.06-1.41-1.06-2.81V10.77a5.13,5.13,0,0,1,.73-2.95,3.17,3.17,0,0,1,2.79-1.05h16.21a5.3,5.3,0,0,1,3,.72,3.15,3.15,0,0,1,1.08,2.79V23.69q0,3.51-3.56,3.51h-6.82V32h9.06a2.51,2.51,0,0,1,1.43.37,1.47,1.47,0,0,1,.54,1.3,1.52,1.52,0,0,1-.54,1.34,2.51,2.51,0,0,1-1.43.37h-9.06v5.89h10.55a2.67,2.67,0,0,1,1.47.37,1.5,1.5,0,0,1,.6,1.39,1.46,1.46,0,0,1-.6,1.34,2.67,2.67,0,0,1-1.47.37Zm6.72-29.4h6.72V9.93h-5.18a1.45,1.45,0,0,0-1.54,1.54ZM114.76,24h5.18V18.37h-6.72V22.5A1.45,1.45,0,0,0,114.76,24Zm8.52-8.66h6.86V11.47a1.45,1.45,0,0,0-1.54-1.54h-5.32Zm0,8.66h5.32a1.45,1.45,0,0,0,1.54-1.54V18.37h-6.86Z"/><path class="cls-3" d="M161.87,44.52a1.89,1.89,0,0,1-2.16-2.11,1.4,1.4,0,0,1,.82-1.39,8,8,0,0,1,1.6-.55c.73-.14,1.44-.3,2.13-.46s1.39-.36,2.09-.59a14.44,14.44,0,0,0,6.44-4.15,10.66,10.66,0,0,0,2.35-7.19A10.69,10.69,0,0,0,173,21.2a12.25,12.25,0,0,0-6.09-3.89c-.41,1.24-.91,2.66-1.51,4.27s-1.31,3.3-2.11,5.07a51.82,51.82,0,0,1-2.71,5.17,28.68,28.68,0,0,1-3.29,4.52,15.64,15.64,0,0,1-3.91,3.23,9,9,0,0,1-4.57,1.21,6.57,6.57,0,0,1-3.48-.88A7.38,7.38,0,0,1,143,37.57a10.31,10.31,0,0,1-1.38-3.2,15,15,0,0,1,1.69-11.3,22,22,0,0,1,5.56-5.93c-.21-1.11-.46-2.35-.75-3.71a18.08,18.08,0,0,1-.44-3.72,2.8,2.8,0,0,1,.42-1.56,1.58,1.58,0,0,1,1.43-.63,1.44,1.44,0,0,1,1.31.59,3.43,3.43,0,0,1,.53,1.38c.09.53.16,1,.22,1.45l.66,4.35a30.35,30.35,0,0,1,4.66-1.56,20.46,20.46,0,0,1,4.83-.59l1.25,0,1.26.07,1.05-4.66a9,9,0,0,1,.64-1.8,1.59,1.59,0,0,1,1.6-.88c1.32,0,2,.69,2,2.06a6.31,6.31,0,0,1-.2,1.15c-.13.55-.28,1.15-.46,1.8s-.34,1.24-.5,1.8-.27,1-.33,1.19a18.2,18.2,0,0,1,8.3,5.29,13.81,13.81,0,0,1,3,9.3,13.85,13.85,0,0,1-1.95,7.42,16.34,16.34,0,0,1-5.6,5.37A30.2,30.2,0,0,1,167,43.55,14.49,14.49,0,0,1,161.87,44.52ZM149.17,37a4.4,4.4,0,0,0,2.06-.52,10.13,10.13,0,0,0,1.89-1.28,18.39,18.39,0,0,0,1.54-1.45q-1.49-3.12-2.75-6.33a61.8,61.8,0,0,1-2.13-6.55,16.67,16.67,0,0,0-3.53,4.46,11.39,11.39,0,0,0-1.34,5.52,13.31,13.31,0,0,0,.32,2.88,4.75,4.75,0,0,0,1.26,2.35A3.64,3.64,0,0,0,149.17,37ZM157,30.45a47.8,47.8,0,0,0,3.52-6.68c1-2.31,1.89-4.67,2.68-7.07h-.31l-.66,0a20,20,0,0,0-4.77.55,26.08,26.08,0,0,0-4.55,1.56,55.55,55.55,0,0,0,1.74,5.95Q155.68,27.65,157,30.45Z"/><text/></g></g></svg>