<svg xmlns="http://www.w3.org/2000/svg" viewBox="0 0 315.06 49.52"><defs><style>.cls-1{fill:#231815;}.cls-2{fill:none;stroke:#f7f8f8;stroke-width:9px;}.cls-3{fill:#6cbdeb;}</style></defs><g id="レイヤー_2" data-name="レイヤー 2"><g id="レイヤー_1-2" data-name="レイヤー 1"><text/><path class="cls-1" d="M6.48,39.92a1.77,1.77,0,0,1-2-2,1.73,1.73,0,0,1,.57-1.43,3.27,3.27,0,0,1,1.41-.64l3.78-.92V19H6.61a2.29,2.29,0,0,1-1.43-.42,1.61,1.61,0,0,1-.55-1.38,1.55,1.55,0,0,1,.55-1.36,2.35,2.35,0,0,1,1.43-.4h3.65V6.74a2.37,2.37,0,0,1,.41-1.43,1.65,1.65,0,0,1,1.39-.55,1.65,1.65,0,0,1,1.38.55,2.31,2.31,0,0,1,.42,1.43v8.7H17a2.35,2.35,0,0,1,1.43.4A1.58,1.58,0,0,1,19,17.2a1.63,1.63,0,0,1-.55,1.38A2.29,2.29,0,0,1,17,19H13.86V34l1-.31q.72-.23,1.47-.42a5.33,5.33,0,0,1,1-.2A1.54,1.54,0,0,1,19,34.82,1.59,1.59,0,0,1,18.47,36a4.46,4.46,0,0,1-1.23.84,11.38,11.38,0,0,1-1.27.5L14,38c-.86.28-1.79.56-2.79.86s-1.92.54-2.79.74A9,9,0,0,1,6.48,39.92Zm26.36,4.7-4,0a28.78,28.78,0,0,1-4-.33A4.71,4.71,0,0,1,22.14,43a3.93,3.93,0,0,1-.94-2.83v-16c-.18.06-.54.2-1.1.44s-1.11.45-1.65.64a4.2,4.2,0,0,1-1.07.28,1.25,1.25,0,0,1-1.17-.53,2.33,2.33,0,0,1-.33-1.27,1.7,1.7,0,0,1,.44-1.21,2.93,2.93,0,0,1,1.1-.72l3.78-1.5v-10a2.51,2.51,0,0,1,.39-1.45A1.56,1.56,0,0,1,23,8.24a1.64,1.64,0,0,1,1.38.54,2.39,2.39,0,0,1,.42,1.48v8.57l5.54-2.2V6.52a2.53,2.53,0,0,1,.39-1.45,1.55,1.55,0,0,1,1.36-.57,1.63,1.63,0,0,1,1.39.55,2.37,2.37,0,0,1,.42,1.47v8.7c.52-.2,1.24-.5,2.15-.9s1.83-.76,2.77-1.1a7.26,7.26,0,0,1,2.28-.5,2.4,2.4,0,0,1,2.35,1.12A5.56,5.56,0,0,1,44,16.5V26.87A7.21,7.21,0,0,1,42.36,32a6.6,6.6,0,0,1-5,1.75,1.61,1.61,0,0,1-1.43-.59,2.57,2.57,0,0,1-.42-1.52A1.44,1.44,0,0,1,36,30.38a3.22,3.22,0,0,1,1.19-.5c.47-.1,1-.22,1.43-.35a2.48,2.48,0,0,0,1.21-.77,2.87,2.87,0,0,0,.48-1.85V18.47a1.8,1.8,0,0,0-.24-1,.92.92,0,0,0-.86-.4,4.05,4.05,0,0,0-1,.24c-.48.17-1,.37-1.6.62L35,18.65c-.49.21-.86.35-1.09.44V35.53A2.63,2.63,0,0,1,33.48,37a1.53,1.53,0,0,1-1.38.57A1.65,1.65,0,0,1,30.71,37a2.37,2.37,0,0,1-.41-1.47v-15l-5.54,2.19V39a1.59,1.59,0,0,0,.28,1,2.28,2.28,0,0,0,.86.64,5.51,5.51,0,0,0,1.54.26C28.2,40.9,29,41,30,41s1.78.05,2.57.05h3.05c.6,0,1.25,0,1.93-.07a15.38,15.38,0,0,0,1.92-.22,3.54,3.54,0,0,0,1.27-.41,2.25,2.25,0,0,0,1-1.43A15.86,15.86,0,0,0,42,37.08a3.72,3.72,0,0,1,.43-1.51A1.55,1.55,0,0,1,43.88,35c1.34,0,2,.72,2,2.16a21.46,21.46,0,0,1-.16,2.41A7.64,7.64,0,0,1,45,42a3.45,3.45,0,0,1-1.74,1.67,8.52,8.52,0,0,1-2.17.54c-.92.14-1.91.23-3,.29s-2.06.09-3,.11Z"/><path class="cls-1" d="M56.05,44.18a4.68,4.68,0,0,1-3.28-1,4.23,4.23,0,0,1-1.12-3.23V10.48c0-2.84,1.44-4.27,4.31-4.27H85c2.87,0,4.3,1.43,4.3,4.27V39.92a4.65,4.65,0,0,1-1,3.12,3.84,3.84,0,0,1-3.06,1.14Zm1.67-3.56H83.25a2.06,2.06,0,0,0,2.33-2.33V12.1a2.06,2.06,0,0,0-2.33-2.33H57.72a2.06,2.06,0,0,0-2.33,2.33V38.29A2.05,2.05,0,0,0,57.72,40.62Zm1.18-1.84q-1.8,0-1.8-1.89a1.75,1.75,0,0,1,.53-1.28,3.07,3.07,0,0,1,.88-.46c.53-.22,1.06-.44,1.6-.68a8.13,8.13,0,0,1,1-.39,24,24,0,0,0,3.67-1.89c1.16-.74,2.28-1.51,3.36-2.33-1.4-.82-2.83-1.59-4.26-2.31s-2.9-1.4-4.39-2a14.85,14.85,0,0,1-1.35-.73,1.4,1.4,0,0,1-.76-1.25,1.54,1.54,0,0,1,1.75-1.72,5.68,5.68,0,0,1,1.78.47c.81.3,1.71.7,2.71,1.18s2,1,3,1.5l2.66,1.4c.79.43,1.36.74,1.72.95a55.45,55.45,0,0,0,4.83-5.93,40.11,40.11,0,0,0,3.73-6.64,10.78,10.78,0,0,1,.86-1.49,1.62,1.62,0,0,1,1.43-.75,3,3,0,0,1,1.49.35,1.38,1.38,0,0,1,.62,1.32,6.13,6.13,0,0,1-.77,2.52,32.81,32.81,0,0,1-2,3.41Q80,21.94,78.64,23.75C77.73,25,76.88,26,76.09,27s-1.42,1.7-1.89,2.2l5.31,3.21c.36.2.85.52,1.5.94a13.58,13.58,0,0,1,1.76,1.38,2.15,2.15,0,0,1,.79,1.5,1.84,1.84,0,0,1-2.11,2.06,2.19,2.19,0,0,1-1.21-.41c-.43-.28-.8-.54-1.12-.77q-1.84-1.45-3.76-2.77t-3.89-2.55a28.87,28.87,0,0,1-2.52,2c-1.1.77-2.28,1.54-3.54,2.3A35.4,35.4,0,0,1,61.76,38,7.52,7.52,0,0,1,58.9,38.78Zm5.19-17A1.4,1.4,0,0,1,63,21.29c-.3-.35-.58-.68-.81-1s-.46-.63-.86-1.19l-1.27-1.78c-.46-.63-.84-1.2-1.17-1.71a2.72,2.72,0,0,1-.48-1,1.41,1.41,0,0,1,.46-1.17,1.86,1.86,0,0,1,1.21-.37,2.07,2.07,0,0,1,1.1.59,17.57,17.57,0,0,1,1.52,1.5q.81.9,1.56,1.89a17,17,0,0,1,1.2,1.8,2.85,2.85,0,0,1,.47,1.21C65.94,21.23,65.32,21.81,64.09,21.81Zm8.61-1.45a1.24,1.24,0,0,1-1-.5,9.1,9.1,0,0,1-.68-.95c-.41-.76-.83-1.5-1.27-2.24s-.91-1.45-1.41-2.15c-.11-.21-.26-.45-.44-.73a1.47,1.47,0,0,1-.26-.76,1.41,1.41,0,0,1,.46-1.17,1.86,1.86,0,0,1,1.21-.37,1.74,1.74,0,0,1,1.3.59,11,11,0,0,1,.9,1.12c.17.26.43.63.77,1.1s.68,1,1,1.52a13.16,13.16,0,0,1,.92,1.56,2.87,2.87,0,0,1,.38,1.23A1.62,1.62,0,0,1,74.11,20,2.19,2.19,0,0,1,72.7,20.36Z"/><path class="cls-1" d="M101.49,44.23a1.85,1.85,0,0,1-2.07-2.11,1.49,1.49,0,0,1,.79-1.43,5.92,5.92,0,0,1,1.63-.59c1.17-.3,2.32-.6,3.45-.91A25.22,25.22,0,0,0,108.65,38a32,32,0,0,0,8.28-4.92A31.5,31.5,0,0,0,123.35,26a28.81,28.81,0,0,0,3.85-8.79,3.23,3.23,0,0,0,.1-.46,3.88,3.88,0,0,0,.07-.42,1,1,0,0,0-.48-1,2.77,2.77,0,0,0-1.1-.22H112.43c-.38.62-.91,1.43-1.58,2.42s-1.44,2.05-2.29,3.17a37.19,37.19,0,0,1-2.68,3.14,17.84,17.84,0,0,1-2.77,2.41,4.41,4.41,0,0,1-2.5.95,1.75,1.75,0,0,1-2-2A1.64,1.64,0,0,1,99.18,24c.37-.35.7-.64,1-.88a36.52,36.52,0,0,0,4.85-4.5,29.55,29.55,0,0,0,3.45-4.79,52.59,52.59,0,0,0,2.91-5.91,7.42,7.42,0,0,1,.87-1.56,1.83,1.83,0,0,1,1.59-.73,2.13,2.13,0,0,1,1.4.44,1.69,1.69,0,0,1,.53,1.36,4,4,0,0,1-.26,1.19c-.18.5-.37,1-.58,1.49s-.36.88-.48,1.15h13.93a3.45,3.45,0,0,1,2.53,1,3.35,3.35,0,0,1,1,2.5,12.29,12.29,0,0,1-.55,3.56A28,28,0,0,1,130.05,22c-.53,1.17-1.07,2.25-1.62,3.25a40.94,40.94,0,0,1-7.83,10.15A32.86,32.86,0,0,1,109.66,42l-2.5.9c-1,.36-2,.68-3.08.94A11,11,0,0,1,101.49,44.23Z"/><path class="cls-1" d="M162.83,45a1.74,1.74,0,0,1-1.66-.77,3.65,3.65,0,0,1-.44-1.87V22.65c-.62.41-1.51,1-2.66,1.69s-2.44,1.47-3.85,2.26-2.82,1.55-4.24,2.27a42.09,42.09,0,0,1-3.89,1.75,8.15,8.15,0,0,1-2.77.69,1.78,1.78,0,0,1-1.51-.6,2.43,2.43,0,0,1-.46-1.56,1.74,1.74,0,0,1,.52-1.27,5.79,5.79,0,0,1,1-.55c.59-.28,1.26-.58,2-.9s1.45-.61,2.08-.86,1-.42,1.21-.5a65.27,65.27,0,0,0,12-6.86,60,60,0,0,0,10.2-9.27c.32-.38.75-.83,1.27-1.34a2.36,2.36,0,0,1,1.63-.77,2.44,2.44,0,0,1,1.58.46,1.79,1.79,0,0,1,.57,1.47,3.6,3.6,0,0,1-.88,2,21.79,21.79,0,0,1-2.24,2.53c-.9.89-1.85,1.76-2.83,2.61s-1.88,1.61-2.68,2.27-1.4,1.13-1.78,1.42V42.38a3.65,3.65,0,0,1-.46,1.87A1.83,1.83,0,0,1,162.83,45Z"/><path class="cls-1" d="M188.54,43a1.92,1.92,0,0,1-2.19-2.15,1.78,1.78,0,0,1,.81-1.48,11.24,11.24,0,0,1,1.51-.94,57.71,57.71,0,0,0,10.82-7,42.9,42.9,0,0,0,8.43-9.74c.18-.26.46-.7.86-1.32s.81-1.29,1.25-2,.81-1.43,1.12-2.06a3.67,3.67,0,0,0,.46-1.39,1,1,0,0,0-.41-.88,1.87,1.87,0,0,0-1-.26h-18.9a3.29,3.29,0,0,1-1.73-.44,1.68,1.68,0,0,1-.73-1.58,1.64,1.64,0,0,1,.73-1.56,3.38,3.38,0,0,1,1.73-.42h21.4a3.51,3.51,0,0,1,2.53,1,3.4,3.4,0,0,1,1.08,2.51,7.33,7.33,0,0,1-.55,2.42,27.9,27.9,0,0,1-1.45,3.12c-.6,1.11-1.24,2.22-1.91,3.31s-1.32,2.11-1.94,3-1.13,1.63-1.54,2.16l1.89,1.45c.85.64,1.81,1.39,2.88,2.24s2.16,1.74,3.28,2.68,2.13,1.85,3.07,2.75a24.35,24.35,0,0,1,2.29,2.44,3.25,3.25,0,0,1,.88,1.75c0,1.5-.8,2.24-2.38,2.24a2.31,2.31,0,0,1-1.58-.68c-.5-.45-.92-.87-1.27-1.25q-2.64-3-5.48-5.65a53.16,53.16,0,0,0-6.13-4.94,42,42,0,0,1-4.83,4.7,55.29,55.29,0,0,1-5.45,4l-1.49,1c-.68.44-1.41.89-2.2,1.36s-1.54.86-2.24,1.19A4.35,4.35,0,0,1,188.54,43Zm30-30.76c-1,0-1.53-.54-1.53-1.63V6.7c0-1.09.51-1.63,1.53-1.63s1.54.54,1.54,1.63v4C220.05,11.74,219.54,12.28,218.51,12.28Zm5,0c-1,0-1.53-.54-1.53-1.63V6.7c0-1.09.51-1.63,1.53-1.63s1.54.54,1.54,1.63v4C225.06,11.74,224.55,12.28,223.52,12.28Z"/><path class="cls-2" d="M6.48,39.92a1.77,1.77,0,0,1-2-2,1.73,1.73,0,0,1,.57-1.43,3.27,3.27,0,0,1,1.41-.64l3.78-.92V19H6.61a2.29,2.29,0,0,1-1.43-.42,1.61,1.61,0,0,1-.55-1.38,1.55,1.55,0,0,1,.55-1.36,2.35,2.35,0,0,1,1.43-.4h3.65V6.74a2.37,2.37,0,0,1,.41-1.43,1.65,1.65,0,0,1,1.39-.55,1.65,1.65,0,0,1,1.38.55,2.31,2.31,0,0,1,.42,1.43v8.7H17a2.35,2.35,0,0,1,1.43.4A1.58,1.58,0,0,1,19,17.2a1.63,1.63,0,0,1-.55,1.38A2.29,2.29,0,0,1,17,19H13.86V34l1-.31q.72-.23,1.47-.42a5.33,5.33,0,0,1,1-.2A1.54,1.54,0,0,1,19,34.82,1.59,1.59,0,0,1,18.47,36a4.46,4.46,0,0,1-1.23.84,11.38,11.38,0,0,1-1.27.5L14,38c-.86.28-1.79.56-2.79.86s-1.92.54-2.79.74A9,9,0,0,1,6.48,39.92Zm26.36,4.7-4,0a28.78,28.78,0,0,1-4-.33A4.71,4.71,0,0,1,22.14,43a3.93,3.93,0,0,1-.94-2.83v-16c-.18.06-.54.2-1.1.44s-1.11.45-1.65.64a4.2,4.2,0,0,1-1.07.28,1.25,1.25,0,0,1-1.17-.53,2.33,2.33,0,0,1-.33-1.27,1.7,1.7,0,0,1,.44-1.21,2.93,2.93,0,0,1,1.1-.72l3.78-1.5v-10a2.51,2.51,0,0,1,.39-1.45A1.56,1.56,0,0,1,23,8.24a1.64,1.64,0,0,1,1.38.54,2.39,2.39,0,0,1,.42,1.48v8.57l5.54-2.2V6.52a2.53,2.53,0,0,1,.39-1.45,1.55,1.55,0,0,1,1.36-.57,1.63,1.63,0,0,1,1.39.55,2.37,2.37,0,0,1,.42,1.47v8.7c.52-.2,1.24-.5,2.15-.9s1.83-.76,2.77-1.1a7.26,7.26,0,0,1,2.28-.5,2.4,2.4,0,0,1,2.35,1.12A5.56,5.56,0,0,1,44,16.5V26.87A7.21,7.21,0,0,1,42.36,32a6.6,6.6,0,0,1-5,1.75,1.61,1.61,0,0,1-1.43-.59,2.57,2.57,0,0,1-.42-1.52A1.44,1.44,0,0,1,36,30.38a3.22,3.22,0,0,1,1.19-.5c.47-.1,1-.22,1.43-.35a2.48,2.48,0,0,0,1.21-.77,2.87,2.87,0,0,0,.48-1.85V18.47a1.8,1.8,0,0,0-.24-1,.92.92,0,0,0-.86-.4,4.05,4.05,0,0,0-1,.24c-.48.17-1,.37-1.6.62L35,18.65c-.49.21-.86.35-1.09.44V35.53A2.63,2.63,0,0,1,33.48,37a1.53,1.53,0,0,1-1.38.57A1.65,1.65,0,0,1,30.71,37a2.37,2.37,0,0,1-.41-1.47v-15l-5.54,2.19V39a1.59,1.59,0,0,0,.28,1,2.28,2.28,0,0,0,.86.64,5.51,5.51,0,0,0,1.54.26C28.2,40.9,29,41,30,41s1.78.05,2.57.05h3.05c.6,0,1.25,0,1.93-.07a15.38,15.38,0,0,0,1.92-.22,3.54,3.54,0,0,0,1.27-.41,2.25,2.25,0,0,0,1-1.43A15.86,15.86,0,0,0,42,37.08a3.72,3.72,0,0,1,.43-1.51A1.55,1.55,0,0,1,43.88,35c1.34,0,2,.72,2,2.16a21.46,21.46,0,0,1-.16,2.41A7.64,7.64,0,0,1,45,42a3.45,3.45,0,0,1-1.74,1.67,8.52,8.52,0,0,1-2.17.54c-.92.14-1.91.23-3,.29s-2.06.09-3,.11Z"/><path class="cls-2" d="M56.05,44.18a4.68,4.68,0,0,1-3.28-1,4.23,4.23,0,0,1-1.12-3.23V10.48c0-2.84,1.44-4.27,4.31-4.27H85c2.87,0,4.3,1.43,4.3,4.27V39.92a4.65,4.65,0,0,1-1,3.12,3.84,3.84,0,0,1-3.06,1.14Zm1.67-3.56H83.25a2.06,2.06,0,0,0,2.33-2.33V12.1a2.06,2.06,0,0,0-2.33-2.33H57.72a2.06,2.06,0,0,0-2.33,2.33V38.29A2.05,2.05,0,0,0,57.72,40.62Zm1.18-1.84q-1.8,0-1.8-1.89a1.75,1.75,0,0,1,.53-1.28,3.07,3.07,0,0,1,.88-.46c.53-.22,1.06-.44,1.6-.68a8.13,8.13,0,0,1,1-.39,24,24,0,0,0,3.67-1.89c1.16-.74,2.28-1.51,3.36-2.33-1.4-.82-2.83-1.59-4.26-2.31s-2.9-1.4-4.39-2a14.85,14.85,0,0,1-1.35-.73,1.4,1.4,0,0,1-.76-1.25,1.54,1.54,0,0,1,1.75-1.72,5.68,5.68,0,0,1,1.78.47c.81.3,1.71.7,2.71,1.18s2,1,3,1.5l2.66,1.4c.79.43,1.36.74,1.72.95a55.45,55.45,0,0,0,4.83-5.93,40.11,40.11,0,0,0,3.73-6.64,10.78,10.78,0,0,1,.86-1.49,1.62,1.62,0,0,1,1.43-.75,3,3,0,0,1,1.49.35,1.38,1.38,0,0,1,.62,1.32,6.13,6.13,0,0,1-.77,2.52,32.81,32.81,0,0,1-2,3.41Q80,21.94,78.64,23.75C77.73,25,76.88,26,76.09,27s-1.42,1.7-1.89,2.2l5.31,3.21c.36.2.85.52,1.5.94a13.58,13.58,0,0,1,1.76,1.38,2.15,2.15,0,0,1,.79,1.5,1.84,1.84,0,0,1-2.11,2.06,2.19,2.19,0,0,1-1.21-.41c-.43-.28-.8-.54-1.12-.77q-1.84-1.45-3.76-2.77t-3.89-2.55a28.87,28.87,0,0,1-2.52,2c-1.1.77-2.28,1.54-3.54,2.3A35.4,35.4,0,0,1,61.76,38,7.52,7.52,0,0,1,58.9,38.78Zm5.19-17A1.4,1.4,0,0,1,63,21.29c-.3-.35-.58-.68-.81-1s-.46-.63-.86-1.19l-1.27-1.78c-.46-.63-.84-1.2-1.17-1.71a2.72,2.72,0,0,1-.48-1,1.41,1.41,0,0,1,.46-1.17,1.86,1.86,0,0,1,1.21-.37,2.07,2.07,0,0,1,1.1.59,17.57,17.57,0,0,1,1.52,1.5q.81.9,1.56,1.89a17,17,0,0,1,1.2,1.8,2.85,2.85,0,0,1,.47,1.21C65.94,21.23,65.32,21.81,64.09,21.81Zm8.61-1.45a1.24,1.24,0,0,1-1-.5,9.1,9.1,0,0,1-.68-.95c-.41-.76-.83-1.5-1.27-2.24s-.91-1.45-1.41-2.15c-.11-.21-.26-.45-.44-.73a1.47,1.47,0,0,1-.26-.76,1.41,1.41,0,0,1,.46-1.17,1.86,1.86,0,0,1,1.21-.37,1.74,1.74,0,0,1,1.3.59,11,11,0,0,1,.9,1.12c.17.26.43.63.77,1.1s.68,1,1,1.52a13.16,13.16,0,0,1,.92,1.56,2.87,2.87,0,0,1,.38,1.23A1.62,1.62,0,0,1,74.11,20,2.19,2.19,0,0,1,72.7,20.36Z"/><path class="cls-2" d="M101.49,44.23a1.85,1.85,0,0,1-2.07-2.11,1.49,1.49,0,0,1,.79-1.43,5.92,5.92,0,0,1,1.63-.59c1.17-.3,2.32-.6,3.45-.91A25.22,25.22,0,0,0,108.65,38a32,32,0,0,0,8.28-4.92A31.5,31.5,0,0,0,123.35,26a28.81,28.81,0,0,0,3.85-8.79,3.23,3.23,0,0,0,.1-.46,3.88,3.88,0,0,0,.07-.42,1,1,0,0,0-.48-1,2.77,2.77,0,0,0-1.1-.22H112.43c-.38.62-.91,1.43-1.58,2.42s-1.44,2.05-2.29,3.17a37.19,37.19,0,0,1-2.68,3.14,17.84,17.84,0,0,1-2.77,2.41,4.41,4.41,0,0,1-2.5.95,1.75,1.75,0,0,1-2-2A1.64,1.64,0,0,1,99.18,24c.37-.35.7-.64,1-.88a36.52,36.52,0,0,0,4.85-4.5,29.55,29.55,0,0,0,3.45-4.79,52.59,52.59,0,0,0,2.91-5.91,7.42,7.42,0,0,1,.87-1.56,1.83,1.83,0,0,1,1.59-.73,2.13,2.13,0,0,1,1.4.44,1.69,1.69,0,0,1,.53,1.36,4,4,0,0,1-.26,1.19c-.18.5-.37,1-.58,1.49s-.36.88-.48,1.15h13.93a3.45,3.45,0,0,1,2.53,1,3.35,3.35,0,0,1,1,2.5,12.29,12.29,0,0,1-.55,3.56A28,28,0,0,1,130.05,22c-.53,1.17-1.07,2.25-1.62,3.25a40.94,40.94,0,0,1-7.83,10.15A32.86,32.86,0,0,1,109.66,42l-2.5.9c-1,.36-2,.68-3.08.94A11,11,0,0,1,101.49,44.23Z"/><path class="cls-2" d="M162.83,45a1.74,1.74,0,0,1-1.66-.77,3.65,3.65,0,0,1-.44-1.87V22.65c-.62.41-1.51,1-2.66,1.69s-2.44,1.47-3.85,2.26-2.82,1.55-4.24,2.27a42.09,42.09,0,0,1-3.89,1.75,8.15,8.15,0,0,1-2.77.69,1.78,1.78,0,0,1-1.51-.6,2.43,2.43,0,0,1-.46-1.56,1.74,1.74,0,0,1,.52-1.27,5.79,5.79,0,0,1,1-.55c.59-.28,1.26-.58,2-.9s1.45-.61,2.08-.86,1-.42,1.21-.5a65.27,65.27,0,0,0,12-6.86,60,60,0,0,0,10.2-9.27c.32-.38.75-.83,1.27-1.34a2.36,2.36,0,0,1,1.63-.77,2.44,2.44,0,0,1,1.58.46,1.79,1.79,0,0,1,.57,1.47,3.6,3.6,0,0,1-.88,2,21.79,21.79,0,0,1-2.24,2.53c-.9.89-1.85,1.76-2.83,2.61s-1.88,1.61-2.68,2.27-1.4,1.13-1.78,1.42V42.38a3.65,3.65,0,0,1-.46,1.87A1.83,1.83,0,0,1,162.83,45Z"/><path class="cls-2" d="M188.54,43a1.92,1.92,0,0,1-2.19-2.15,1.78,1.78,0,0,1,.81-1.48,11.24,11.24,0,0,1,1.51-.94,57.71,57.71,0,0,0,10.82-7,42.9,42.9,0,0,0,8.43-9.74c.18-.26.46-.7.86-1.32s.81-1.29,1.25-2,.81-1.43,1.12-2.06a3.67,3.67,0,0,0,.46-1.39,1,1,0,0,0-.41-.88,1.87,1.87,0,0,0-1-.26h-18.9a3.29,3.29,0,0,1-1.73-.44,1.68,1.68,0,0,1-.73-1.58,1.64,1.64,0,0,1,.73-1.56,3.38,3.38,0,0,1,1.73-.42h21.4a3.51,3.51,0,0,1,2.53,1,3.4,3.4,0,0,1,1.08,2.51,7.33,7.33,0,0,1-.55,2.42,27.9,27.9,0,0,1-1.45,3.12c-.6,1.11-1.24,2.22-1.91,3.31s-1.32,2.11-1.94,3-1.13,1.63-1.54,2.16l1.89,1.45c.85.64,1.81,1.39,2.88,2.24s2.16,1.74,3.28,2.68,2.13,1.85,3.07,2.75a24.35,24.35,0,0,1,2.29,2.44,3.25,3.25,0,0,1,.88,1.75c0,1.5-.8,2.24-2.38,2.24a2.31,2.31,0,0,1-1.58-.68c-.5-.45-.92-.87-1.27-1.25q-2.64-3-5.48-5.65a53.16,53.16,0,0,0-6.13-4.94,42,42,0,0,1-4.83,4.7,55.29,55.29,0,0,1-5.45,4l-1.49,1c-.68.44-1.41.89-2.2,1.36s-1.54.86-2.24,1.19A4.35,4.35,0,0,1,188.54,43Zm30-30.76c-1,0-1.53-.54-1.53-1.63V6.7c0-1.09.51-1.63,1.53-1.63s1.54.54,1.54,1.63v4C220.05,11.74,219.54,12.28,218.51,12.28Zm5,0c-1,0-1.53-.54-1.53-1.63V6.7c0-1.09.51-1.63,1.53-1.63s1.54.54,1.54,1.63v4C225.06,11.74,224.55,12.28,223.52,12.28Z"/><path class="cls-3" d="M6.48,39.92a1.77,1.77,0,0,1-2-2,1.73,1.73,0,0,1,.57-1.43,3.27,3.27,0,0,1,1.41-.64l3.78-.92V19H6.61a2.29,2.29,0,0,1-1.43-.42,1.61,1.61,0,0,1-.55-1.38,1.55,1.55,0,0,1,.55-1.36,2.35,2.35,0,0,1,1.43-.4h3.65V6.74a2.37,2.37,0,0,1,.41-1.43,1.65,1.65,0,0,1,1.39-.55,1.65,1.65,0,0,1,1.38.55,2.31,2.31,0,0,1,.42,1.43v8.7H17a2.35,2.35,0,0,1,1.43.4A1.58,1.58,0,0,1,19,17.2a1.63,1.63,0,0,1-.55,1.38A2.29,2.29,0,0,1,17,19H13.86V34l1-.31q.72-.23,1.47-.42a5.33,5.33,0,0,1,1-.2A1.54,1.54,0,0,1,19,34.82,1.59,1.59,0,0,1,18.47,36a4.46,4.46,0,0,1-1.23.84,11.38,11.38,0,0,1-1.27.5L14,38c-.86.28-1.79.56-2.79.86s-1.92.54-2.79.74A9,9,0,0,1,6.48,39.92Zm26.36,4.7-4,0a28.78,28.78,0,0,1-4-.33A4.71,4.71,0,0,1,22.14,43a3.93,3.93,0,0,1-.94-2.83v-16c-.18.06-.54.2-1.1.44s-1.11.45-1.65.64a4.2,4.2,0,0,1-1.07.28,1.25,1.25,0,0,1-1.17-.53,2.33,2.33,0,0,1-.33-1.27,1.7,1.7,0,0,1,.44-1.21,2.93,2.93,0,0,1,1.1-.72l3.78-1.5v-10a2.51,2.51,0,0,1,.39-1.45A1.56,1.56,0,0,1,23,8.24a1.64,1.64,0,0,1,1.38.54,2.39,2.39,0,0,1,.42,1.48v8.57l5.54-2.2V6.52a2.53,2.53,0,0,1,.39-1.45,1.55,1.55,0,0,1,1.36-.57,1.63,1.63,0,0,1,1.39.55,2.37,2.37,0,0,1,.42,1.47v8.7c.52-.2,1.24-.5,2.15-.9s1.83-.76,2.77-1.1a7.26,7.26,0,0,1,2.28-.5,2.4,2.4,0,0,1,2.35,1.12A5.56,5.56,0,0,1,44,16.5V26.87A7.21,7.21,0,0,1,42.36,32a6.6,6.6,0,0,1-5,1.75,1.61,1.61,0,0,1-1.43-.59,2.57,2.57,0,0,1-.42-1.52A1.44,1.44,0,0,1,36,30.38a3.22,3.22,0,0,1,1.19-.5c.47-.1,1-.22,1.43-.35a2.48,2.48,0,0,0,1.21-.77,2.87,2.87,0,0,0,.48-1.85V18.47a1.8,1.8,0,0,0-.24-1,.92.92,0,0,0-.86-.4,4.05,4.05,0,0,0-1,.24c-.48.17-1,.37-1.6.62L35,18.65c-.49.21-.86.35-1.09.44V35.53A2.63,2.63,0,0,1,33.48,37a1.53,1.53,0,0,1-1.38.57A1.65,1.65,0,0,1,30.71,37a2.37,2.37,0,0,1-.41-1.47v-15l-5.54,2.19V39a1.59,1.59,0,0,0,.28,1,2.28,2.28,0,0,0,.86.64,5.51,5.51,0,0,0,1.54.26C28.2,40.9,29,41,30,41s1.78.05,2.57.05h3.05c.6,0,1.25,0,1.93-.07a15.38,15.38,0,0,0,1.92-.22,3.54,3.54,0,0,0,1.27-.41,2.25,2.25,0,0,0,1-1.43A15.86,15.86,0,0,0,42,37.08a3.72,3.72,0,0,1,.43-1.51A1.55,1.55,0,0,1,43.88,35c1.34,0,2,.72,2,2.16a21.46,21.46,0,0,1-.16,2.41A7.64,7.64,0,0,1,45,42a3.45,3.45,0,0,1-1.74,1.67,8.52,8.52,0,0,1-2.17.54c-.92.14-1.91.23-3,.29s-2.06.09-3,.11Z"/><path class="cls-3" d="M56.05,44.18a4.68,4.68,0,0,1-3.28-1,4.23,4.23,0,0,1-1.12-3.23V10.48c0-2.84,1.44-4.27,4.31-4.27H85c2.87,0,4.3,1.43,4.3,4.27V39.92a4.65,4.65,0,0,1-1,3.12,3.84,3.84,0,0,1-3.06,1.14Zm1.67-3.56H83.25a2.06,2.06,0,0,0,2.33-2.33V12.1a2.06,2.06,0,0,0-2.33-2.33H57.72a2.06,2.06,0,0,0-2.33,2.33V38.29A2.05,2.05,0,0,0,57.72,40.62Zm1.18-1.84q-1.8,0-1.8-1.89a1.75,1.75,0,0,1,.53-1.28,3.07,3.07,0,0,1,.88-.46c.53-.22,1.06-.44,1.6-.68a8.13,8.13,0,0,1,1-.39,24,24,0,0,0,3.67-1.89c1.16-.74,2.28-1.51,3.36-2.33-1.4-.82-2.83-1.59-4.26-2.31s-2.9-1.4-4.39-2a14.85,14.85,0,0,1-1.35-.73,1.4,1.4,0,0,1-.76-1.25,1.54,1.54,0,0,1,1.75-1.72,5.68,5.68,0,0,1,1.78.47c.81.3,1.71.7,2.71,1.18s2,1,3,1.5l2.66,1.4c.79.43,1.36.74,1.72.95a55.45,55.45,0,0,0,4.83-5.93,40.11,40.11,0,0,0,3.73-6.64,10.78,10.78,0,0,1,.86-1.49,1.62,1.62,0,0,1,1.43-.75,3,3,0,0,1,1.49.35,1.38,1.38,0,0,1,.62,1.32,6.13,6.13,0,0,1-.77,2.52,32.81,32.81,0,0,1-2,3.41Q80,21.94,78.64,23.75C77.73,25,76.88,26,76.09,27s-1.42,1.7-1.89,2.2l5.31,3.21c.36.2.85.52,1.5.94a13.58,13.58,0,0,1,1.76,1.38,2.15,2.15,0,0,1,.79,1.5,1.84,1.84,0,0,1-2.11,2.06,2.19,2.19,0,0,1-1.21-.41c-.43-.28-.8-.54-1.12-.77q-1.84-1.45-3.76-2.77t-3.89-2.55a28.87,28.87,0,0,1-2.52,2c-1.1.77-2.28,1.54-3.54,2.3A35.4,35.4,0,0,1,61.76,38,7.52,7.52,0,0,1,58.9,38.78Zm5.19-17A1.4,1.4,0,0,1,63,21.29c-.3-.35-.58-.68-.81-1s-.46-.63-.86-1.19l-1.27-1.78c-.46-.63-.84-1.2-1.17-1.71a2.72,2.72,0,0,1-.48-1,1.41,1.41,0,0,1,.46-1.17,1.86,1.86,0,0,1,1.21-.37,2.07,2.07,0,0,1,1.1.59,17.57,17.57,0,0,1,1.52,1.5q.81.9,1.56,1.89a17,17,0,0,1,1.2,1.8,2.85,2.85,0,0,1,.47,1.21C65.94,21.23,65.32,21.81,64.09,21.81Zm8.61-1.45a1.24,1.24,0,0,1-1-.5,9.1,9.1,0,0,1-.68-.95c-.41-.76-.83-1.5-1.27-2.24s-.91-1.45-1.41-2.15c-.11-.21-.26-.45-.44-.73a1.47,1.47,0,0,1-.26-.76,1.41,1.41,0,0,1,.46-1.17,1.86,1.86,0,0,1,1.21-.37,1.74,1.74,0,0,1,1.3.59,11,11,0,0,1,.9,1.12c.17.26.43.63.77,1.1s.68,1,1,1.52a13.16,13.16,0,0,1,.92,1.56,2.87,2.87,0,0,1,.38,1.23A1.62,1.62,0,0,1,74.11,20,2.19,2.19,0,0,1,72.7,20.36Z"/><path class="cls-3" d="M101.49,44.23a1.85,1.85,0,0,1-2.07-2.11,1.49,1.49,0,0,1,.79-1.43,5.92,5.92,0,0,1,1.63-.59c1.17-.3,2.32-.6,3.45-.91A25.22,25.22,0,0,0,108.65,38a32,32,0,0,0,8.28-4.92A31.5,31.5,0,0,0,123.35,26a28.81,28.81,0,0,0,3.85-8.79,3.23,3.23,0,0,0,.1-.46,3.88,3.88,0,0,0,.07-.42,1,1,0,0,0-.48-1,2.77,2.77,0,0,0-1.1-.22H112.43c-.38.62-.91,1.43-1.58,2.42s-1.44,2.05-2.29,3.17a37.19,37.19,0,0,1-2.68,3.14,17.84,17.84,0,0,1-2.77,2.41,4.41,4.41,0,0,1-2.5.95,1.75,1.75,0,0,1-2-2A1.64,1.64,0,0,1,99.18,24c.37-.35.7-.64,1-.88a36.52,36.52,0,0,0,4.85-4.5,29.55,29.55,0,0,0,3.45-4.79,52.59,52.59,0,0,0,2.91-5.91,7.42,7.42,0,0,1,.87-1.56,1.83,1.83,0,0,1,1.59-.73,2.13,2.13,0,0,1,1.4.44,1.69,1.69,0,0,1,.53,1.36,4,4,0,0,1-.26,1.19c-.18.5-.37,1-.58,1.49s-.36.88-.48,1.15h13.93a3.45,3.45,0,0,1,2.53,1,3.35,3.35,0,0,1,1,2.5,12.29,12.29,0,0,1-.55,3.56A28,28,0,0,1,130.05,22c-.53,1.17-1.07,2.25-1.62,3.25a40.94,40.94,0,0,1-7.83,10.15A32.86,32.86,0,0,1,109.66,42l-2.5.9c-1,.36-2,.68-3.08.94A11,11,0,0,1,101.49,44.23Z"/><path class="cls-3" d="M162.83,45a1.74,1.74,0,0,1-1.66-.77,3.65,3.65,0,0,1-.44-1.87V22.65c-.62.41-1.51,1-2.66,1.69s-2.44,1.47-3.85,2.26-2.82,1.55-4.24,2.27a42.09,42.09,0,0,1-3.89,1.75,8.15,8.15,0,0,1-2.77.69,1.78,1.78,0,0,1-1.51-.6,2.43,2.43,0,0,1-.46-1.56,1.74,1.74,0,0,1,.52-1.27,5.79,5.79,0,0,1,1-.55c.59-.28,1.26-.58,2-.9s1.45-.61,2.08-.86,1-.42,1.21-.5a65.27,65.27,0,0,0,12-6.86,60,60,0,0,0,10.2-9.27c.32-.38.75-.83,1.27-1.34a2.36,2.36,0,0,1,1.63-.77,2.44,2.44,0,0,1,1.58.46,1.79,1.79,0,0,1,.57,1.47,3.6,3.6,0,0,1-.88,2,21.79,21.79,0,0,1-2.24,2.53c-.9.89-1.85,1.76-2.83,2.61s-1.88,1.61-2.68,2.27-1.4,1.13-1.78,1.42V42.38a3.65,3.65,0,0,1-.46,1.87A1.83,1.83,0,0,1,162.83,45Z"/><path class="cls-3" d="M188.54,43a1.92,1.92,0,0,1-2.19-2.15,1.78,1.78,0,0,1,.81-1.48,11.24,11.24,0,0,1,1.51-.94,57.71,57.71,0,0,0,10.82-7,42.9,42.9,0,0,0,8.43-9.74c.18-.26.46-.7.86-1.32s.81-1.29,1.25-2,.81-1.43,1.12-2.06a3.67,3.67,0,0,0,.46-1.39,1,1,0,0,0-.41-.88,1.87,1.87,0,0,0-1-.26h-18.9a3.29,3.29,0,0,1-1.73-.44,1.68,1.68,0,0,1-.73-1.58,1.64,1.64,0,0,1,.73-1.56,3.38,3.38,0,0,1,1.73-.42h21.4a3.51,3.51,0,0,1,2.53,1,3.4,3.4,0,0,1,1.08,2.51,7.33,7.33,0,0,1-.55,2.42,27.9,27.9,0,0,1-1.45,3.12c-.6,1.11-1.24,2.22-1.91,3.31s-1.32,2.11-1.94,3-1.13,1.63-1.54,2.16l1.89,1.45c.85.64,1.81,1.39,2.88,2.24s2.16,1.74,3.28,2.68,2.13,1.85,3.07,2.75a24.35,24.35,0,0,1,2.29,2.44,3.25,3.25,0,0,1,.88,1.75c0,1.5-.8,2.24-2.38,2.24a2.31,2.31,0,0,1-1.58-.68c-.5-.45-.92-.87-1.27-1.25q-2.64-3-5.48-5.65a53.16,53.16,0,0,0-6.13-4.94,42,42,0,0,1-4.83,4.7,55.29,55.29,0,0,1-5.45,4l-1.49,1c-.68.44-1.41.89-2.2,1.36s-1.54.86-2.24,1.19A4.35,4.35,0,0,1,188.54,43Zm30-30.76c-1,0-1.53-.54-1.53-1.63V6.7c0-1.09.51-1.63,1.53-1.63s1.54.54,1.54,1.63v4C220.05,11.74,219.54,12.28,218.51,12.28Zm5,0c-1,0-1.53-.54-1.53-1.63V6.7c0-1.09.51-1.63,1.53-1.63s1.54.54,1.54,1.63v4C225.06,11.74,224.55,12.28,223.52,12.28Z"/></g></g></svg>