<svg id="1" xmlns="http://www.w3.org/2000/svg" viewBox="0 0 180.52 169.92">
  <path d="M8,155.24a37.51,37.51,0,0,0,2.89-5.78c.43-1.65,1.38-3.73,0-4.81s-1.78-.76-3.85-2.89-2.18-1.53-2.89-2.89A3.23,3.23,0,0,0,1.22,137c-1.15,0-1-3.85-1-3.85a5,5,0,0,0,1.93-2.89c.32-1.78,0-11.55,0-11.55a10.45,10.45,0,0,1,2.88-1,27.18,27.18,0,0,1,3.86,0l1.92-2.88s2-2.94,2.89-1.93a2.6,2.6,0,0,0,1.93,1l2.88-5.77s2.75-1.2,2.89-1.93a17.92,17.92,0,0,0,0-2.89s-2.89-2.59-2.89-3.85-1.92-5.77-1.92-5.77,1.32-2.32,1.92-1.93,3.85,0,3.85,0l3.86,3.85a7.64,7.64,0,0,0,2.88,2.89c1.83.91,6.74-1,6.74-1s2.92-.25,3.85,1,4.46,1.2,4.82,0,4.12-6.22,4.81-6.74,1-5.78,1-5.78-2.07-3.67-1.92-4.81-1.93-5.78-1.93-5.78a39.57,39.57,0,0,1,2.89-3.85,62.9,62.9,0,0,1,5.78-2.89s2.27-5.05,1.92-5.77-1.89-10.88-1-11.55A18.42,18.42,0,0,0,59,47.41c.45-.76,1-7.7,1-7.7V31.05s-3.37-8.43-4.81-11.55-1.8-4.19-1.93-5.78,2.89-5.78,2.89-5.78l1-4.81,1.93,1h3.85L64.75.24a43.48,43.48,0,0,0,2.89,4.81c.88,1,4.32,3.47,5.78,4.82s6.78,10.76,8.66,13.48,3.81,6.33,4.82,7.7,9,10.83,10.59,11.55,7.7,6.74,7.7,6.74,7.25,2.51,7.7,3.85,3.92,2,3.85,2.89a8.7,8.7,0,0,0,1,2.89l4.82,1s1.21.86,1.92,0A12.14,12.14,0,0,1,127.33,58l2.89,1.93-1,2.89s2.61,3.05,2.88,1.92,1.93-4.81,1.93-4.81,2.58,4.13,2.89,4.81,5.59,3.28,6.74,2.89,5.77-1,5.77-1l6.74-6.74s4.95-2.2,4.82-2.89,5.77-5.77,5.77-5.77,1.47.89,1,1.92-3.86,7.7-3.86,7.7L162,66.67l-3.85,5.77,1,2.89L162,79.18l1.92,1.93L166.8,83,163,84l1,3.85,1,2.89,1.92,2.89,1.93,1,5.77-4.82h4.82l1,1.93-5.78,1.93-1.92,4.81s-4.22.71-6.74,1a27.59,27.59,0,0,0-4.81,1l-1.93,2.89s-4.86,2.41-5.78,2.89-2.88-1.92-2.88-1.92-2.8-.38-1.93,1.92,1.24,1.55,0,1.93-7.4,1.44-9.63,0a8,8,0,0,1-2.88-2.89s-5.68,1.19-6.74,1.92-6.87,5.48-8.67,6.74-13,14.4-13.48,15.41-1,7.7-1,7.7v6.74l-2.89,1.92v2.89s-8.72-7.95-8.69-8.57-9.51-2.43-12.73-5.14-6.85-4.43-8.42-5.54-6.74-2.89-6.74-2.89l-3.85-3.85s-6.86-1.9-7.7-1.93-5.07,2.17-6.74,2.89-6,2.44-6.74,3.85-3.85,3.85-3.85,3.85l-1,1.93A17.36,17.36,0,0,0,34,129.25a20.44,20.44,0,0,1-2.89-3.86c-.7-.9-1.93-2.88-1.93-2.88s-4.18-.77-4.81,0-2.89-1-2.89-1l-4.81,5.78s-1.73,4.08-1,5.78,2,2.37,2.88,3.85,3.16,2.48,3.85,2.89,3.08,1.22,3.86,1,4.81,1.92,4.81,1.92A44.47,44.47,0,0,1,34,146.58a11.92,11.92,0,0,0,2.89,2.88l3.85,1.93s1.84,4.42,0,4.81-4.56,2.85-5.78,1.93-5.78-3.85-5.78-3.85l-1.92-1.93-2.89,2.89s-4.16,3.93-4.81,3.85,1.36,3.95,1,4.81-6.74,3.85-6.74,3.85l-1.93,1.93L8,167.75s-2-2.89-1.92-3.85-.71-4.43,0-4.81S8,155.24,8,155.24Z" />
</svg>