<svg xmlns="http://www.w3.org/2000/svg" viewBox="0 0 39.13 40.69"><defs><style>.cls-1{fill:#deffc6;stroke:#040000;stroke-linecap:round;stroke-linejoin:round;stroke-width:0.48px;fill-rule:evenodd;}</style></defs><g id="レイヤー_2" data-name="レイヤー 2"><g id="レイヤー_1-2" data-name="レイヤー 1"><path class="cls-1" d="M17.05,7.5a18.16,18.16,0,0,0,1.61-3c.48-1.28.42-1.44,2.39-2.2,1.29-.49,4.3-2.1,4.3-2.1L26,2.67l.64,1.44L30.1,6.75a23.31,23.31,0,0,1,0,4.82c-.32,1.28-.83,2.26-.66,3.06a5.46,5.46,0,0,0,1.14,1.88l1.51,2.17A22.61,22.61,0,0,1,31.51,23c-.26.67-1.06,2.94-.09,4.05a13.12,13.12,0,0,1,2,2.51c.14.56,1.45.35,1.45.35l4,2.08s-4.29.64-4.94.81-1.92.64-2.89,0a13.86,13.86,0,0,0-3.85-1.93,14.44,14.44,0,0,1-3.84-1A21.4,21.4,0,0,1,22,32.62c-.48.65-1.16,3.85-2.47,4a8.52,8.52,0,0,0-2.89,1,22.79,22.79,0,0,0-3.86,1.93,10,10,0,0,1-2.88,1S7.8,39.17,8,38.52s-.3-3.08-.13-3.4S7,33.56,7,33.39A44.94,44.94,0,0,1,8,28.9c.32-1-.32-2.41,0-2.89S6,24.08,6,24.08L4.86,26a5.17,5.17,0,0,1-1.72-1A11.61,11.61,0,0,1,.26,22.16a36.34,36.34,0,0,1,1-4.82s3.69-2.4,3.85-2.88,4.17-2.09,3.85-1.93,1.28.22,1.6-.1a6.67,6.67,0,0,1,2-.58l1.25-1.71,1.62-1.28Z"/></g></g></svg>