<svg id="11" xmlns="http://www.w3.org/2000/svg" viewBox="0 0 35.84 20.15">
  <path d="M.37,10.85A30.18,30.18,0,0,0,4.72,8.92c1-.48,3.54-2.09,3.85-1.92s1.13.64,1.93-1l1.92-3.85c.49-1,.32-2.09,1-1.92s4.78.9,5.26,1.38a9.37,9.37,0,0,0,3.1,1.78,14.75,14.75,0,0,0,4.34-.48c.35,0,1.93-.68,2.25-.52l1.41.72V7s-.21.7,1.23.7c1.92,0,2.84,1.6,2.46,1.94s-.48,1,.16,2.17,2,3.49,1.7,4,.54,2.45.23,2.77-3.82-.46-4.56-.15c-2.26,1-4-.71-5.64.57a3.88,3.88,0,0,1-4.24.54C20,19,17.55,17.1,16.27,16.62s-4.45-1.92-4.81-1.92c-1.87,0-3.2,1.61-2.89,1l-1.29.8c.58-.05-3,.28-4.48-.8A13.21,13.21,0,0,1,.87,13.74S-.11,10.85.37,10.85Z" />
</svg>