<svg id="12" xmlns="http://www.w3.org/2000/svg" viewBox="0 0 33.24 42.62">
  <path d="M26.26,13.5a66.41,66.41,0,0,1-4.81,4.82,7.43,7.43,0,0,0-1.93,2.88,4.41,4.41,0,0,0,0,2.89c.49.8.32,6.9,0,6.74s-.16,1-1.92,1.93a32.6,32.6,0,0,1-6.74,1.92A11,11,0,0,0,8,37.57C6.84,39.18,6,40.46,6,40.46L4.12,42.38,1.23,40.46S0,38.76.27,38.53c.4-.4,1.28-.48,1.93-1s1.44-2.57,1-4.81-.65-1.77,0-2.89a1.74,1.74,0,0,0,0-1.93s-2.24-.8-1.93-1,1.13-1.28,1.93-1.93,1.44-2.57,1.92-2.88A22.66,22.66,0,0,0,8,20.24c1.13-1,3.21-1.61,2.89-2.89S8,14.47,8,14.47H6l-1,1.92-1-4.81c-.16-.8.41-2.36.09-2.2s-.53-4.13-.53-4.13L3.86,6A4.26,4.26,0,0,0,2.52,3.45L1.64,1.1l1-.86L6,4.84s4.47,1.43,5.64,1.61c.57.09,1.49.91,3.1.59s2.65.69,3.78-.28,3.85-2.89,3.85-2.89l1.93,1a42.15,42.15,0,0,0,4.81,3.85c.16-.16,3.85,2.89,3.85,2.89v1H32c-1,0-3.69,1.44-3.85,1S26.26,13.5,26.26,13.5Z" />
</svg>