<svg xmlns="http://www.w3.org/2000/svg" viewBox="0 0 28.82 14.77"><defs><style>.cls-1{fill:#deffc6;stroke:#040000;stroke-linecap:round;stroke-linejoin:round;stroke-width:0.48px;fill-rule:evenodd;}</style></defs><g id="レイヤー_2" data-name="レイヤー 2"><g id="レイヤー_1-2" data-name="レイヤー 1"><path class="cls-1" d="M.56,1.62S3.05.05,4.09.26A26.48,26.48,0,0,1,8.9,2.19c.64.4,2.88,1.73,3.21,1.94,1,.63,1.88,1,2.45,1.34.73.37,1.51-.2,2-.4a5,5,0,0,0,1.93-1c.36-.46,3.61.82,4.81,0a3.25,3.25,0,0,1,2.89,0h1.93a13.25,13.25,0,0,0,.37,3.79c.45,1-2.3,2-2.3,2a5.53,5.53,0,0,1-1,1c-.37.21-.15,4-1,3.65s-.66-1.47-2.2-2.22a29.25,29.25,0,0,1-2.61-1.43s-3.93.32-3.85,0,.09,1-.36,1.43,0,1.14-1.57.5-1.4-.22-3.84-1S6.2,9.79,6,8.92s-.67.18-1.93-1S2.7,7.48,2.22,6.43a11.38,11.38,0,0,0-2-2.32Z"/></g></g></svg>