<svg xmlns="http://www.w3.org/2000/svg" viewBox="0 0 25.28 20.11"><defs><style>.cls-1{fill:#deffc6;stroke:#040000;stroke-linecap:round;stroke-linejoin:round;stroke-width:0.48px;fill-rule:evenodd;}</style></defs><g id="レイヤー_2" data-name="レイヤー 2"><g id="レイヤー_1-2" data-name="レイヤー 1"><path class="cls-1" d="M5.79,5.42l1-2.89L6.53.24s.58,2,4.43,3.41A25.51,25.51,0,0,0,13.54,4l2,.93.85-2.36a19,19,0,0,1,3.26.21C20,3,21,2.3,22.15,3.49L24.09,5,25,6.38s-2.49.44-2.89,1-1.7,2.25-1,2.89.65,3.19,1,3.85A9.73,9.73,0,0,0,24.08,16a1,1,0,0,0-1,1c-.12,1-.21,2.69-1,2.89s-1.93-1.93-1.93-1.93a27,27,0,0,1-1-2.89c-.16-.82-1.92-1.92-1.92-1.92a9.37,9.37,0,0,1-1.93,0,6.38,6.38,0,0,0-3.85,1c-.93.85-3.41,1.24-3.85,1.93a14.65,14.65,0,0,0-1,2.88l-1.93,1s-1.88-.33-1.92-1.93S2,14.49,2.76,13.3a2,2,0,0,0,.14-2.11S2.38,9.77,1.71,9.6.24,8.3.24,8.3L2.9,6.38Z"/></g></g></svg>