<svg id="15" xmlns="http://www.w3.org/2000/svg" viewBox="0 0 29.17 28.51">
  <path d="M5.92,23.15S6,26,7,27.26a2.87,2.87,0,0,0,2.89,1c.53,0,1-5.19,1-5.77s2.17-2.54,1.93-2.89.58,1.72,1,1.92a26.51,26.51,0,0,0,3.05.67s.55-1,.8-1.63,2.89,0,2.89,0L25,20.35s-2.84-1.4-2.31-1.92a9.33,9.33,0,0,1,2.91-1.85c3.74-1.07,2.45-1.27,3.22-2.66a23,23,0,0,0,.14-3.39s-2.5-.54-3.29-1.64a24.7,24.7,0,0,0-2.27-2.81s.57-2.65.12-2.37c-1.31.81-4.93-.52-4.93-.52L16.54,1,13.09,2.21,11.8,1.27A1.62,1.62,0,0,0,9.88.3,6.61,6.61,0,0,1,7,.3L3.14,2.23a1,1,0,0,0-1,1A10.1,10.1,0,0,1,1.21,7C1,7.4.15,8.44.25,9s0,1.53.38,1.9,1.64,1.84,1.64,1.84a5.53,5.53,0,0,0-.1,4c.82,1.84,1.17,5.07,1.47,5.55A1.9,1.9,0,0,0,5.92,23.15Z" />
</svg>