<svg xmlns="http://www.w3.org/2000/svg" viewBox="0 0 40.72 68.03"><defs><style>.cls-1{fill:#deffc6;stroke:#040000;stroke-linecap:round;stroke-linejoin:round;stroke-width:0.48px;fill-rule:evenodd;}</style></defs><g id="レイヤー_2" data-name="レイヤー 2"><g id="レイヤー_1-2" data-name="レイヤー 1"><path class="cls-1" d="M11.92,10.9s2-2.45,1.92-2.89,2.89-3.85,2.89-3.85,3.35,2.23,3.57,3.13c.36,1.5,1.77-.45,3.12.19a11,11,0,0,0,2.2.52l3-3.19a4.79,4.79,0,0,0,2.13-2C31.54,1,34.63.5,34.63.5S36-.28,35.88.86a9.54,9.54,0,0,0,.68,3.29S37,6.35,37.92,7s.65,2.26,1,2.89.75,1.2,0,1-3,1.33-4.12,2.24c-1.82,1.49-2.82,1.83-3.58,2.57s-.28,1.54-.75,3.22-.13,1.25.29,2.33,2.73,2.44,2.73,2.44,1.83,1.07,1.58.67.36-1.61,1-1.92c.81-.42,1.93,1.92,1.93,1.92v3.85s-.55,1.9-1,2.89.69.31.83,2.38c.17,2.43.16,3.65.16,3.65l2.1,1.68L40.33,40a1.27,1.27,0,0,1-.74,1.82c-1.67.56-2.38,1.15-3.6-.15s-.86-1.25-1.92-1-1-.19-1.93,0-1.94.49-1.94.49,0-.37-2.18,1.09c-2,1.34-1.66,1.31-1.66,1.31a7.91,7.91,0,0,1-1,3.85c-1.2,1.77-.71.85-.62,2.87a15.66,15.66,0,0,1-.58,5.37,35.29,35.29,0,0,0-1.37,4.35c-.36,1.57-.39,1.22-3.09,2.25-1.42.53-1.2,1.85-2.68,3-1.31,1-2.8,1.65-3.63,2.28s-4-.85-4.4-.87-1.17.72-1.93,1-1.89-2.35-1.89-2.35.3-2.8.93-3.43C9,59,9,60.14,7.62,57.47c-.48-.92-3.57-1.44-2.85-2.63s1.49-2.18.41-3.51c-.46-.56-1-.33-1.64-2.09s-.69-1.73-2.22-2.72a2.3,2.3,0,0,1-1-2.6,3.34,3.34,0,0,1,.23-1.33c.32-.77.8-.28,2.23-1a23.85,23.85,0,0,0,3.07-2.33s1.2-1.8,1-2.57c-.12-.46-1.27-1.22-1.27-1.22s-.49.23-.6-1.26c-.06-.91.59-1.43,1.15-3.09s.49-2.53,1-2.89,1.27-1.19,1-1.92-1-1.93-1-1.93l-.61-1.24,1.58-3L11,17.63a19.13,19.13,0,0,0,.69-2.78C11.72,14.14,11.92,10.9,11.92,10.9Z"/></g></g></svg>