<svg id="17" xmlns="http://www.w3.org/2000/svg" viewBox="0 0 67.88 67.91">
  <path d="M54.16,10.83c.17.32.48-4.49,1-4.81s.44-2.37.44-2.37L58,.24A28.2,28.2,0,0,1,60.9,2.17a8.31,8.31,0,0,1,2.71,3.92c.31,1.07.8,1,1.72.89a9.33,9.33,0,0,1,1.35,0l1,2.89s-1.28,3.2-2.89,3.85a16,16,0,0,0-2.88,1.92c0-.16-1.24,3.2-1.39,3.62a5,5,0,0,0-.32,3.35s.26,3.17.74,3.62,2.92,1.85,2.44,1.68-3.56,2.49-3.4,3.14S57.7,34.74,58,35.86s1,2.73,0,2.89-5.77,1.93-5.77,1.93-4,.64-3.85,1,.32,4.33,0,4.81-2,1.43-1.93,1.93a5.89,5.89,0,0,0,1,2.89c.64,1,0,3.53,0,3.85s-.65.64-1,1A48.92,48.92,0,0,1,41.65,58l-1.92,3.85s0,.49-1.93,1.93-2.73,2.09-2.89,2.89-4.17,1.13-3.85,1-.41-1.35-.3-2.63a2.45,2.45,0,0,0-.32-.83,6.67,6.67,0,0,1-1.31-2.32c-.48-1.44-1-1.6-1-2.88s-.16-2.41-1-1.93S23.67,58,23.35,59s-2.15,2.19-2.88,2.88c-1.42,1.35-2.29,3.09-2.89,2.89s-2.89-1.28-2.89-1-1.93,1.33-1.93,1a11,11,0,0,0-1-1.92l-1.93-1-1-1L6.7,63.59l-2.61,4a7.63,7.63,0,0,1-1-1.92,10.28,10.28,0,0,1-.5-4.39L1.2,59.93l-1-1S3.29,57.36,4.09,57s5.62-1.28,5.78-1.92,2.89-2.89,2.89-2.89l2.89-1c.48-.17,4.17.79,4.82,0a30,30,0,0,1,3.85-4.82c1.92-1.76,4.65-1.92,4.81-2.89a6.13,6.13,0,0,1,1.93-3.85c1.61-1.6,2.09-3.37,2.89-3.85s1.28-2.57,1-2.89,1-5.77,1-5.77a37.69,37.69,0,0,1,5.78-3.85c1.93-.8,4.33-.32,5.78-1.93s4-2.57,4.81-3.85c.58-.94,2-2.55,1.92-2.89C53.85,13.4,54,10.51,54.16,10.83Z" />
  <path d="M18.54,16.61s2.89-1.93,2.89-2.89,1.76-2.09,1.92-2.89a13,13,0,0,1,1.93-2.89s.8,4,0,5.78a8.94,8.94,0,0,0-1,3.85c.16,0,1,.65,1,1s2.73-1.44,2.89-1a17.16,17.16,0,0,1,0,2.89s-1.61.16-1.93,1-.64,2.72-1.92,3.85-3.21,3.21-3.85,2.89a30.34,30.34,0,0,0-2.89-1s1.76-1.93,1.92-2.89.48-.8,1-1.93-.17-3.2,0-2.88-1.93,1.92-1.93,1.92-.48,1-1,0,1.28-2.89,1-2.89S18.54,16.61,18.54,16.61Z" />
</svg>