<svg xmlns="http://www.w3.org/2000/svg" viewBox="0 0 30.37 26.83"><defs><style>.cls-1{fill:#deffc6;stroke:#040000;stroke-linecap:round;stroke-linejoin:round;stroke-width:0.48px;fill-rule:evenodd;}</style></defs><g id="レイヤー_2" data-name="レイヤー 2"><g id="レイヤー_1-2" data-name="レイヤー 1"><path class="cls-1" d="M3.16,6.12l.12-2.64s.13-.6,1.81-2.17a4.39,4.39,0,0,1,3.85-1L8,4.2A7.05,7.05,0,0,0,8,6.12c.14,1,2.1,2.16,2.88,2.89a5.28,5.28,0,0,0,3.86,1,4.25,4.25,0,0,0,2.89-1.92c.76-1.14,1.85-1.46,1.92-2.89s-.26-2.41,1-2.89A13.35,13.35,0,0,0,23.38.35h2.89A10.57,10.57,0,0,0,28.2,2.27c.45.25.39,2.13.39,2.13a3.84,3.84,0,0,0,.57,2.69,4.25,4.25,0,0,1,1,2.88c0,3.14-1,5.84-1.35,6.11s-2.8,2.23-3.21,3.49-.52,2.09-2.19,2-3.18.06-4.17-.7a7.48,7.48,0,0,0-3.53-1.23c-1.19-.15-3.31-.7-3.56-.15s-.9.6-1,1.07a14.4,14.4,0,0,1-2.63,5.31c-.89,1.05-1.18,1.11-2.44-.45a14,14,0,0,0-1.93-1.93S1.23,26.7,1.23,26.34,1,22.59,1,22.19C.71,18.65.1,15.78.27,14.79S.91,12.1.91,12.1a11.34,11.34,0,0,0,.9-2.49l1.33-1Z"/></g></g></svg>