<svg xmlns="http://www.w3.org/2000/svg" viewBox="0 0 34.19 55.64"><defs><style>.cls-1{fill:#deffc6;stroke:#040000;stroke-linecap:round;stroke-linejoin:round;stroke-width:0.48px;fill-rule:evenodd;}</style></defs><g id="レイヤー_2" data-name="レイヤー 2"><g id="レイヤー_1-2" data-name="レイヤー 1"><path class="cls-1" d="M.24,46.54S5.67,42.31,6,41.73s2.6-3.24,2.89-3.86,2.48-5.81,2.88-5.77,1-1.92,1.93-3.85,2.2-2.26,1.93-2.89-1-4.81-1-4.81a5.39,5.39,0,0,0,0-1.93c-.19-1-2.24-3.39-1.92-3.85a17.93,17.93,0,0,0,1-3.85c.07-.68,1.16-3.16,1-2.89,0,.06-.06.08-.07.07s.32-.46,2-1c2.12-.72,2.05-.34,3.85-1a37.73,37.73,0,0,0,3.85-1.93c1.13-.47,3.56-2.48,4.82-2.89S31.53,0,32,.33s1.92,1.92,1.92,1.92a2.32,2.32,0,0,1-1,1.93c-1,.59-2.89,1.93-2.89,1.93a5.07,5.07,0,0,1,0,1.92A4.92,4.92,0,0,1,28.17,10a4.1,4.1,0,0,1-1.93,0,1.72,1.72,0,0,1-1,1.93,4.17,4.17,0,0,0-1.93,1.93H20.46l-1,1-1,1.92,1,1s3.37.53,2.89,0,0-1.93,0-1.93l1.92,1v1.93l1,1.93-1,1H22.39a5.25,5.25,0,0,0-2.89,1.92,5,5,0,0,0-1,2.89,23.13,23.13,0,0,0,0,3.43l-.94.42c-.41.19-2.18,5-1.92,5.78s1,10.59,1,10.59a6,6,0,0,1-.17,1.56c-.17.44-1.08,3.22-.82,3.78a8.9,8.9,0,0,1,0,2.66l-1.9.66s-2.13.84-2.89-1-1-1.92-1-1.92-5.93-.49-5.78,0-1.17-.07-1.92-1A24,24,0,0,1,.24,48.46Z"/></g></g></svg>