<svg xmlns="http://www.w3.org/2000/svg" viewBox="0 0 55.36 50.98"><defs><style>.cls-1{fill:#deffc6;stroke:#040000;stroke-linecap:round;stroke-linejoin:round;stroke-width:0.48px;fill-rule:evenodd;}</style></defs><g id="レイヤー_2" data-name="レイヤー 2"><g id="レイヤー_1-2" data-name="レイヤー 1"><path class="cls-1" d="M2.17,33.94S5.42,28.17,6,29.12s5.77-1,5.77-1l1-3.85a12.64,12.64,0,0,0,1.92-2.89c.12-.73,1-3.85,1-3.85l-1.93-3.85s1.57-2.15,1.93-2.89,2.88,1.93,2.88,1.93l3.85-1.93,1,3.85s.79,3.62,1,4.82,0,6.73,0,6.73h4.81l1.93-5.77,3.85,1,3.85,2.89s2.06.37,1.93-1.93a12.2,12.2,0,0,1,1-4.81l1.92-4.81L41.64,9.87s-5,1.51-5.78,1.92-5.32.3-5.77,1-1.93-2.89-1.93-2.89l1-3.85L32,.24H34.9l2.89,1L40.68,6H42.6l4.82-2.89-1,9.63s-1.15,9.72-1,11.55,1.23,6.6,1.93,7.7,1.64,2,1.92,2.89,3.85,4.81,3.85,4.81l1.93,1.93-1.93,1.92-4.81,1-3.61.72-5.72,3.54s-2.58.06-3.19.55-4.64,1.4-4.64,1.4l1-4.37,1.69-3.77s-3,.81-2.89,0a7.16,7.16,0,0,0-1-2.89l-4.18,3.9a7,7,0,0,0-2.56-1,5.23,5.23,0,0,0-2.89,1l-2.89-2.89L12.76,42.6A17.79,17.79,0,0,0,10,41.91a30.17,30.17,0,0,1-4-1.24l-.87,3.17-2-3.17-1-3.85-1.93-1Z"/></g></g></svg>