<svg id="20" xmlns="http://www.w3.org/2000/svg" viewBox="0 0 42.13 36.31">
  <path d="M19.82,5.05a2.91,2.91,0,0,1,1-1.92c.93-.87,3.85-2.89,3.85-2.89a5.85,5.85,0,0,0,0,1.92,8.72,8.72,0,0,0,1.92,2.89c1.27,1.39,1.29.88,2.89,1s3.85,0,3.85,0a1.15,1.15,0,0,1,1.39.72,8.32,8.32,0,0,0,1.5,2.16h1.93l.41,2.72,1.94,1.68a3.07,3.07,0,0,0,1,1.46c.66.39.31,1.55.31,1.55a2.1,2.1,0,0,1-1.66,1.9,40.3,40.3,0,0,1-4.44.7s-1.61,1-2.4.58-3.62-.51-3.85,0-2.34,1.87-1.92,1.93h.08s-.81-.12-1.05,1c-.26,1.29.69,4.05.15,2.64-.2-.51-2.7-1.87-2.82-2.46s-2.14.79-2.14.79,1.15,1.54,1,1.92a6.83,6.83,0,0,1-2.88,2.89c-1.41.63-3.09.38-2.89,1s-.3.42-1,1A9.75,9.75,0,0,0,14,32a9.53,9.53,0,0,1-1.93,1.93c-.65.53-1.14,1.35-1.34,1.05s-3.06,1.72-3.47.87-.51-2.27-1.93-1.92-1.92,0-1.92,0L1.52,32S.07,30.43.42,29.77s-.69-1,.14-1.61,2.38,2.12,2.89,1.92,1.69-2.37,1.92-1.92,2.89,1,2.89,1-.72.41,1-1,2.08-.55,2.88-1-.89-2,1-1.93,2.63.87,2.88,0-.61-4.09,0-3.85,2.79.22,2.89,1,.54,3,1,1,.95-3.09,1-3.86-1.67-2.44-1.93-2.88-1.76.89-1.92-1-.3-2.09-1-2.88-1.34-1.41,0-1.93,2.24-.59,2.89-1.93A15.49,15.49,0,0,0,19.82,5.05Z" />
</svg>