<svg xmlns="http://www.w3.org/2000/svg" viewBox="0 0 51.77 38.84"><defs><style>.cls-1{fill:#deffc6;stroke:#040000;stroke-linecap:round;stroke-linejoin:round;stroke-width:0.48px;fill-rule:evenodd;}</style></defs><g id="レイヤー_2" data-name="レイヤー 2"><g id="レイヤー_1-2" data-name="レイヤー 1"><path class="cls-1" d="M8.2,22.15c0,1.38.38-5.68.8-5.68a5.14,5.14,0,0,0,3.05-1.06l2.89-1.92s1.59-2.74,2.89-2.89,1.67-.18,1.92-1a27.09,27.09,0,0,0,1-2.89,26.33,26.33,0,0,1,1-2.89s.36-4,.73-3.59,1.32,1.46,1.05,2.32c-.75,2.36.22,3,.51,4.2s.71,3.15.83,3.56A2.88,2.88,0,0,0,26,12.16c.72.26,1.3-.39,1.45.37s.08,3.24.68,3.49.2.87,1.39,1.2c1,.28,1.14.64,2-.25s.75-5.41.75-5.41L34.2,8.67a2.6,2.6,0,0,0,1,1.93c.92.56,1.24.33,2.56.58.78.15.87-1.12,1.3-1.54s2.53.06,2.89,0,2.41.25,2.88,0a4.28,4.28,0,0,1,1.61-.18s.89,2.31.32,3.07a2.47,2.47,0,0,0-.41,2c0,.58.45,3.19.45,3.19l.82,1.13s1.07.44,2,4.3A18.66,18.66,0,0,0,51.53,26s-.42,2.62-1,2.89-1.38,1.64-1.92,1.93-1,2.31-1.93,2.89-1,.79-1.93,1.92-2.36,3.42-2.88,2.89-3.14-2.6-2.89-2.89-1.47-3.35-1-3.85S39,27.42,39,27s1-2.89,1-2.89l1.93-1V20.23s1.77-.8-1-1-5.78,0-5.78,0-1.94.33-1.92,1-1.59.38-1,1.92-1,2.89-1,2.89l-3.85,1-1,1.93s.31.5-1,1.92-2.91,1.86-2.89,3.86,1.74,3.23,1,3.85-2.36-.77-2.89-1-4.67-.5-5.78-1-2.53,1.33-3.85,1-3-.67-3.85-1a12.81,12.81,0,0,1-1.93-1s-1.09-1-1-1.93a8.92,8.92,0,0,0,0-1.92s-2.57.05-1.93,1-.29,5-1,3.85A14.93,14.93,0,0,1,.24,32.86L.71,28.6A15,15,0,0,0,4.35,27c2.44-1.38,3.87-2.32,3.85-2.89S8.19,21.79,8.2,22.15Z"/></g></g></svg>