<svg id="22" xmlns="http://www.w3.org/2000/svg" viewBox="0 0 33.13 29.5">
  <path d="M3.19,12.89s-.46.15-1-1S-.13,8.94.31,9s1-1.44,1-1.92S.73,4.45,1.32,4A21,21,0,0,1,3.19,2.3a5.18,5.18,0,0,1,2.89-1C6.3,1.46,8,.36,8,.38S9.46.06,9.94.38,11.23.2,11.76,1,14.62,6,15,5.79s.48,1.17,1.68.36a7.81,7.81,0,0,1,3.85-1c.77,0,1.41,1,1.92,1a16.49,16.49,0,0,0,3.9-1.38c.44-.39,1.46,2.67,1.88,2.35a4.51,4.51,0,0,1,1.93-1,10.68,10.68,0,0,1,2.73,1.06l-.26.58-.21,2.47c-.22,2.41-.15,2.53-.35,4.76a16.21,16.21,0,0,1-1.87,1.34c-1.3,1-2.13,1.43-2.78,1.93s-3.08.79-3,1.34a5.34,5.34,0,0,1,0,1.93c-.19.9-.49,2.13,0,2.89s1.16,2.11,1.16,2.11-3-.62-4.05-.19-3.57,1.51-4.81,1.93a48.42,48.42,0,0,1-4.82,1,4.24,4.24,0,0,1,1-1.93c.63-.45,4.51-1.56,4.82-1.92s1.95.18,1.93-1,1.16-1.19,0-1.93a7.12,7.12,0,0,1-1.93-1.93s-2.1.51-1.93,1-.22,2.48-1.92,1.92-3.87.08-3.85-1-.8-3.21-1-2.89a5,5,0,0,1-1,1,2.27,2.27,0,0,0,0,1.93c.49,1,2.37.86,1.93,1.93a1.62,1.62,0,0,1-1.93,1c-.19-.2-1.84-1.21-1.93-1.93s-1.08-2.25-1-2.89,1.36-1.46,1-1.92S3.85,16,4.16,15.78s.78-.08,1-1a6.15,6.15,0,0,1,1-1.93Z" />
</svg>