<svg xmlns="http://www.w3.org/2000/svg" viewBox="0 0 40.57 48.84"><defs><style>.cls-1{fill:#deffc6;stroke:#040000;stroke-linecap:round;stroke-linejoin:round;stroke-width:0.48px;fill-rule:evenodd;}</style></defs><g id="レイヤー_2" data-name="レイヤー 2"><g id="レイヤー_1-2" data-name="レイヤー 1"><path class="cls-1" d="M39,36c1.1,1.65,1.91,2.26.89,3a6.44,6.44,0,0,0-1.57,1.73,6.68,6.68,0,0,0-1.23,3.16c-.15,1-.27.59-1.58,1.15-2,.86-1.46.6-2.91.48-.91-.08-.53-.8-2.34-.74S26.91,46.56,26.31,46a14.42,14.42,0,0,1-1.86-2.22c-1-1.27-1.8-3.6-2.89-3.86a11.85,11.85,0,0,0-5.17,1c-1,.57-2.09-.07-2.53,1s-2.58,1.45-2.24,2.77c.79,3-.65,4-.65,4a8.72,8.72,0,0,1-1.93-1,7.93,7.93,0,0,1-1.93-1.93s-1.49-1.72-1.92-1a10,10,0,0,1-1.93,1.92s-1.64-2.83-1-3.85,2.11-1.93,1.93-2.89.25-1.76,0-2.37-1-.67-1-1.48a2,2,0,0,0-.37-1.35A4.65,4.65,0,0,1,1.34,33.2c-.3-.75-1-2.89-1-2.89A2.44,2.44,0,0,1,.75,28L2.3,26.46c1.15-1.15,1-1.53,3.08-1.29s2.05.61,3.33.14a9.94,9.94,0,0,1,3.22-.78c1.83-.2,2.53-.31,2.89-1s1.4-.9,1-1.93a17.93,17.93,0,0,0-1.92-2.89s-1.93-1-1.51-1.13-.76-2.6-.42-2.72l1.15-.4s1.05-1.91.78-2.48,1-4.82,1-4.82l2.89-2.89a12.63,12.63,0,0,0,1.92,1.93c.68.55.73,2.2,1.93,1a5.66,5.66,0,0,0,1.93-2.89A11.14,11.14,0,0,1,25.41.46c.53-.5,2.89,0,2.89,0a18.18,18.18,0,0,1,3.85,1,13.74,13.74,0,0,0,2.89,1,11,11,0,0,0,3.24-.29L40.1,5.64l-.7,1.19a1.18,1.18,0,0,0-.94,1.3,3.32,3.32,0,0,1-.74,2.53c-.69,1.06-1.21,2.61-.75,3.28a12.26,12.26,0,0,0,1.69,1.72l-.73,2.13A5.16,5.16,0,0,1,36,19.72a11.78,11.78,0,0,1-3.65,1.52l-.21,1.37a2.82,2.82,0,0,0,1,2.88c.78.6,1.48.78,1.92,1.93A4.4,4.4,0,0,0,36.66,30a2,2,0,0,1,.48,2.9s-1.29,1.42-.17,1.91Z"/></g></g></svg>