<svg xmlns="http://www.w3.org/2000/svg" viewBox="0 0 31.65 57.26"><defs><style>.cls-1{fill:#deffc6;stroke:#040000;stroke-linecap:round;stroke-linejoin:round;stroke-width:0.48px;fill-rule:evenodd;}</style></defs><g id="レイヤー_2" data-name="レイヤー 2"><g id="レイヤー_1-2" data-name="レイヤー 1"><path class="cls-1" d="M22.56,14.86s-2,2.33-1.92,2.89.35,2.41,0,2.89-.48,1.7,0,1.93.71.5,1.92,1.92,1.36.68,2.89,1.93,2.2,1.91,2.89,1.92,3.18.24,2.89,1,.52.92,0,1.92-2.34,2.34-1.93,2.89a2.25,2.25,0,0,1,0,1.92c-.11-.07-1.22-.54-1.92-1s-2.72-1.66-2.89-1S22.06,36.23,20.64,37s-2.32.07-3.86,1S14,39.1,13.9,39.9s-1.08,1.69-1,1.92a17.4,17.4,0,0,1,0,2.89c0,.38.1,3-1,2.89s-2.82.24-2.89,1-1.34,1.63-1.92,2.89-.67,2.53-1,2.89,0,1.92,0,1.92A18.94,18.94,0,0,1,4.27,57c-.45,0,.36-1.22-1.22-2.8C1.23,52.38.6,52.74.42,52.41c-.41-.75,0-1.18,0-1.92s1.49-2.6,1.92-2.89c.94-.63.61.27,1.93-1,1.1-1,1.09-1.93,1.92-1.92s2-.49,1.93-1-1.68-4.36-1-4.82S9.38,37.36,9.08,37a6.5,6.5,0,0,1-1-1.93,25,25,0,0,1-1-2.89c-.1-.75-.18-2.26.33-2s3.84,0,3.52-.84.62-1.38,0-1.93a27,27,0,0,0-3.19-1.8c-.54-.31-2-.15-1.63-1.09,1.36-3.28.42-3,1-2.89-.43-.09-1.89-1.39-1.72-1.71s-.35-1.26-.21-2.14a4.13,4.13,0,0,1,2.05-2.44,20.94,20.94,0,0,0,2.48-.85c.23-.15-.59-1.45,2.94-.61,1.33.32,3.72-3.36,3.72-3.36A4.05,4.05,0,0,0,17,8.92a21.36,21.36,0,0,1,.44-2.65,18.19,18.19,0,0,1,.34-3c.09.08-.31-.78-.74-.87s2.1-2.2,2.1-2.2l.56.18,2.26,2.41s.38,0,1.7,1.08c1.54,1.25,1.57,1.48,1.57,1.48s.95,1.36,1.21,1.77a4.7,4.7,0,0,1,0,1.93s-1.52,1.15-1.92,1-.69.44-1,1A36,36,0,0,0,22.56,14.86Z"/></g></g></svg>