<svg id="25" xmlns="http://www.w3.org/2000/svg" viewBox="0 0 20.76 32.15">
  <defs>
    <style>.white{fill:#fff;}</style>
  </defs>
  <path d="M1.2,24.31c.13-.64.71-2.31,1-3.85a9.06,9.06,0,0,0,0-2.89l-1.93-1,1-1.93a10,10,0,0,1,0-1.92c.13-.44,1.9-1.57,2.89-2.89A13.43,13.43,0,0,1,7,7.34s-.23-.6,1.86-1A6,6,0,0,0,11.39,5,2.62,2.62,0,0,0,12,1.13c-.26-.4,1.69-.89,1.69-.89s2.69,2.52,2.89,2.89c.4.75.91,1.06,1,1.93s.05.5,1,1,1.15,2.87,1.15,2.87,1.06.53.78,1,0,1.92,0,1.92a2.73,2.73,0,0,1-1,1.93c-1,.81-.95.18-1.13,1.62s.62,3,1.13,3.19,1.24.36,1,1.93-1,5.77-1,5.77L17.75,28.5l-2.11,1.59s-2.62-.73-2.88,0-2.38,1.28-2.38,1.28a4,4,0,0,0-1.8.52c-.18.14-1.88-.41-2.68-.26A1.66,1.66,0,0,1,4,30.52s-1.55-.06-1.83-.43.52-.75.18-2.13a8.38,8.38,0,0,1-.18-2.69S1.08,24.94,1.2,24.31Z" />
  <path class="white" d="M6,16.61s3.15-2,2.89-2.89,0-1,0-1a4.17,4.17,0,0,1,0-1.93c.28-.52,1.73-.49,1.92-1a2.94,2.94,0,0,1,1-1s1.51-.22,1.93,1,.4,1.76,1,1.92,1.37,1.12,1,1.93.13,1.58-1,1.92a8.92,8.92,0,0,0-2.89,1.93c-.39.43-1.61,1.22-1.92,1.93a8.61,8.61,0,0,1-1.93,1.92H6v1.93l-1,2.88-1-1-.2-3.06,1.16-3.68Z" />
</svg>