<svg id="26" xmlns="http://www.w3.org/2000/svg" viewBox="0 0 35.73 39.96">
  <path d="M1.06,15.34s.43-.41,1.38-1.47,2.91-1.57,2.67-3S4.8,8.71,3.74,9.16A18.92,18.92,0,0,0,.93,10.92L.3,8.9A20.55,20.55,0,0,0,.37,5.58c-.19,0-.32-.74.73-1a12.81,12.81,0,0,0,4-1.44c1.41-.9,2-.47,2.89-1S10.89.24,10.89.24a2.28,2.28,0,0,0,1,1.93c1.07.79,3,1.23,1.92,1.92s-2.9-.78-2.88,1-.75,3.22,0,3.85,1.45,1.48,1.92,1,1.55-1.51,1.93-1.93,1.92,0,1.92,0a2.44,2.44,0,0,0-.21,1.7A4.31,4.31,0,0,0,17.86,13c.75.77.65,1.37,1.69,1.69a8.38,8.38,0,0,0,2.89,0c.55,0,1.2,2.14,1.2,2.14l3.61-1.18,0,1.69-.94,2.17,1.92,1a10.49,10.49,0,0,1,.06,2.45c-.16,2.41-1.15,3.44-1.18,4.05,0,.88.57.44,1.12,1.2.36.48-.44,1.06,0,1.92a6,6,0,0,1,0,2.89,6.94,6.94,0,0,1,2.05.85c2.09,1.24-.23.2.61.59l4.62.45a3.88,3.88,0,0,0-1.5,2c-.21,1.09,1,2.77-1,1.93s-4,1.12-4.82,1a2.81,2.81,0,0,1-1.92-1c-.56-.66-1.46-.72-1.93-2.89A7.47,7.47,0,0,0,22.44,32,2.27,2.27,0,0,0,21,31.09a8.33,8.33,0,0,1-2.39,0c-.73-.23-2.87-2.74-3.49-3.13-.47-.29.07-1.77-.36-2.65a3.73,3.73,0,0,0-1.93-1.92,10.5,10.5,0,0,0-2.89-1c-.48,0-.24-.32-1.38-.73a15.88,15.88,0,0,1-2.84-1.2,18.1,18.1,0,0,1-4.58-4Z" />
</svg>