<svg id="27" xmlns="http://www.w3.org/2000/svg" viewBox="0 0 19.04 26.78">
  <path d="M2.17,24.63a4.28,4.28,0,0,0,2.88-1C6.35,22.57,7,23,7.94,20.78s2-1.35,1.93-2.89,0-2.87,0-3.85,0-2.89,0-2.89a6.33,6.33,0,0,1-.29-3,7.62,7.62,0,0,0,.29-2.75c-.09-.56.12-1.48,0-2.56A7.57,7.57,0,0,0,9,.24l.85.32s2.14,3,2.89,2.89a26.64,26.64,0,0,1,2.88,0A12.9,12.9,0,0,1,18,6.54,18.21,18.21,0,0,1,18.33,10a8.32,8.32,0,0,0,.07,2.45,3.57,3.57,0,0,1,.33,2.08c-.1,1.4-.24,2.68-.2,3.33s.27,3.58.27,3.58l-1.23,2.2s-3.42,0-3.85,0a9.7,9.7,0,0,0-1.68.24s-1.79,1.58-2.52,1.56c-.5,0-2.19.22-2.19.22a13.68,13.68,0,0,1-2.76,0,3.8,3.8,0,0,0-2.82.84c-.39.23-1.51-.92-1.51-.92Z" />
</svg>