<svg xmlns="http://www.w3.org/2000/svg" viewBox="0 0 35.25 53.92"><defs><style>.cls-1{fill:#deffc6;stroke:#040000;stroke-linecap:round;stroke-linejoin:round;stroke-width:0.48px;fill-rule:evenodd;}</style></defs><g id="レイヤー_2" data-name="レイヤー 2"><g id="レイヤー_1-2" data-name="レイヤー 1"><path class="cls-1" d="M5.15,3.41A19.07,19.07,0,0,1,7.07.52C7.5.25,9,1.16,9,.52s8.76.27,8.66,0,1.74-.46,1.93,0a27.45,27.45,0,0,1,0,3.85c0,.64.28,2.48,1,1.93s2.89-1.93,2.89-1.93a2.44,2.44,0,0,1,1,1.93,1.85,1.85,0,0,1-1,1.92C22.33,9,21.06,9.57,21,10.1s-1.52.61-.47,2A10.56,10.56,0,0,0,23.44,15a16.89,16.89,0,0,0,2.87,1.58c1,.31,2.1,1,2.9,1.31s2.42.67,2.89,1A9.79,9.79,0,0,1,34,20.74c.37.55,0,1.09,0,1.92a11.84,11.84,0,0,0,1,2.89,18.81,18.81,0,0,0,0,2.89,12,12,0,0,1-1,4.81c-.54.86-.39,1.53-1.93,1.93s-3.6-.12-3.85,1S26,38.37,25.36,38.07s-2.38-.53-2.89-1-2-.49-2.88-1.92a13.81,13.81,0,0,0-2.89-2.89H12.85s-5.58.47-6.74,1-2.05,2.17-2.89,1a27.2,27.2,0,0,1-1.93-3.85,9.36,9.36,0,0,1-1-4.29,5.61,5.61,0,0,1,2-4.37C3.67,20.37,5,18.76,5.15,17.85c.26-1.36,0-2.4.55-3.42.41-.74,1.11-.83,1.57-1.81.54-1.14,1.15-2.07-.2-3.44S4.45,6.61,4.62,6.05,5.15,3.41,5.15,3.41Z"/><path class="cls-1" d="M12.85,48.66a29.94,29.94,0,0,1,1.92-2.89,14.39,14.39,0,0,1,2.89-2.89C18.85,42,21.51,40,21.51,40l1.93-1a19,19,0,0,0-1.93,2.89,19.11,19.11,0,0,1-1.92,2.89v1.92a1.89,1.89,0,0,0,1,1.93c.87.45,1,1.92,1,1.92a6.52,6.52,0,0,0-1.92,1c-.92.69-2.21.51-1.93,1s-1.38,1.65-1.92,1-1.93-2.89-1.93-2.89h-1Z"/></g></g></svg>