<svg xmlns="http://www.w3.org/2000/svg" viewBox="0 0 20.03 33.63"><defs><style>.cls-1{fill:#deffc6;stroke:#040000;stroke-linecap:round;stroke-linejoin:round;stroke-width:0.48px;fill-rule:evenodd;}</style></defs><g id="レイヤー_2" data-name="レイヤー 2"><g id="レイヤー_1-2" data-name="レイヤー 1"><path class="cls-1" d="M4.2,9.87s.07-.48.14-1.18A12.22,12.22,0,0,0,4.2,5.06a9.43,9.43,0,0,1-.15-3.53L4.2.24S4.91,2.69,6.5,3.5c2.06,1,1.93.55,3,.11a12.66,12.66,0,0,1,2.11-.68s2.19-.15,2.46.41a2.15,2.15,0,0,0,.45.76c.85.94,1.26,1,1.26,1l-.89,3.46s.14.15,1,.33a12.92,12.92,0,0,1,3.95,2.24l-.19,1.67a2,2,0,0,1-1.92,1c-1.32,0-2-.73-1.93,1s.64,2.35.65,3a9.33,9.33,0,0,0,1,2.41,1,1,0,0,1-.19,1.2c-.56.47-1.7.87-1.65,1.78s1.12,3.52,1.15,4.15c0,.84-2.06.13-2.68,1.24a5.19,5.19,0,0,1-3.1,2.61c-.67.11-1.78,2.34-1.78,2.34L4.2,33s-1.56-.33-1.92-1a12.14,12.14,0,0,1-1-3.85C1,26.08-.11,23.8.35,23.35c1-1,1.13-2,1.84-2.16,1.83-.47,3-.73,3-.73S3.1,17.39,3.24,16.61,3.62,15,3.62,15a5.74,5.74,0,0,0,.85-1.51A22,22,0,0,0,4.2,9.87Z"/></g></g></svg>