<svg id="3" xmlns="http://www.w3.org/2000/svg" viewBox="0 0 41.26 64.98">
  <path d="M27.54,57l-2.89-1-1,4.81s-2.14,3.14-2.3,3.17a12.63,12.63,0,0,1-3.19-.51c-.48-.17-3.17,1.19-3.17,1.19s-.54-.85-.7-1.25a40.59,40.59,0,0,0-1.76-3.66,6.92,6.92,0,0,0-1.4.1c-.85.11-3.37.32-3.85,0A21.06,21.06,0,0,1,5.4,58l-1-1-.68-.69-.28-3.16-1-1.92s.83-2.91.51-3.55l-.51-2.23L.58,42.6A6.22,6.22,0,0,1,.3,39.83c.15-.9.94-3.3.94-3.3s0-2.43.31-2.59A24.54,24.54,0,0,0,3.47,32l.74-2.53a4.36,4.36,0,0,1-.74-2.28c0-1.81.61-2.64,1-3.85.27-.93.79-1.45.79-2.1a17.39,17.39,0,0,0,.13-2.44,12.93,12.93,0,0,0-.07-3c-.11-.43,0-1.86.33-1.86S6,11.72,6,11.72a5.88,5.88,0,0,0,.34-1.85c0-.58,1-1,1-1l3.85-1S15.34,7.46,15,7s4.08-2.53,4.08-2.53l2.75-1,4-.8,2.6-.52L30.43.24s5.29,5,4.81,5.78.48,3.37,0,3.85-.48,4.33,0,3.85,0,1,0,1,1.93,2.89,2.89,4.82,1,7.86,1,9.62,1.13,3.05,1,3.85a5.75,5.75,0,0,0,1,2.89q0-.48-1,1c-.65,1-1.28,2.41-1,2.89s-.16,1.13-1,1.93a3.66,3.66,0,0,0-1,2.89,10.65,10.65,0,0,0,1,1.92c.16.32.32,1-1,1.93s-.8,2.24-1,2.89,1.13,1.92,0,1.92a2.42,2.42,0,0,0-1.92,1c-.32.32.16,2.25-1,1.93s-2.73-.17-2.89,1S28.5,59,28.5,59Z" />
</svg>