<svg id="30" xmlns="http://www.w3.org/2000/svg" viewBox="0 0 27.27 33.36">
  <path d="M6,21.56a15.18,15.18,0,0,1,2.89,1.92c.55.69-.38,3.36,0,3.86s2.65,1.34,2.88,1.92,1.42,2.17,1.93,1.93.41.88,1.92,1a23.07,23.07,0,0,1,3.86,1c.4,0,.7.06,1.92-1s2-.82,2.89-1.92,1.49-.74,1.92-1.93A25.44,25.44,0,0,0,27,24.48L26,22.4l-2.73-2,.07-2.24S17.79,18,16.81,17a2.43,2.43,0,0,1-.65-1.46l-.56-2.93-.75-2.74-.34-1.58A7.38,7.38,0,0,0,15.7,6.6c.63-1.12,3.81-1.41,3.81-1.41a16.2,16.2,0,0,0-.88-1.39C17,1.55,17.58.38,17.58.38L14.21.24a5.53,5.53,0,0,0-4.08,2A6.09,6.09,0,0,0,8,2.31a29.39,29.39,0,0,1-4.81,0L.25,4.23s.57,2,1,1.93.25.37,1,1S4.58,9.1,4.1,9s-1.92,1-1.92,1-.72,1.39,0,1.92a3.67,3.67,0,0,1,1,1.93,10.61,10.61,0,0,1-1.93,1c-.7.2-1-.29-1,1s2,2.52,1.93,2.89S4.22,20,4.1,20.6,6,21.56,6,21.56Z" />
</svg>