<svg id="31" xmlns="http://www.w3.org/2000/svg" viewBox="0 0 41.91 21.04">
  <path d="M5.08,6.21s5.15,1,5.78,0,1-1,1-1H17.6s.26.84,1.92,1,4.31.6,4.82,0-.6-1.78,1-1.93,2.67,1.16,3.85,1a10.64,10.64,0,0,0,3.85-1c1.19-.69,3.23-2.89,3.85-2.89A18.27,18.27,0,0,0,40.08.24a22.51,22.51,0,0,0-1.3,3.08c-.2.63-1.08,1.85,0,2.89S41.67,9.1,41.67,9.1a19,19,0,0,1-1,2.88c-.29.4-1.54,1.27-1.92,1.93s-2.2,1-3.85,1.92-3.66.72-3.85,0-.55-2.32-1.93-2.88A11.21,11.21,0,0,1,26.26,11s-1.52.75-1.92,1-1.44,1.63-1.93,1.93-2.9.43-2.89,0S19.13,11.59,17.6,12s-2.05-.11-2.89,1-1.45.57-2.89,1.92A10.23,10.23,0,0,1,8.94,16.8a15.43,15.43,0,0,1-1.11,1.53,13.55,13.55,0,0,1-1.9,1.47,1.28,1.28,0,0,1-.85.85c-1,.41-5.23-.15-4.81,0s-.06-.71,0-1.93.32-1.26,1.93-2.89S5.08,14.61,5.08,13s-.36-1.91,0-2.89A12.94,12.94,0,0,0,5.08,6.21Z" />
</svg>