<svg id="32" xmlns="http://www.w3.org/2000/svg" viewBox="0 0 49.64 45.36">
  <path d="M2.17,33.12S5.08,32,6.08,30.62a69.09,69.09,0,0,1,5.78-6.74c.89-.7,2.77-2.8,3.85-3.85A13.28,13.28,0,0,1,18.6,18.1l1.92-1s3.39-3.32,3.85-3.85a20.45,20.45,0,0,1,2.89-1.93,17.83,17.83,0,0,1,1.93-1c.4-.2-.59-3.47,0-3.85s2-1.64,1.92-1.93S35,2.7,35,2.7s1.63-2,2.89-1.93S41.18,2,41.7.77s7.7,0,7.7,0l-1,2.89a16.8,16.8,0,0,1,.08,3.56c-.4,2.18.61,3-.46,4.29a18.82,18.82,0,0,1-2.93,2.2,13.14,13.14,0,0,0-1.45,1.93s.27,2.15-.08,2.22c-1.34.26-4.74.09-5.75.24-1.56.24-2.64-.69-2.89,0A13.72,13.72,0,0,1,33,21c-.59.74-.75.07-1.77.89s-.93,1.2-.93,1.2,2.58,1.28,2.16,2.2a33,33,0,0,1-3.61,2.16,9.48,9.48,0,0,1-3.12,1.22c-1.83.35-4.7-.83-5.77-.56-.59.15-1.52-.13-2.37.59a16.61,16.61,0,0,0-2,1.74c-.25.36-.48.07-.85,1.15-.67,1.9,0,2.46-.61,3.29-.72,1-1.65,1.6-2.53,3-.75,1.16,0,3.2-.72,4.35-.59,1-1.12,2.7-1.92,2.89a35.7,35.7,0,0,1-5.44-.23s-1.84-.47-1.3-1.21a11,11,0,0,0,1-1.7,3.79,3.79,0,0,1-1-.71,6.09,6.09,0,0,1-1.42-2C.22,38,0,36.82.53,36.25A22.26,22.26,0,0,0,2.17,33.12Z" />
</svg>