<svg xmlns="http://www.w3.org/2000/svg" viewBox="0 0 34.41 32.25"><defs><style>.cls-1{fill:#deffc6;stroke:#040000;stroke-linecap:round;stroke-linejoin:round;stroke-width:0.48px;fill-rule:evenodd;}</style></defs><g id="レイヤー_2" data-name="レイヤー 2"><g id="レイヤー_1-2" data-name="レイヤー 1"><path class="cls-1" d="M6.78,30.58,4.6,26.13s-.36-.7-1.47-2.78c-1.32-2.49-.75-3.4-.85-4.29a8.4,8.4,0,0,0-1.07-2.45,11.25,11.25,0,0,1-1-2.89,21.51,21.51,0,0,0,0-3.85L4.1,6A9.59,9.59,0,0,0,6,5.05c1.51-1,4.11-3,4.48-3.27a7.31,7.31,0,0,1,2.26-.58c1.4-.24,2.06,2.08,2.06,2.08H17.3l2-1.91L21.43.24l1.85,1.39a9.2,9.2,0,0,1,2,1.25,7.53,7.53,0,0,1,1,2.17c.17.57.84.75,1.69.61A16.56,16.56,0,0,0,32,4.09l2.15-1.27c0,1.21-.23,3.2-.23,3.2A18.87,18.87,0,0,1,32,8.9a11.64,11.64,0,0,0-2.89,3.86s-.4.64,0,2.56a10.58,10.58,0,0,0,.95,3.21c.36.63-.16-.13.52,1.19S32,22.38,32,22.38s-2-1-2.89,0-2,2-2.89,2.89a27.17,27.17,0,0,1-2.89,1.93c-1.33.93-3.17,2.46-2.89,2.88s-.57,2-2.88,1.93-4.82,0-4.82,0l-1-1.93-1,1.93L8.7,31.54Z"/></g></g></svg>