<svg xmlns="http://www.w3.org/2000/svg" viewBox="0 0 44.57 32.57"><defs><style>.cls-1{fill:#deffc6;stroke:#040000;stroke-linecap:round;stroke-linejoin:round;stroke-width:0.48px;fill-rule:evenodd;}</style></defs><g id="レイヤー_2" data-name="レイヤー 2"><g id="レイヤー_1-2" data-name="レイヤー 1"><path class="cls-1" d="M4.77,31.07a38.88,38.88,0,0,0,3-2.61c.39-.51,2.89-2.89,2.89-2.89h1.93l1.92,1.93s-.6,3.76,0,3.85,2.07,1.11,2.89,1,4.14-1.87,3.85-1.92h-.09s.44-.07,1.05-1c.76-1.1,3.19-2.37,2.89-1.92s-.53-.45,1,0a6.73,6.73,0,0,0,3.86,0c.56-.28,1.45-1.56,1.92-1.93a7.09,7.09,0,0,0,1-1s2.43-.87,2.89-1a2.37,2.37,0,0,1,1.93,1c.73.78,1.1,1.33,1.92,1s2.22-1.65,2.89-1.92,1.93-2.29,1.93-2.29l-1.65-3.05A11.14,11.14,0,0,1,41.44,16c-.19-.62-.88-1.2-1-1.93-.2-1.8-.71-1-1-2.89a4.58,4.58,0,0,0,0-1.92C38.78,7.05,38.23,6.9,37.9,6a4.75,4.75,0,0,1-.31-2.58,24.4,24.4,0,0,0,0-2.89l-4.42,0L32,.33,25.67.57s-1-.72-1.56,0-1.22,2.52-1.93,2.89S18.94,4.9,19.3,5.36s3.49,2,1.92,2.88a38,38,0,0,1-3.85,1.93c-1,.4-2.85,1.34-3.85,1a19.47,19.47,0,0,0-2.76-.66l-3.44.18s-.78.71-1.4,1.2a7,7,0,0,0-2,2.17c-.53.89-.3,3.65-1,3.85S1.57,19.32,1,19.8.47,22.08.38,23a5.35,5.35,0,0,0-.1,1.76C.41,26.11,3,26.68,2.93,27.5a5.43,5.43,0,0,0,0,2.89A1.19,1.19,0,0,0,4.77,31.07Z"/></g></g></svg>