<svg id="35" xmlns="http://www.w3.org/2000/svg" viewBox="0 0 41.92 30.46">
  <path d="M2.78,16.74S.21,12.8.86,12.89a2.42,2.42,0,0,0,2.89-1C4.81,10.41,5.07,8.57,5.67,9A42.19,42.19,0,0,0,9.52,11s.34,2.29,1.93,1A15.25,15.25,0,0,1,14.34,10c1.07-.68,2.13-2.35,2.88-2.89a15.87,15.87,0,0,0,1.93-1.92s1.92-.21,1.93-1a3.13,3.13,0,0,1,1-2.89C23.29,0,26.11.76,25.89.37s1.05.12,1,1S24.73,3.8,24.93,5.19a8.62,8.62,0,0,0,1,2.88c.33.7,2.06,1,1.92,1.93s-1.42.88-1,1.93,3.85,1,3.85,1l3.09-.09L35.52,10a4.52,4.52,0,0,0,1,1c.53.37,1.86,1.47,1.92,1.93s-.36,2.64,0,2.89.4,1,1,1,.83-.57,1,.24a2.9,2.9,0,0,1-.06,2.65c-.58,1.59,1.22,1.81,1,2.88s1,2.51,0,2.89-1.58.45-1.92,1-1.58,1.32-1,1.92,2.51,2,1.93,1.93a27.38,27.38,0,0,1-3.85-1.93l-2.89-1s0,.07-1.93-1.93-4-2.32-4.81-2.89-1.57-.71-1.92,0-1.12.31-1.93,1-4.81,0-4.81,0,.57,1.72,0,1.92-2.89-1.92-2.89-1.92V25.4a1.81,1.81,0,0,1-1,1c-.76.33-2.75,1.12-3.85,0s-.74-1.27-1.93-1.93-1.38-1.91-1.93-1.93-.28.67-1,1-2.07.16-1.92,1,.58,1.59,0,1.93S2,24.92,1.82,24.44a7.18,7.18,0,0,0-1-2.89C0,20.3,0,20.05.86,19.63S2.59,16.65,2.78,16.74Z" />
</svg>