<svg id="36" xmlns="http://www.w3.org/2000/svg" viewBox="0 0 27 13.96">
  <path d="M.76,5.05s3.42-.4,3.85-1S7.49,2.72,8.47,1.2s1.14.05,2.88,0,3,1,3.85,0a2.75,2.75,0,0,1,1.93-1S20.62,2.72,21,3.13a9.06,9.06,0,0,0,2.89,1.92,27.41,27.41,0,0,1,2.89,1l-1,2.88A14.07,14.07,0,0,0,24,7.06c-.32-.27-3.59.73-4.66.81-1.7.11-2-.09-2.76,1.2a11,11,0,0,1-1.33,1.76l-2.52-.65-1-.6L7.86,10a7.15,7.15,0,0,1-1.75,1.45C5.27,12,3.26,13,3.26,13l-.57.75-1.93-1s-1.17-1.87,0-2.89S3.07,6.94,2.69,7,.76,5.05.76,5.05Z" />
</svg>