<svg id="37" xmlns="http://www.w3.org/2000/svg" viewBox="0 0 48.91 43.07">
  <path d="M.24,27.2l4.81-3.85,3.86-1s2.14-2.33,1.92-1.92,1.15-1.88,1.93-1.93a5.39,5.39,0,0,0,2.88-1c1-.73,2.95-.73,2.89-1.93s-.67-6.61,0-6.73,2.08.21,1.93-1,1-2.59,1-2.89,1.93-1,1.93-1L25.27.24s.12.15,1,1S30,5.45,30.08,6A2.89,2.89,0,0,0,33,7.94c1.79-.07,3.35-2.13,3.85-1.92s4,1.17,4.82,1,3.85-2.89,3.85-2.89l1.8.9a21.41,21.41,0,0,0,1.35,4.39c.32.92-2.61.49-2.61.49a15.55,15.55,0,0,0-5.41.67,26.68,26.68,0,0,1-6.86,1.26c-1.23,0-.94.63-1.75,1.92a20.31,20.31,0,0,0-2.29,5,5.49,5.49,0,0,1-1.26,2.44c-1,1.35-1.73,1.47-2.23,2.23a2,2,0,0,1-2.17,1,4.27,4.27,0,0,0-1.68,0A27.17,27.17,0,0,0,23.19,27a3.71,3.71,0,0,1,.16,3.11c-.59.89-1.85.4-2.23,1.19S20.63,31.86,20,33s-2.78,1.68-3.34,1.91-.78,2.72-.46,3.37c.43.88,2.24.07,2.36.57a20.13,20.13,0,0,1-.94,3.76,9,9,0,0,1-3.85,0c-1.46-.51-2.89-2.89-2.89-2.89a.87.87,0,0,1,0-1c.33-.5-1-2.89-1-2.89l1-1.92L12.76,32l-1-1.92s-1.57,2.36-1.92,1a26.24,26.24,0,0,0-1-2.89V26.23l1-1.92h-1s-1.17-.94-1.93,0S4.53,27.5,4.09,27.2s-2.89,1-2.89,1Z" />
</svg>