<svg id="38" xmlns="http://www.w3.org/2000/svg" viewBox="0 0 32.39 25.52">
  <path d="M29.26,3.13C28.9,4.22,26.5,5.9,27.33,7s1.37,1.13,1.93,1.93a8.7,8.7,0,0,1,1,2.88c.15.66.5,2.93,1,2.89s1,1,1,1-4,.65-4.82,1.93-.84,2.66-1.92,2.89-2.32,1.61-2.89,1.93-1.45,3.08-1.92,2.88a50.94,50.94,0,0,0-5.09-.22c0-.78,0-.76,0-2.54a12.81,12.81,0,0,1,.2-2.29,12.14,12.14,0,0,1-2.84-.72c-.56-.55-.81-3.49-1-3.57A4.21,4.21,0,0,0,10,15.64s-1.52,2.07-1.92,1.93a13.61,13.61,0,0,1-3.4-2.39,7.93,7.93,0,0,0-1.23-1.06l-1.84-.71L.24,8.93A16.8,16.8,0,0,1,3.27,7C5.11,6.05,5,5.16,6.15,5.06s3.44-.63,3.85,0,2.44.93,2.89,1,1.93-2.89,1.93-2.89a13.56,13.56,0,0,0,1.92,0c.71-.27,4.82-1,4.82-1l1.92,1.92,1-2.89,1-1,3.85,1.93S29.62,2,29.26,3.13Z" />
</svg>