<svg xmlns="http://www.w3.org/2000/svg" viewBox="0 0 52.58 41.25"><defs><style>.cls-1{fill:#deffc6;stroke:#040000;stroke-linecap:round;stroke-linejoin:round;stroke-width:0.48px;fill-rule:evenodd;}</style></defs><g id="レイヤー_2" data-name="レイヤー 2"><g id="レイヤー_1-2" data-name="レイヤー 1"><path class="cls-1" d="M3.13,38.75H.24l1.93-2.89V33a17,17,0,0,0,.62-1.65c.12-.41.34-2.2.34-2.2s-2.64.16-2.58-.77S.62,25,1.2,25.27s2.89-1,2.89-1,1-2.4,1.93-2.89a20,20,0,0,0,1.92-1c.63-.44.12-3.14,0-2.89s-1-2.89-1-2.89H9.87l1.92-1.92,1.93-1.93,1-2.89s1.55-3.12,1.93-3.85,1.1-2,1.92-1.92,5.42-.56,5.78-1,5.78-1,5.78-1H33s2.37.09,2.89,1,3.85,2.89,3.85,2.89l1.93-1.92h1.92s-.22,3.2,1,3.85,3.12.36,2.88,1a16.58,16.58,0,0,0-.25,3.16c-.07,1.09-.58,1.42,1.46,1.45,2.47,0,3.72.2,3.72.2s-1.48,2-2,2.89-1.46,3.1-1.92,3.85a6,6,0,0,0-1,2.89c.14.61-1,1-1,1s-.55.35-1.92-1.92-.47-2.32-1.93-3.85-2.48-1.41-2.89-1.93-1-2-2.89-1.92a8.13,8.13,0,0,1-3.85-1s-2.78,1.21-2.88,1-1.64.15-2.89,1-2.05,1.39-1.93,1.92-.58.49-1,1-3.85,1-3.85,1-.65,1.4-1,1.92c-.18.29-.29,0-.28,0a4.7,4.7,0,0,1,.28,1c.41,1.75,0,2.46-1,3.85s-2.39,2-2.89,2.89-.88-.42-1,1,.53,2.75-1,2.89S11.54,32,11.79,33s.3,1.44,0,1.93a4,4,0,0,1-1,1s-.66,1.4,0,1.93,3.83,2.68,2.89,2.88-5.21-.84-4.81-1c0,0-1.5.21-1.93,1s-2.89,0-2.89,0Z"/></g></g></svg>