<svg xmlns="http://www.w3.org/2000/svg" viewBox="0 0 38.99 63.12"><defs><style>.cls-1{fill:#deffc6;stroke:#040000;stroke-linecap:round;stroke-linejoin:round;stroke-width:0.48px;fill-rule:evenodd;}</style></defs><g id="レイヤー_2" data-name="レイヤー 2"><g id="レイヤー_1-2" data-name="レイヤー 1"><path class="cls-1" d="M2.17,20.46a4,4,0,0,0,2.88,0c1.28-.65,4-2.25,3.86-3.85s.48-2.57,1-3.85a31.45,31.45,0,0,0,1-3.86V7l-1-2.89,1-2.89,2.89,1,3.85,1L21,1.74l1.34-.54,2.89,2.89,2.89-1s3.2,1.44,2.89,1S32.81,2.81,33,2.17,34.9.24,34.9.24l1,2.89h2.89s-.51,1.2-.76,1.71C37.64,5.52,36.82,7,36.82,7L36,11.27l-.18,1.49c-.48.48-1,4.81-1,4.81v4.81s-.65,3.05-1,2.89-.79,1.93-1,2.89a11.1,11.1,0,0,0,.7,3.4,27.89,27.89,0,0,0-1.26,3c0,.31-1,1.48-1.36,1.32s.48,1.93,0,1.93-.32,2.72-1,2.88,0,3.86,0,3.86S32,46.93,32,47.41s.64,3.94.64,3.94L32,53.19l1,1.93L33.22,58l-3.7,2.44a2,2,0,0,1-.9,1.26c-1,.51-3.51,1.43-3.35,1.12s-2.89-1.45-2.89-1.93A28.68,28.68,0,0,0,20.46,57l-3.85-1-3.08-.25a6.17,6.17,0,0,1-2.7-1.68c-.29-.49-2.89-.24-2.89-.24l-1-.72-1-1V49.34c0-.65,1.44-4,1.92-3.85s2.25-1.61,1.93-1.93,1-4.81,1-4.81V33a11.88,11.88,0,0,0,1-2.89,11.93,11.93,0,0,0-1-2.88L8.91,24.31,7,23.35s-3.05-.32-2.89,0a7.16,7.16,0,0,1,0,1.92H1.2l-1-1V22.38Z"/></g></g></svg>