<svg id="40" xmlns="http://www.w3.org/2000/svg" viewBox="0 0 33.36 35.69">
  <path d="M.39,15.16a3,3,0,0,1,0-1.92C.71,12,4.24,10.35,4.24,10.35S6,13.93,7.13,13.24s1.47-2,1.92-2.89a2.51,2.51,0,0,0,0-1.93L11,5.53s-.36-.32,0-1-.35-1.2,1.92-1.92,3,.72,3.85,0A19.43,19.43,0,0,0,18.68.72c.52-.62,3.16-.65,3.85,0s2.51,1.82,2.89,1,.63-.42,1,0a29.46,29.46,0,0,1,1,3.85,9.76,9.76,0,0,0,1.93,2.89c.91,1.2.56,2.94,1.92,2.89a2.12,2.12,0,0,1,1.93,1,9.21,9.21,0,0,1-.27,2.15c-.19.52.34.88-1.76.77s-2.73-.34-3.37.1-1,2.05-2.3,2.76-2.14,1.32-2.23,2.12.57,1.21.3,1.73-1.1,1.3-1,2.12a3.48,3.48,0,0,0,1,1.73c.28.38.23,3.76,0,4.82-.08.38-3,0-3.85-1s-1.76-1.7-1.93-1-3,.37-3.85,1.93S10.62,34.79,11,35.38s-1-2.89-1-2.89-1.23-2.3-1-2.89-1-1-1-1l-1-1a14.46,14.46,0,0,1,1-1.93c.32-.4,1.15-2,1.92-1.92s.52,0,1.93-1,1.71-.66,1.92-1.92a4.84,4.84,0,0,0-1-2.89s-1.18-.71-1.92,0S9.05,20,9.05,20L7.13,18.05l-1-1s-2.06-1.41-1.92-1-1,1-1,1l-1.92,1s-1.29-.44-1-1S.39,15.16.39,15.16Z" />
</svg>