<svg id="41" xmlns="http://www.w3.org/2000/svg" viewBox="0 0 23.96 21.72">
  <path d="M.62,9c.62,0,1.76.48,1.92-1s-1.36-2.69-1-2.89-1.31-.54,0-1.93S4.4-.11,4.47.3s2.32.42,1.92,1,.68,2.31,1,2.89.18,1.71,1,1a2.87,2.87,0,0,1,1.78-.76,2.74,2.74,0,0,0,1.11.76c.64.21,2.37-1.23,2.37-1.23l.72-.75s2.36,1.08,2.68,2A3.82,3.82,0,0,0,18.91,7c.46.12,2.22-2.14,2.22-2.14S22.76,5.11,23.3,6a2.83,2.83,0,0,1,.42,2c0,.93-1.38,1.22-2.34,2.14s-2.11.72-2.8,1.74-1.12,1.81-1.12,1.81-.12.89-.72,1.12-.48-.09-1.17-.22a4.26,4.26,0,0,1-1.48-.82s.14,0-1,1-2-.33-1.92,1-.65,1.46,0,1.92,1.55.65,1.92,1.93a2.6,2.6,0,0,1,0,1.92,3.69,3.69,0,0,0-2.65-1c-1.5.14-1,.35-2.16-.88a9,9,0,0,1-1.93-2.89C6,15.91,5.2,14.59,5.2,14.59A13.05,13.05,0,0,1,3,14,8,8,0,0,1,.34,11.25S0,9,.62,9Z" />
</svg>