<svg xmlns="http://www.w3.org/2000/svg" viewBox="0 0 26.09 29.9"><defs><style>.cls-1{fill:#deffc6;stroke:#040000;stroke-linecap:round;stroke-linejoin:round;stroke-width:0.48px;fill-rule:evenodd;}</style></defs><g id="レイヤー_2" data-name="レイヤー 2"><g id="レイヤー_1-2" data-name="レイヤー 1"><path class="cls-1" d="M18.55,18.53c.6-.29,3.54.2,4.82,1s1.29,1.63,1.92,1.93.83,2,0,2.89-4.81,2.89-4.81,2.89-3.53.26-2.89-1,2.11-.8,1.93-1.92a16,16,0,0,0-1-2.89s-.51-1.31-1-1-.1,1.49-1.92,1.92-2.68.4-2.89,1-2.46,3.84-2.89,3.85S7.11,31,7,29.12s.94-2.67,1-3.85.89-2.5,0-3.85-2.14-2.05-2.88-2.89-3.39-2.74-2.89-2.89,1.92-2.88,1.92-2.88V10.83S5.55,12.39,6,12.76s-.21.19,1,1.92,2.31,2.4,1.93,2.89.84.34,1,1,1.36,1.48,1.93,1,2.73,0,1.92-1.92-2.31-2.24-1.92-2.89-1-1.92-1-1.92-.44-1.84-1.92-1.93A2.22,2.22,0,0,1,7,9.87a8.36,8.36,0,0,0-1.92-1,8.19,8.19,0,0,1-1.93-1s-.36.5-1,0S0,6.42.26,6a14.24,14.24,0,0,0,1-2.89,20.67,20.67,0,0,1,1-2.89l1.92,1L7,2.17S6.19,4,7,5.05A10.13,10.13,0,0,0,8.93,7l1.9.66a1.15,1.15,0,0,1,1,.3A13.4,13.4,0,0,1,13,10.74a11.57,11.57,0,0,0,2.63,3,8.52,8.52,0,0,1,1.92,0,17.06,17.06,0,0,1,1.93,1,.76.76,0,0,0,0,1C19.88,16.23,18,18.82,18.55,18.53Z"/></g></g></svg>