<svg xmlns="http://www.w3.org/2000/svg" viewBox="0 0 28.4 41.23"><defs><style>.cls-1{fill:#deffc6;stroke:#040000;stroke-linecap:round;stroke-linejoin:round;stroke-width:0.48px;fill-rule:evenodd;}</style></defs><g id="レイヤー_2" data-name="レイヤー 2"><g id="レイヤー_1-2" data-name="レイヤー 1"><path class="cls-1" d="M5.05,31.05a3.73,3.73,0,0,1-1,2.89c-1.15,1-2.61.79-2.89,1.92s-1,2.89-1,2.89c2.27.28,2.14.36,3.85,0a10.8,10.8,0,0,0,2.89-1c.89-.44,1.4.63,1.93,1,.28.18-.49.28,1.92,1,1.57.45,3.43,1.91,4.81,1s1.05-2.1,2.9-2.2a5.42,5.42,0,0,0,3.2-.84A13.12,13.12,0,0,0,23.36,35s-.41-2-.46-2.69A29.41,29.41,0,0,0,22.09,29a9.22,9.22,0,0,0-1.56-2.88c-.37-.54-1-1.82-1-1.82L21.9,22,24,19.87a7.47,7.47,0,0,0,1.59-2.51c.49-.88,1.64-2.68,1.64-2.68l1-1.92-1-1.93s-1.09-1.46-1-1.93a14,14,0,0,0,0-2.88c-.05-1.24-.4-1-1-1.93S24.22,1.23,23.35,1.2c-1.09,0-2.76.46-2.89,0s-1-1-1-1l1,4.81s1.78-.09.92.85a8.87,8.87,0,0,1-2.23,1.57c-.52.38-1,.92-1.33.65-1.68-1.42-1.72-3-2.18-3.07a14.35,14.35,0,0,1-2.53-.21,2.05,2.05,0,0,1-1.32-.75C11.17,3.5,11,2.5,10.28,2.84A10.6,10.6,0,0,1,8,3.83,3.34,3.34,0,0,0,5.87,5.3c-.34.83-.33.09-1.47,2.12C3.15,9.63,3.05,9.64,3.13,9.87a8.14,8.14,0,0,0,1.92,2.89c1,1.17,1,1.39,1.93,1.92s1.4.94,1,1.93-.21,2.23-1,2.88-4.81,2.89-4.81,2.89,3.73,1,4.81,0,3-2.53,2.89-1.92a3.93,3.93,0,0,1-1,1.92C8.24,23.09,7,23.52,7,24.31A11,11,0,0,1,6,27.2,39.53,39.53,0,0,0,5.05,31.05Z"/></g></g></svg>