<svg xmlns="http://www.w3.org/2000/svg" viewBox="0 0 36.18 34.32"><defs><style>.cls-1{fill:#deffc6;stroke:#040000;stroke-linecap:round;stroke-linejoin:round;stroke-width:0.48px;fill-rule:evenodd;}</style></defs><g id="レイヤー_2" data-name="レイヤー 2"><g id="レイヤー_1-2" data-name="レイヤー 1"><path class="cls-1" d="M16.66,5.08s3.79-1.15,3.85-1.93S21.73,0,22.44.26s2.69,1.38,2.88,1.93a26.35,26.35,0,0,1,1,2.89c.14.77-.33,2.26,0,2.89s1.5,2.22,0,2.88a16.49,16.49,0,0,1-2.89,1s-.19.94-1,1-2.72,2.46-1.93,2.89a19.73,19.73,0,0,0,2.89,1l2.89-1a9.7,9.7,0,0,0,1,1c.46.38,1.56.54,1.93,0s.09-2.58,1-1.92,1.89,1.54,1.92,1.92-1.87,1.73-1.92,2.89-.22,1.42,1,1.92,1.57-.78,1.93,1-.73,1.65,0,2.88,1.3,2.54,1.92,2.89.75.47,1,1S34.6,31.69,34,32a13.83,13.83,0,0,1-1.63.84,2.09,2.09,0,0,1-2.22-.47c-.42-.57-.75-1.43-1.21-1.23A26,26,0,0,0,26.29,33a39.58,39.58,0,0,0-4.82,1c-1,.34-1-.07-1.64-.94-.26-.35-1.22-2.34-1.24-2S16.66,33,16.66,33s-1.54-.4-1.92-1-.22.06-1-1.92c-.84-2.25-1.56-1.61-1.92-3.85s.56-2.89-1-4.82c-.84-1.06-1.1-2.73-1.54-2.84a24.56,24.56,0,0,0-3.27,0s-1.06-1.68-1-.29a26.5,26.5,0,0,0,1,4.14s1.58.19,1.08.56-3.34,3.07-4,2.32-1.92-2.88-1.92-2.88V17.59S0,16.52.29,15.67s1.06-2.51,1.06-2.51S.15,12,1.86,10.74c2.2-1.6.76-.29,2.36-1.8C5.2,8,5.71,6.75,6.3,6.88S9.92,7,9.92,7l.64-.3.32-2.59h3.86Z"/></g></g></svg>