<svg id="45" xmlns="http://www.w3.org/2000/svg" viewBox="0 0 36.96 52.6">
  <path d="M22.38,39.71s1.13,4.19,0,4.82-2.17,1.39-1.92,1.92a5,5,0,0,1,0,2.89c-.3,1.31.38,2.27-1,2.89S14.87,51,14.87,51a12.75,12.75,0,0,1-.19-2.64c0-1,0-4.82,0-4.82L10,41.41s.21-.22-.24-1a7.39,7.39,0,0,0-2.26-1.82l-2.49.21,1-2.89-3.45-4-.9-2.66-1.43-2,1.93,1,2.47.2L7,26.23c.74-.66,2.94.21,3.85-1s2.39-2.51,1.93-3.85-1.56-6.83-1.93-6.74-1.92-2.89-1.92-2.89a21,21,0,0,1,1.92-1.92c.55-.4,2.85-2.45,2.89-2.89a23,23,0,0,1,1.92-2.89c.54-.95,1-1.92,1-1.92l1-1.93S19,2.87,19.51,2.81s.82.6,1.35.16A18.93,18.93,0,0,0,22.38,1.2l1.9,3a42.17,42.17,0,0,1,5.8-1C31,3.24,32.79,1,33,1.2s1.3,1.93,1.93,1.93c1,0,2.08-.62,1.76-.23-.59.71-2.13,4-2.72,4.08S32.33,8.34,32,8.91s-1.52,3-1.93,2.88.59,1.6,0,1.93-2.81,3.45-2.88,4.81-.75,1.76-1,3.85-2.16,4.34-1.92,5.78-.7,1.59-1,2.89S22.38,39.71,22.38,39.71Z" />
</svg>