<svg xmlns="http://www.w3.org/2000/svg" viewBox="0 0 33.46 40.22"><defs><style>.cls-1{fill:#deffc6;stroke:#040000;stroke-linecap:round;stroke-linejoin:round;stroke-width:0.48px;fill-rule:evenodd;}</style></defs><g id="レイヤー_2" data-name="レイヤー 2"><g id="レイヤー_1-2" data-name="レイヤー 1"><path class="cls-1" d="M3.19,32.15c-.3-.22-.6-3.25-1-3.85A23.25,23.25,0,0,0,.3,26.37s-.41-1.31,1-1l3.85,1a4.06,4.06,0,0,1,0-2.89c.65-1.21,1.75-.8,1.93-1.92a15,15,0,0,0,0-2.89c0-.42-2-2.42-1.93-2.89s-1.19-1.56-1.92-1.92a9.36,9.36,0,0,1-1.93-1.93S3,10.73,3.19,10s.36-2.5,0-2.89-1-1-1-1V4.23l-1-1.93a3.18,3.18,0,0,0,1.93,0,10.55,10.55,0,0,1,2.89-1A16.64,16.64,0,0,0,8,1.34l2.41.24,3-.64S15.26-.13,15.7.38A8.43,8.43,0,0,0,18.59,2.3a20.62,20.62,0,0,1,1.28,1.77c.51.75,0,.79.65,2.09A7.94,7.94,0,0,0,22.44,9c.88.79,1.93,1.93,1.93,1.93l-1,2.89s2.57-.55,2.89,0,1.72,1.31,1.93,1.92c.4,1.17.72,1,1.44,1.33a6.92,6.92,0,0,0,1.5.69l1.87.87v3.85a16,16,0,0,0,.19,3.61c.14.4-2.48-.7-3.08-.72s-2,.48-1.92,1,0,1.93,0,1.93,1.78.59,1.92,1a20.35,20.35,0,0,1,0,3.85,3.74,3.74,0,0,1-1,0c-.91,0-.74-.23-1.92,1A20.74,20.74,0,0,1,24.37,37c-1.24.87-1.93,0-1.93,0l-1.92,1-1.93,1.92a4.26,4.26,0,0,1-1.92,0c-.42-.22,2.13-4.22,1.92-3.85l0,0a14.94,14.94,0,0,0,1-2c.11-.45,1-2.88,1-2.88V27.33a4.86,4.86,0,0,1-1-1.92,9.86,9.86,0,0,1,0-2.89H15.7V19.63h2.89a1.86,1.86,0,0,0,1,1c.66.21,1-1,1-1l1-1.92s-1.48.28-1.93-1a4,4,0,0,0-1.92-1.93l-1.93,1s-1.12,4.24-1,4.82-1,1.92-1,1.92-1.41-.39-1,1,.76,2.41,1,2.89-1.13.81,0,1.93.25,2.83,1,2.89,2,.58,1.93,1,.66,1.28,0,1.92-3.38,1.29-3.86,1-1-1.93-1-1.93-.22-2.35-1-1.92a29.62,29.62,0,0,1-4.81,1A11.57,11.57,0,0,1,3.19,32.15Z"/></g></g></svg>