<svg xmlns="http://www.w3.org/2000/svg" viewBox="0 0 20.76 26.47"><defs><style>.cls-1{fill:#deffc6;stroke:#040000;stroke-linecap:round;stroke-linejoin:round;stroke-width:0.48px;fill-rule:evenodd;}</style></defs><g id="レイヤー_2" data-name="レイヤー 2"><g id="レイヤー_1-2" data-name="レイヤー 1"><path class="cls-1" d="M3.13,14.68l3.85-1,1-1.93L9.87,9.87,6,7H8.91s2.35,2.37,2.88,1.92S14.68,7,14.68,7l1.93-3.85L18.53.24s1.59.9,1.93,1.93-.75,3.28-1,3.85,0,2.58-1,2.88-2.39,2.23-2.89,1.93-2.27.34-2.88,1L9.87,14.68a3.43,3.43,0,0,1-1.93,1c-1.45.35-.84.08-1,1s1,1.92,1,1.92-3.19.33-2.89,1-1,3.85-1,3.85l1.93,1L4.09,26.23H2.17L.24,24.31l1.93-2.89,1-1.92-1-2.89Z"/></g></g></svg>