<svg xmlns="http://www.w3.org/2000/svg" viewBox="0 0 41.03 46.55"><defs><style>.cls-1{fill:#deffc6;stroke:#040000;stroke-linecap:round;stroke-linejoin:round;stroke-width:0.48px;fill-rule:evenodd;}</style></defs><g id="レイヤー_2" data-name="レイヤー 2"><g id="レイヤー_1-2" data-name="レイヤー 1"><path class="cls-1" d="M9.75,13.53S7.4,15.11,8,17.43c.18.64,1.93,1.93,1.93,1.93l-.81,2.43s-.46.91-.78,1.08a3.44,3.44,0,0,0-1.6,2.44,48.82,48.82,0,0,0-.66,5.6c-.17.8.08,1.84-.73,2.65a9.74,9.74,0,0,1-2.61,1.91c-.72.36-2.2.15-2.44,1.22C.05,38,.5,39.58.34,39.58H4.87a8.8,8.8,0,0,1,1.6.87,3.34,3.34,0,0,0,2,.93c1.77.28,1.53-.32,2.81.12,1,.33.64-.44.94.9a11.91,11.91,0,0,0,.94,2.53l.69,1.38,3.52-3.1,2.25-.75V37.65c0-.48,1.28-6.42,1-6.74s1.44-4.5,1.92-4.81l2.89-1.93,2.89-1.92h2.89s.31-1.61,1.92,0S37.89,28,37.89,28s1.44-.8,1-1.92S36,21.76,36,21.28s.8-.64,1-1.92a27.29,27.29,0,0,0,0-3.85l-1-1s1.44-1.76,1-1.92,1.13-.48,1-1-1-1.93-1-1.93a30.27,30.27,0,0,0,1.93-2.89c-.17,0,1.92-1.76,1.92-1.92a7.52,7.52,0,0,1,0-1.93c.17-.64-.82-1.65-.82-1.65L38,.45,36.87.36,36.34,3A2.45,2.45,0,0,1,36,4.92c-.65,1-1.66,2.64-1.93,2.88a2.28,2.28,0,0,1-1.92,0,5.1,5.1,0,0,0-2.89,0l-1.92,1L25.72,5.93l-.87-2.08L19.59,4S18.49,2.24,18,2.41,16.4.08,15.76.25a3.38,3.38,0,0,0-1.35,1A21.51,21.51,0,0,0,11.89,3c-.5.81-3.12,2.29-3.6,2s.71.92.71.92,2.09,3.37,1.93,3.85a7.52,7.52,0,0,0,0,1.93Z"/></g></g></svg>