<svg xmlns="http://www.w3.org/2000/svg" viewBox="0 0 32.55 54.57"><defs><style>.cls-1{fill:#deffc6;stroke:#040000;stroke-linecap:round;stroke-linejoin:round;stroke-width:0.48px;fill-rule:evenodd;}</style></defs><g id="レイヤー_2" data-name="レイヤー 2"><g id="レイヤー_1-2" data-name="レイヤー 1"><path class="cls-1" d="M.54,23.35c-.16-.48-1-3.69,1-4.82s3.68-.8,3.85-1.92,2.24-2.89,1.92-3.85,1-3.21,1-3.85a21.55,21.55,0,0,1,1-3.86c.16-.31,1-4.81,1-4.81S11,1.68,12.1,1.93a10.44,10.44,0,0,0,2.43,0L17,3.76l4.52.51,3.13.78,1.93,3.86,2.89,1.92,1.92,2.89,1,1.92s-.24,3.36-.72,3.53a5.79,5.79,0,0,0-2.16,2.25,6.35,6.35,0,0,0,0,1.93c0-.32,1.92,1.92,1.92,1.92l-1,2.89-1.93,1.92s-1.12,4.17-1,3.86a17.19,17.19,0,0,1,0,2.88v1.93l-2.44,2.18-1.92,1c.19-.09-1.42.07-1.42.71v8.66s-1.92,1.61-1.92,1.93-2.73,1.61-2.89,1-4.81-2.89-4.81-2.89H6.32S3.6,49.82,3.43,49.34s-1-4.81-1-4.81l1-3.86,1.3-2.16a16.1,16.1,0,0,1,1.75-1.37,19.34,19.34,0,0,0,2.79-1.93s1.07-1.92.9-2.24-1-2.89-1-2.89H6.32s-.56-2.57-1-2.88a16.16,16.16,0,0,1-1.59-1.51L2.42,24.53S.71,23.83.54,23.35Z"/></g></g></svg>