<svg xmlns="http://www.w3.org/2000/svg" viewBox="0 0 56.42 43.8"><defs><style>.cls-1{fill:#deffc6;stroke:#040000;stroke-linecap:round;stroke-linejoin:round;stroke-width:0.48px;fill-rule:evenodd;}</style></defs><g id="レイヤー_2" data-name="レイヤー 2"><g id="レイヤー_1-2" data-name="レイヤー 1"><path class="cls-1" d="M2.17,19.49s2.39-.7,3.37-.88C6.21,18.49,10.3,17,10,17.14s2.29-1,2.29-1a5.77,5.77,0,0,1,.06-4.32c.32-.6,1.39-2.91,1.39-2.91a19.54,19.54,0,0,0,1.2-1.63C15.33,6.54,16.6,5.58,16.6,6s3.86,0,3.86,0h2.88S27,7.7,27.19,7.94c1,1.14,1.75,1.14,2.53.82a11.58,11.58,0,0,0,2.67-2.24L33,5.84V.24h4.81l2.89,1.92h3.85l1,2.89,1,1.93,1.63-1.43,2.28-1.8,1.86-.62a54.18,54.18,0,0,1,2.89,4.81c.17.65,0,5.46,0,5.78s1.45,7.54,1,9.63-.49,6.25-1,6.73.48,4.34,0,4.82-3,5-3.85,4.81S48.54,42,48.37,41.64a22.6,22.6,0,0,0-2.88-1.93H42.6L39.71,42.6l-1.93,1a19.18,19.18,0,0,1-1.92-1.92c-.8-1-2.89-3.85-2.89-3.85a20.62,20.62,0,0,1-1.92-1.93c-.65-.8-3.06-4-2.89-3.85h0s-1.82-2.09-2.9-1.94-4.65.65-4.82,1a4.38,4.38,0,0,1-2.88,2.88,16.05,16.05,0,0,0-5.78,2.89c-.48.65-3.85,1.93-3.85,1.93a10.49,10.49,0,0,1-2.55.49,18.11,18.11,0,0,1-3.22-2.42L1.2,33l.12-3.61L.24,26.23l1.93-1.92.18-1.61Z"/></g></g></svg>