<svg id="8" xmlns="http://www.w3.org/2000/svg" viewBox="0 0 35.85 46.12">
  <path d="M26.26,20.46s-.17,7.22,0,7.7.48,3.37,1,3.85a10,10,0,0,1,1,2.89s1.61,3.85,1.93,3.85S32.2,43.08,33,43.56a23.57,23.57,0,0,1,2.61,2.32L31.07,42.6l-4.51-3.55-2.23-1.27a11.58,11.58,0,0,0-3.52,2.62c-.69.87-5.31.59-6.11.27S7.8,39.07,8,38.75,6.67,37.18,6,35.86A16.7,16.7,0,0,0,3.15,33S0,32.65.26,32a3.7,3.7,0,0,0,0-1.93V28.16c0-.48,5.26-2.68,5.26-2.68s1.92-1.69,1.54-1.41a7.91,7.91,0,0,0,2.3-1.44c.31-.48,3.47-1.19,3.47-1.19l2.84-1,.53-2V15.76a20.56,20.56,0,0,1-.53-4c0-1.76-.49-3.69,0-3.85a4.49,4.49,0,0,0,1.92-2.89c.12-.71,0-4.81,0-4.81s3,4.16,3.42,4.44A6,6,0,0,1,22.4,6,6.65,6.65,0,0,0,25,4.38c1.22-1.31,2.22-2.22,2.7-2.22s2.24-.31,2.41,0A22.64,22.64,0,0,0,33,4.09s0,3.69-1,4.81a24.24,24.24,0,0,0-2.89,4.82c-.16.64-.48,4-1,3.85S26.26,20.46,26.26,20.46Z" />
</svg>