<svg xmlns="http://www.w3.org/2000/svg" viewBox="0 0 28.1 36.15"><defs><style>.cls-1{fill:#deffc6;stroke:#040000;stroke-linecap:round;stroke-linejoin:round;stroke-width:0.48px;fill-rule:evenodd;}</style></defs><g id="レイヤー_2" data-name="レイヤー 2"><g id="レイヤー_1-2" data-name="レイヤー 1"><path class="cls-1" d="M2.83,31.05s-1.44-1.76-1-2.89.64-4.65,1-4.81,0-1.93,0-1.93L.24,18.21V16.32l.67-1.64V9.37L4.76,7.94S8.93,5.22,9.57,5.05s3.31-1,3.63-1.22a14.82,14.82,0,0,0,1.49-1.35l.66-1.28,4.81-1,1.33.5,6.37,7.2a5.12,5.12,0,0,0-.12,2.3c.18,2.34,0,3.48-.84,4.44-.23.27-1,1-1,1v4.82a37.38,37.38,0,0,1,.69,4.67,28,28,0,0,1-.69,3s-3.06.85-3.85,1a14.63,14.63,0,0,0-3.86,1.93c-.48.3-2.44,2.13-3.05,2.41-.29.12,0,0-.79.48s-3.82,1.47-3.86,1.92-.83-.81-1.64-1.37A8.46,8.46,0,0,0,4.76,33C4.44,33,2.83,31.05,2.83,31.05Z"/></g></g></svg>