<svg xmlns="http://www.w3.org/2000/svg" viewBox="0 0 274.22 265.92"><defs><style>.cls-1{fill:#22ac38;stroke:#898989;stroke-linecap:round;stroke-linejoin:round;stroke-width:0.48px;fill-rule:evenodd;}</style></defs><g id="レイヤー_2" data-name="レイヤー 2"><g id="レイヤー_1-2" data-name="レイヤー 1"><path class="cls-1" d="M12,243.05s3.73-6.45,4.39-9.05,2.09-5.85,0-7.54-2.71-1.19-5.86-4.52-3.32-2.4-4.39-4.53a4.91,4.91,0,0,0-4.39-3c-1.74-.06-1.46-6-1.46-6a7.86,7.86,0,0,0,2.92-4.53c.49-2.79,0-18.1,0-18.1a15.76,15.76,0,0,1,4.39-1.51,39.45,39.45,0,0,1,5.86,0l2.93-4.52s3.06-4.6,4.39-3a3.87,3.87,0,0,0,2.93,1.51l4.39-9s4.17-1.87,4.39-3a30,30,0,0,0,0-4.53s-4.39-4.05-4.39-6-2.93-9.05-2.93-9.05,2-3.62,2.93-3,5.85,0,5.85,0l5.86,6a11.85,11.85,0,0,0,4.39,4.52c2.78,1.44,10.25-1.51,10.25-1.51s4.43-.39,5.85,1.51,6.78,1.89,7.32,0,6.26-9.74,7.32-10.56,1.46-9,1.46-9-3.15-5.76-2.92-7.54-2.93-9.05-2.93-9.05a59.86,59.86,0,0,1,4.39-6c1-.93,8.78-4.52,8.78-4.52s3.46-7.92,2.93-9-2.87-17-1.46-18.1,3.7-4.84,4.39-6S91,62.07,91,62.07V48.5s-5.12-13.19-7.32-18.1-2.74-6.56-2.93-9,4.4-9,4.4-9l1.46-7.54,2.93,1.5H95.4l2.93-6s3.06,6,4.39,7.54,6.56,5.43,8.78,7.54,10.31,16.86,13.18,21.12,5.78,9.92,7.32,12.06,13.62,17,16.1,18.1,11.71,10.56,11.71,10.56,11,3.93,11.71,6,6,3.15,5.85,4.52,1.47,4.53,1.47,4.53l7.31,1.51s1.85,1.34,2.93,0,4.39-3,4.39-3l4.39,3-1.46,4.52s4,4.78,4.39,3,2.93-7.54,2.93-7.54,3.92,6.47,4.39,7.54,8.51,5.12,10.25,4.52a87.23,87.23,0,0,1,8.78-1.51l10.25-10.55s7.52-3.44,7.32-4.53,8.78-9,8.78-9,2.24,1.4,1.46,3-5.85,12.06-5.85,12.06l-2.93,9-5.86,9,1.47,4.53,4.39,6,2.93,3,4.39,3-5.86,1.51,1.47,6,1.46,4.53,2.93,4.52,2.92,1.51,8.79-7.54h7.32l1.46,3-8.78,3-2.93,7.54s-6.41,1.12-10.25,1.51a40.37,40.37,0,0,0-7.31,1.51l-2.93,4.52s-7.4,3.77-8.79,4.53-4.39-3-4.39-3-4.26-.59-2.92,3,1.88,2.43,0,3-11.26,2.27-14.64,0a12.33,12.33,0,0,1-4.39-4.52s-8.63,1.87-10.25,3S186,176.23,183.23,178.2s-19.84,22.56-20.5,24.13-1.46,12.07-1.46,12.07V225l-4.39,3v4.53S143.62,220,143.66,219.07s-14.46-3.81-19.35-8-10.42-6.94-12.81-8.69-10.24-4.52-10.24-4.52l-5.86-6s-10.43-3-11.71-3-7.7,3.39-10.24,4.52-9.2,3.83-10.25,6-5.86,6-5.86,6l-1.46,3a27.21,27.21,0,0,0-4.39-6c-2.7-2.7-3.32-4.61-4.39-6s-2.93-4.52-2.93-4.52-6.37-1.21-7.32,0-4.39-1.51-4.39-1.51l-7.32,9s-2.63,6.39-1.46,9.05,3,3.72,4.39,6,4.8,3.89,5.85,4.52,4.67,1.92,5.86,1.51,7.32,3,7.32,3a69.4,69.4,0,0,1,4.39,6A18.66,18.66,0,0,0,55.88,234l5.85,3s2.82,6.92,0,7.54-6.92,4.47-8.78,3-8.78-6-8.78-6l-2.93-3-4.39,4.52s-6.32,6.16-7.32,6,2.08,6.18,1.47,7.54-10.25,6-10.25,6l-2.93,3-5.85-3s-3.09-4.54-2.93-6-1.07-7,0-7.54S12,243.05,12,243.05Z"/></g></g></svg>